<svg width="160" height="206" viewBox="0 0 160 206" fill="none" xmlns="http://www.w3.org/2000/svg">
<path d="M152.389 48.3606C152.389 40.8249 150.658 34.1038 147.195 28.1974C143.733 22.0874 139.049 17.0975 133.142 13.2278C127.44 9.1544 120.82 6.09937 113.285 4.06269C105.749 1.82233 97.9075 0.702148 89.7607 0.702148H0.859375V5.5902H27.1326V201.112H0.859375V206H92.2047C113.386 206 129.782 201.112 141.391 191.336C153.204 181.56 159.11 168.016 159.11 150.704C159.11 141.743 157.277 133.901 153.611 127.18C150.149 120.459 145.77 114.756 140.474 110.072C135.179 105.388 129.273 101.824 122.755 99.3796C116.442 96.7319 110.535 95.1026 105.036 94.4916C111.757 93.2695 117.969 91.5384 123.672 89.298C129.578 86.854 134.568 83.7989 138.641 80.1329C142.918 76.2632 146.279 71.7825 148.723 66.6908C151.167 61.3954 152.389 55.2853 152.389 48.3606ZM56.7664 92.6585V5.5902H89.7607C94.8524 5.5902 99.435 6.30304 103.509 7.72871C107.582 8.95073 111.044 11.1911 113.896 14.4498C116.747 17.5048 118.987 21.68 120.617 26.9754C122.246 32.0671 123.061 38.3808 123.061 45.9166V50.8046C123.061 58.9514 122.246 65.7743 120.617 71.2733C118.987 76.5687 116.747 80.8458 113.896 84.1044C111.044 87.1595 107.48 89.3998 103.203 90.8255C99.1295 92.0475 94.6488 92.6585 89.7607 92.6585H56.7664ZM56.7664 201.112V97.5466H89.7607C103.814 97.5466 113.794 101.824 119.7 110.378C125.81 118.932 128.865 131.152 128.865 147.038V154.37C128.865 169.238 126.014 180.745 120.311 188.892C114.608 197.039 104.425 201.112 89.7607 201.112H56.7664Z" fill="black"/>
</svg>
