<svg width="1104" height="237" viewBox="0 0 1104 237" fill="none" xmlns="http://www.w3.org/2000/svg">
<path d="M23.1044 57.9759V17.0159H28.6084C30.5711 17.0159 32.2777 18.0186 33.7284 20.0239C35.2217 22.0292 36.2031 24.7599 36.6724 28.2159H38.0164L37.0564 17.0799C37.0137 16.3546 36.5871 15.9919 35.7764 15.9919H4.22438C3.4137 15.9919 2.98705 16.3546 2.94438 17.0799L1.98438 28.2159H3.32838C3.79771 24.7599 4.7577 22.0292 6.20837 20.0239C7.7017 18.0186 9.42971 17.0159 11.3924 17.0159H16.8964V57.9759H11.3924V58.9999H28.6084V57.9759H23.1044ZM51.5294 38.3919V15.9919H41.5454V17.0159H46.0254V57.9759H41.5454V58.9999H56.0094V57.9759H51.5294V41.9759C51.5294 41.2932 51.7001 40.5466 52.0414 39.7359C52.4254 38.8826 52.9587 38.0932 53.6414 37.3679C54.3241 36.5999 55.1134 35.9599 56.0094 35.4479C56.9054 34.9359 57.9081 34.6799 59.0174 34.6799C59.9134 34.6799 60.6174 34.8292 61.1294 35.1279C61.6414 35.4266 62.0254 35.8106 62.2814 36.2799C62.5374 36.7492 62.6867 37.2826 62.7294 37.8799C62.8147 38.4346 62.8574 39.0106 62.8574 39.6079V57.9759H58.4414V58.9999H72.8414V57.9759H68.3614V38.9039C68.3614 36.9839 67.7001 35.5332 66.3774 34.5519C65.0974 33.5279 63.3054 33.0159 61.0014 33.0159C58.4841 33.0159 56.4574 33.5492 54.9214 34.6159C53.4281 35.6826 52.2974 36.9412 51.5294 38.3919ZM97.3399 43.4479C97.2972 42.7652 97.0626 41.8266 96.6359 40.6319C96.2519 39.4372 95.6332 38.2852 94.7799 37.1759C93.9266 36.0666 92.7959 35.1066 91.3879 34.2959C89.9799 33.4426 88.2519 33.0159 86.2039 33.0159C84.4972 33.0159 82.8972 33.4212 81.4039 34.2319C79.9532 35.0426 78.6946 36.0879 77.6279 37.3679C76.5612 38.6479 75.7292 40.0986 75.1319 41.7199C74.5346 43.3412 74.2359 44.9839 74.2359 46.6479C74.2359 48.3119 74.5346 49.9332 75.1319 51.5119C75.7292 53.0906 76.5612 54.4986 77.6279 55.7359C78.6946 56.9732 79.9746 57.9759 81.4679 58.7439C83.0039 59.5119 84.6679 59.8959 86.4599 59.8959C87.9106 59.8959 89.2332 59.6826 90.4279 59.2559C91.6226 58.8719 92.6679 58.3386 93.5639 57.6559C94.5026 56.9306 95.2919 56.0986 95.9319 55.1599C96.5719 54.2212 97.0839 53.2399 97.4679 52.2159C97.5959 51.9172 97.6599 51.6186 97.6599 51.3199C97.6599 51.0212 97.5319 50.8719 97.2759 50.8719C97.0626 50.8719 96.8706 51.0852 96.6999 51.5119C96.3159 52.4079 95.8252 53.3039 95.2279 54.1999C94.6732 55.0959 93.9692 55.8852 93.1159 56.5679C92.3052 57.2506 91.3666 57.8052 90.2999 58.2319C89.2332 58.6586 87.9959 58.8719 86.5879 58.8719C84.8812 58.8719 83.4946 58.2319 82.4279 56.9519C81.4039 55.6719 80.8919 53.6239 80.8919 50.8079V44.2799H96.3159C96.9986 44.2799 97.3399 44.0026 97.3399 43.4479ZM80.8919 43.2559V40.6959C80.8919 39.2879 81.0412 38.1572 81.3399 37.3039C81.6812 36.4079 82.1079 35.7252 82.6199 35.2559C83.1319 34.7866 83.7079 34.4666 84.3479 34.2959C84.9879 34.1252 85.6279 34.0399 86.2679 34.0399C87.2919 34.0399 88.1239 34.2319 88.7639 34.6159C89.4466 34.9572 89.9799 35.4266 90.3639 36.0239C90.7479 36.6212 91.0039 37.2826 91.1319 38.0079C91.2599 38.7332 91.3239 39.4799 91.3239 40.2479C91.3239 42.2532 91.0039 43.2559 90.3639 43.2559H80.8919Z" fill="black"/>
<path d="M271 193.5C266.858 193.5 263.5 190.142 263.5 186C263.5 181.858 266.858 178.5 271 178.5C275.142 178.5 278.5 181.858 278.5 186C278.5 190.142 275.142 193.5 271 193.5Z" stroke="black"/>
<path d="M536.6 189.399C531.133 183.932 531.133 175.068 536.6 169.601C542.068 164.133 550.932 164.133 556.399 169.601C561.867 175.068 561.867 183.932 556.399 189.399C550.932 194.867 542.068 194.867 536.6 189.399Z" stroke="black"/>
<path d="M536.247 169.247L556.753 189.753" stroke="black"/>
<path d="M556.753 169.247L536.247 189.753" stroke="black"/>
<path d="M377 195.5C360.155 195.5 346.5 181.845 346.5 165C346.5 148.155 360.155 134.5 377 134.5C393.845 134.5 407.5 148.155 407.5 165C407.5 181.845 393.845 195.5 377 195.5Z" stroke="black"/>
<path d="M480.5 123.5L584.5 70.5" stroke="black"/>
<path d="M1015 159.5H1091" stroke="black"/>
<path d="M1091 159.5L1015 136" stroke="black"/>
<path d="M1091 183L1015 159.5" stroke="black"/>
<path d="M920.5 104.5C928.232 104.5 934.5 98.232 934.5 90.5C934.5 82.768 928.232 76.5 920.5 76.5C912.768 76.5 906.5 82.768 906.5 90.5C906.5 98.232 912.768 104.5 920.5 104.5Z" stroke="black"/>
<path d="M920 211V65" stroke="black"/>
<path d="M675 208V110" stroke="black"/>
<path d="M306.5 142L346.5 92.5" stroke="black"/>
<path d="M136 147L190 74.5" stroke="black"/>
<path d="M634 181.5C644.77 181.5 653.5 172.77 653.5 162C653.5 151.23 644.77 142.5 634 142.5C623.23 142.5 614.5 151.23 614.5 162C614.5 172.77 623.23 181.5 634 181.5Z" stroke="#F8169D" stroke-width="3"/>
<path d="M799.5 167.5C813.307 167.5 824.5 156.307 824.5 142.5C824.5 128.693 813.307 117.5 799.5 117.5C785.693 117.5 774.5 128.693 774.5 142.5C774.5 156.307 785.693 167.5 799.5 167.5Z" stroke="#F8169D" stroke-width="3"/>
<path d="M122.5 93.5C133.546 93.5 142.5 84.5457 142.5 73.5C142.5 62.4543 133.546 53.5 122.5 53.5C111.454 53.5 102.5 62.4543 102.5 73.5C102.5 84.5457 111.454 93.5 122.5 93.5Z" stroke="#F8169D" stroke-width="3"/>
<path d="M986 112V217" stroke="#F8169D" stroke-width="3"/>
<path d="M515 159H422" stroke="#F8169D" stroke-width="3"/>
<path d="M190 192.5V74" stroke="black"/>
<path d="M312 192.5V92" stroke="black"/>
<path d="M1015 136H1090.5" stroke="black"/>
<path d="M1015 182H1090.5" stroke="black"/>
<path d="M102.78 157.46C102.18 157.46 101.58 158.12 100.98 159.44C98.8198 164.36 96.4798 168.98 93.9598 173.3C91.4398 177.5 88.5598 181.16 85.3198 184.28C82.0798 187.4 78.4798 189.86 74.5198 191.66C70.5598 193.34 66.1798 194.18 61.3798 194.18C50.4598 194.18 42.3598 189.92 37.0798 181.4C31.7998 172.88 29.1598 160.4 29.1598 143.96V123.8C29.1598 107.96 31.8598 95.7801 37.2598 87.2601C42.6598 78.6201 50.9998 74.3001 62.2798 74.3001C66.9598 74.3001 71.2198 75.0801 75.0598 76.6401C78.8998 78.0801 82.3798 80.1201 85.4998 82.7601C88.6198 85.4001 91.3198 88.5801 93.5998 92.3001C95.8798 96.0201 97.7398 100.04 99.1798 104.36C99.5398 105.56 99.9598 106.16 100.44 106.16C101.04 106.16 101.34 105.44 101.34 104V74.6601C101.34 73.5801 101.22 72.8601 100.98 72.5001C100.74 72.1401 100.38 71.9601 99.8998 71.9601C99.2998 71.9601 98.5198 72.4401 97.5598 73.4001L90.5398 80.6001C86.6998 77.4801 82.3798 75.1401 77.5798 73.5801C72.7798 71.9001 67.6798 71.0601 62.2798 71.0601C54.3598 71.0601 46.9798 72.8601 40.1398 76.4601C33.4198 80.0601 27.5398 84.8001 22.4998 90.6801C17.5798 96.5601 13.7398 103.28 10.9798 110.84C8.21984 118.28 6.83984 125.84 6.83984 133.52C6.83984 142.4 8.39984 150.74 11.5198 158.54C14.7598 166.22 18.9598 172.94 24.1198 178.7C29.2798 184.46 35.0998 189.02 41.5798 192.38C48.0598 195.74 54.6598 197.42 61.3798 197.42C67.0198 197.42 72.4198 196.28 77.5798 194C82.7398 191.84 87.3598 188.48 91.4398 183.92L100.98 194.36C101.58 194.96 102.12 195.26 102.6 195.26C103.32 195.26 103.68 194.84 103.68 194V159.26C103.68 158.06 103.38 157.46 102.78 157.46ZM143.871 136.04V73.0401H115.791V75.9201H128.391V191.12H115.791V194H156.471V191.12H143.871V146.12C143.871 144.2 144.351 142.1 145.311 139.82C146.391 137.42 147.891 135.2 149.811 133.16C151.731 131 153.951 129.2 156.471 127.76C158.991 126.32 161.811 125.6 164.931 125.6C167.451 125.6 169.431 126.02 170.871 126.86C172.311 127.7 173.391 128.78 174.111 130.1C174.831 131.42 175.251 132.92 175.371 134.6C175.611 136.16 175.731 137.78 175.731 139.46V191.12H163.311V194H203.811V191.12H191.211V137.48C191.211 132.08 189.351 128 185.631 125.24C182.031 122.36 176.991 120.92 170.511 120.92C163.431 120.92 157.731 122.42 153.411 125.42C149.211 128.42 146.031 131.96 143.871 136.04ZM222.848 125.24C219.008 127.76 217.088 130.76 217.088 134.24C217.088 135.92 217.628 137.48 218.708 138.92C219.908 140.24 221.528 140.9 223.568 140.9C225.608 140.9 227.228 140.3 228.428 139.1C229.748 137.9 230.408 136.4 230.408 134.6C230.408 133.76 230.228 132.92 229.868 132.08C229.628 131.12 229.088 130.22 228.248 129.38C227.648 128.78 227.168 128.36 226.808 128.12C226.448 127.88 226.268 127.58 226.268 127.22C226.268 126.74 226.628 126.26 227.348 125.78C228.068 125.3 228.968 124.88 230.048 124.52C231.128 124.16 232.328 123.86 233.648 123.62C235.088 123.38 236.468 123.26 237.788 123.26C241.508 123.26 244.448 123.98 246.608 125.42C248.768 126.86 249.848 129.62 249.848 133.7V154.94C244.328 154.94 239.168 155.54 234.368 156.74C229.568 157.82 225.368 159.44 221.768 161.6C218.168 163.76 215.348 166.46 213.308 169.7C211.268 172.82 210.248 176.36 210.248 180.32C210.248 183.2 210.728 185.72 211.688 187.88C212.768 189.92 214.208 191.6 216.008 192.92C217.808 194.12 219.848 195.02 222.128 195.62C224.528 196.22 227.048 196.52 229.688 196.52C232.448 196.52 234.908 196.16 237.068 195.44C239.348 194.84 241.328 194.06 243.008 193.1C244.808 192.02 246.308 190.94 247.508 189.86C248.708 188.66 249.668 187.52 250.388 186.44C250.748 188.96 251.888 191.3 253.808 193.46C255.728 195.5 259.088 196.52 263.888 196.52C267.008 196.52 269.588 196.04 271.628 195.08C273.788 194.12 275.528 192.98 276.848 191.66C278.168 190.34 279.068 189.02 279.548 187.7C280.148 186.26 280.448 185.18 280.448 184.46C280.448 183.86 280.268 183.56 279.908 183.56C279.548 183.56 279.128 184.04 278.648 185C277.688 187.04 276.488 188.72 275.048 190.04C273.608 191.24 272.048 191.84 270.368 191.84C267.968 191.84 266.528 190.88 266.048 188.96C265.568 186.92 265.328 184.16 265.328 180.68V137.12C265.328 131.96 263.408 128 259.568 125.24C255.728 122.36 249.848 120.92 241.928 120.92C238.208 120.92 234.608 121.34 231.128 122.18C227.768 122.9 225.008 123.92 222.848 125.24ZM249.848 156.74V181.76C249.848 182.84 249.308 183.98 248.228 185.18C247.268 186.38 246.008 187.52 244.448 188.6C243.008 189.56 241.448 190.34 239.768 190.94C238.208 191.54 236.888 191.84 235.808 191.84C232.088 191.84 229.268 190.4 227.348 187.52C225.428 184.64 224.468 180.74 224.468 175.82C224.468 171.86 225.188 168.68 226.628 166.28C228.068 163.88 229.928 162.02 232.208 160.7C234.608 159.38 237.308 158.48 240.308 158C243.428 157.4 246.608 156.98 249.848 156.74ZM312.235 133.88V123.44H284.155V126.32H296.755V191.12H284.155V194H324.835V191.12H312.235V141.8C312.235 139.88 312.775 137.9 313.855 135.86C315.055 133.82 316.555 131.96 318.355 130.28C320.275 128.6 322.375 127.28 324.655 126.32C326.935 125.24 329.155 124.7 331.315 124.7C332.635 124.7 333.775 124.82 334.735 125.06C335.815 125.18 336.355 125.6 336.355 126.32C336.355 126.92 336.055 127.34 335.455 127.58C334.735 128.06 333.895 128.9 332.935 130.1C331.975 131.18 331.495 132.92 331.495 135.32C331.495 137.84 332.335 139.94 334.015 141.62C335.695 143.18 337.915 143.96 340.675 143.96C343.075 143.96 345.175 143.18 346.975 141.62C348.775 139.94 349.675 137.66 349.675 134.78C349.675 132.38 349.195 130.4 348.235 128.84C347.275 127.16 346.015 125.84 344.455 124.88C343.015 123.8 341.275 123.02 339.235 122.54C337.315 122.06 335.335 121.82 333.295 121.82C330.415 121.82 327.835 122.24 325.555 123.08C323.275 123.92 321.235 124.94 319.435 126.14C317.635 127.34 316.135 128.66 314.935 130.1C313.735 131.42 312.835 132.68 312.235 133.88ZM371.208 125.24C367.368 127.76 365.448 130.76 365.448 134.24C365.448 135.92 365.988 137.48 367.068 138.92C368.268 140.24 369.888 140.9 371.928 140.9C373.968 140.9 375.588 140.3 376.788 139.1C378.108 137.9 378.768 136.4 378.768 134.6C378.768 133.76 378.588 132.92 378.228 132.08C377.988 131.12 377.448 130.22 376.608 129.38C376.008 128.78 375.528 128.36 375.168 128.12C374.808 127.88 374.628 127.58 374.628 127.22C374.628 126.74 374.988 126.26 375.708 125.78C376.428 125.3 377.328 124.88 378.408 124.52C379.488 124.16 380.688 123.86 382.008 123.62C383.448 123.38 384.828 123.26 386.148 123.26C389.868 123.26 392.808 123.98 394.968 125.42C397.128 126.86 398.208 129.62 398.208 133.7V154.94C392.688 154.94 387.528 155.54 382.728 156.74C377.928 157.82 373.728 159.44 370.128 161.6C366.528 163.76 363.708 166.46 361.668 169.7C359.628 172.82 358.608 176.36 358.608 180.32C358.608 183.2 359.088 185.72 360.048 187.88C361.128 189.92 362.568 191.6 364.368 192.92C366.168 194.12 368.208 195.02 370.488 195.62C372.888 196.22 375.408 196.52 378.048 196.52C380.808 196.52 383.268 196.16 385.428 195.44C387.708 194.84 389.688 194.06 391.368 193.1C393.168 192.02 394.668 190.94 395.868 189.86C397.068 188.66 398.028 187.52 398.748 186.44C399.108 188.96 400.248 191.3 402.168 193.46C404.088 195.5 407.448 196.52 412.248 196.52C415.368 196.52 417.948 196.04 419.988 195.08C422.148 194.12 423.888 192.98 425.208 191.66C426.528 190.34 427.428 189.02 427.908 187.7C428.508 186.26 428.808 185.18 428.808 184.46C428.808 183.86 428.628 183.56 428.268 183.56C427.908 183.56 427.488 184.04 427.008 185C426.048 187.04 424.848 188.72 423.408 190.04C421.968 191.24 420.408 191.84 418.728 191.84C416.328 191.84 414.888 190.88 414.408 188.96C413.928 186.92 413.688 184.16 413.688 180.68V137.12C413.688 131.96 411.768 128 407.928 125.24C404.088 122.36 398.208 120.92 390.288 120.92C386.568 120.92 382.968 121.34 379.488 122.18C376.128 122.9 373.368 123.92 371.208 125.24ZM398.208 156.74V181.76C398.208 182.84 397.668 183.98 396.588 185.18C395.628 186.38 394.368 187.52 392.808 188.6C391.368 189.56 389.808 190.34 388.128 190.94C386.568 191.54 385.248 191.84 384.168 191.84C380.448 191.84 377.628 190.4 375.708 187.52C373.788 184.64 372.828 180.74 372.828 175.82C372.828 171.86 373.548 168.68 374.988 166.28C376.428 163.88 378.288 162.02 380.568 160.7C382.968 159.38 385.668 158.48 388.668 158C391.788 157.4 394.968 156.98 398.208 156.74ZM454.973 162.86V154.94C454.973 149.06 455.333 144.14 456.053 140.18C456.773 136.22 457.853 133.04 459.293 130.64C460.853 128.12 462.773 126.38 465.053 125.42C467.333 124.34 470.033 123.8 473.153 123.8C477.593 123.8 480.593 124.4 482.153 125.6C483.833 126.68 484.673 127.46 484.673 127.94C484.673 128.42 484.493 128.84 484.133 129.2C483.293 130.16 482.633 131.18 482.153 132.26C481.793 133.22 481.613 134.48 481.613 136.04C481.613 138.44 482.393 140.3 483.953 141.62C485.513 142.82 487.313 143.42 489.353 143.42C491.753 143.42 493.673 142.7 495.113 141.26C496.553 139.82 497.273 137.96 497.273 135.68C497.273 133.4 496.493 131.36 494.933 129.56C493.373 127.64 491.393 126.08 488.993 124.88C486.713 123.56 484.193 122.6 481.433 122C478.673 121.28 476.033 120.92 473.513 120.92C468.833 120.92 464.273 121.88 459.833 123.8C455.393 125.6 451.433 128.18 447.953 131.54C444.473 134.78 441.653 138.74 439.493 143.42C437.333 148.1 436.252 153.26 436.252 158.9C436.252 164.66 437.273 169.88 439.313 174.56C441.473 179.12 444.233 183.08 447.593 186.44C451.073 189.68 454.973 192.2 459.293 194C463.733 195.68 468.173 196.52 472.613 196.52C477.053 196.52 480.953 195.8 484.313 194.36C487.673 193.04 490.493 191.36 492.773 189.32C495.053 187.16 496.853 184.94 498.173 182.66C499.493 180.26 500.453 178.1 501.053 176.18C501.293 175.46 501.413 174.98 501.413 174.74C501.413 173.66 500.933 173.12 499.973 173.12C499.253 173.12 498.713 173.72 498.353 174.92C497.633 177.2 496.553 179.48 495.113 181.76C493.673 183.92 491.873 185.9 489.713 187.7C487.673 189.5 485.213 190.94 482.333 192.02C479.573 193.1 476.513 193.64 473.153 193.64C469.433 193.64 466.373 193.1 463.973 192.02C461.693 190.94 459.833 189.2 458.393 186.8C457.073 184.28 456.173 181.1 455.693 177.26C455.213 173.3 454.973 168.5 454.973 162.86ZM536.001 123.44V95.1801L520.521 102.92V123.44H508.281V126.32H520.521V174.92C520.521 181.64 522.321 186.92 525.921 190.76C529.521 194.6 534.741 196.52 541.581 196.52C548.661 196.52 553.641 195.14 556.521 192.38C559.521 189.5 561.441 185.6 562.281 180.68C562.401 180.08 562.461 179.72 562.461 179.6C562.461 179.48 562.461 179.3 562.461 179.06C562.461 178.1 562.101 177.62 561.381 177.62C560.421 177.62 559.881 178.22 559.761 179.42C559.161 183.5 557.781 186.74 555.621 189.14C553.461 191.42 550.821 192.56 547.701 192.56C543.501 192.56 540.501 191.12 538.701 188.24C536.901 185.36 536.001 181.04 536.001 175.28V126.32H553.461V123.44H536.001ZM635.701 150.26C635.581 148.34 634.921 145.7 633.721 142.34C632.641 138.98 630.901 135.74 628.501 132.62C626.101 129.5 622.921 126.8 618.961 124.52C615.001 122.12 610.141 120.92 604.381 120.92C599.581 120.92 595.081 122.06 590.881 124.34C586.801 126.62 583.261 129.56 580.261 133.16C577.261 136.76 574.921 140.84 573.241 145.4C571.561 149.96 570.721 154.58 570.721 159.26C570.721 163.94 571.561 168.5 573.241 172.94C574.921 177.38 577.261 181.34 580.261 184.82C583.261 188.3 586.861 191.12 591.061 193.28C595.381 195.44 600.061 196.52 605.101 196.52C609.181 196.52 612.901 195.92 616.261 194.72C619.621 193.64 622.561 192.14 625.081 190.22C627.721 188.18 629.941 185.84 631.741 183.2C633.541 180.56 634.981 177.8 636.061 174.92C636.421 174.08 636.601 173.24 636.601 172.4C636.601 171.56 636.241 171.14 635.521 171.14C634.921 171.14 634.381 171.74 633.901 172.94C632.821 175.46 631.441 177.98 629.761 180.5C628.201 183.02 626.221 185.24 623.821 187.16C621.541 189.08 618.901 190.64 615.901 191.84C612.901 193.04 609.421 193.64 605.461 193.64C600.661 193.64 596.761 191.84 593.761 188.24C590.881 184.64 589.441 178.88 589.441 170.96V152.6H632.821C634.741 152.6 635.701 151.82 635.701 150.26ZM589.441 149.72V142.52C589.441 138.56 589.861 135.38 590.701 132.98C591.661 130.46 592.861 128.54 594.301 127.22C595.741 125.9 597.361 125 599.161 124.52C600.961 124.04 602.761 123.8 604.561 123.8C607.441 123.8 609.781 124.34 611.581 125.42C613.501 126.38 615.001 127.7 616.081 129.38C617.161 131.06 617.881 132.92 618.241 134.96C618.601 137 618.781 139.1 618.781 141.26C618.781 146.9 617.881 149.72 616.081 149.72H589.441ZM675.048 133.88V123.44H646.968V126.32H659.568V191.12H646.968V194H687.648V191.12H675.048V141.8C675.048 139.88 675.588 137.9 676.668 135.86C677.868 133.82 679.368 131.96 681.168 130.28C683.088 128.6 685.188 127.28 687.468 126.32C689.748 125.24 691.968 124.7 694.128 124.7C695.448 124.7 696.588 124.82 697.548 125.06C698.628 125.18 699.168 125.6 699.168 126.32C699.168 126.92 698.868 127.34 698.268 127.58C697.548 128.06 696.708 128.9 695.748 130.1C694.788 131.18 694.308 132.92 694.308 135.32C694.308 137.84 695.148 139.94 696.828 141.62C698.508 143.18 700.728 143.96 703.488 143.96C705.888 143.96 707.988 143.18 709.788 141.62C711.588 139.94 712.488 137.66 712.488 134.78C712.488 132.38 712.008 130.4 711.048 128.84C710.088 127.16 708.828 125.84 707.268 124.88C705.828 123.8 704.088 123.02 702.048 122.54C700.128 122.06 698.148 121.82 696.108 121.82C693.228 121.82 690.648 122.24 688.368 123.08C686.088 123.92 684.048 124.94 682.248 126.14C680.448 127.34 678.948 128.66 677.748 130.1C676.548 131.42 675.648 132.68 675.048 133.88ZM750.538 123.44H721.558V126.32H735.058V191.12H721.558V194H764.038V191.12H750.538V123.44ZM751.978 90.1401C751.978 87.5001 751.078 85.2801 749.278 83.4801C747.478 81.6801 745.258 80.7801 742.618 80.7801C739.978 80.7801 737.758 81.6801 735.958 83.4801C734.158 85.2801 733.258 87.5001 733.258 90.1401C733.258 92.7801 734.158 95.0001 735.958 96.8001C737.758 98.6001 739.978 99.5001 742.618 99.5001C745.258 99.5001 747.478 98.6001 749.278 96.8001C751.078 95.0001 751.978 92.7801 751.978 90.1401ZM819.108 121.82L814.968 125.96C811.248 122.6 806.688 120.92 801.288 120.92C797.448 120.92 794.028 121.58 791.028 122.9C788.028 124.1 785.508 125.78 783.468 127.94C781.548 130.1 780.048 132.56 778.968 135.32C778.008 138.08 777.528 140.9 777.528 143.78C777.528 148.22 778.788 152.12 781.308 155.48C783.948 158.84 787.848 161.12 793.008 162.32C794.568 162.68 796.308 163.1 798.228 163.58C800.148 163.94 802.068 164.42 803.988 165.02C806.028 165.5 807.948 166.1 809.748 166.82C811.668 167.42 813.348 168.14 814.788 168.98C817.188 170.3 818.808 171.86 819.648 173.66C820.608 175.46 821.088 177.32 821.088 179.24C821.088 181.76 820.428 183.98 819.108 185.9C817.908 187.7 816.348 189.2 814.428 190.4C812.508 191.48 810.468 192.32 808.308 192.92C806.148 193.4 804.108 193.64 802.188 193.64C796.668 193.64 791.808 192.14 787.608 189.14C783.408 186.02 780.468 181.28 778.788 174.92C778.428 173.84 777.948 173.3 777.348 173.3C776.628 173.3 776.268 173.78 776.268 174.74V194C776.268 194.96 776.628 195.44 777.348 195.44C777.828 195.44 778.248 195.14 778.608 194.54L782.388 188.96C784.548 191.24 787.248 193.04 790.488 194.36C793.848 195.8 797.928 196.52 802.728 196.52C806.688 196.52 810.168 195.86 813.168 194.54C816.168 193.34 818.688 191.66 820.728 189.5C822.888 187.22 824.508 184.64 825.588 181.76C826.668 178.76 827.208 175.52 827.208 172.04C827.208 167.48 826.068 163.16 823.788 159.08C821.508 155 817.188 151.88 810.828 149.72C809.748 149.36 808.368 149 806.688 148.64C805.008 148.16 803.208 147.68 801.288 147.2C799.488 146.72 797.628 146.24 795.708 145.76C793.908 145.28 792.408 144.86 791.208 144.5C788.808 143.66 787.068 142.64 785.988 141.44C785.028 140.12 784.548 138.32 784.548 136.04C784.548 132.92 786.048 130.1 789.048 127.58C792.048 125.06 795.828 123.8 800.388 123.8C803.268 123.8 805.788 124.34 807.948 125.42C810.228 126.5 812.088 127.88 813.528 129.56C815.088 131.24 816.288 133.16 817.128 135.32C818.088 137.36 818.748 139.4 819.108 141.44C819.228 142.16 819.588 142.52 820.188 142.52C820.668 142.52 820.908 142.16 820.908 141.44V122.18C820.908 121.34 820.728 120.92 820.368 120.92C820.128 120.92 819.708 121.22 819.108 121.82ZM864.008 123.44V95.1801L848.528 102.92V123.44H836.288V126.32H848.528V174.92C848.528 181.64 850.328 186.92 853.928 190.76C857.528 194.6 862.748 196.52 869.588 196.52C876.668 196.52 881.648 195.14 884.528 192.38C887.528 189.5 889.448 185.6 890.288 180.68C890.408 180.08 890.468 179.72 890.468 179.6C890.468 179.48 890.468 179.3 890.468 179.06C890.468 178.1 890.108 177.62 889.388 177.62C888.428 177.62 887.888 178.22 887.768 179.42C887.168 183.5 885.788 186.74 883.628 189.14C881.468 191.42 878.828 192.56 875.708 192.56C871.508 192.56 868.508 191.12 866.708 188.24C864.908 185.36 864.008 181.04 864.008 175.28V126.32H881.468V123.44H864.008ZM928.429 123.44H899.449V126.32H912.949V191.12H899.449V194H941.929V191.12H928.429V123.44ZM929.869 90.1401C929.869 87.5001 928.969 85.2801 927.169 83.4801C925.369 81.6801 923.149 80.7801 920.509 80.7801C917.869 80.7801 915.649 81.6801 913.849 83.4801C912.049 85.2801 911.149 87.5001 911.149 90.1401C911.149 92.7801 912.049 95.0001 913.849 96.8001C915.649 98.6001 917.869 99.5001 920.509 99.5001C923.149 99.5001 925.369 98.6001 927.169 96.8001C928.969 95.0001 929.869 92.7801 929.869 90.1401ZM970.539 162.86V154.94C970.539 149.06 970.899 144.14 971.619 140.18C972.339 136.22 973.419 133.04 974.859 130.64C976.419 128.12 978.339 126.38 980.619 125.42C982.899 124.34 985.599 123.8 988.719 123.8C993.159 123.8 996.159 124.4 997.719 125.6C999.399 126.68 1000.24 127.46 1000.24 127.94C1000.24 128.42 1000.06 128.84 999.699 129.2C998.859 130.16 998.199 131.18 997.719 132.26C997.359 133.22 997.179 134.48 997.179 136.04C997.179 138.44 997.959 140.3 999.519 141.62C1001.08 142.82 1002.88 143.42 1004.92 143.42C1007.32 143.42 1009.24 142.7 1010.68 141.26C1012.12 139.82 1012.84 137.96 1012.84 135.68C1012.84 133.4 1012.06 131.36 1010.5 129.56C1008.94 127.64 1006.96 126.08 1004.56 124.88C1002.28 123.56 999.759 122.6 996.999 122C994.239 121.28 991.599 120.92 989.079 120.92C984.399 120.92 979.839 121.88 975.399 123.8C970.959 125.6 966.999 128.18 963.519 131.54C960.039 134.78 957.219 138.74 955.059 143.42C952.899 148.1 951.819 153.26 951.819 158.9C951.819 164.66 952.839 169.88 954.879 174.56C957.039 179.12 959.799 183.08 963.159 186.44C966.639 189.68 970.539 192.2 974.859 194C979.299 195.68 983.739 196.52 988.179 196.52C992.619 196.52 996.519 195.8 999.879 194.36C1003.24 193.04 1006.06 191.36 1008.34 189.32C1010.62 187.16 1012.42 184.94 1013.74 182.66C1015.06 180.26 1016.02 178.1 1016.62 176.18C1016.86 175.46 1016.98 174.98 1016.98 174.74C1016.98 173.66 1016.5 173.12 1015.54 173.12C1014.82 173.12 1014.28 173.72 1013.92 174.92C1013.2 177.2 1012.12 179.48 1010.68 181.76C1009.24 183.92 1007.44 185.9 1005.28 187.7C1003.24 189.5 1000.78 190.94 997.899 192.02C995.139 193.1 992.079 193.64 988.719 193.64C984.999 193.64 981.939 193.1 979.539 192.02C977.259 190.94 975.399 189.2 973.959 186.8C972.639 184.28 971.739 181.1 971.259 177.26C970.779 173.3 970.539 168.5 970.539 162.86ZM1070.83 121.82L1066.69 125.96C1062.97 122.6 1058.41 120.92 1053.01 120.92C1049.17 120.92 1045.75 121.58 1042.75 122.9C1039.75 124.1 1037.23 125.78 1035.19 127.94C1033.27 130.1 1031.77 132.56 1030.69 135.32C1029.73 138.08 1029.25 140.9 1029.25 143.78C1029.25 148.22 1030.51 152.12 1033.03 155.48C1035.67 158.84 1039.57 161.12 1044.73 162.32C1046.29 162.68 1048.03 163.1 1049.95 163.58C1051.87 163.94 1053.79 164.42 1055.71 165.02C1057.75 165.5 1059.67 166.1 1061.47 166.82C1063.39 167.42 1065.07 168.14 1066.51 168.98C1068.91 170.3 1070.53 171.86 1071.37 173.66C1072.33 175.46 1072.81 177.32 1072.81 179.24C1072.81 181.76 1072.15 183.98 1070.83 185.9C1069.63 187.7 1068.07 189.2 1066.15 190.4C1064.23 191.48 1062.19 192.32 1060.03 192.92C1057.87 193.4 1055.83 193.64 1053.91 193.64C1048.39 193.64 1043.53 192.14 1039.33 189.14C1035.13 186.02 1032.19 181.28 1030.51 174.92C1030.15 173.84 1029.67 173.3 1029.07 173.3C1028.35 173.3 1027.99 173.78 1027.99 174.74V194C1027.99 194.96 1028.35 195.44 1029.07 195.44C1029.55 195.44 1029.97 195.14 1030.33 194.54L1034.11 188.96C1036.27 191.24 1038.97 193.04 1042.21 194.36C1045.57 195.8 1049.65 196.52 1054.45 196.52C1058.41 196.52 1061.89 195.86 1064.89 194.54C1067.89 193.34 1070.41 191.66 1072.45 189.5C1074.61 187.22 1076.23 184.64 1077.31 181.76C1078.39 178.76 1078.93 175.52 1078.93 172.04C1078.93 167.48 1077.79 163.16 1075.51 159.08C1073.23 155 1068.91 151.88 1062.55 149.72C1061.47 149.36 1060.09 149 1058.41 148.64C1056.73 148.16 1054.93 147.68 1053.01 147.2C1051.21 146.72 1049.35 146.24 1047.43 145.76C1045.63 145.28 1044.13 144.86 1042.93 144.5C1040.53 143.66 1038.79 142.64 1037.71 141.44C1036.75 140.12 1036.27 138.32 1036.27 136.04C1036.27 132.92 1037.77 130.1 1040.77 127.58C1043.77 125.06 1047.55 123.8 1052.11 123.8C1054.99 123.8 1057.51 124.34 1059.67 125.42C1061.95 126.5 1063.81 127.88 1065.25 129.56C1066.81 131.24 1068.01 133.16 1068.85 135.32C1069.81 137.36 1070.47 139.4 1070.83 141.44C1070.95 142.16 1071.31 142.52 1071.91 142.52C1072.39 142.52 1072.63 142.16 1072.63 141.44V122.18C1072.63 121.34 1072.45 120.92 1072.09 120.92C1071.85 120.92 1071.43 121.22 1070.83 121.82Z" fill="black"/>
</svg>
