<svg width="360" height="404" viewBox="0 0 360 404" fill="none" xmlns="http://www.w3.org/2000/svg">
<g clip-path="url(#clip0_368_6956)">
<path d="M102.481 183.943L96.3809 183.869" stroke="black" stroke-width="0.436184" stroke-miterlimit="10"/>
<path d="M103.711 176.446L98.0039 174.291" stroke="black" stroke-width="0.436184" stroke-miterlimit="10"/>
<path d="M107.431 169.827L102.805 165.848" stroke="black" stroke-width="0.436184" stroke-miterlimit="10"/>
<path d="M113.189 164.876L110.201 159.554" stroke="black" stroke-width="0.436184" stroke-miterlimit="10"/>
<path d="M120.294 162.196L119.307 156.173" stroke="black" stroke-width="0.436184" stroke-miterlimit="10"/>
<path d="M102.481 183.943L96.3809 183.869" stroke="black" stroke-width="0.436184" stroke-miterlimit="10"/>
<path d="M98.1348 179.261L101.588 179.896" stroke="black" stroke-width="0.218092" stroke-miterlimit="10"/>
<path d="M101.176 170.602L104.202 172.38" stroke="black" stroke-width="0.218092" stroke-miterlimit="10"/>
<path d="M106.994 163.503L109.23 166.211" stroke="black" stroke-width="0.218092" stroke-miterlimit="10"/>
<path d="M114.887 158.826L116.062 162.134" stroke="black" stroke-width="0.218092" stroke-miterlimit="10"/>
<path d="M124.23 157.128L124.205 160.639" stroke="black" stroke-width="0.218092" stroke-miterlimit="10"/>
<path d="M124.273 158.992C120.987 158.99 117.733 159.636 114.697 160.893C111.661 162.15 108.903 163.993 106.579 166.317C104.256 168.641 102.413 171.4 101.156 174.437C99.8988 177.474 99.2526 180.728 99.2539 184.015" stroke="black" stroke-width="0.519059" stroke-miterlimit="10"/>
</g>
<path d="M-130 184.069L266.055 184.069" stroke="black" stroke-width="0.872368"/>
<path d="M124 0L124 240" stroke="black" stroke-width="0.872368"/>
<path d="M85.9102 184.069L85.9102 403.47" stroke="black" stroke-width="0.872368"/>
<path d="M86 240H423.5" stroke="black"/>
<rect x="134" y="177" width="20" height="13" fill="white" stroke="white"/>
<path d="M173.103 100.206V99.4549H143.577V100.206H147.051L157.988 131.469H158.598L163.715 116.87L168.973 131.469H169.583L180.567 100.206H183.806V99.4549H175.685V100.206H179.722L171.038 124.851L166.344 111.284L170.24 100.206H173.103ZM169.395 100.206L165.921 110.064L162.448 100.206H169.395ZM160.1 124.757L151.51 100.206H157.988L163.293 115.603L160.1 124.757ZM193.261 115.885V99.4549H185.938V100.206H189.224V130.249H185.938V131H196.547V130.249H193.261V118.513C193.261 118.013 193.386 117.465 193.637 116.87C193.918 116.245 194.309 115.666 194.81 115.134C195.311 114.57 195.89 114.101 196.547 113.725C197.204 113.35 197.94 113.162 198.753 113.162C199.41 113.162 199.927 113.272 200.302 113.491C200.678 113.71 200.96 113.991 201.147 114.336C201.335 114.68 201.445 115.071 201.476 115.509C201.539 115.916 201.57 116.338 201.57 116.777V130.249H198.331V131H208.893V130.249H205.607V116.26C205.607 114.852 205.122 113.788 204.152 113.068C203.213 112.317 201.898 111.942 200.208 111.942C198.362 111.942 196.876 112.333 195.749 113.115C194.654 113.897 193.824 114.821 193.261 115.885ZM213.858 113.068C212.856 113.725 212.355 114.508 212.355 115.415C212.355 115.853 212.496 116.26 212.778 116.636C213.091 116.98 213.513 117.152 214.045 117.152C214.577 117.152 215 116.996 215.313 116.683C215.657 116.37 215.829 115.979 215.829 115.509C215.829 115.29 215.782 115.071 215.688 114.852C215.626 114.602 215.485 114.367 215.266 114.148C215.109 113.991 214.984 113.882 214.89 113.819C214.796 113.757 214.75 113.678 214.75 113.584C214.75 113.459 214.843 113.334 215.031 113.209C215.219 113.084 215.454 112.974 215.735 112.88C216.017 112.786 216.33 112.708 216.674 112.646C217.05 112.583 217.41 112.552 217.754 112.552C218.724 112.552 219.491 112.74 220.054 113.115C220.617 113.491 220.899 114.21 220.899 115.274V120.814C219.459 120.814 218.114 120.97 216.862 121.283C215.61 121.565 214.515 121.987 213.576 122.55C212.637 123.114 211.902 123.818 211.37 124.663C210.838 125.476 210.572 126.4 210.572 127.432C210.572 128.183 210.697 128.841 210.947 129.404C211.229 129.936 211.604 130.374 212.074 130.718C212.543 131.031 213.075 131.266 213.67 131.422C214.296 131.579 214.953 131.657 215.641 131.657C216.361 131.657 217.003 131.563 217.566 131.376C218.161 131.219 218.677 131.016 219.115 130.765C219.585 130.484 219.976 130.202 220.289 129.92C220.602 129.607 220.852 129.31 221.04 129.028C221.134 129.686 221.431 130.296 221.932 130.859C222.432 131.391 223.309 131.657 224.56 131.657C225.374 131.657 226.047 131.532 226.579 131.282C227.142 131.031 227.596 130.734 227.94 130.39C228.285 130.046 228.519 129.701 228.644 129.357C228.801 128.981 228.879 128.7 228.879 128.512C228.879 128.356 228.832 128.277 228.738 128.277C228.644 128.277 228.535 128.403 228.41 128.653C228.159 129.185 227.846 129.623 227.471 129.967C227.095 130.28 226.688 130.437 226.25 130.437C225.624 130.437 225.249 130.186 225.124 129.686C224.999 129.154 224.936 128.434 224.936 127.526V116.166C224.936 114.821 224.435 113.788 223.434 113.068C222.432 112.317 220.899 111.942 218.833 111.942C217.863 111.942 216.925 112.051 216.017 112.27C215.141 112.458 214.421 112.724 213.858 113.068ZM220.899 121.283V127.808C220.899 128.09 220.758 128.387 220.476 128.7C220.226 129.013 219.898 129.31 219.491 129.592C219.115 129.842 218.708 130.046 218.27 130.202C217.863 130.358 217.519 130.437 217.237 130.437C216.267 130.437 215.532 130.061 215.031 129.31C214.53 128.559 214.28 127.542 214.28 126.259C214.28 125.226 214.468 124.397 214.843 123.771C215.219 123.145 215.704 122.66 216.299 122.316C216.925 121.971 217.629 121.737 218.411 121.612C219.225 121.455 220.054 121.346 220.899 121.283ZM237.351 112.599V105.229L233.314 107.247V112.599H230.122V113.35H233.314V126.024C233.314 127.777 233.783 129.154 234.722 130.155C235.661 131.156 237.022 131.657 238.806 131.657C240.653 131.657 241.951 131.297 242.702 130.578C243.485 129.826 243.986 128.809 244.205 127.526C244.236 127.37 244.252 127.276 244.252 127.245C244.252 127.213 244.252 127.166 244.252 127.104C244.252 126.853 244.158 126.728 243.97 126.728C243.72 126.728 243.579 126.885 243.547 127.198C243.391 128.262 243.031 129.107 242.468 129.733C241.904 130.327 241.216 130.624 240.402 130.624C239.307 130.624 238.525 130.249 238.055 129.498C237.586 128.747 237.351 127.62 237.351 126.118V113.35H241.904V112.599H237.351ZM55.431 166.519H63.0173V196.864C60.5551 193.27 56.9283 191.473 52.137 191.473C49.7413 191.473 47.4122 192.072 45.1496 193.27C42.8871 194.468 40.8907 196.065 39.1605 198.061C37.4303 199.991 36.0328 202.221 34.9681 204.749C33.9033 207.212 33.371 209.74 33.371 212.336C33.371 215.131 33.9366 217.826 35.0679 220.421C36.2657 222.95 37.763 225.179 39.5598 227.109C41.3565 229.039 43.3529 230.569 45.5489 231.701C47.7449 232.832 49.8411 233.397 51.8375 233.397C54.4994 233.397 56.7287 232.732 58.5254 231.401C60.3221 230.07 61.8194 228.54 63.0173 226.809V232H79.188V230.403H71.6017V164.922H55.431V166.519ZM43.7522 209.84C43.7522 203.651 44.4176 199.326 45.7486 196.864C47.0795 194.335 49.342 193.071 52.5363 193.071C53.9337 193.071 55.1648 193.303 56.2296 193.769C57.3608 194.235 58.3258 194.867 59.1243 195.666C59.9894 196.398 60.7214 197.196 61.3203 198.061C61.9858 198.927 62.5514 199.758 63.0173 200.557V223.915C61.5533 226.377 59.9229 228.307 58.1261 229.704C56.3959 231.102 54.4328 231.8 52.2368 231.8C50.8393 231.8 49.6082 231.534 48.5435 231.002C47.4787 230.403 46.5804 229.471 45.8484 228.207C45.1829 226.876 44.6505 225.112 44.2513 222.916C43.9185 220.72 43.7522 217.992 43.7522 214.731V209.84ZM132.209 230.403V232H155.766V230.403H148.28V194.468H156.365V192.871H148.28V173.306C148.28 168.315 150.01 165.82 153.471 165.82C154.802 165.82 155.866 166.02 156.665 166.419C157.53 166.818 157.962 167.151 157.962 167.417C157.962 167.617 157.896 167.75 157.763 167.816C157.097 168.149 156.598 168.615 156.266 169.214C155.933 169.746 155.766 170.345 155.766 171.01C155.766 172.075 156.099 172.907 156.765 173.506C157.43 174.038 158.229 174.305 159.16 174.305C160.292 174.305 161.09 173.972 161.556 173.306C162.088 172.574 162.354 171.742 162.354 170.811C162.354 169.214 161.523 167.716 159.859 166.319C158.262 164.922 156.066 164.223 153.271 164.223C151.141 164.223 149.012 164.855 146.883 166.119C144.753 167.384 143.023 169.58 141.692 172.707C140.76 174.97 140.195 177.565 139.995 180.493C139.795 183.421 139.696 186.116 139.696 188.579V192.871H132.309V194.468H139.696V230.403H132.209ZM186.091 192.871H170.02V194.468H177.507V230.403H170.02V232H193.578V230.403H186.091V192.871ZM186.89 174.404C186.89 172.94 186.391 171.709 185.392 170.711C184.394 169.713 183.163 169.214 181.699 169.214C180.235 169.214 179.004 169.713 178.006 170.711C177.008 171.709 176.509 172.94 176.509 174.404C176.509 175.868 177.008 177.099 178.006 178.098C179.004 179.096 180.235 179.595 181.699 179.595C183.163 179.595 184.394 179.096 185.392 178.098C186.391 177.099 186.89 175.868 186.89 174.404ZM217.429 200.457V192.871H201.857V194.468H208.845V230.403H201.857V232H224.416V230.403H217.429V205.648C217.429 204.516 217.728 203.319 218.327 202.054C218.926 200.723 219.692 199.492 220.623 198.361C221.621 197.23 222.719 196.298 223.917 195.566C225.182 194.834 226.479 194.468 227.81 194.468C229.74 194.468 231.137 195.067 232.003 196.265C232.934 197.463 233.4 199.359 233.4 201.954V230.403H226.413V232H248.972V230.403H241.984V201.256C241.984 197.795 240.986 195.4 238.99 194.069C237.06 192.738 234.565 192.072 231.503 192.072C227.843 192.072 224.849 192.904 222.52 194.568C220.257 196.231 218.56 198.195 217.429 200.457ZM289.995 207.744C289.929 206.679 289.563 205.215 288.897 203.352C288.298 201.489 287.333 199.692 286.002 197.962C284.671 196.231 282.908 194.734 280.712 193.47C278.516 192.139 275.821 191.473 272.627 191.473C269.965 191.473 267.469 192.106 265.14 193.37C262.878 194.634 260.914 196.265 259.251 198.261C257.587 200.258 256.29 202.52 255.358 205.049C254.426 207.578 253.96 210.14 253.96 212.735C253.96 215.33 254.426 217.859 255.358 220.321C256.29 222.783 257.587 224.979 259.251 226.909C260.914 228.839 262.911 230.403 265.24 231.601C267.636 232.799 270.231 233.397 273.026 233.397C275.288 233.397 277.351 233.065 279.215 232.399C281.078 231.8 282.708 230.969 284.106 229.904C285.57 228.773 286.801 227.475 287.799 226.011C288.797 224.547 289.596 223.016 290.195 221.419C290.394 220.953 290.494 220.488 290.494 220.022C290.494 219.556 290.295 219.323 289.895 219.323C289.563 219.323 289.263 219.656 288.997 220.321C288.398 221.719 287.633 223.116 286.701 224.514C285.836 225.911 284.738 227.142 283.407 228.207C282.143 229.272 280.679 230.137 279.015 230.802C277.351 231.468 275.422 231.8 273.225 231.8C270.564 231.8 268.401 230.802 266.737 228.806C265.14 226.809 264.342 223.615 264.342 219.223V209.042H288.398C289.463 209.042 289.995 208.609 289.995 207.744ZM264.342 207.444V203.452C264.342 201.256 264.574 199.492 265.04 198.161C265.573 196.764 266.238 195.699 267.037 194.967C267.835 194.235 268.734 193.736 269.732 193.47C270.73 193.204 271.728 193.071 272.726 193.071C274.323 193.071 275.621 193.37 276.619 193.969C277.684 194.501 278.516 195.233 279.115 196.165C279.714 197.097 280.113 198.128 280.313 199.259C280.512 200.391 280.612 201.555 280.612 202.753C280.612 205.881 280.113 207.444 279.115 207.444H264.342ZM324.891 191.973L322.595 194.268C320.532 192.405 318.004 191.473 315.009 191.473C312.88 191.473 310.983 191.839 309.319 192.571C307.656 193.237 306.258 194.169 305.127 195.366C304.062 196.564 303.23 197.928 302.632 199.459C302.099 200.99 301.833 202.553 301.833 204.15C301.833 206.613 302.532 208.775 303.929 210.639C305.393 212.502 307.556 213.766 310.417 214.432C311.283 214.631 312.247 214.864 313.312 215.131C314.377 215.33 315.442 215.596 316.506 215.929C317.638 216.195 318.702 216.528 319.701 216.927C320.765 217.26 321.697 217.659 322.496 218.125C323.827 218.857 324.725 219.722 325.191 220.72C325.723 221.719 325.989 222.75 325.989 223.815C325.989 225.212 325.623 226.443 324.891 227.508C324.226 228.506 323.361 229.338 322.296 230.004C321.231 230.603 320.1 231.068 318.902 231.401C317.704 231.667 316.573 231.8 315.508 231.8C312.447 231.8 309.752 230.969 307.423 229.305C305.094 227.575 303.463 224.946 302.532 221.419C302.332 220.82 302.066 220.521 301.733 220.521C301.334 220.521 301.134 220.787 301.134 221.319V232C301.134 232.532 301.334 232.799 301.733 232.799C301.999 232.799 302.232 232.632 302.432 232.299L304.528 229.205C305.726 230.469 307.223 231.468 309.02 232.2C310.883 232.998 313.146 233.397 315.808 233.397C318.004 233.397 319.934 233.031 321.597 232.299C323.261 231.634 324.658 230.702 325.79 229.505C326.987 228.24 327.886 226.809 328.485 225.212C329.084 223.549 329.383 221.752 329.383 219.822C329.383 217.293 328.751 214.898 327.487 212.635C326.222 210.373 323.827 208.642 320.3 207.444C319.701 207.245 318.935 207.045 318.004 206.846C317.072 206.579 316.074 206.313 315.009 206.047C314.011 205.781 312.979 205.515 311.915 205.248C310.917 204.982 310.085 204.749 309.419 204.55C308.088 204.084 307.123 203.518 306.525 202.853C305.992 202.121 305.726 201.123 305.726 199.858C305.726 198.128 306.558 196.564 308.221 195.167C309.885 193.769 311.981 193.071 314.51 193.071C316.107 193.071 317.505 193.37 318.702 193.969C319.967 194.568 320.998 195.333 321.797 196.265C322.662 197.196 323.327 198.261 323.793 199.459C324.326 200.59 324.692 201.722 324.891 202.853C324.958 203.252 325.157 203.452 325.49 203.452C325.756 203.452 325.889 203.252 325.889 202.853V192.172C325.889 191.706 325.79 191.473 325.59 191.473C325.457 191.473 325.224 191.64 324.891 191.973ZM112.868 285.068C111.867 285.725 111.366 286.508 111.366 287.415C111.366 287.853 111.507 288.26 111.788 288.636C112.101 288.98 112.524 289.152 113.056 289.152C113.588 289.152 114.01 288.996 114.323 288.683C114.667 288.37 114.84 287.979 114.84 287.509C114.84 287.29 114.793 287.071 114.699 286.852C114.636 286.602 114.495 286.367 114.276 286.148C114.12 285.991 113.995 285.882 113.901 285.819C113.807 285.757 113.76 285.678 113.76 285.584C113.76 285.459 113.854 285.334 114.041 285.209C114.229 285.084 114.464 284.974 114.746 284.88C115.027 284.786 115.34 284.708 115.684 284.646C116.06 284.583 116.42 284.552 116.764 284.552C117.734 284.552 118.501 284.74 119.064 285.115C119.628 285.491 119.909 286.21 119.909 287.274V292.814C118.47 292.814 117.124 292.97 115.872 293.283C114.62 293.565 113.525 293.987 112.586 294.55C111.647 295.114 110.912 295.818 110.38 296.663C109.848 297.476 109.582 298.4 109.582 299.432C109.582 300.183 109.707 300.841 109.958 301.404C110.239 301.936 110.615 302.374 111.084 302.718C111.554 303.031 112.086 303.266 112.68 303.422C113.306 303.579 113.963 303.657 114.652 303.657C115.372 303.657 116.013 303.563 116.576 303.376C117.171 303.219 117.687 303.016 118.125 302.765C118.595 302.484 118.986 302.202 119.299 301.92C119.612 301.607 119.862 301.31 120.05 301.028C120.144 301.686 120.441 302.296 120.942 302.859C121.443 303.391 122.319 303.657 123.571 303.657C124.384 303.657 125.057 303.532 125.589 303.282C126.153 303.031 126.606 302.734 126.951 302.39C127.295 302.046 127.53 301.701 127.655 301.357C127.811 300.981 127.889 300.7 127.889 300.512C127.889 300.356 127.842 300.277 127.749 300.277C127.655 300.277 127.545 300.403 127.42 300.653C127.17 301.185 126.857 301.623 126.481 301.967C126.106 302.28 125.699 302.437 125.261 302.437C124.635 302.437 124.259 302.186 124.134 301.686C124.009 301.154 123.946 300.434 123.946 299.526V288.166C123.946 286.821 123.446 285.788 122.444 285.068C121.443 284.317 119.909 283.942 117.844 283.942C116.874 283.942 115.935 284.051 115.027 284.27C114.151 284.458 113.431 284.724 112.868 285.068ZM119.909 293.283V299.808C119.909 300.09 119.768 300.387 119.487 300.7C119.236 301.013 118.908 301.31 118.501 301.592C118.125 301.842 117.719 302.046 117.281 302.202C116.874 302.358 116.529 302.437 116.248 302.437C115.278 302.437 114.542 302.061 114.041 301.31C113.541 300.559 113.29 299.542 113.29 298.259C113.29 297.226 113.478 296.397 113.854 295.771C114.229 295.145 114.714 294.66 115.309 294.316C115.935 293.971 116.639 293.737 117.421 293.612C118.235 293.455 119.064 293.346 119.909 293.283ZM165.533 278.778C165.533 277.62 165.267 276.587 164.735 275.68C164.203 274.741 163.483 273.974 162.576 273.38C161.699 272.754 160.682 272.284 159.524 271.971C158.366 271.627 157.162 271.455 155.91 271.455H142.25V272.206H146.287V302.249H142.25V303H156.285C159.54 303 162.059 302.249 163.843 300.747C165.658 299.245 166.566 297.164 166.566 294.503C166.566 293.127 166.284 291.922 165.721 290.889C165.189 289.856 164.516 288.98 163.702 288.26C162.889 287.54 161.981 286.993 160.98 286.617C160.009 286.21 159.102 285.96 158.257 285.866C159.29 285.678 160.244 285.412 161.12 285.068C162.028 284.693 162.795 284.223 163.421 283.66C164.078 283.065 164.594 282.377 164.97 281.594C165.345 280.781 165.533 279.842 165.533 278.778ZM150.84 285.584V272.206H155.91C156.692 272.206 157.396 272.316 158.022 272.535C158.648 272.722 159.18 273.067 159.618 273.567C160.056 274.037 160.401 274.678 160.651 275.492C160.901 276.274 161.026 277.244 161.026 278.402V279.153C161.026 280.405 160.901 281.454 160.651 282.299C160.401 283.112 160.056 283.769 159.618 284.27C159.18 284.74 158.632 285.084 157.975 285.303C157.349 285.491 156.661 285.584 155.91 285.584H150.84ZM150.84 302.249V286.336H155.91C158.069 286.336 159.603 286.993 160.51 288.307C161.449 289.622 161.918 291.499 161.918 293.94V295.067C161.918 297.351 161.48 299.119 160.604 300.371C159.728 301.623 158.163 302.249 155.91 302.249H150.84ZM179.599 303.657C181.008 303.657 182.275 303.344 183.402 302.718C184.56 302.061 185.53 301.247 186.312 300.277C187.126 299.307 187.752 298.243 188.19 297.085C188.628 295.927 188.847 294.832 188.847 293.799C188.847 292.767 188.628 291.671 188.19 290.513C187.752 289.355 187.126 288.291 186.312 287.321C185.53 286.351 184.56 285.553 183.402 284.927C182.275 284.27 181.008 283.942 179.599 283.942C178.191 283.942 176.908 284.27 175.75 284.927C174.624 285.553 173.653 286.351 172.84 287.321C172.026 288.291 171.4 289.355 170.962 290.513C170.524 291.671 170.305 292.767 170.305 293.799C170.305 294.832 170.524 295.927 170.962 297.085C171.4 298.243 172.026 299.307 172.84 300.277C173.653 301.247 174.624 302.061 175.75 302.718C176.908 303.344 178.191 303.657 179.599 303.657ZM175.187 292.767C175.187 291.452 175.234 290.294 175.328 289.293C175.453 288.291 175.672 287.447 175.985 286.758C176.298 286.07 176.736 285.553 177.299 285.209C177.894 284.865 178.661 284.693 179.599 284.693C180.538 284.693 181.289 284.865 181.853 285.209C182.447 285.553 182.885 286.07 183.167 286.758C183.48 287.447 183.683 288.291 183.777 289.293C183.902 290.294 183.965 291.452 183.965 292.767V294.785C183.965 296.193 183.902 297.414 183.777 298.447C183.683 299.448 183.48 300.277 183.167 300.935C182.885 301.592 182.447 302.092 181.853 302.437C181.289 302.75 180.538 302.906 179.599 302.906C178.661 302.906 177.894 302.75 177.299 302.437C176.736 302.092 176.298 301.592 175.985 300.935C175.672 300.277 175.453 299.448 175.328 298.447C175.234 297.414 175.187 296.193 175.187 294.785V292.767ZM202.827 272.206H206.395V286.476C205.237 284.786 203.531 283.942 201.278 283.942C200.152 283.942 199.056 284.223 197.992 284.786C196.928 285.35 195.989 286.101 195.176 287.04C194.362 287.947 193.705 288.996 193.204 290.185C192.704 291.343 192.453 292.532 192.453 293.752C192.453 295.067 192.719 296.334 193.251 297.555C193.814 298.744 194.519 299.792 195.364 300.7C196.209 301.607 197.147 302.327 198.18 302.859C199.213 303.391 200.199 303.657 201.137 303.657C202.389 303.657 203.438 303.344 204.283 302.718C205.128 302.092 205.832 301.373 206.395 300.559V303H214V302.249H210.432V271.455H202.827V272.206ZM197.335 292.579C197.335 289.668 197.648 287.634 198.274 286.476C198.9 285.287 199.964 284.693 201.466 284.693C202.123 284.693 202.702 284.802 203.203 285.021C203.735 285.24 204.189 285.538 204.564 285.913C204.971 286.257 205.315 286.633 205.597 287.04C205.91 287.447 206.176 287.838 206.395 288.213V299.198C205.706 300.356 204.94 301.263 204.095 301.92C203.281 302.578 202.358 302.906 201.325 302.906C200.668 302.906 200.089 302.781 199.588 302.531C199.088 302.249 198.665 301.811 198.321 301.216C198.008 300.59 197.758 299.761 197.57 298.728C197.413 297.696 197.335 296.412 197.335 294.879V292.579ZM224.341 303.657C225.749 303.657 227.017 303.344 228.143 302.718C229.301 302.061 230.271 301.247 231.054 300.277C231.868 299.307 232.493 298.243 232.932 297.085C233.37 295.927 233.589 294.832 233.589 293.799C233.589 292.767 233.37 291.671 232.932 290.513C232.493 289.355 231.868 288.291 231.054 287.321C230.271 286.351 229.301 285.553 228.143 284.927C227.017 284.27 225.749 283.942 224.341 283.942C222.933 283.942 221.65 284.27 220.492 284.927C219.365 285.553 218.395 286.351 217.581 287.321C216.768 288.291 216.142 289.355 215.704 290.513C215.266 291.671 215.047 292.767 215.047 293.799C215.047 294.832 215.266 295.927 215.704 297.085C216.142 298.243 216.768 299.307 217.581 300.277C218.395 301.247 219.365 302.061 220.492 302.718C221.65 303.344 222.933 303.657 224.341 303.657ZM219.929 292.767C219.929 291.452 219.976 290.294 220.069 289.293C220.195 288.291 220.414 287.447 220.727 286.758C221.04 286.07 221.478 285.553 222.041 285.209C222.636 284.865 223.402 284.693 224.341 284.693C225.28 284.693 226.031 284.865 226.594 285.209C227.189 285.553 227.627 286.07 227.909 286.758C228.222 287.447 228.425 288.291 228.519 289.293C228.644 290.294 228.707 291.452 228.707 292.767V294.785C228.707 296.193 228.644 297.414 228.519 298.447C228.425 299.448 228.222 300.277 227.909 300.935C227.627 301.592 227.189 302.092 226.594 302.437C226.031 302.75 225.28 302.906 224.341 302.906C223.402 302.906 222.636 302.75 222.041 302.437C221.478 302.092 221.04 301.592 220.727 300.935C220.414 300.277 220.195 299.448 220.069 298.447C219.976 297.414 219.929 296.193 219.929 294.785V292.767ZM243.694 288.166V284.599H236.371V285.35H239.657V302.249H236.371V303H246.98V302.249H243.694V290.607C243.694 290.075 243.835 289.512 244.116 288.917C244.398 288.291 244.758 287.713 245.196 287.181C245.665 286.649 246.182 286.21 246.745 285.866C247.34 285.522 247.95 285.35 248.576 285.35C249.483 285.35 250.14 285.631 250.547 286.195C250.985 286.758 251.204 287.65 251.204 288.87V302.249H247.919V303H258.527V302.249H255.241V288.542C255.241 286.915 254.772 285.788 253.833 285.162C252.926 284.536 251.752 284.223 250.313 284.223C248.591 284.223 247.183 284.614 246.088 285.397C245.024 286.179 244.226 287.102 243.694 288.166ZM268.866 284.599H261.309V285.35H264.829V302.249H261.309V303H272.387V302.249H268.866V284.599ZM269.242 275.914C269.242 275.226 269.007 274.647 268.538 274.178C268.068 273.708 267.489 273.473 266.801 273.473C266.112 273.473 265.534 273.708 265.064 274.178C264.595 274.647 264.36 275.226 264.36 275.914C264.36 276.603 264.595 277.182 265.064 277.651C265.534 278.121 266.112 278.355 266.801 278.355C267.489 278.355 268.068 278.121 268.538 277.651C269.007 277.182 269.242 276.603 269.242 275.914ZM290.551 278.496C290.551 276.337 289.894 274.71 288.58 273.614C287.296 272.519 285.528 271.971 283.275 271.971C282.086 271.971 281.022 272.112 280.083 272.394C279.175 272.644 278.409 272.988 277.783 273.426C277.157 273.833 276.672 274.318 276.328 274.882C276.015 275.414 275.858 275.961 275.858 276.525C275.858 277.244 276.093 277.839 276.562 278.308C277.063 278.778 277.673 279.013 278.393 279.013C279.207 279.013 279.848 278.778 280.318 278.308C280.787 277.839 281.022 277.26 281.022 276.572C281.022 276.071 280.865 275.617 280.552 275.21C280.24 274.772 279.723 274.475 279.003 274.318C278.878 274.287 278.816 274.24 278.816 274.178C278.816 274.084 278.894 273.958 279.05 273.802C279.207 273.646 279.457 273.489 279.801 273.333C280.177 273.176 280.646 273.035 281.21 272.91C281.804 272.785 282.524 272.722 283.369 272.722C284.996 272.722 286.186 273.082 286.937 273.802C287.688 274.522 288.063 275.304 288.063 276.149C288.063 276.775 287.907 277.401 287.594 278.027C287.281 278.653 286.858 279.294 286.326 279.951C285.888 280.483 285.45 280.969 285.012 281.407C284.574 281.845 284.136 282.299 283.698 282.768C283.291 283.206 282.884 283.691 282.477 284.223C282.102 284.724 281.757 285.334 281.444 286.054C281.288 286.461 281.178 286.915 281.116 287.415C281.053 287.885 281.022 288.385 281.022 288.917C281.022 289.856 281.084 290.779 281.21 291.687C281.366 292.595 281.491 293.299 281.585 293.799C281.616 294.018 281.742 294.128 281.961 294.128C282.211 294.128 282.336 294.018 282.336 293.799C282.336 293.643 282.321 293.502 282.289 293.377C282.289 293.22 282.274 293.033 282.242 292.814C282.211 292.626 282.195 292.391 282.195 292.109C282.195 291.796 282.195 291.468 282.195 291.124C282.195 290.623 282.415 290.075 282.853 289.481C283.322 288.886 283.885 288.26 284.543 287.603C285.231 286.946 285.951 286.273 286.702 285.584C287.453 284.896 288.11 284.208 288.673 283.519C289.331 282.705 289.8 281.876 290.082 281.031C290.395 280.186 290.551 279.341 290.551 278.496ZM284.449 300.653C284.449 299.933 284.198 299.339 283.698 298.869C283.228 298.368 282.634 298.118 281.914 298.118C281.194 298.118 280.584 298.368 280.083 298.869C279.614 299.339 279.379 299.933 279.379 300.653C279.379 301.373 279.614 301.983 280.083 302.484C280.584 302.953 281.194 303.188 281.914 303.188C282.634 303.188 283.228 302.953 283.698 302.484C284.198 301.983 284.449 301.373 284.449 300.653Z" fill="black"/>
<path d="M123.266 207.744C123.199 206.679 122.833 205.215 122.168 203.352C121.569 201.489 120.604 199.692 119.273 197.962C117.942 196.231 116.179 194.734 113.983 193.47C111.787 192.139 109.092 191.473 105.897 191.473C103.236 191.473 100.74 192.106 98.411 193.37C96.1484 194.634 94.1853 196.265 92.5216 198.261C90.858 200.258 89.5603 202.52 88.6287 205.049C87.697 207.578 87.2312 210.14 87.2312 212.735C87.2312 215.33 87.697 217.859 88.6287 220.321C89.5603 222.783 90.858 224.979 92.5216 226.909C94.1853 228.839 96.1817 230.403 98.5108 231.601C100.906 232.799 103.502 233.397 106.297 233.397C108.559 233.397 110.622 233.065 112.485 232.399C114.349 231.8 115.979 230.969 117.377 229.904C118.841 228.773 120.072 227.475 121.07 226.011C122.068 224.547 122.867 223.016 123.466 221.419C123.665 220.953 123.765 220.488 123.765 220.022C123.765 219.556 123.565 219.323 123.166 219.323C122.833 219.323 122.534 219.656 122.268 220.321C121.669 221.719 120.904 223.116 119.972 224.514C119.107 225.911 118.009 227.142 116.678 228.207C115.413 229.272 113.949 230.137 112.286 230.802C110.622 231.468 108.692 231.8 106.496 231.8C103.834 231.8 101.672 230.802 100.008 228.806C98.411 226.809 97.6124 223.615 97.6124 219.223V209.042H121.669C122.734 209.042 123.266 208.609 123.266 207.744ZM97.6124 207.444V203.452C97.6124 201.256 97.8453 199.492 98.3111 198.161C98.8435 196.764 99.509 195.699 100.308 194.967C101.106 194.235 102.004 193.736 103.003 193.47C104.001 193.204 104.999 193.071 105.997 193.071C107.594 193.071 108.892 193.37 109.89 193.969C110.955 194.501 111.787 195.233 112.386 196.165C112.985 197.097 113.384 198.128 113.583 199.259C113.783 200.391 113.883 201.555 113.883 202.753C113.883 205.881 113.384 207.444 112.386 207.444H97.6124Z" fill="#F8169D"/>
<path d="M86 388.168H73.2987" stroke="black" stroke-width="0.705628"/>
<path d="M86 374.056H73.2987" stroke="black" stroke-width="0.705628"/>
<path d="M86 402.986H73.2987" stroke="black" stroke-width="0.705628"/>
<path d="M86 303.506H73.2987" stroke="black" stroke-width="0.705628"/>
<path d="M86 345.844H73.2987" stroke="black" stroke-width="0.705628"/>
<path d="M86 289.395H73.2987" stroke="black" stroke-width="0.705628"/>
<path d="M86 331.731H73.2987" stroke="black" stroke-width="0.705628"/>
<path d="M86 359.957H73.2987" stroke="black" stroke-width="0.705628"/>
<path d="M86 275.281H73.2987" stroke="black" stroke-width="0.705628"/>
<path d="M86 282.338H78.9437" stroke="black" stroke-width="0.352814"/>
<path d="M86 338.788H78.9437" stroke="black" stroke-width="0.352814"/>
<path d="M86 395.225H78.9437" stroke="black" stroke-width="0.352814"/>
<path d="M86 310.562H78.9437" stroke="black" stroke-width="0.352814"/>
<path d="M86 367H78.9437" stroke="black" stroke-width="0.352814"/>
<path d="M86 268.225H78.9437" stroke="black" stroke-width="0.352814"/>
<path d="M86 324.676H78.9437" stroke="black" stroke-width="0.352814"/>
<path d="M86 381.111H78.9437" stroke="black" stroke-width="0.352814"/>
<path d="M86 296.45H78.9437" stroke="black" stroke-width="0.352814"/>
<path d="M86 352.9H78.9437" stroke="black" stroke-width="0.352814"/>
<path d="M86 317.619H73.2987" stroke="black" stroke-width="0.705628"/>
<defs>
<clipPath id="clip0_368_6956">
<rect width="27.9158" height="27.9158" fill="white" transform="translate(96.3789 184.069) rotate(-90)"/>
</clipPath>
</defs>
</svg>
