<svg width="1440" height="925" viewBox="0 0 1440 925" fill="none" xmlns="http://www.w3.org/2000/svg">
<path d="M1016 904H1034" stroke="black"/>
<path d="M1016 884H1034" stroke="black"/>
<path d="M663.29 326.3V324.796H604.13V326.3H611.09L633.005 388.941H634.227L644.479 359.69L655.013 388.941H656.236L678.245 326.3H684.735V324.796H668.463V326.3H676.552L659.152 375.679L649.746 348.497L657.553 326.3H663.29ZM655.86 326.3L648.9 346.052L641.94 326.3H655.86ZM637.237 375.491L620.025 326.3H633.005L643.633 357.15L637.237 375.491ZM703.678 357.715V324.796H689.006V326.3H695.59V386.495H689.006V388H710.262V386.495H703.678V362.982C703.678 361.978 703.929 360.881 704.431 359.69C704.995 358.436 705.779 357.276 706.782 356.21C707.785 355.081 708.945 354.14 710.262 353.388C711.579 352.636 713.053 352.259 714.683 352.259C716 352.259 717.034 352.479 717.787 352.918C718.539 353.357 719.103 353.921 719.48 354.611C719.856 355.3 720.075 356.084 720.138 356.962C720.263 357.777 720.326 358.624 720.326 359.502V386.495H713.836V388H734.999V386.495H728.415V358.467C728.415 355.645 727.443 353.513 725.499 352.071C723.618 350.566 720.984 349.814 717.598 349.814C713.899 349.814 710.921 350.598 708.663 352.165C706.469 353.733 704.807 355.583 703.678 357.715ZM744.946 352.071C742.94 353.388 741.937 354.956 741.937 356.774C741.937 357.652 742.219 358.467 742.783 359.219C743.41 359.909 744.257 360.254 745.322 360.254C746.388 360.254 747.235 359.94 747.862 359.313C748.552 358.686 748.897 357.903 748.897 356.962C748.897 356.523 748.802 356.084 748.614 355.645C748.489 355.144 748.207 354.673 747.768 354.235C747.454 353.921 747.204 353.702 747.015 353.576C746.827 353.451 746.733 353.294 746.733 353.106C746.733 352.855 746.921 352.604 747.298 352.353C747.674 352.103 748.144 351.883 748.708 351.695C749.273 351.507 749.9 351.35 750.59 351.225C751.342 351.099 752.063 351.037 752.753 351.037C754.697 351.037 756.233 351.413 757.361 352.165C758.49 352.918 759.054 354.36 759.054 356.492V367.59C756.17 367.59 753.474 367.904 750.966 368.531C748.458 369.095 746.263 369.942 744.382 371.07C742.501 372.199 741.027 373.61 739.961 375.303C738.895 376.933 738.362 378.783 738.362 380.852C738.362 382.357 738.613 383.674 739.115 384.802C739.679 385.868 740.432 386.746 741.372 387.436C742.313 388.063 743.379 388.533 744.57 388.846C745.824 389.16 747.141 389.317 748.52 389.317C749.962 389.317 751.248 389.129 752.377 388.752C753.568 388.439 754.602 388.031 755.48 387.53C756.421 386.965 757.205 386.401 757.832 385.837C758.459 385.21 758.96 384.614 759.337 384.05C759.525 385.366 760.12 386.589 761.124 387.718C762.127 388.784 763.883 389.317 766.391 389.317C768.021 389.317 769.369 389.066 770.435 388.564C771.564 388.063 772.473 387.467 773.163 386.777C773.852 386.088 774.323 385.398 774.573 384.708C774.887 383.956 775.044 383.391 775.044 383.015C775.044 382.702 774.95 382.545 774.761 382.545C774.573 382.545 774.354 382.796 774.103 383.297C773.601 384.363 772.974 385.241 772.222 385.931C771.47 386.558 770.654 386.871 769.777 386.871C768.523 386.871 767.77 386.37 767.519 385.366C767.268 384.301 767.143 382.858 767.143 381.04V358.279C767.143 355.583 766.14 353.513 764.133 352.071C762.127 350.566 759.054 349.814 754.916 349.814C752.972 349.814 751.091 350.033 749.273 350.472C747.517 350.849 746.075 351.382 744.946 352.071ZM759.054 368.531V381.604C759.054 382.169 758.772 382.764 758.208 383.391C757.706 384.018 757.048 384.614 756.233 385.178C755.48 385.68 754.665 386.088 753.787 386.401C752.972 386.715 752.282 386.871 751.718 386.871C749.774 386.871 748.301 386.119 747.298 384.614C746.294 383.109 745.793 381.071 745.793 378.501C745.793 376.431 746.169 374.77 746.921 373.516C747.674 372.262 748.646 371.29 749.837 370.6C751.091 369.91 752.502 369.44 754.07 369.189C755.7 368.876 757.361 368.656 759.054 368.531ZM792.018 351.131V336.364L783.93 340.409V351.131H777.534V352.636H783.93V378.03C783.93 381.542 784.87 384.301 786.751 386.307C788.632 388.314 791.36 389.317 794.934 389.317C798.633 389.317 801.236 388.596 802.74 387.154C804.308 385.649 805.311 383.611 805.75 381.04C805.813 380.726 805.844 380.538 805.844 380.476C805.844 380.413 805.844 380.319 805.844 380.193C805.844 379.692 805.656 379.441 805.28 379.441C804.778 379.441 804.496 379.755 804.433 380.382C804.12 382.513 803.399 384.206 802.27 385.461C801.141 386.652 799.762 387.248 798.132 387.248C795.937 387.248 794.37 386.495 793.429 384.99C792.488 383.485 792.018 381.228 792.018 378.218V352.636H801.141V351.131H792.018ZM366.407 455.8H381.607V516.6C376.674 509.4 369.407 505.8 359.807 505.8C355.007 505.8 350.34 507 345.807 509.4C341.274 511.8 337.274 515 333.807 519C330.34 522.867 327.54 527.333 325.407 532.4C323.274 537.333 322.207 542.4 322.207 547.6C322.207 553.2 323.34 558.6 325.607 563.8C328.007 568.867 331.007 573.333 334.607 577.2C338.207 581.067 342.207 584.133 346.607 586.4C351.007 588.667 355.207 589.8 359.207 589.8C364.54 589.8 369.007 588.467 372.607 585.8C376.207 583.133 379.207 580.067 381.607 576.6V587H414.007V583.8H398.807V452.6H366.407V455.8ZM343.007 542.6C343.007 530.2 344.34 521.533 347.007 516.6C349.674 511.533 354.207 509 360.607 509C363.407 509 365.874 509.467 368.007 510.4C370.274 511.333 372.207 512.6 373.807 514.2C375.54 515.667 377.007 517.267 378.207 519C379.54 520.733 380.674 522.4 381.607 524V570.8C378.674 575.733 375.407 579.6 371.807 582.4C368.34 585.2 364.407 586.6 360.007 586.6C357.207 586.6 354.74 586.067 352.607 585C350.474 583.8 348.674 581.933 347.207 579.4C345.874 576.733 344.807 573.2 344.007 568.8C343.34 564.4 343.007 558.933 343.007 552.4V542.6ZM586.241 583.8V587H633.441V583.8H618.441V511.8H634.641V508.6H618.441V469.4C618.441 459.4 621.908 454.4 628.841 454.4C631.508 454.4 633.641 454.8 635.241 455.6C636.975 456.4 637.841 457.067 637.841 457.6C637.841 458 637.708 458.267 637.441 458.4C636.108 459.067 635.108 460 634.441 461.2C633.775 462.267 633.441 463.467 633.441 464.8C633.441 466.933 634.108 468.6 635.441 469.8C636.775 470.867 638.375 471.4 640.241 471.4C642.508 471.4 644.108 470.733 645.041 469.4C646.108 467.933 646.641 466.267 646.641 464.4C646.641 461.2 644.975 458.2 641.641 455.4C638.441 452.6 634.041 451.2 628.441 451.2C624.175 451.2 619.908 452.467 615.641 455C611.375 457.533 607.908 461.933 605.241 468.2C603.375 472.733 602.241 477.933 601.841 483.8C601.441 489.667 601.241 495.067 601.241 500V508.6H586.441V511.8H601.241V583.8H586.241ZM727.201 508.6H695.001V511.8H710.001V583.8H695.001V587H742.201V583.8H727.201V508.6ZM728.801 471.6C728.801 468.667 727.801 466.2 725.801 464.2C723.801 462.2 721.334 461.2 718.401 461.2C715.467 461.2 713.001 462.2 711.001 464.2C709.001 466.2 708.001 468.667 708.001 471.6C708.001 474.533 709.001 477 711.001 479C713.001 481 715.467 482 718.401 482C721.334 482 723.801 481 725.801 479C727.801 477 728.801 474.533 728.801 471.6ZM822.99 523.8V508.6H791.79V511.8H805.79V583.8H791.79V587H836.99V583.8H822.99V534.2C822.99 531.933 823.59 529.533 824.79 527C825.99 524.333 827.523 521.867 829.39 519.6C831.39 517.333 833.59 515.467 835.99 514C838.523 512.533 841.123 511.8 843.79 511.8C847.657 511.8 850.457 513 852.19 515.4C854.057 517.8 854.99 521.6 854.99 526.8V583.8H840.99V587H886.19V583.8H872.19V525.4C872.19 518.467 870.19 513.667 866.19 511C862.323 508.333 857.323 507 851.19 507C843.857 507 837.857 508.667 833.19 512C828.657 515.333 825.257 519.267 822.99 523.8ZM1001.39 538.4C1001.25 536.267 1000.52 533.333 999.185 529.6C997.985 525.867 996.052 522.267 993.385 518.8C990.718 515.333 987.185 512.333 982.785 509.8C978.385 507.133 972.985 505.8 966.585 505.8C961.252 505.8 956.252 507.067 951.585 509.6C947.052 512.133 943.118 515.4 939.785 519.4C936.452 523.4 933.852 527.933 931.985 533C930.118 538.067 929.185 543.2 929.185 548.4C929.185 553.6 930.118 558.667 931.985 563.6C933.852 568.533 936.452 572.933 939.785 576.8C943.118 580.667 947.118 583.8 951.785 586.2C956.585 588.6 961.785 589.8 967.385 589.8C971.918 589.8 976.052 589.133 979.785 587.8C983.518 586.6 986.785 584.933 989.585 582.8C992.518 580.533 994.985 577.933 996.985 575C998.985 572.067 1000.59 569 1001.79 565.8C1002.19 564.867 1002.39 563.933 1002.39 563C1002.39 562.067 1001.99 561.6 1001.19 561.6C1000.52 561.6 999.918 562.267 999.385 563.6C998.185 566.4 996.652 569.2 994.785 572C993.052 574.8 990.852 577.267 988.185 579.4C985.652 581.533 982.718 583.267 979.385 584.6C976.052 585.933 972.185 586.6 967.785 586.6C962.452 586.6 958.118 584.6 954.785 580.6C951.585 576.6 949.985 570.2 949.985 561.4V541H998.185C1000.32 541 1001.39 540.133 1001.39 538.4ZM949.985 537.8V529.8C949.985 525.4 950.452 521.867 951.385 519.2C952.452 516.4 953.785 514.267 955.385 512.8C956.985 511.333 958.785 510.333 960.785 509.8C962.785 509.267 964.785 509 966.785 509C969.985 509 972.585 509.6 974.585 510.8C976.718 511.867 978.385 513.333 979.585 515.2C980.785 517.067 981.585 519.133 981.985 521.4C982.385 523.667 982.585 526 982.585 528.4C982.585 534.667 981.585 537.8 979.585 537.8H949.985ZM1104.3 506.8L1099.7 511.4C1095.57 507.667 1090.5 505.8 1084.5 505.8C1080.24 505.8 1076.44 506.533 1073.1 508C1069.77 509.333 1066.97 511.2 1064.7 513.6C1062.57 516 1060.9 518.733 1059.7 521.8C1058.64 524.867 1058.1 528 1058.1 531.2C1058.1 536.133 1059.5 540.467 1062.3 544.2C1065.24 547.933 1069.57 550.467 1075.3 551.8C1077.04 552.2 1078.97 552.667 1081.1 553.2C1083.24 553.6 1085.37 554.133 1087.5 554.8C1089.77 555.333 1091.9 556 1093.9 556.8C1096.04 557.467 1097.9 558.267 1099.5 559.2C1102.17 560.667 1103.97 562.4 1104.9 564.4C1105.97 566.4 1106.5 568.467 1106.5 570.6C1106.5 573.4 1105.77 575.867 1104.3 578C1102.97 580 1101.24 581.667 1099.1 583C1096.97 584.2 1094.7 585.133 1092.3 585.8C1089.9 586.333 1087.64 586.6 1085.5 586.6C1079.37 586.6 1073.97 584.933 1069.3 581.6C1064.64 578.133 1061.37 572.867 1059.5 565.8C1059.1 564.6 1058.57 564 1057.9 564C1057.1 564 1056.7 564.533 1056.7 565.6V587C1056.7 588.067 1057.1 588.6 1057.9 588.6C1058.44 588.6 1058.9 588.267 1059.3 587.6L1063.5 581.4C1065.9 583.933 1068.9 585.933 1072.5 587.4C1076.24 589 1080.77 589.8 1086.1 589.8C1090.5 589.8 1094.37 589.067 1097.7 587.6C1101.04 586.267 1103.84 584.4 1106.1 582C1108.5 579.467 1110.3 576.6 1111.5 573.4C1112.7 570.067 1113.3 566.467 1113.3 562.6C1113.3 557.533 1112.04 552.733 1109.5 548.2C1106.97 543.667 1102.17 540.2 1095.1 537.8C1093.9 537.4 1092.37 537 1090.5 536.6C1088.64 536.067 1086.64 535.533 1084.5 535C1082.5 534.467 1080.44 533.933 1078.3 533.4C1076.3 532.867 1074.64 532.4 1073.3 532C1070.64 531.067 1068.7 529.933 1067.5 528.6C1066.44 527.133 1065.9 525.133 1065.9 522.6C1065.9 519.133 1067.57 516 1070.9 513.2C1074.24 510.4 1078.44 509 1083.5 509C1086.7 509 1089.5 509.6 1091.9 510.8C1094.44 512 1096.5 513.533 1098.1 515.4C1099.84 517.267 1101.17 519.4 1102.1 521.8C1103.17 524.067 1103.9 526.333 1104.3 528.6C1104.44 529.4 1104.84 529.8 1105.5 529.8C1106.04 529.8 1106.3 529.4 1106.3 528.6V507.2C1106.3 506.267 1106.1 505.8 1105.7 505.8C1105.44 505.8 1104.97 506.133 1104.3 506.8ZM542.601 692.071C540.594 693.388 539.591 694.956 539.591 696.774C539.591 697.652 539.873 698.467 540.438 699.219C541.065 699.909 541.911 700.254 542.977 700.254C544.043 700.254 544.89 699.94 545.517 699.313C546.206 698.686 546.551 697.903 546.551 696.962C546.551 696.523 546.457 696.084 546.269 695.645C546.144 695.144 545.861 694.673 545.423 694.235C545.109 693.921 544.858 693.702 544.67 693.576C544.482 693.451 544.388 693.294 544.388 693.106C544.388 692.855 544.576 692.604 544.952 692.353C545.328 692.103 545.799 691.883 546.363 691.695C546.927 691.507 547.554 691.35 548.244 691.225C548.997 691.099 549.718 691.037 550.407 691.037C552.351 691.037 553.887 691.413 555.016 692.165C556.145 692.918 556.709 694.36 556.709 696.492V707.59C553.825 707.59 551.129 707.904 548.62 708.531C546.112 709.095 543.918 709.942 542.037 711.07C540.156 712.199 538.682 713.61 537.616 715.303C536.55 716.933 536.017 718.783 536.017 720.852C536.017 722.357 536.268 723.674 536.77 724.802C537.334 725.868 538.086 726.746 539.027 727.436C539.967 728.063 541.033 728.533 542.225 728.846C543.479 729.16 544.796 729.317 546.175 729.317C547.617 729.317 548.903 729.129 550.031 728.752C551.223 728.439 552.257 728.031 553.135 727.53C554.076 726.965 554.859 726.401 555.486 725.837C556.113 725.21 556.615 724.614 556.991 724.05C557.179 725.366 557.775 726.589 558.778 727.718C559.781 728.784 561.537 729.317 564.045 729.317C565.676 729.317 567.024 729.066 568.09 728.564C569.218 728.063 570.127 727.467 570.817 726.777C571.507 726.088 571.977 725.398 572.228 724.708C572.542 723.956 572.698 723.391 572.698 723.015C572.698 722.702 572.604 722.545 572.416 722.545C572.228 722.545 572.009 722.796 571.758 723.297C571.256 724.363 570.629 725.241 569.877 725.931C569.124 726.558 568.309 726.871 567.431 726.871C566.177 726.871 565.425 726.37 565.174 725.366C564.923 724.301 564.798 722.858 564.798 721.04V698.279C564.798 695.583 563.794 693.513 561.788 692.071C559.781 690.566 556.709 689.814 552.571 689.814C550.627 689.814 548.746 690.033 546.927 690.472C545.172 690.849 543.73 691.382 542.601 692.071ZM556.709 708.531V721.604C556.709 722.169 556.427 722.764 555.863 723.391C555.361 724.018 554.703 724.614 553.887 725.178C553.135 725.68 552.32 726.088 551.442 726.401C550.627 726.715 549.937 726.871 549.373 726.871C547.429 726.871 545.956 726.119 544.952 724.614C543.949 723.109 543.447 721.071 543.447 718.501C543.447 716.431 543.824 714.77 544.576 713.516C545.328 712.262 546.3 711.29 547.492 710.6C548.746 709.91 550.157 709.44 551.724 709.189C553.354 708.876 555.016 708.656 556.709 708.531ZM648.122 679.468C648.122 677.148 647.589 675.079 646.523 673.26C645.457 671.379 644.015 669.843 642.196 668.652C640.441 667.398 638.403 666.457 636.083 665.83C633.763 665.14 631.349 664.796 628.841 664.796H601.471V666.3H609.559V726.495H601.471V728H629.593C636.114 728 641.162 726.495 644.736 723.485C648.373 720.476 650.191 716.306 650.191 710.976C650.191 708.217 649.627 705.803 648.498 703.734C647.432 701.665 646.084 699.909 644.454 698.467C642.823 697.025 641.005 695.927 638.998 695.175C637.055 694.36 635.236 693.858 633.543 693.67C635.613 693.294 637.525 692.761 639.281 692.071C641.099 691.319 642.635 690.378 643.889 689.25C645.206 688.058 646.241 686.679 646.993 685.111C647.746 683.481 648.122 681.6 648.122 679.468ZM618.683 693.106V666.3H628.841C630.408 666.3 631.819 666.52 633.073 666.959C634.327 667.335 635.393 668.025 636.271 669.028C637.149 669.968 637.838 671.254 638.34 672.884C638.842 674.452 639.093 676.396 639.093 678.716V680.22C639.093 682.729 638.842 684.829 638.34 686.522C637.838 688.152 637.149 689.469 636.271 690.472C635.393 691.413 634.296 692.103 632.979 692.542C631.725 692.918 630.345 693.106 628.841 693.106H618.683ZM618.683 726.495V694.611H628.841C633.167 694.611 636.24 695.927 638.058 698.561C639.939 701.195 640.88 704.957 640.88 709.848V712.105C640.88 716.682 640.002 720.225 638.246 722.733C636.49 725.241 633.355 726.495 628.841 726.495H618.683ZM676.306 729.317C679.127 729.317 681.667 728.69 683.924 727.436C686.244 726.119 688.188 724.489 689.755 722.545C691.386 720.601 692.64 718.469 693.518 716.149C694.395 713.829 694.834 711.635 694.834 709.565C694.834 707.496 694.395 705.302 693.518 702.982C692.64 700.662 691.386 698.53 689.755 696.586C688.188 694.642 686.244 693.043 683.924 691.789C681.667 690.472 679.127 689.814 676.306 689.814C673.484 689.814 670.913 690.472 668.593 691.789C666.336 693.043 664.392 694.642 662.762 696.586C661.132 698.53 659.878 700.662 659 702.982C658.122 705.302 657.683 707.496 657.683 709.565C657.683 711.635 658.122 713.829 659 716.149C659.878 718.469 661.132 720.601 662.762 722.545C664.392 724.489 666.336 726.119 668.593 727.436C670.913 728.69 673.484 729.317 676.306 729.317ZM667.465 707.496C667.465 704.863 667.559 702.543 667.747 700.536C667.998 698.53 668.436 696.837 669.064 695.457C669.691 694.078 670.568 693.043 671.697 692.353C672.888 691.664 674.425 691.319 676.306 691.319C678.187 691.319 679.692 691.664 680.82 692.353C682.012 693.043 682.89 694.078 683.454 695.457C684.081 696.837 684.488 698.53 684.677 700.536C684.927 702.543 685.053 704.863 685.053 707.496V711.54C685.053 714.362 684.927 716.808 684.677 718.877C684.488 720.883 684.081 722.545 683.454 723.862C682.89 725.178 682.012 726.182 680.82 726.871C679.692 727.498 678.187 727.812 676.306 727.812C674.425 727.812 672.888 727.498 671.697 726.871C670.568 726.182 669.691 725.178 669.064 723.862C668.436 722.545 667.998 720.883 667.747 718.877C667.559 716.808 667.465 714.362 667.465 711.54V707.496ZM722.846 666.3H729.994V694.893C727.674 691.507 724.256 689.814 719.742 689.814C717.485 689.814 715.29 690.378 713.158 691.507C711.026 692.636 709.145 694.14 707.515 696.022C705.885 697.84 704.568 699.94 703.565 702.323C702.561 704.643 702.06 707.026 702.06 709.471C702.06 712.105 702.593 714.644 703.659 717.09C704.787 719.472 706.198 721.573 707.891 723.391C709.584 725.21 711.465 726.652 713.534 727.718C715.603 728.784 717.579 729.317 719.46 729.317C721.968 729.317 724.068 728.69 725.761 727.436C727.454 726.182 728.865 724.739 729.994 723.109V728H745.231V726.495H738.082V664.796H722.846V666.3ZM711.841 707.12C711.841 701.289 712.468 697.213 713.722 694.893C714.976 692.51 717.108 691.319 720.118 691.319C721.435 691.319 722.595 691.538 723.598 691.977C724.664 692.416 725.573 693.012 726.326 693.764C727.141 694.454 727.831 695.206 728.395 696.022C729.022 696.837 729.555 697.62 729.994 698.373V720.382C728.614 722.702 727.078 724.52 725.385 725.837C723.755 727.154 721.905 727.812 719.836 727.812C718.519 727.812 717.359 727.561 716.356 727.059C715.353 726.495 714.506 725.617 713.816 724.426C713.189 723.172 712.688 721.51 712.312 719.441C711.998 717.372 711.841 714.801 711.841 711.729V707.12ZM765.951 729.317C768.773 729.317 771.312 728.69 773.57 727.436C775.89 726.119 777.833 724.489 779.401 722.545C781.031 720.601 782.285 718.469 783.163 716.149C784.041 713.829 784.48 711.635 784.48 709.565C784.48 707.496 784.041 705.302 783.163 702.982C782.285 700.662 781.031 698.53 779.401 696.586C777.833 694.642 775.89 693.043 773.57 691.789C771.312 690.472 768.773 689.814 765.951 689.814C763.13 689.814 760.559 690.472 758.239 691.789C755.981 693.043 754.038 694.642 752.407 696.586C750.777 698.53 749.523 700.662 748.645 702.982C747.767 705.302 747.328 707.496 747.328 709.565C747.328 711.635 747.767 713.829 748.645 716.149C749.523 718.469 750.777 720.601 752.407 722.545C754.038 724.489 755.981 726.119 758.239 727.436C760.559 728.69 763.13 729.317 765.951 729.317ZM757.11 707.496C757.11 704.863 757.204 702.543 757.392 700.536C757.643 698.53 758.082 696.837 758.709 695.457C759.336 694.078 760.214 693.043 761.343 692.353C762.534 691.664 764.07 691.319 765.951 691.319C767.832 691.319 769.337 691.664 770.466 692.353C771.657 693.043 772.535 694.078 773.099 695.457C773.726 696.837 774.134 698.53 774.322 700.536C774.573 702.543 774.698 704.863 774.698 707.496V711.54C774.698 714.362 774.573 716.808 774.322 718.877C774.134 720.883 773.726 722.545 773.099 723.862C772.535 725.178 771.657 726.182 770.466 726.871C769.337 727.498 767.832 727.812 765.951 727.812C764.07 727.812 762.534 727.498 761.343 726.871C760.214 726.182 759.336 725.178 758.709 723.862C758.082 722.545 757.643 720.883 757.392 718.877C757.204 716.808 757.11 714.362 757.11 711.54V707.496ZM804.727 698.279V691.131H790.054V692.636H796.638V726.495H790.054V728H811.31V726.495H804.727V703.17C804.727 702.104 805.009 700.975 805.573 699.784C806.137 698.53 806.858 697.37 807.736 696.304C808.677 695.238 809.711 694.36 810.84 693.67C812.031 692.98 813.254 692.636 814.508 692.636C816.327 692.636 817.643 693.2 818.458 694.329C819.336 695.457 819.775 697.244 819.775 699.69V726.495H813.191V728H834.448V726.495H827.864V699.031C827.864 695.771 826.923 693.513 825.042 692.259C823.224 691.005 820.873 690.378 817.988 690.378C814.54 690.378 811.718 691.162 809.523 692.73C807.391 694.297 805.792 696.147 804.727 698.279ZM855.163 691.131H840.02V692.636H847.074V726.495H840.02V728H862.217V726.495H855.163V691.131ZM855.916 673.731C855.916 672.351 855.445 671.191 854.505 670.251C853.564 669.31 852.404 668.84 851.025 668.84C849.645 668.84 848.485 669.31 847.545 670.251C846.604 671.191 846.134 672.351 846.134 673.731C846.134 675.11 846.604 676.27 847.545 677.211C848.485 678.151 849.645 678.621 851.025 678.621C852.404 678.621 853.564 678.151 854.505 677.211C855.445 676.27 855.916 675.11 855.916 673.731ZM898.611 678.904C898.611 674.577 897.294 671.317 894.661 669.122C892.09 666.927 888.547 665.83 884.033 665.83C881.65 665.83 879.518 666.112 877.637 666.677C875.819 667.178 874.282 667.868 873.028 668.746C871.774 669.561 870.802 670.533 870.113 671.661C869.486 672.727 869.172 673.825 869.172 674.953C869.172 676.396 869.642 677.587 870.583 678.527C871.586 679.468 872.809 679.938 874.251 679.938C875.881 679.938 877.167 679.468 878.107 678.527C879.048 677.587 879.518 676.427 879.518 675.047C879.518 674.044 879.205 673.135 878.578 672.32C877.95 671.442 876.916 670.846 875.474 670.533C875.223 670.47 875.097 670.376 875.097 670.251C875.097 670.063 875.254 669.812 875.568 669.498C875.881 669.185 876.383 668.871 877.073 668.558C877.825 668.244 878.766 667.962 879.894 667.711C881.086 667.46 882.528 667.335 884.221 667.335C887.481 667.335 889.864 668.056 891.369 669.498C892.874 670.94 893.626 672.508 893.626 674.201C893.626 675.455 893.313 676.709 892.686 677.963C892.059 679.217 891.212 680.503 890.146 681.819C889.268 682.885 888.391 683.857 887.513 684.735C886.635 685.613 885.757 686.522 884.879 687.463C884.064 688.34 883.249 689.312 882.434 690.378C881.681 691.382 880.992 692.604 880.365 694.046C880.051 694.862 879.832 695.771 879.706 696.774C879.581 697.715 879.518 698.718 879.518 699.784C879.518 701.665 879.643 703.515 879.894 705.333C880.208 707.151 880.459 708.562 880.647 709.565C880.709 710.004 880.96 710.224 881.399 710.224C881.901 710.224 882.152 710.004 882.152 709.565C882.152 709.252 882.12 708.97 882.058 708.719C882.058 708.405 882.026 708.029 881.963 707.59C881.901 707.214 881.869 706.744 881.869 706.179C881.869 705.552 881.869 704.894 881.869 704.204C881.869 703.201 882.308 702.104 883.186 700.912C884.127 699.721 885.255 698.467 886.572 697.15C887.952 695.833 889.394 694.485 890.899 693.106C892.403 691.726 893.72 690.347 894.849 688.967C896.166 687.337 897.106 685.676 897.671 683.983C898.298 682.29 898.611 680.597 898.611 678.904ZM886.384 723.297C886.384 721.855 885.882 720.664 884.879 719.723C883.939 718.72 882.747 718.218 881.305 718.218C879.863 718.218 878.64 718.72 877.637 719.723C876.696 720.664 876.226 721.855 876.226 723.297C876.226 724.739 876.696 725.962 877.637 726.965C878.64 727.906 879.863 728.376 881.305 728.376C882.747 728.376 883.939 727.906 884.879 726.965C885.882 725.962 886.384 724.739 886.384 723.297Z" fill="black"/>
<path d="M535.323 538.4C535.189 536.267 534.456 533.333 533.123 529.6C531.923 525.867 529.989 522.267 527.323 518.8C524.656 515.333 521.123 512.333 516.723 509.8C512.323 507.133 506.923 505.8 500.523 505.8C495.189 505.8 490.189 507.067 485.523 509.6C480.989 512.133 477.056 515.4 473.723 519.4C470.389 523.4 467.789 527.933 465.923 533C464.056 538.067 463.123 543.2 463.123 548.4C463.123 553.6 464.056 558.667 465.923 563.6C467.789 568.533 470.389 572.933 473.723 576.8C477.056 580.667 481.056 583.8 485.723 586.2C490.523 588.6 495.723 589.8 501.323 589.8C505.856 589.8 509.989 589.133 513.723 587.8C517.456 586.6 520.723 584.933 523.523 582.8C526.456 580.533 528.923 577.933 530.923 575C532.923 572.067 534.523 569 535.723 565.8C536.123 564.867 536.323 563.933 536.323 563C536.323 562.067 535.923 561.6 535.123 561.6C534.456 561.6 533.856 562.267 533.323 563.6C532.123 566.4 530.589 569.2 528.723 572C526.989 574.8 524.789 577.267 522.123 579.4C519.589 581.533 516.656 583.267 513.323 584.6C509.989 585.933 506.123 586.6 501.723 586.6C496.389 586.6 492.056 584.6 488.723 580.6C485.523 576.6 483.923 570.2 483.923 561.4V541H532.123C534.256 541 535.323 540.133 535.323 538.4ZM483.923 537.8V529.8C483.923 525.4 484.389 521.867 485.323 519.2C486.389 516.4 487.723 514.267 489.323 512.8C490.923 511.333 492.723 510.333 494.723 509.8C496.723 509.267 498.723 509 500.723 509C503.923 509 506.523 509.6 508.523 510.8C510.656 511.867 512.323 513.333 513.523 515.2C514.723 517.067 515.523 519.133 515.923 521.4C516.323 523.667 516.523 526 516.523 528.4C516.523 534.667 515.523 537.8 513.523 537.8H483.923Z" fill="#F8169D"/>
<circle cx="718" cy="471" r="11" fill="#F8169D"/>
<path d="M1016 494L1016 925" stroke="black"/>
<path d="M1016 784H1034" stroke="black"/>
<path d="M1016 844H1034" stroke="black"/>
<path d="M1016 724H1034" stroke="black"/>
<path d="M1016 764H1034" stroke="black"/>
<path d="M1016 824H1034" stroke="black"/>
<path d="M1016 704H1034" stroke="black"/>
<path d="M1016 864H1034" stroke="black"/>
<path d="M1016 744H1034" stroke="black"/>
<path d="M1016 754H1026" stroke="black" stroke-width="0.5"/>
<path d="M1016 834H1026" stroke="black" stroke-width="0.5"/>
<path d="M1016 914H1026" stroke="black" stroke-width="0.5"/>
<path d="M1016 714H1026" stroke="black" stroke-width="0.5"/>
<path d="M1016 794H1026" stroke="black" stroke-width="0.5"/>
<path d="M1016 874H1026" stroke="black" stroke-width="0.5"/>
<path d="M1016 734H1026" stroke="black" stroke-width="0.5"/>
<path d="M1016 814H1026" stroke="black" stroke-width="0.5"/>
<path d="M1016 894H1026" stroke="black" stroke-width="0.5"/>
<path d="M1016 694H1026" stroke="black" stroke-width="0.5"/>
<path d="M1016 774H1026" stroke="black" stroke-width="0.5"/>
<path d="M1016 854H1026" stroke="black" stroke-width="0.5"/>
<path d="M1016 804H1034" stroke="black"/>
<g clip-path="url(#clip0_110_1662)">
<path d="M494.99 421.71L481.006 421.541" stroke="black" stroke-miterlimit="10"/>
<path d="M497.811 404.526L484.727 399.585" stroke="black" stroke-miterlimit="10"/>
<path d="M506.339 389.347L495.733 380.224" stroke="black" stroke-miterlimit="10"/>
<path d="M519.539 378L512.689 365.799" stroke="black" stroke-miterlimit="10"/>
<path d="M535.828 371.856L533.564 358.046" stroke="black" stroke-miterlimit="10"/>
<path d="M494.99 421.71L481.006 421.541" stroke="black" stroke-miterlimit="10"/>
<path d="M485.029 410.978L492.947 412.436" stroke="black" stroke-width="0.5" stroke-miterlimit="10"/>
<path d="M492 391.124L498.937 395.2" stroke="black" stroke-width="0.5" stroke-miterlimit="10"/>
<path d="M505.34 374.852L510.466 381.06" stroke="black" stroke-width="0.5" stroke-miterlimit="10"/>
<path d="M523.435 364.126L526.128 371.711" stroke="black" stroke-width="0.5" stroke-miterlimit="10"/>
<path d="M544.855 360.236L544.797 368.284" stroke="black" stroke-width="0.5" stroke-miterlimit="10"/>
<path d="M544.954 364.51C537.421 364.505 529.961 365.986 523.001 368.867C516.04 371.748 509.716 375.974 504.389 381.302C499.062 386.63 494.837 392.955 491.955 399.918C489.073 406.88 487.592 414.343 487.595 421.878" stroke="black" stroke-width="1.19" stroke-miterlimit="10"/>
</g>
<rect x="1036" y="330" width="81" height="22" transform="rotate(-90 1036 330)" fill="#F8169D"/>
<path d="M1036 330L1058 330" stroke="black"/>
<path d="M1036 249L1058 249" stroke="black"/>
<path d="M1058 249V330" stroke="black"/>
<path d="M1036 249V613" stroke="black"/>
<rect x="1286" y="694" width="20" height="120" transform="rotate(90 1286 694)" fill="black"/>
<path d="M-38 422L870 422" stroke="black"/>
<path d="M545 0L545 672" stroke="black"/>
<path d="M457 422L457 925" stroke="black"/>
<path d="M1166 694L1440 694" stroke="black"/>
<path d="M296 613L1440 613" stroke="black"/>
<defs>
<clipPath id="clip0_110_1662">
<rect width="64" height="64" fill="white" transform="translate(481 422) rotate(-90)"/>
</clipPath>
</defs>
</svg>
