<svg width="52" height="52" viewBox="0 0 52 52" fill="none" xmlns="http://www.w3.org/2000/svg">
<path d="M49.9185 0H2.97837C1.84952 0 0.9375 0.912015 0.9375 2.04087V48.981C0.9375 50.1098 1.84952 51.0218 2.97837 51.0218H49.9185C51.0473 51.0218 51.9593 50.1098 51.9593 48.981V2.04087C51.9593 0.912015 51.0473 0 49.9185 0ZM44.0254 14.892H39.9501C36.7548 14.892 36.1362 16.4099 36.1362 18.6421V23.5593H43.764L42.769 31.2573H36.1362V51.0218H28.1832V31.2636H21.5312V23.5593H28.1832V17.8832C28.1832 11.295 32.2075 7.7043 38.0878 7.7043C40.9067 7.7043 43.3239 7.91476 44.0318 8.01043V14.892H44.0254Z" fill="white"/>
</svg>
