<svg width="484" height="865" viewBox="0 0 484 865" fill="none" xmlns="http://www.w3.org/2000/svg">
<rect x="2.67008" y="0.670077" width="480.66" height="862.66" stroke="#313131" stroke-width="1.34015"/>
<path d="M2 73H484" stroke="#313131" stroke-width="1.34015"/>
<path d="M162.136 0L162.136 864" stroke="#313131" stroke-width="1.34015"/>
<path d="M331.136 0L331.136 864" stroke="#313131" stroke-width="1.34015"/>
<path d="M2 159H484" stroke="#313131" stroke-width="1.34015"/>
<path d="M2 245H484" stroke="#313131" stroke-width="1.34015"/>
<path d="M2 333H484" stroke="#313131" stroke-width="1.34015"/>
<path d="M0.340088 850.998H479.611" stroke="#313131" stroke-width="1.34015"/>
<path d="M2 417H484" stroke="#313131" stroke-width="1.34015"/>
<path d="M2 761H484" stroke="#313131" stroke-width="1.34015"/>
<path d="M2 503H484" stroke="#313131" stroke-width="1.34015"/>
<path d="M2 591H484" stroke="#313131" stroke-width="1.34015"/>
<path d="M2 88H484" stroke="#313131" stroke-width="1.34015"/>
<path d="M142.136 0L142.136 864" stroke="#313131" stroke-width="1.34015"/>
<path d="M311.136 0L311.136 864" stroke="#313131" stroke-width="1.34015"/>
<path d="M2 174H484" stroke="#313131" stroke-width="1.34015"/>
<path d="M2 260H484" stroke="#313131" stroke-width="1.34015"/>
<path d="M2 346H484" stroke="#313131" stroke-width="1.34015"/>
<path d="M2 690H484" stroke="#313131" stroke-width="1.34015"/>
<path d="M2 674H484" stroke="#313131" stroke-width="1.34015"/>
<path d="M0.340088 863.735H479.611" stroke="#313131" stroke-width="1.34015"/>
<path d="M2 432H484" stroke="#313131" stroke-width="1.34015"/>
<path d="M2 775H484" stroke="#313131" stroke-width="1.34015"/>
<path d="M2 517H484" stroke="#313131" stroke-width="1.34015"/>
<path d="M2 605H484" stroke="#313131" stroke-width="1.34015"/>
</svg>
