<svg width="1104" height="237" viewBox="0 0 1104 237" fill="none" xmlns="http://www.w3.org/2000/svg">
<path d="M996.868 31.184H989.308V31.632H991.716L998.016 50.28H998.52L1004.51 31.632H1006.53V31.184H1001.52V31.632H1003.92L999.276 46.108L994.348 31.632H996.868V31.184ZM1014.47 43.196C1014.45 42.8973 1014.35 42.4867 1014.16 41.964C1013.99 41.4413 1013.72 40.9373 1013.35 40.452C1012.98 39.9667 1012.48 39.5467 1011.86 39.192C1011.25 38.8187 1010.49 38.632 1009.6 38.632C1008.85 38.632 1008.15 38.8093 1007.5 39.164C1006.86 39.5187 1006.31 39.976 1005.84 40.536C1005.38 41.096 1005.01 41.7307 1004.75 42.44C1004.49 43.1493 1004.36 43.868 1004.36 44.596C1004.36 45.324 1004.49 46.0333 1004.75 46.724C1005.01 47.4147 1005.38 48.0307 1005.84 48.572C1006.31 49.1133 1006.87 49.552 1007.52 49.888C1008.2 50.224 1008.92 50.392 1009.71 50.392C1010.34 50.392 1010.92 50.2987 1011.44 50.112C1011.97 49.944 1012.42 49.7107 1012.82 49.412C1013.23 49.0947 1013.57 48.7307 1013.85 48.32C1014.13 47.9093 1014.36 47.48 1014.52 47.032C1014.58 46.9013 1014.61 46.7707 1014.61 46.64C1014.61 46.5093 1014.55 46.444 1014.44 46.444C1014.35 46.444 1014.26 46.5373 1014.19 46.724C1014.02 47.116 1013.81 47.508 1013.54 47.9C1013.3 48.292 1012.99 48.6373 1012.62 48.936C1012.27 49.2347 1011.86 49.4773 1011.39 49.664C1010.92 49.8507 1010.38 49.944 1009.76 49.944C1009.02 49.944 1008.41 49.664 1007.94 49.104C1007.5 48.544 1007.27 47.648 1007.27 46.416V43.56H1014.02C1014.32 43.56 1014.47 43.4387 1014.47 43.196ZM1007.27 43.112V41.992C1007.27 41.376 1007.34 40.8813 1007.47 40.508C1007.62 40.116 1007.8 39.8173 1008.03 39.612C1008.25 39.4067 1008.5 39.2667 1008.78 39.192C1009.06 39.1173 1009.34 39.08 1009.62 39.08C1010.07 39.08 1010.44 39.164 1010.72 39.332C1011.02 39.4813 1011.25 39.6867 1011.42 39.948C1011.58 40.2093 1011.7 40.4987 1011.75 40.816C1011.81 41.1333 1011.84 41.46 1011.84 41.796C1011.84 42.6733 1011.7 43.112 1011.42 43.112H1007.27ZM1020.59 40.648V39.024H1016.22V39.472H1018.18V49.552H1016.22V50H1022.55V49.552H1020.59V41.88C1020.59 41.5813 1020.67 41.2733 1020.84 40.956C1021.03 40.6387 1021.26 40.3493 1021.54 40.088C1021.84 39.8267 1022.17 39.6213 1022.52 39.472C1022.88 39.304 1023.22 39.22 1023.56 39.22C1023.76 39.22 1023.94 39.2387 1024.09 39.276C1024.26 39.2947 1024.34 39.36 1024.34 39.472C1024.34 39.5653 1024.29 39.6307 1024.2 39.668C1024.09 39.7427 1023.96 39.8733 1023.81 40.06C1023.66 40.228 1023.59 40.4987 1023.59 40.872C1023.59 41.264 1023.72 41.5907 1023.98 41.852C1024.24 42.0947 1024.58 42.216 1025.01 42.216C1025.39 42.216 1025.71 42.0947 1025.99 41.852C1026.27 41.5907 1026.41 41.236 1026.41 40.788C1026.41 40.4147 1026.34 40.1067 1026.19 39.864C1026.04 39.6027 1025.84 39.3973 1025.6 39.248C1025.38 39.08 1025.11 38.9587 1024.79 38.884C1024.49 38.8093 1024.18 38.772 1023.87 38.772C1023.42 38.772 1023.02 38.8373 1022.66 38.968C1022.31 39.0987 1021.99 39.2573 1021.71 39.444C1021.43 39.6307 1021.2 39.836 1021.01 40.06C1020.82 40.2653 1020.68 40.4613 1020.59 40.648ZM1031.77 39.024V34.628L1029.36 35.832V39.024H1027.46V39.472H1029.36V47.032C1029.36 48.0773 1029.64 48.8987 1030.2 49.496C1030.76 50.0933 1031.58 50.392 1032.64 50.392C1033.74 50.392 1034.52 50.1773 1034.96 49.748C1035.43 49.3 1035.73 48.6933 1035.86 47.928C1035.88 47.8347 1035.89 47.7787 1035.89 47.76C1035.89 47.7413 1035.89 47.7133 1035.89 47.676C1035.89 47.5267 1035.83 47.452 1035.72 47.452C1035.57 47.452 1035.49 47.5453 1035.47 47.732C1035.38 48.3667 1035.16 48.8707 1034.82 49.244C1034.49 49.5987 1034.08 49.776 1033.59 49.776C1032.94 49.776 1032.47 49.552 1032.19 49.104C1031.91 48.656 1031.77 47.984 1031.77 47.088V39.472H1034.49V39.024H1031.77ZM1041.79 39.024H1037.29V39.472H1039.39V49.552H1037.29V50H1043.89V49.552H1041.79V39.024ZM1042.02 33.844C1042.02 33.4333 1041.88 33.088 1041.6 32.808C1041.32 32.528 1040.97 32.388 1040.56 32.388C1040.15 32.388 1039.81 32.528 1039.53 32.808C1039.25 33.088 1039.11 33.4333 1039.11 33.844C1039.11 34.2547 1039.25 34.6 1039.53 34.88C1039.81 35.16 1040.15 35.3 1040.56 35.3C1040.97 35.3 1041.32 35.16 1041.6 34.88C1041.88 34.6 1042.02 34.2547 1042.02 33.844ZM1048.34 45.156V43.924C1048.34 43.0093 1048.4 42.244 1048.51 41.628C1048.62 41.012 1048.79 40.5173 1049.02 40.144C1049.26 39.752 1049.56 39.4813 1049.91 39.332C1050.27 39.164 1050.69 39.08 1051.17 39.08C1051.86 39.08 1052.33 39.1733 1052.57 39.36C1052.83 39.528 1052.96 39.6493 1052.96 39.724C1052.96 39.7987 1052.94 39.864 1052.88 39.92C1052.75 40.0693 1052.65 40.228 1052.57 40.396C1052.52 40.5453 1052.49 40.7413 1052.49 40.984C1052.49 41.3573 1052.61 41.6467 1052.85 41.852C1053.09 42.0387 1053.37 42.132 1053.69 42.132C1054.07 42.132 1054.36 42.02 1054.59 41.796C1054.81 41.572 1054.92 41.2827 1054.92 40.928C1054.92 40.5733 1054.8 40.256 1054.56 39.976C1054.32 39.6773 1054.01 39.4347 1053.64 39.248C1053.28 39.0427 1052.89 38.8933 1052.46 38.8C1052.03 38.688 1051.62 38.632 1051.23 38.632C1050.5 38.632 1049.79 38.7813 1049.1 39.08C1048.41 39.36 1047.79 39.7613 1047.25 40.284C1046.71 40.788 1046.27 41.404 1045.94 42.132C1045.6 42.86 1045.43 43.6627 1045.43 44.54C1045.43 45.436 1045.59 46.248 1045.91 46.976C1046.24 47.6853 1046.67 48.3013 1047.2 48.824C1047.74 49.328 1048.34 49.72 1049.02 50C1049.71 50.2613 1050.4 50.392 1051.09 50.392C1051.78 50.392 1052.39 50.28 1052.91 50.056C1053.43 49.8507 1053.87 49.5893 1054.22 49.272C1054.58 48.936 1054.86 48.5907 1055.06 48.236C1055.27 47.8627 1055.42 47.5267 1055.51 47.228C1055.55 47.116 1055.57 47.0413 1055.57 47.004C1055.57 46.836 1055.49 46.752 1055.34 46.752C1055.23 46.752 1055.15 46.8453 1055.09 47.032C1054.98 47.3867 1054.81 47.7413 1054.59 48.096C1054.36 48.432 1054.08 48.74 1053.75 49.02C1053.43 49.3 1053.05 49.524 1052.6 49.692C1052.17 49.86 1051.69 49.944 1051.17 49.944C1050.59 49.944 1050.12 49.86 1049.74 49.692C1049.39 49.524 1049.1 49.2533 1048.88 48.88C1048.67 48.488 1048.53 47.9933 1048.46 47.396C1048.38 46.78 1048.34 46.0333 1048.34 45.156ZM1059.21 39.304C1058.61 39.696 1058.32 40.1627 1058.32 40.704C1058.32 40.9653 1058.4 41.208 1058.57 41.432C1058.75 41.6373 1059.01 41.74 1059.32 41.74C1059.64 41.74 1059.89 41.6467 1060.08 41.46C1060.29 41.2733 1060.39 41.04 1060.39 40.76C1060.39 40.6293 1060.36 40.4987 1060.3 40.368C1060.27 40.2187 1060.18 40.0787 1060.05 39.948C1059.96 39.8547 1059.88 39.7893 1059.83 39.752C1059.77 39.7147 1059.74 39.668 1059.74 39.612C1059.74 39.5373 1059.8 39.4627 1059.91 39.388C1060.02 39.3133 1060.16 39.248 1060.33 39.192C1060.5 39.136 1060.69 39.0893 1060.89 39.052C1061.12 39.0147 1061.33 38.996 1061.54 38.996C1062.11 38.996 1062.57 39.108 1062.91 39.332C1063.24 39.556 1063.41 39.9853 1063.41 40.62V43.924C1062.55 43.924 1061.75 44.0173 1061 44.204C1060.26 44.372 1059.6 44.624 1059.04 44.96C1058.48 45.296 1058.05 45.716 1057.73 46.22C1057.41 46.7053 1057.25 47.256 1057.25 47.872C1057.25 48.32 1057.33 48.712 1057.48 49.048C1057.64 49.3653 1057.87 49.6267 1058.15 49.832C1058.43 50.0187 1058.75 50.1587 1059.1 50.252C1059.47 50.3453 1059.87 50.392 1060.28 50.392C1060.71 50.392 1061.09 50.336 1061.42 50.224C1061.78 50.1307 1062.09 50.0093 1062.35 49.86C1062.63 49.692 1062.86 49.524 1063.05 49.356C1063.23 49.1693 1063.38 48.992 1063.5 48.824C1063.55 49.216 1063.73 49.58 1064.03 49.916C1064.33 50.2333 1064.85 50.392 1065.6 50.392C1066.08 50.392 1066.48 50.3173 1066.8 50.168C1067.14 50.0187 1067.41 49.8413 1067.61 49.636C1067.82 49.4307 1067.96 49.2253 1068.03 49.02C1068.13 48.796 1068.17 48.628 1068.17 48.516C1068.17 48.4227 1068.14 48.376 1068.09 48.376C1068.03 48.376 1067.97 48.4507 1067.89 48.6C1067.74 48.9173 1067.56 49.1787 1067.33 49.384C1067.11 49.5707 1066.87 49.664 1066.6 49.664C1066.23 49.664 1066.01 49.5147 1065.93 49.216C1065.86 48.8987 1065.82 48.4693 1065.82 47.928V41.152C1065.82 40.3493 1065.52 39.7333 1064.92 39.304C1064.33 38.856 1063.41 38.632 1062.18 38.632C1061.6 38.632 1061.04 38.6973 1060.5 38.828C1059.98 38.94 1059.55 39.0987 1059.21 39.304ZM1063.41 44.204V48.096C1063.41 48.264 1063.33 48.4413 1063.16 48.628C1063.01 48.8147 1062.81 48.992 1062.57 49.16C1062.35 49.3093 1062.11 49.4307 1061.84 49.524C1061.6 49.6173 1061.4 49.664 1061.23 49.664C1060.65 49.664 1060.21 49.44 1059.91 48.992C1059.61 48.544 1059.46 47.9373 1059.46 47.172C1059.46 46.556 1059.58 46.0613 1059.8 45.688C1060.02 45.3147 1060.31 45.0253 1060.67 44.82C1061.04 44.6147 1061.46 44.4747 1061.93 44.4C1062.41 44.3067 1062.91 44.2413 1063.41 44.204ZM1073.75 49.552V31.184H1069.39V31.632H1071.35V49.552H1069.39V50H1075.71V49.552H1073.75ZM992.22 71.304C991.623 71.696 991.324 72.1627 991.324 72.704C991.324 72.9653 991.408 73.208 991.576 73.432C991.763 73.6373 992.015 73.74 992.332 73.74C992.649 73.74 992.901 73.6467 993.088 73.46C993.293 73.2733 993.396 73.04 993.396 72.76C993.396 72.6293 993.368 72.4987 993.312 72.368C993.275 72.2187 993.191 72.0787 993.06 71.948C992.967 71.8547 992.892 71.7893 992.836 71.752C992.78 71.7147 992.752 71.668 992.752 71.612C992.752 71.5373 992.808 71.4627 992.92 71.388C993.032 71.3133 993.172 71.248 993.34 71.192C993.508 71.136 993.695 71.0893 993.9 71.052C994.124 71.0147 994.339 70.996 994.544 70.996C995.123 70.996 995.58 71.108 995.916 71.332C996.252 71.556 996.42 71.9853 996.42 72.62V75.924C995.561 75.924 994.759 76.0173 994.012 76.204C993.265 76.372 992.612 76.624 992.052 76.96C991.492 77.296 991.053 77.716 990.736 78.22C990.419 78.7053 990.26 79.256 990.26 79.872C990.26 80.32 990.335 80.712 990.484 81.048C990.652 81.3653 990.876 81.6267 991.156 81.832C991.436 82.0187 991.753 82.1587 992.108 82.252C992.481 82.3453 992.873 82.392 993.284 82.392C993.713 82.392 994.096 82.336 994.432 82.224C994.787 82.1307 995.095 82.0093 995.356 81.86C995.636 81.692 995.869 81.524 996.056 81.356C996.243 81.1693 996.392 80.992 996.504 80.824C996.56 81.216 996.737 81.58 997.036 81.916C997.335 82.2333 997.857 82.392 998.604 82.392C999.089 82.392 999.491 82.3173 999.808 82.168C1000.14 82.0187 1000.41 81.8413 1000.62 81.636C1000.83 81.4307 1000.97 81.2253 1001.04 81.02C1001.13 80.796 1001.18 80.628 1001.18 80.516C1001.18 80.4227 1001.15 80.376 1001.1 80.376C1001.04 80.376 1000.97 80.4507 1000.9 80.6C1000.75 80.9173 1000.56 81.1787 1000.34 81.384C1000.12 81.5707 999.873 81.664 999.612 81.664C999.239 81.664 999.015 81.5147 998.94 81.216C998.865 80.8987 998.828 80.4693 998.828 79.928V73.152C998.828 72.3493 998.529 71.7333 997.932 71.304C997.335 70.856 996.42 70.632 995.188 70.632C994.609 70.632 994.049 70.6973 993.508 70.828C992.985 70.94 992.556 71.0987 992.22 71.304ZM996.42 76.204V80.096C996.42 80.264 996.336 80.4413 996.168 80.628C996.019 80.8147 995.823 80.992 995.58 81.16C995.356 81.3093 995.113 81.4307 994.852 81.524C994.609 81.6173 994.404 81.664 994.236 81.664C993.657 81.664 993.219 81.44 992.92 80.992C992.621 80.544 992.472 79.9373 992.472 79.172C992.472 78.556 992.584 78.0613 992.808 77.688C993.032 77.3147 993.321 77.0253 993.676 76.82C994.049 76.6147 994.469 76.4747 994.936 76.4C995.421 76.3067 995.916 76.2413 996.42 76.204ZM1002.01 71.024V71.472H1003.58L1007.38 76.96L1004 81.552H1002.12V82H1006.63V81.552H1004.56L1007.66 77.38L1010.55 81.552H1008.45V82H1014.78V81.552H1013.1L1009.04 75.7L1012.2 71.472H1013.99V71.024H1009.79V71.472H1011.58L1008.76 75.308L1006.1 71.472H1007.92V71.024H1002.01ZM1020.77 71.024H1016.26V71.472H1018.36V81.552H1016.26V82H1022.87V81.552H1020.77V71.024ZM1020.99 65.844C1020.99 65.4333 1020.85 65.088 1020.57 64.808C1020.29 64.528 1019.94 64.388 1019.53 64.388C1019.12 64.388 1018.78 64.528 1018.5 64.808C1018.22 65.088 1018.08 65.4333 1018.08 65.844C1018.08 66.2547 1018.22 66.6 1018.5 66.88C1018.78 67.16 1019.12 67.3 1019.53 67.3C1019.94 67.3 1020.29 67.16 1020.57 66.88C1020.85 66.6 1020.99 66.2547 1020.99 65.844ZM1031.43 70.772L1030.79 71.416C1030.21 70.8933 1029.5 70.632 1028.66 70.632C1028.06 70.632 1027.53 70.7347 1027.06 70.94C1026.6 71.1267 1026.21 71.388 1025.89 71.724C1025.59 72.06 1025.36 72.4427 1025.19 72.872C1025.04 73.3013 1024.96 73.74 1024.96 74.188C1024.96 74.8787 1025.16 75.4853 1025.55 76.008C1025.96 76.5307 1026.57 76.8853 1027.37 77.072C1027.62 77.128 1027.89 77.1933 1028.18 77.268C1028.48 77.324 1028.78 77.3987 1029.08 77.492C1029.4 77.5667 1029.7 77.66 1029.98 77.772C1030.28 77.8653 1030.54 77.9773 1030.76 78.108C1031.13 78.3133 1031.39 78.556 1031.52 78.836C1031.67 79.116 1031.74 79.4053 1031.74 79.704C1031.74 80.096 1031.64 80.4413 1031.43 80.74C1031.25 81.02 1031 81.2533 1030.7 81.44C1030.41 81.608 1030.09 81.7387 1029.75 81.832C1029.42 81.9067 1029.1 81.944 1028.8 81.944C1027.94 81.944 1027.19 81.7107 1026.53 81.244C1025.88 80.7587 1025.42 80.0213 1025.16 79.032C1025.1 78.864 1025.03 78.78 1024.94 78.78C1024.82 78.78 1024.77 78.8547 1024.77 79.004V82C1024.77 82.1493 1024.82 82.224 1024.94 82.224C1025.01 82.224 1025.08 82.1773 1025.13 82.084L1025.72 81.216C1026.06 81.5707 1026.48 81.8507 1026.98 82.056C1027.5 82.28 1028.14 82.392 1028.88 82.392C1029.5 82.392 1030.04 82.2893 1030.51 82.084C1030.98 81.8973 1031.37 81.636 1031.68 81.3C1032.02 80.9453 1032.27 80.544 1032.44 80.096C1032.61 79.6293 1032.69 79.1253 1032.69 78.584C1032.69 77.8747 1032.52 77.2027 1032.16 76.568C1031.81 75.9333 1031.13 75.448 1030.14 75.112C1029.98 75.056 1029.76 75 1029.5 74.944C1029.24 74.8693 1028.96 74.7947 1028.66 74.72C1028.38 74.6453 1028.09 74.5707 1027.79 74.496C1027.51 74.4213 1027.28 74.356 1027.09 74.3C1026.72 74.1693 1026.45 74.0107 1026.28 73.824C1026.13 73.6187 1026.06 73.3387 1026.06 72.984C1026.06 72.4987 1026.29 72.06 1026.76 71.668C1027.22 71.276 1027.81 71.08 1028.52 71.08C1028.97 71.08 1029.36 71.164 1029.7 71.332C1030.05 71.5 1030.34 71.7147 1030.56 71.976C1030.81 72.2373 1030.99 72.536 1031.12 72.872C1031.27 73.1893 1031.38 73.5067 1031.43 73.824C1031.45 73.936 1031.51 73.992 1031.6 73.992C1031.68 73.992 1031.71 73.936 1031.71 73.824V70.828C1031.71 70.6973 1031.68 70.632 1031.63 70.632C1031.59 70.632 1031.53 70.6787 1031.43 70.772Z" fill="black"/>
<path d="M23.104 57.976V17.016H28.608C30.5707 17.016 32.2773 18.0187 33.728 20.024C35.2213 22.0293 36.2027 24.76 36.672 28.216H38.016L37.056 17.08C37.0133 16.3547 36.5867 15.992 35.776 15.992H4.224C3.41333 15.992 2.98667 16.3547 2.944 17.08L1.984 28.216H3.328C3.79733 24.76 4.75733 22.0293 6.208 20.024C7.70133 18.0187 9.42933 17.016 11.392 17.016H16.896V57.976H11.392V59H28.608V57.976H23.104ZM51.529 38.392V15.992H41.545V17.016H46.025V57.976H41.545V59H56.009V57.976H51.529V41.976C51.529 41.2933 51.6997 40.5467 52.041 39.736C52.425 38.8827 52.9583 38.0933 53.641 37.368C54.3237 36.6 55.113 35.96 56.009 35.448C56.905 34.936 57.9077 34.68 59.017 34.68C59.913 34.68 60.617 34.8293 61.129 35.128C61.641 35.4267 62.025 35.8107 62.281 36.28C62.537 36.7493 62.6863 37.2827 62.729 37.88C62.8143 38.4347 62.857 39.0107 62.857 39.608V57.976H58.441V59H72.841V57.976H68.361V38.904C68.361 36.984 67.6997 35.5333 66.377 34.552C65.097 33.528 63.305 33.016 61.001 33.016C58.4837 33.016 56.457 33.5493 54.921 34.616C53.4277 35.6827 52.297 36.9413 51.529 38.392ZM97.3395 43.448C97.2968 42.7653 97.0622 41.8267 96.6355 40.632C96.2515 39.4373 95.6328 38.2853 94.7795 37.176C93.9262 36.0667 92.7955 35.1067 91.3875 34.296C89.9795 33.4427 88.2515 33.016 86.2035 33.016C84.4968 33.016 82.8968 33.4213 81.4035 34.232C79.9528 35.0427 78.6942 36.088 77.6275 37.368C76.5608 38.648 75.7288 40.0987 75.1315 41.72C74.5342 43.3413 74.2355 44.984 74.2355 46.648C74.2355 48.312 74.5342 49.9333 75.1315 51.512C75.7288 53.0907 76.5608 54.4987 77.6275 55.736C78.6942 56.9733 79.9742 57.976 81.4675 58.744C83.0035 59.512 84.6675 59.896 86.4595 59.896C87.9102 59.896 89.2328 59.6827 90.4275 59.256C91.6222 58.872 92.6675 58.3387 93.5635 57.656C94.5022 56.9307 95.2915 56.0987 95.9315 55.16C96.5715 54.2213 97.0835 53.24 97.4675 52.216C97.5955 51.9173 97.6595 51.6187 97.6595 51.32C97.6595 51.0213 97.5315 50.872 97.2755 50.872C97.0622 50.872 96.8702 51.0853 96.6995 51.512C96.3155 52.408 95.8248 53.304 95.2275 54.2C94.6728 55.096 93.9688 55.8853 93.1155 56.568C92.3048 57.2507 91.3662 57.8053 90.2995 58.232C89.2328 58.6587 87.9955 58.872 86.5875 58.872C84.8808 58.872 83.4942 58.232 82.4275 56.952C81.4035 55.672 80.8915 53.624 80.8915 50.808V44.28H96.3155C96.9982 44.28 97.3395 44.0027 97.3395 43.448ZM80.8915 43.256V40.696C80.8915 39.288 81.0408 38.1573 81.3395 37.304C81.6808 36.408 82.1075 35.7253 82.6195 35.256C83.1315 34.7867 83.7075 34.4667 84.3475 34.296C84.9875 34.1253 85.6275 34.04 86.2675 34.04C87.2915 34.04 88.1235 34.232 88.7635 34.616C89.4462 34.9573 89.9795 35.4267 90.3635 36.024C90.7475 36.6213 91.0035 37.2827 91.1315 38.008C91.2595 38.7333 91.3235 39.48 91.3235 40.248C91.3235 42.2533 91.0035 43.256 90.3635 43.256H80.8915Z" fill="black"/>
<path d="M102.78 157.46C102.18 157.46 101.58 158.12 100.98 159.44C98.82 164.36 96.48 168.98 93.96 173.3C91.44 177.5 88.56 181.16 85.32 184.28C82.08 187.4 78.48 189.86 74.52 191.66C70.56 193.34 66.18 194.18 61.38 194.18C50.46 194.18 42.36 189.92 37.08 181.4C31.8 172.88 29.16 160.4 29.16 143.96V123.8C29.16 107.96 31.86 95.78 37.26 87.26C42.66 78.62 51 74.3 62.28 74.3C66.96 74.3 71.22 75.08 75.06 76.64C78.9 78.08 82.38 80.12 85.5 82.76C88.62 85.4 91.32 88.58 93.6 92.3C95.88 96.02 97.74 100.04 99.18 104.36C99.54 105.56 99.96 106.16 100.44 106.16C101.04 106.16 101.34 105.44 101.34 104V74.66C101.34 73.58 101.22 72.86 100.98 72.5C100.74 72.14 100.38 71.96 99.9 71.96C99.3 71.96 98.52 72.44 97.56 73.4L90.54 80.6C86.7 77.48 82.38 75.14 77.58 73.58C72.78 71.9 67.68 71.06 62.28 71.06C54.36 71.06 46.98 72.86 40.14 76.46C33.42 80.06 27.54 84.8 22.5 90.68C17.58 96.56 13.74 103.28 10.98 110.84C8.22 118.28 6.84 125.84 6.84 133.52C6.84 142.4 8.4 150.74 11.52 158.54C14.76 166.22 18.96 172.94 24.12 178.7C29.28 184.46 35.1 189.02 41.58 192.38C48.06 195.74 54.66 197.42 61.38 197.42C67.02 197.42 72.42 196.28 77.58 194C82.74 191.84 87.36 188.48 91.44 183.92L100.98 194.36C101.58 194.96 102.12 195.26 102.6 195.26C103.32 195.26 103.68 194.84 103.68 194V159.26C103.68 158.06 103.38 157.46 102.78 157.46ZM143.871 136.04V73.04H115.791V75.92H128.391V191.12H115.791V194H156.471V191.12H143.871V146.12C143.871 144.2 144.351 142.1 145.311 139.82C146.391 137.42 147.891 135.2 149.811 133.16C151.731 131 153.951 129.2 156.471 127.76C158.991 126.32 161.811 125.6 164.931 125.6C167.451 125.6 169.431 126.02 170.871 126.86C172.311 127.7 173.391 128.78 174.111 130.1C174.831 131.42 175.251 132.92 175.371 134.6C175.611 136.16 175.731 137.78 175.731 139.46V191.12H163.311V194H203.811V191.12H191.211V137.48C191.211 132.08 189.351 128 185.631 125.24C182.031 122.36 176.991 120.92 170.511 120.92C163.431 120.92 157.731 122.42 153.411 125.42C149.211 128.42 146.031 131.96 143.871 136.04ZM222.848 125.24C219.008 127.76 217.088 130.76 217.088 134.24C217.088 135.92 217.628 137.48 218.708 138.92C219.908 140.24 221.528 140.9 223.568 140.9C225.608 140.9 227.228 140.3 228.428 139.1C229.748 137.9 230.408 136.4 230.408 134.6C230.408 133.76 230.228 132.92 229.868 132.08C229.628 131.12 229.088 130.22 228.248 129.38C227.648 128.78 227.168 128.36 226.808 128.12C226.448 127.88 226.268 127.58 226.268 127.22C226.268 126.74 226.628 126.26 227.348 125.78C228.068 125.3 228.968 124.88 230.048 124.52C231.128 124.16 232.328 123.86 233.648 123.62C235.088 123.38 236.468 123.26 237.788 123.26C241.508 123.26 244.448 123.98 246.608 125.42C248.768 126.86 249.848 129.62 249.848 133.7V154.94C244.328 154.94 239.168 155.54 234.368 156.74C229.568 157.82 225.368 159.44 221.768 161.6C218.168 163.76 215.348 166.46 213.308 169.7C211.268 172.82 210.248 176.36 210.248 180.32C210.248 183.2 210.728 185.72 211.688 187.88C212.768 189.92 214.208 191.6 216.008 192.92C217.808 194.12 219.848 195.02 222.128 195.62C224.528 196.22 227.048 196.52 229.688 196.52C232.448 196.52 234.908 196.16 237.068 195.44C239.348 194.84 241.328 194.06 243.008 193.1C244.808 192.02 246.308 190.94 247.508 189.86C248.708 188.66 249.668 187.52 250.388 186.44C250.748 188.96 251.888 191.3 253.808 193.46C255.728 195.5 259.088 196.52 263.888 196.52C267.008 196.52 269.588 196.04 271.628 195.08C273.788 194.12 275.528 192.98 276.848 191.66C278.168 190.34 279.068 189.02 279.548 187.7C280.148 186.26 280.448 185.18 280.448 184.46C280.448 183.86 280.268 183.56 279.908 183.56C279.548 183.56 279.128 184.04 278.648 185C277.688 187.04 276.488 188.72 275.048 190.04C273.608 191.24 272.048 191.84 270.368 191.84C267.968 191.84 266.528 190.88 266.048 188.96C265.568 186.92 265.328 184.16 265.328 180.68V137.12C265.328 131.96 263.408 128 259.568 125.24C255.728 122.36 249.848 120.92 241.928 120.92C238.208 120.92 234.608 121.34 231.128 122.18C227.768 122.9 225.008 123.92 222.848 125.24ZM249.848 156.74V181.76C249.848 182.84 249.308 183.98 248.228 185.18C247.268 186.38 246.008 187.52 244.448 188.6C243.008 189.56 241.448 190.34 239.768 190.94C238.208 191.54 236.888 191.84 235.808 191.84C232.088 191.84 229.268 190.4 227.348 187.52C225.428 184.64 224.468 180.74 224.468 175.82C224.468 171.86 225.188 168.68 226.628 166.28C228.068 163.88 229.928 162.02 232.208 160.7C234.608 159.38 237.308 158.48 240.308 158C243.428 157.4 246.608 156.98 249.848 156.74ZM312.235 133.88V123.44H284.155V126.32H296.755V191.12H284.155V194H324.835V191.12H312.235V141.8C312.235 139.88 312.775 137.9 313.855 135.86C315.055 133.82 316.555 131.96 318.355 130.28C320.275 128.6 322.375 127.28 324.655 126.32C326.935 125.24 329.155 124.7 331.315 124.7C332.635 124.7 333.775 124.82 334.735 125.06C335.815 125.18 336.355 125.6 336.355 126.32C336.355 126.92 336.055 127.34 335.455 127.58C334.735 128.06 333.895 128.9 332.935 130.1C331.975 131.18 331.495 132.92 331.495 135.32C331.495 137.84 332.335 139.94 334.015 141.62C335.695 143.18 337.915 143.96 340.675 143.96C343.075 143.96 345.175 143.18 346.975 141.62C348.775 139.94 349.675 137.66 349.675 134.78C349.675 132.38 349.195 130.4 348.235 128.84C347.275 127.16 346.015 125.84 344.455 124.88C343.015 123.8 341.275 123.02 339.235 122.54C337.315 122.06 335.335 121.82 333.295 121.82C330.415 121.82 327.835 122.24 325.555 123.08C323.275 123.92 321.235 124.94 319.435 126.14C317.635 127.34 316.135 128.66 314.935 130.1C313.735 131.42 312.835 132.68 312.235 133.88ZM371.208 125.24C367.368 127.76 365.448 130.76 365.448 134.24C365.448 135.92 365.988 137.48 367.068 138.92C368.268 140.24 369.888 140.9 371.928 140.9C373.968 140.9 375.588 140.3 376.788 139.1C378.108 137.9 378.768 136.4 378.768 134.6C378.768 133.76 378.588 132.92 378.228 132.08C377.988 131.12 377.448 130.22 376.608 129.38C376.008 128.78 375.528 128.36 375.168 128.12C374.808 127.88 374.628 127.58 374.628 127.22C374.628 126.74 374.988 126.26 375.708 125.78C376.428 125.3 377.328 124.88 378.408 124.52C379.488 124.16 380.688 123.86 382.008 123.62C383.448 123.38 384.828 123.26 386.148 123.26C389.868 123.26 392.808 123.98 394.968 125.42C397.128 126.86 398.208 129.62 398.208 133.7V154.94C392.688 154.94 387.528 155.54 382.728 156.74C377.928 157.82 373.728 159.44 370.128 161.6C366.528 163.76 363.708 166.46 361.668 169.7C359.628 172.82 358.608 176.36 358.608 180.32C358.608 183.2 359.088 185.72 360.048 187.88C361.128 189.92 362.568 191.6 364.368 192.92C366.168 194.12 368.208 195.02 370.488 195.62C372.888 196.22 375.408 196.52 378.048 196.52C380.808 196.52 383.268 196.16 385.428 195.44C387.708 194.84 389.688 194.06 391.368 193.1C393.168 192.02 394.668 190.94 395.868 189.86C397.068 188.66 398.028 187.52 398.748 186.44C399.108 188.96 400.248 191.3 402.168 193.46C404.088 195.5 407.448 196.52 412.248 196.52C415.368 196.52 417.948 196.04 419.988 195.08C422.148 194.12 423.888 192.98 425.208 191.66C426.528 190.34 427.428 189.02 427.908 187.7C428.508 186.26 428.808 185.18 428.808 184.46C428.808 183.86 428.628 183.56 428.268 183.56C427.908 183.56 427.488 184.04 427.008 185C426.048 187.04 424.848 188.72 423.408 190.04C421.968 191.24 420.408 191.84 418.728 191.84C416.328 191.84 414.888 190.88 414.408 188.96C413.928 186.92 413.688 184.16 413.688 180.68V137.12C413.688 131.96 411.768 128 407.928 125.24C404.088 122.36 398.208 120.92 390.288 120.92C386.568 120.92 382.968 121.34 379.488 122.18C376.128 122.9 373.368 123.92 371.208 125.24ZM398.208 156.74V181.76C398.208 182.84 397.668 183.98 396.588 185.18C395.628 186.38 394.368 187.52 392.808 188.6C391.368 189.56 389.808 190.34 388.128 190.94C386.568 191.54 385.248 191.84 384.168 191.84C380.448 191.84 377.628 190.4 375.708 187.52C373.788 184.64 372.828 180.74 372.828 175.82C372.828 171.86 373.548 168.68 374.988 166.28C376.428 163.88 378.288 162.02 380.568 160.7C382.968 159.38 385.668 158.48 388.668 158C391.788 157.4 394.968 156.98 398.208 156.74ZM454.973 162.86V154.94C454.973 149.06 455.333 144.14 456.053 140.18C456.773 136.22 457.853 133.04 459.293 130.64C460.853 128.12 462.773 126.38 465.053 125.42C467.333 124.34 470.033 123.8 473.153 123.8C477.593 123.8 480.593 124.4 482.153 125.6C483.833 126.68 484.673 127.46 484.673 127.94C484.673 128.42 484.493 128.84 484.133 129.2C483.293 130.16 482.633 131.18 482.153 132.26C481.793 133.22 481.613 134.48 481.613 136.04C481.613 138.44 482.393 140.3 483.953 141.62C485.513 142.82 487.313 143.42 489.353 143.42C491.753 143.42 493.673 142.7 495.113 141.26C496.553 139.82 497.273 137.96 497.273 135.68C497.273 133.4 496.493 131.36 494.933 129.56C493.373 127.64 491.393 126.08 488.993 124.88C486.713 123.56 484.193 122.6 481.433 122C478.673 121.28 476.033 120.92 473.513 120.92C468.833 120.92 464.273 121.88 459.833 123.8C455.393 125.6 451.433 128.18 447.953 131.54C444.473 134.78 441.653 138.74 439.493 143.42C437.333 148.1 436.252 153.26 436.252 158.9C436.252 164.66 437.273 169.88 439.313 174.56C441.473 179.12 444.233 183.08 447.593 186.44C451.073 189.68 454.973 192.2 459.293 194C463.733 195.68 468.173 196.52 472.613 196.52C477.053 196.52 480.953 195.8 484.313 194.36C487.673 193.04 490.493 191.36 492.773 189.32C495.053 187.16 496.853 184.94 498.173 182.66C499.493 180.26 500.453 178.1 501.053 176.18C501.293 175.46 501.413 174.98 501.413 174.74C501.413 173.66 500.933 173.12 499.973 173.12C499.253 173.12 498.713 173.72 498.353 174.92C497.633 177.2 496.553 179.48 495.113 181.76C493.673 183.92 491.873 185.9 489.713 187.7C487.673 189.5 485.213 190.94 482.333 192.02C479.573 193.1 476.513 193.64 473.153 193.64C469.433 193.64 466.373 193.1 463.973 192.02C461.693 190.94 459.833 189.2 458.393 186.8C457.073 184.28 456.173 181.1 455.693 177.26C455.213 173.3 454.973 168.5 454.973 162.86ZM536.001 123.44V95.18L520.521 102.92V123.44H508.281V126.32H520.521V174.92C520.521 181.64 522.321 186.92 525.921 190.76C529.521 194.6 534.741 196.52 541.581 196.52C548.661 196.52 553.641 195.14 556.521 192.38C559.521 189.5 561.441 185.6 562.281 180.68C562.401 180.08 562.461 179.72 562.461 179.6C562.461 179.48 562.461 179.3 562.461 179.06C562.461 178.1 562.101 177.62 561.381 177.62C560.421 177.62 559.881 178.22 559.761 179.42C559.161 183.5 557.781 186.74 555.621 189.14C553.461 191.42 550.821 192.56 547.701 192.56C543.501 192.56 540.501 191.12 538.701 188.24C536.901 185.36 536.001 181.04 536.001 175.28V126.32H553.461V123.44H536.001ZM635.701 150.26C635.581 148.34 634.921 145.7 633.721 142.34C632.641 138.98 630.901 135.74 628.501 132.62C626.101 129.5 622.921 126.8 618.961 124.52C615.001 122.12 610.141 120.92 604.381 120.92C599.581 120.92 595.081 122.06 590.881 124.34C586.801 126.62 583.261 129.56 580.261 133.16C577.261 136.76 574.921 140.84 573.241 145.4C571.561 149.96 570.721 154.58 570.721 159.26C570.721 163.94 571.561 168.5 573.241 172.94C574.921 177.38 577.261 181.34 580.261 184.82C583.261 188.3 586.861 191.12 591.061 193.28C595.381 195.44 600.061 196.52 605.101 196.52C609.181 196.52 612.901 195.92 616.261 194.72C619.621 193.64 622.561 192.14 625.081 190.22C627.721 188.18 629.941 185.84 631.741 183.2C633.541 180.56 634.981 177.8 636.061 174.92C636.421 174.08 636.601 173.24 636.601 172.4C636.601 171.56 636.241 171.14 635.521 171.14C634.921 171.14 634.381 171.74 633.901 172.94C632.821 175.46 631.441 177.98 629.761 180.5C628.201 183.02 626.221 185.24 623.821 187.16C621.541 189.08 618.901 190.64 615.901 191.84C612.901 193.04 609.421 193.64 605.461 193.64C600.661 193.64 596.761 191.84 593.761 188.24C590.881 184.64 589.441 178.88 589.441 170.96V152.6H632.821C634.741 152.6 635.701 151.82 635.701 150.26ZM589.441 149.72V142.52C589.441 138.56 589.861 135.38 590.701 132.98C591.661 130.46 592.861 128.54 594.301 127.22C595.741 125.9 597.361 125 599.161 124.52C600.961 124.04 602.761 123.8 604.561 123.8C607.441 123.8 609.781 124.34 611.581 125.42C613.501 126.38 615.001 127.7 616.081 129.38C617.161 131.06 617.881 132.92 618.241 134.96C618.601 137 618.781 139.1 618.781 141.26C618.781 146.9 617.881 149.72 616.081 149.72H589.441ZM675.048 133.88V123.44H646.968V126.32H659.568V191.12H646.968V194H687.648V191.12H675.048V141.8C675.048 139.88 675.588 137.9 676.668 135.86C677.868 133.82 679.368 131.96 681.168 130.28C683.088 128.6 685.188 127.28 687.468 126.32C689.748 125.24 691.968 124.7 694.128 124.7C695.448 124.7 696.588 124.82 697.548 125.06C698.628 125.18 699.168 125.6 699.168 126.32C699.168 126.92 698.868 127.34 698.268 127.58C697.548 128.06 696.708 128.9 695.748 130.1C694.788 131.18 694.308 132.92 694.308 135.32C694.308 137.84 695.148 139.94 696.828 141.62C698.508 143.18 700.728 143.96 703.488 143.96C705.888 143.96 707.988 143.18 709.788 141.62C711.588 139.94 712.488 137.66 712.488 134.78C712.488 132.38 712.008 130.4 711.048 128.84C710.088 127.16 708.828 125.84 707.268 124.88C705.828 123.8 704.088 123.02 702.048 122.54C700.128 122.06 698.148 121.82 696.108 121.82C693.228 121.82 690.648 122.24 688.368 123.08C686.088 123.92 684.048 124.94 682.248 126.14C680.448 127.34 678.948 128.66 677.748 130.1C676.548 131.42 675.648 132.68 675.048 133.88ZM750.538 123.44H721.558V126.32H735.058V191.12H721.558V194H764.038V191.12H750.538V123.44ZM751.978 90.14C751.978 87.5 751.078 85.28 749.278 83.48C747.478 81.68 745.258 80.78 742.618 80.78C739.978 80.78 737.758 81.68 735.958 83.48C734.158 85.28 733.258 87.5 733.258 90.14C733.258 92.78 734.158 95 735.958 96.8C737.758 98.6 739.978 99.5 742.618 99.5C745.258 99.5 747.478 98.6 749.278 96.8C751.078 95 751.978 92.78 751.978 90.14ZM819.108 121.82L814.968 125.96C811.248 122.6 806.688 120.92 801.288 120.92C797.448 120.92 794.028 121.58 791.028 122.9C788.028 124.1 785.508 125.78 783.468 127.94C781.548 130.1 780.048 132.56 778.968 135.32C778.008 138.08 777.528 140.9 777.528 143.78C777.528 148.22 778.788 152.12 781.308 155.48C783.948 158.84 787.848 161.12 793.008 162.32C794.568 162.68 796.308 163.1 798.228 163.58C800.148 163.94 802.068 164.42 803.988 165.02C806.028 165.5 807.948 166.1 809.748 166.82C811.668 167.42 813.348 168.14 814.788 168.98C817.188 170.3 818.808 171.86 819.648 173.66C820.608 175.46 821.088 177.32 821.088 179.24C821.088 181.76 820.428 183.98 819.108 185.9C817.908 187.7 816.348 189.2 814.428 190.4C812.508 191.48 810.468 192.32 808.308 192.92C806.148 193.4 804.108 193.64 802.188 193.64C796.668 193.64 791.808 192.14 787.608 189.14C783.408 186.02 780.468 181.28 778.788 174.92C778.428 173.84 777.948 173.3 777.348 173.3C776.628 173.3 776.268 173.78 776.268 174.74V194C776.268 194.96 776.628 195.44 777.348 195.44C777.828 195.44 778.248 195.14 778.608 194.54L782.388 188.96C784.548 191.24 787.248 193.04 790.488 194.36C793.848 195.8 797.928 196.52 802.728 196.52C806.688 196.52 810.168 195.86 813.168 194.54C816.168 193.34 818.688 191.66 820.728 189.5C822.888 187.22 824.508 184.64 825.588 181.76C826.668 178.76 827.208 175.52 827.208 172.04C827.208 167.48 826.068 163.16 823.788 159.08C821.508 155 817.188 151.88 810.828 149.72C809.748 149.36 808.368 149 806.688 148.64C805.008 148.16 803.208 147.68 801.288 147.2C799.488 146.72 797.628 146.24 795.708 145.76C793.908 145.28 792.408 144.86 791.208 144.5C788.808 143.66 787.068 142.64 785.988 141.44C785.028 140.12 784.548 138.32 784.548 136.04C784.548 132.92 786.048 130.1 789.048 127.58C792.048 125.06 795.828 123.8 800.388 123.8C803.268 123.8 805.788 124.34 807.948 125.42C810.228 126.5 812.088 127.88 813.528 129.56C815.088 131.24 816.288 133.16 817.128 135.32C818.088 137.36 818.748 139.4 819.108 141.44C819.228 142.16 819.588 142.52 820.188 142.52C820.668 142.52 820.908 142.16 820.908 141.44V122.18C820.908 121.34 820.728 120.92 820.368 120.92C820.128 120.92 819.708 121.22 819.108 121.82ZM864.008 123.44V95.18L848.528 102.92V123.44H836.288V126.32H848.528V174.92C848.528 181.64 850.328 186.92 853.928 190.76C857.528 194.6 862.748 196.52 869.588 196.52C876.668 196.52 881.648 195.14 884.528 192.38C887.528 189.5 889.448 185.6 890.288 180.68C890.408 180.08 890.468 179.72 890.468 179.6C890.468 179.48 890.468 179.3 890.468 179.06C890.468 178.1 890.108 177.62 889.388 177.62C888.428 177.62 887.888 178.22 887.768 179.42C887.168 183.5 885.788 186.74 883.628 189.14C881.468 191.42 878.828 192.56 875.708 192.56C871.508 192.56 868.508 191.12 866.708 188.24C864.908 185.36 864.008 181.04 864.008 175.28V126.32H881.468V123.44H864.008ZM928.429 123.44H899.449V126.32H912.949V191.12H899.449V194H941.929V191.12H928.429V123.44ZM929.869 90.14C929.869 87.5 928.969 85.28 927.169 83.48C925.369 81.68 923.149 80.78 920.509 80.78C917.869 80.78 915.649 81.68 913.849 83.48C912.049 85.28 911.149 87.5 911.149 90.14C911.149 92.78 912.049 95 913.849 96.8C915.649 98.6 917.869 99.5 920.509 99.5C923.149 99.5 925.369 98.6 927.169 96.8C928.969 95 929.869 92.78 929.869 90.14ZM970.539 162.86V154.94C970.539 149.06 970.899 144.14 971.619 140.18C972.339 136.22 973.419 133.04 974.859 130.64C976.419 128.12 978.339 126.38 980.619 125.42C982.899 124.34 985.599 123.8 988.719 123.8C993.159 123.8 996.159 124.4 997.719 125.6C999.399 126.68 1000.24 127.46 1000.24 127.94C1000.24 128.42 1000.06 128.84 999.699 129.2C998.859 130.16 998.199 131.18 997.719 132.26C997.359 133.22 997.179 134.48 997.179 136.04C997.179 138.44 997.959 140.3 999.519 141.62C1001.08 142.82 1002.88 143.42 1004.92 143.42C1007.32 143.42 1009.24 142.7 1010.68 141.26C1012.12 139.82 1012.84 137.96 1012.84 135.68C1012.84 133.4 1012.06 131.36 1010.5 129.56C1008.94 127.64 1006.96 126.08 1004.56 124.88C1002.28 123.56 999.759 122.6 996.999 122C994.239 121.28 991.599 120.92 989.079 120.92C984.399 120.92 979.839 121.88 975.399 123.8C970.959 125.6 966.999 128.18 963.519 131.54C960.039 134.78 957.219 138.74 955.059 143.42C952.899 148.1 951.819 153.26 951.819 158.9C951.819 164.66 952.839 169.88 954.879 174.56C957.039 179.12 959.799 183.08 963.159 186.44C966.639 189.68 970.539 192.2 974.859 194C979.299 195.68 983.739 196.52 988.179 196.52C992.619 196.52 996.519 195.8 999.879 194.36C1003.24 193.04 1006.06 191.36 1008.34 189.32C1010.62 187.16 1012.42 184.94 1013.74 182.66C1015.06 180.26 1016.02 178.1 1016.62 176.18C1016.86 175.46 1016.98 174.98 1016.98 174.74C1016.98 173.66 1016.5 173.12 1015.54 173.12C1014.82 173.12 1014.28 173.72 1013.92 174.92C1013.2 177.2 1012.12 179.48 1010.68 181.76C1009.24 183.92 1007.44 185.9 1005.28 187.7C1003.24 189.5 1000.78 190.94 997.899 192.02C995.139 193.1 992.079 193.64 988.719 193.64C984.999 193.64 981.939 193.1 979.539 192.02C977.259 190.94 975.399 189.2 973.959 186.8C972.639 184.28 971.739 181.1 971.259 177.26C970.779 173.3 970.539 168.5 970.539 162.86ZM1070.83 121.82L1066.69 125.96C1062.97 122.6 1058.41 120.92 1053.01 120.92C1049.17 120.92 1045.75 121.58 1042.75 122.9C1039.75 124.1 1037.23 125.78 1035.19 127.94C1033.27 130.1 1031.77 132.56 1030.69 135.32C1029.73 138.08 1029.25 140.9 1029.25 143.78C1029.25 148.22 1030.51 152.12 1033.03 155.48C1035.67 158.84 1039.57 161.12 1044.73 162.32C1046.29 162.68 1048.03 163.1 1049.95 163.58C1051.87 163.94 1053.79 164.42 1055.71 165.02C1057.75 165.5 1059.67 166.1 1061.47 166.82C1063.39 167.42 1065.07 168.14 1066.51 168.98C1068.91 170.3 1070.53 171.86 1071.37 173.66C1072.33 175.46 1072.81 177.32 1072.81 179.24C1072.81 181.76 1072.15 183.98 1070.83 185.9C1069.63 187.7 1068.07 189.2 1066.15 190.4C1064.23 191.48 1062.19 192.32 1060.03 192.92C1057.87 193.4 1055.83 193.64 1053.91 193.64C1048.39 193.64 1043.53 192.14 1039.33 189.14C1035.13 186.02 1032.19 181.28 1030.51 174.92C1030.15 173.84 1029.67 173.3 1029.07 173.3C1028.35 173.3 1027.99 173.78 1027.99 174.74V194C1027.99 194.96 1028.35 195.44 1029.07 195.44C1029.55 195.44 1029.97 195.14 1030.33 194.54L1034.11 188.96C1036.27 191.24 1038.97 193.04 1042.21 194.36C1045.57 195.8 1049.65 196.52 1054.45 196.52C1058.41 196.52 1061.89 195.86 1064.89 194.54C1067.89 193.34 1070.41 191.66 1072.45 189.5C1074.61 187.22 1076.23 184.64 1077.31 181.76C1078.39 178.76 1078.93 175.52 1078.93 172.04C1078.93 167.48 1077.79 163.16 1075.51 159.08C1073.23 155 1068.91 151.88 1062.55 149.72C1061.47 149.36 1060.09 149 1058.41 148.64C1056.73 148.16 1054.93 147.68 1053.01 147.2C1051.21 146.72 1049.35 146.24 1047.43 145.76C1045.63 145.28 1044.13 144.86 1042.93 144.5C1040.53 143.66 1038.79 142.64 1037.71 141.44C1036.75 140.12 1036.27 138.32 1036.27 136.04C1036.27 132.92 1037.77 130.1 1040.77 127.58C1043.77 125.06 1047.55 123.8 1052.11 123.8C1054.99 123.8 1057.51 124.34 1059.67 125.42C1061.95 126.5 1063.81 127.88 1065.25 129.56C1066.81 131.24 1068.01 133.16 1068.85 135.32C1069.81 137.36 1070.47 139.4 1070.83 141.44C1070.95 142.16 1071.31 142.52 1071.91 142.52C1072.39 142.52 1072.63 142.16 1072.63 141.44V122.18C1072.63 121.34 1072.45 120.92 1072.09 120.92C1071.85 120.92 1071.43 121.22 1070.83 121.82Z" fill="black"/>
<circle r="7.5" transform="matrix(-1 0 0 1 271 186)" stroke="black"/>
<circle r="14" transform="matrix(-0.707107 -0.707107 -0.707107 0.707107 546.5 179.5)" stroke="black"/>
<path d="M536.247 169.247L556.753 189.753" stroke="black"/>
<path d="M556.753 169.247L536.247 189.753" stroke="black"/>
<circle r="30.5" transform="matrix(-1 0 0 1 377 165)" stroke="black"/>
<path d="M480.5 123.5L584.5 70.5" stroke="black"/>
<path d="M1015 159.5L1091 159.5" stroke="black"/>
<path d="M1091 159.5L1015 136" stroke="black"/>
<path d="M1091 183L1015 159.5" stroke="black"/>
<circle cx="920.5" cy="90.5" r="14" stroke="black"/>
<path d="M920 211L920 65" stroke="black"/>
<path d="M675 208L675 110" stroke="black"/>
<path d="M306.5 142L346.5 92.5" stroke="black"/>
<path d="M136 147L190 74.5" stroke="black"/>
<circle cx="634" cy="162" r="19.5" stroke="#F8169D" stroke-width="3"/>
<circle cx="799.5" cy="142.5" r="25" stroke="#F8169D" stroke-width="3"/>
<circle cx="122.5" cy="73.5" r="21.5" stroke="#F8169D" stroke-width="3"/>
<path d="M986 112V217" stroke="#F8169D" stroke-width="3"/>
<path d="M515 159H422" stroke="#F8169D" stroke-width="3"/>
<path d="M190 192.5V74" stroke="black"/>
<path d="M312 192.5V92" stroke="black"/>
<path d="M1015 136H1090.5" stroke="black"/>
<path d="M1015 182H1090.5" stroke="black"/>
<rect x="421" y="152" width="94" height="14" stroke="#AAAAAA" stroke-width="2"/>
<rect x="993" y="113" width="104" height="14" transform="rotate(90 993 113)" stroke="#AAAAAA" stroke-width="2"/>
</svg>
