<svg width="1440" height="676" viewBox="0 0 1440 676" fill="none" xmlns="http://www.w3.org/2000/svg">
<rect x="1241" y="411" width="81" height="22" fill="#F8169D"/>
<path d="M231.24 376.24V382H294.6V376.24H265.8V151.96L346.08 382H350.76L431.04 150.52V376.24H402.24V382H494.76V376.24H465.96V145.84H494.76V140.08H428.16L364.08 325.12L297.84 140.08H231.24V145.84H260.04V376.24H231.24ZM523.875 322.208C520.536 324.399 518.866 327.008 518.866 330.034C518.866 331.495 519.336 332.852 520.275 334.104C521.319 335.252 522.727 335.826 524.501 335.826C526.275 335.826 527.684 335.304 528.727 334.26C529.875 333.217 530.449 331.913 530.449 330.347C530.449 329.617 530.293 328.886 529.98 328.156C529.771 327.321 529.301 326.539 528.571 325.808C528.049 325.286 527.632 324.921 527.319 324.713C527.006 324.504 526.849 324.243 526.849 323.93C526.849 323.512 527.162 323.095 527.788 322.678C528.414 322.26 529.197 321.895 530.136 321.582C531.075 321.269 532.119 321.008 533.267 320.799C534.519 320.591 535.719 320.486 536.867 320.486C540.101 320.486 542.658 321.112 544.536 322.365C546.415 323.617 547.354 326.017 547.354 329.565V348.034C542.554 348.034 538.067 348.556 533.893 349.6C529.719 350.539 526.066 351.948 522.936 353.826C519.806 355.704 517.353 358.052 515.579 360.869C513.806 363.582 512.919 366.661 512.919 370.104C512.919 372.609 513.336 374.8 514.171 376.678C515.11 378.452 516.362 379.913 517.927 381.061C519.493 382.104 521.266 382.887 523.249 383.409C525.336 383.93 527.527 384.191 529.823 384.191C532.223 384.191 534.362 383.878 536.241 383.252C538.223 382.73 539.945 382.052 541.406 381.217C542.971 380.278 544.275 379.339 545.319 378.4C546.362 377.356 547.197 376.365 547.823 375.426C548.136 377.617 549.128 379.652 550.797 381.53C552.467 383.304 555.389 384.191 559.562 384.191C562.276 384.191 564.519 383.774 566.293 382.939C568.171 382.104 569.684 381.113 570.832 379.965C571.98 378.817 572.763 377.67 573.18 376.522C573.702 375.27 573.963 374.33 573.963 373.704C573.963 373.183 573.806 372.922 573.493 372.922C573.18 372.922 572.815 373.339 572.397 374.174C571.563 375.948 570.519 377.409 569.267 378.556C568.015 379.6 566.658 380.122 565.197 380.122C563.11 380.122 561.858 379.287 561.441 377.617C561.023 375.843 560.815 373.443 560.815 370.417V332.539C560.815 328.052 559.145 324.608 555.806 322.208C552.467 319.704 547.354 318.452 540.467 318.452C537.232 318.452 534.101 318.817 531.075 319.547C528.153 320.173 525.753 321.06 523.875 322.208ZM547.354 349.6V371.356C547.354 372.296 546.884 373.287 545.945 374.33C545.11 375.374 544.014 376.365 542.658 377.304C541.406 378.139 540.049 378.817 538.588 379.339C537.232 379.861 536.084 380.122 535.145 380.122C531.91 380.122 529.458 378.87 527.788 376.365C526.119 373.861 525.284 370.469 525.284 366.191C525.284 362.748 525.91 359.982 527.162 357.895C528.414 355.808 530.032 354.191 532.014 353.043C534.101 351.895 536.449 351.113 539.058 350.695C541.771 350.174 544.536 349.808 547.354 349.6ZM601.604 329.721V320.643H577.186V323.147H588.143V379.496H577.186V382H612.56V379.496H601.604V336.608C601.604 334.939 602.073 333.217 603.012 331.443C604.056 329.669 605.36 328.052 606.925 326.591C608.595 325.13 610.421 323.982 612.404 323.147C614.386 322.208 616.317 321.739 618.195 321.739C619.343 321.739 620.334 321.843 621.169 322.052C622.108 322.156 622.578 322.521 622.578 323.147C622.578 323.669 622.317 324.034 621.795 324.243C621.169 324.66 620.439 325.391 619.604 326.434C618.769 327.373 618.352 328.886 618.352 330.973C618.352 333.165 619.082 334.991 620.543 336.452C622.004 337.808 623.934 338.487 626.334 338.487C628.421 338.487 630.247 337.808 631.813 336.452C633.378 334.991 634.16 333.008 634.16 330.504C634.16 328.417 633.743 326.695 632.908 325.339C632.073 323.878 630.978 322.73 629.621 321.895C628.369 320.956 626.856 320.278 625.082 319.86C623.413 319.443 621.691 319.234 619.917 319.234C617.412 319.234 615.169 319.599 613.186 320.33C611.204 321.06 609.43 321.947 607.865 322.991C606.299 324.034 604.995 325.182 603.951 326.434C602.908 327.582 602.125 328.678 601.604 329.721ZM656.917 342.869V337.547C656.917 331.182 657.804 326.852 659.578 324.556C661.352 322.156 664.118 320.956 667.874 320.956C671.631 320.956 674.396 322.156 676.17 324.556C677.944 326.852 678.831 331.182 678.831 337.547V342.869C678.831 348.191 678.1 352.261 676.639 355.078C675.178 357.895 672.257 359.304 667.874 359.304C663.491 359.304 660.57 357.895 659.109 355.078C657.648 352.261 656.917 348.191 656.917 342.869ZM658.952 360.556C659.891 360.869 661.091 361.182 662.552 361.495C664.118 361.704 665.891 361.809 667.874 361.809C672.57 361.809 676.535 361.026 679.77 359.461C683.005 357.895 685.613 356.017 687.596 353.826C689.579 351.53 690.987 349.13 691.822 346.626C692.657 344.121 693.074 341.93 693.074 340.052C693.074 333.791 690.622 328.469 685.718 324.086C688.118 321.269 690.361 319.391 692.448 318.452C692.031 319.286 691.822 320.121 691.822 320.956C691.822 322.208 692.24 323.252 693.074 324.086C694.013 324.921 695.266 325.339 696.831 325.339C698.5 325.339 699.7 324.869 700.431 323.93C701.161 322.886 701.527 321.843 701.527 320.799C701.527 319.234 700.953 318.034 699.805 317.199C698.657 316.365 697.3 315.947 695.735 315.947C691.77 315.947 687.805 318.191 683.839 322.678C682.379 321.426 680.187 320.434 677.265 319.704C674.344 318.869 671.213 318.452 667.874 318.452C663.804 318.452 660.152 319.078 656.917 320.33C653.787 321.478 651.178 323.095 649.091 325.182C647.004 327.165 645.387 329.46 644.239 332.069C643.196 334.678 642.674 337.339 642.674 340.052C642.674 344.643 643.978 348.608 646.587 351.948C649.3 355.287 652.326 357.791 655.665 359.461C650.657 360.922 647.109 362.8 645.022 365.095C643.039 367.391 642.048 370.365 642.048 374.017C642.048 376.417 642.413 378.504 643.143 380.278C643.978 382.052 645.022 383.565 646.274 384.817C647.63 386.07 649.091 387.009 650.657 387.635C652.326 388.365 653.944 388.835 655.509 389.044C651.126 390.609 647.735 392.8 645.335 395.618C642.935 398.435 641.735 401.878 641.735 405.948C641.735 408.87 642.413 411.426 643.769 413.618C645.126 415.809 647.056 417.583 649.561 418.939C652.065 420.4 655.039 421.496 658.483 422.226C661.926 422.957 665.735 423.322 669.909 423.322C674.083 423.322 677.996 422.748 681.648 421.6C685.3 420.453 688.483 418.731 691.196 416.435C694.013 414.244 696.205 411.531 697.77 408.296C699.335 405.061 700.118 401.305 700.118 397.026C700.118 390.452 698.344 385.6 694.796 382.47C691.353 379.443 686.813 377.93 681.179 377.93H655.978C649.404 377.93 646.117 375.687 646.117 371.2C646.117 368.174 647.317 365.93 649.717 364.469C652.117 362.904 655.196 361.6 658.952 360.556ZM694.326 403.444C694.326 406.574 693.544 409.235 691.979 411.426C690.518 413.618 688.639 415.392 686.344 416.748C684.048 418.209 681.439 419.253 678.518 419.879C675.7 420.505 672.987 420.818 670.378 420.818C666.1 420.818 662.604 420.244 659.891 419.096C657.178 417.948 655.039 416.487 653.474 414.713C651.909 413.044 650.813 411.113 650.187 408.922C649.561 406.835 649.248 404.852 649.248 402.974C649.248 400.991 649.561 399.113 650.187 397.339C650.917 395.67 651.752 394.209 652.691 392.957C653.735 391.809 654.778 390.87 655.822 390.139C656.97 389.513 657.961 389.2 658.796 389.2H678.674C681.179 389.2 683.37 389.565 685.248 390.296C687.231 391.131 688.9 392.226 690.257 393.583C691.613 394.939 692.605 396.452 693.231 398.122C693.961 399.791 694.326 401.565 694.326 403.444ZM732.171 331.6V276.816H707.753V279.321H718.71V379.496H707.753V382H743.127V379.496H732.171V340.365C732.171 338.695 732.588 336.869 733.423 334.887C734.362 332.8 735.667 330.869 737.336 329.095C739.006 327.217 740.936 325.652 743.127 324.399C745.319 323.147 747.771 322.521 750.484 322.521C752.675 322.521 754.397 322.886 755.649 323.617C756.902 324.347 757.841 325.286 758.467 326.434C759.093 327.582 759.458 328.886 759.562 330.347C759.771 331.704 759.875 333.113 759.875 334.573V379.496H749.075V382H784.293V379.496H773.336V332.852C773.336 328.156 771.719 324.608 768.484 322.208C765.354 319.704 760.971 318.452 755.336 318.452C749.18 318.452 744.223 319.756 740.467 322.365C736.814 324.973 734.049 328.052 732.171 331.6ZM883.162 329.721V320.643H858.744V323.147H869.701V379.496H858.744V382H894.119V379.496H883.162V336.608C883.162 334.939 883.631 333.217 884.571 331.443C885.614 329.669 886.918 328.052 888.484 326.591C890.153 325.13 891.979 323.982 893.962 323.147C895.945 322.208 897.875 321.739 899.753 321.739C900.901 321.739 901.893 321.843 902.727 322.052C903.666 322.156 904.136 322.521 904.136 323.147C904.136 323.669 903.875 324.034 903.353 324.243C902.727 324.66 901.997 325.391 901.162 326.434C900.327 327.373 899.91 328.886 899.91 330.973C899.91 333.165 900.64 334.991 902.101 336.452C903.562 337.808 905.493 338.487 907.893 338.487C909.98 338.487 911.806 337.808 913.371 336.452C914.936 334.991 915.719 333.008 915.719 330.504C915.719 328.417 915.301 326.695 914.467 325.339C913.632 323.878 912.536 322.73 911.18 321.895C909.927 320.956 908.414 320.278 906.64 319.86C904.971 319.443 903.249 319.234 901.475 319.234C898.971 319.234 896.727 319.599 894.745 320.33C892.762 321.06 890.988 321.947 889.423 322.991C887.858 324.034 886.553 325.182 885.51 326.434C884.466 327.582 883.684 328.678 883.162 329.721ZM948.806 320.643H923.606V323.147H935.345V379.496H923.606V382H960.546V379.496H948.806V320.643ZM950.058 291.686C950.058 289.39 949.276 287.46 947.711 285.895C946.145 284.33 944.215 283.547 941.919 283.547C939.624 283.547 937.693 284.33 936.128 285.895C934.563 287.46 933.78 289.39 933.78 291.686C933.78 293.982 934.563 295.912 936.128 297.477C937.693 299.043 939.624 299.825 941.919 299.825C944.215 299.825 946.145 299.043 947.711 297.477C949.276 295.912 950.058 293.982 950.058 291.686ZM991.685 320.643V296.069L978.224 302.799V320.643H967.581V323.147H978.224V365.409C978.224 371.252 979.789 375.843 982.92 379.183C986.05 382.522 990.589 384.191 996.537 384.191C1002.69 384.191 1007.02 382.991 1009.53 380.591C1012.14 378.087 1013.81 374.696 1014.54 370.417C1014.64 369.896 1014.69 369.582 1014.69 369.478C1014.69 369.374 1014.69 369.217 1014.69 369.009C1014.69 368.174 1014.38 367.756 1013.75 367.756C1012.92 367.756 1012.45 368.278 1012.35 369.322C1011.82 372.869 1010.62 375.687 1008.75 377.774C1006.87 379.757 1004.57 380.748 1001.86 380.748C998.207 380.748 995.598 379.496 994.033 376.991C992.468 374.487 991.685 370.73 991.685 365.722V323.147H1006.87V320.643H991.685ZM1034.87 322.208C1031.53 324.399 1029.86 327.008 1029.86 330.034C1029.86 331.495 1030.33 332.852 1031.27 334.104C1032.31 335.252 1033.72 335.826 1035.49 335.826C1037.27 335.826 1038.68 335.304 1039.72 334.26C1040.87 333.217 1041.44 331.913 1041.44 330.347C1041.44 329.617 1041.29 328.886 1040.97 328.156C1040.76 327.321 1040.29 326.539 1039.56 325.808C1039.04 325.286 1038.62 324.921 1038.31 324.713C1038 324.504 1037.84 324.243 1037.84 323.93C1037.84 323.512 1038.16 323.095 1038.78 322.678C1039.41 322.26 1040.19 321.895 1041.13 321.582C1042.07 321.269 1043.11 321.008 1044.26 320.799C1045.51 320.591 1046.71 320.486 1047.86 320.486C1051.09 320.486 1053.65 321.112 1055.53 322.365C1057.41 323.617 1058.35 326.017 1058.35 329.565V348.034C1053.55 348.034 1049.06 348.556 1044.89 349.6C1040.71 350.539 1037.06 351.948 1033.93 353.826C1030.8 355.704 1028.35 358.052 1026.57 360.869C1024.8 363.582 1023.91 366.661 1023.91 370.104C1023.91 372.609 1024.33 374.8 1025.16 376.678C1026.1 378.452 1027.36 379.913 1028.92 381.061C1030.49 382.104 1032.26 382.887 1034.24 383.409C1036.33 383.93 1038.52 384.191 1040.82 384.191C1043.22 384.191 1045.36 383.878 1047.23 383.252C1049.22 382.73 1050.94 382.052 1052.4 381.217C1053.96 380.278 1055.27 379.339 1056.31 378.4C1057.36 377.356 1058.19 376.365 1058.82 375.426C1059.13 377.617 1060.12 379.652 1061.79 381.53C1063.46 383.304 1066.38 384.191 1070.56 384.191C1073.27 384.191 1075.51 383.774 1077.29 382.939C1079.16 382.104 1080.68 381.113 1081.83 379.965C1082.97 378.817 1083.76 377.67 1084.17 376.522C1084.69 375.27 1084.96 374.33 1084.96 373.704C1084.96 373.183 1084.8 372.922 1084.49 372.922C1084.17 372.922 1083.81 373.339 1083.39 374.174C1082.56 375.948 1081.51 377.409 1080.26 378.556C1079.01 379.6 1077.65 380.122 1076.19 380.122C1074.1 380.122 1072.85 379.287 1072.43 377.617C1072.02 375.843 1071.81 373.443 1071.81 370.417V332.539C1071.81 328.052 1070.14 324.608 1066.8 322.208C1063.46 319.704 1058.35 318.452 1051.46 318.452C1048.22 318.452 1045.09 318.817 1042.07 319.547C1039.15 320.173 1036.75 321.06 1034.87 322.208ZM1058.35 349.6V371.356C1058.35 372.296 1057.88 373.287 1056.94 374.33C1056.1 375.374 1055.01 376.365 1053.65 377.304C1052.4 378.139 1051.04 378.817 1049.58 379.339C1048.22 379.861 1047.08 380.122 1046.14 380.122C1042.9 380.122 1040.45 378.87 1038.78 376.365C1037.11 373.861 1036.28 370.469 1036.28 366.191C1036.28 362.748 1036.9 359.982 1038.16 357.895C1039.41 355.808 1041.02 354.191 1043.01 353.043C1045.09 351.895 1047.44 351.113 1050.05 350.695C1052.76 350.174 1055.53 349.808 1058.35 349.6Z" fill="black"/>
<path d="M848.947 343.965C848.843 342.295 848.269 340 847.225 337.078C846.286 334.156 844.773 331.339 842.686 328.626C840.599 325.913 837.834 323.565 834.39 321.582C830.947 319.495 826.721 318.452 821.712 318.452C817.538 318.452 813.625 319.443 809.973 321.426C806.425 323.408 803.347 325.965 800.738 329.095C798.129 332.226 796.094 335.773 794.633 339.739C793.173 343.704 792.442 347.721 792.442 351.791C792.442 355.861 793.173 359.826 794.633 363.687C796.094 367.548 798.129 370.991 800.738 374.017C803.347 377.043 806.477 379.496 810.129 381.374C813.886 383.252 817.955 384.191 822.338 384.191C825.886 384.191 829.121 383.67 832.042 382.626C834.964 381.687 837.521 380.383 839.712 378.713C842.008 376.939 843.938 374.904 845.503 372.609C847.069 370.313 848.321 367.913 849.26 365.409C849.573 364.678 849.73 363.948 849.73 363.217C849.73 362.487 849.417 362.122 848.79 362.122C848.269 362.122 847.799 362.643 847.382 363.687C846.443 365.878 845.243 368.069 843.782 370.261C842.425 372.452 840.703 374.383 838.616 376.052C836.634 377.722 834.338 379.078 831.729 380.122C829.121 381.165 826.095 381.687 822.651 381.687C818.477 381.687 815.086 380.122 812.477 376.991C809.973 373.861 808.721 368.852 808.721 361.965V346H846.443C848.112 346 848.947 345.321 848.947 343.965ZM808.721 343.495V337.234C808.721 333.791 809.086 331.026 809.816 328.939C810.651 326.747 811.694 325.078 812.947 323.93C814.199 322.782 815.608 321.999 817.173 321.582C818.738 321.165 820.303 320.956 821.868 320.956C824.373 320.956 826.408 321.426 827.973 322.365C829.642 323.199 830.947 324.347 831.886 325.808C832.825 327.269 833.451 328.886 833.764 330.66C834.077 332.434 834.234 334.26 834.234 336.139C834.234 341.043 833.451 343.495 831.886 343.495H808.721Z" fill="#F8169D"/>
<path d="M290.183 427.816H244.009V430.321H257.783V530.496H244.009V533H290.183C297.488 533 304.166 531.748 310.218 529.243C316.27 526.635 321.436 522.983 325.714 518.287C329.992 513.591 333.279 507.956 335.575 501.382C337.975 494.704 339.175 487.295 339.175 479.156C339.175 471.539 337.975 464.599 335.575 458.338C333.175 451.973 329.783 446.547 325.401 442.06C321.123 437.469 315.957 433.973 309.905 431.573C303.957 429.069 297.383 427.816 290.183 427.816ZM321.957 475.243V483.069C321.957 492.356 321.07 500.078 319.296 506.235C317.627 512.287 315.331 517.139 312.409 520.791C309.488 524.339 306.096 526.843 302.235 528.304C298.374 529.765 294.253 530.496 289.87 530.496H272.966V430.321H289.87C294.148 430.321 298.218 431.103 302.079 432.669C305.94 434.13 309.331 436.634 312.253 440.182C315.279 443.625 317.627 448.217 319.296 453.956C321.07 459.695 321.957 466.791 321.957 475.243ZM360.636 473.208C357.296 475.399 355.627 478.008 355.627 481.034C355.627 482.495 356.096 483.852 357.036 485.104C358.079 486.252 359.488 486.826 361.262 486.826C363.036 486.826 364.444 486.304 365.488 485.26C366.636 484.217 367.21 482.913 367.21 481.347C367.21 480.617 367.053 479.886 366.74 479.156C366.531 478.321 366.062 477.539 365.331 476.808C364.81 476.286 364.392 475.921 364.079 475.713C363.766 475.504 363.61 475.243 363.61 474.93C363.61 474.512 363.923 474.095 364.549 473.678C365.175 473.26 365.957 472.895 366.897 472.582C367.836 472.269 368.879 472.008 370.027 471.799C371.279 471.591 372.479 471.486 373.627 471.486C376.862 471.486 379.418 472.112 381.297 473.365C383.175 474.617 384.114 477.017 384.114 480.565V499.034C379.314 499.034 374.827 499.556 370.653 500.6C366.479 501.539 362.827 502.948 359.697 504.826C356.566 506.704 354.114 509.052 352.34 511.869C350.566 514.582 349.679 517.661 349.679 521.104C349.679 523.609 350.096 525.8 350.931 527.678C351.87 529.452 353.123 530.913 354.688 532.061C356.253 533.104 358.027 533.887 360.01 534.409C362.097 534.93 364.288 535.191 366.584 535.191C368.984 535.191 371.123 534.878 373.001 534.252C374.984 533.73 376.705 533.052 378.166 532.217C379.731 531.278 381.036 530.339 382.079 529.4C383.123 528.356 383.958 527.365 384.584 526.426C384.897 528.617 385.888 530.652 387.558 532.53C389.227 534.304 392.149 535.191 396.323 535.191C399.036 535.191 401.28 534.774 403.053 533.939C404.932 533.104 406.445 532.113 407.593 530.965C408.74 529.817 409.523 528.67 409.94 527.522C410.462 526.27 410.723 525.33 410.723 524.704C410.723 524.183 410.567 523.922 410.253 523.922C409.94 523.922 409.575 524.339 409.158 525.174C408.323 526.948 407.28 528.409 406.027 529.556C404.775 530.6 403.419 531.122 401.958 531.122C399.871 531.122 398.619 530.287 398.201 528.617C397.784 526.843 397.575 524.443 397.575 521.417V483.539C397.575 479.052 395.906 475.608 392.566 473.208C389.227 470.704 384.114 469.452 377.227 469.452C373.992 469.452 370.862 469.817 367.836 470.547C364.914 471.173 362.514 472.06 360.636 473.208ZM384.114 500.6V522.356C384.114 523.296 383.645 524.287 382.705 525.33C381.871 526.374 380.775 527.365 379.418 528.304C378.166 529.139 376.81 529.817 375.349 530.339C373.992 530.861 372.844 531.122 371.905 531.122C368.671 531.122 366.218 529.87 364.549 527.365C362.879 524.861 362.044 521.469 362.044 517.191C362.044 513.748 362.67 510.982 363.923 508.895C365.175 506.808 366.792 505.191 368.775 504.043C370.862 502.895 373.21 502.113 375.818 501.695C378.531 501.174 381.297 500.808 384.114 500.6ZM441.927 530.496V427.816H417.51V430.321H428.466V530.496H417.51V533H452.884V530.496H441.927ZM486.561 530.496V427.816H462.143V430.321H473.1V530.496H462.143V533H497.518V530.496H486.561ZM532.916 434.39C532.916 431.156 531.821 428.547 529.629 426.564C527.542 424.477 524.986 423.434 521.96 423.434C518.934 423.434 516.481 424.269 514.603 425.938C512.725 427.503 511.786 429.643 511.786 432.356C511.786 434.964 512.62 436.999 514.29 438.46C515.96 439.817 518.047 440.495 520.551 440.495C522.221 440.495 523.734 440.025 525.09 439.086C526.447 438.147 527.229 436.79 527.438 435.016C527.438 434.077 527.595 433.608 527.908 433.608C528.847 433.608 529.316 434.86 529.316 437.364C529.316 438.721 529.003 440.286 528.377 442.06C527.855 443.73 526.968 445.451 525.716 447.225C524.568 448.999 523.055 450.721 521.177 452.391C519.299 453.956 517.055 455.26 514.447 456.304C513.925 456.617 513.664 456.878 513.664 457.086C513.664 457.399 513.925 457.556 514.447 457.556C514.655 457.556 514.968 457.451 515.386 457.243C518.516 455.991 521.177 454.478 523.368 452.704C525.56 450.93 527.334 448.999 528.69 446.912C530.151 444.825 531.195 442.686 531.821 440.495C532.551 438.303 532.916 436.269 532.916 434.39Z" fill="black"/>
<path d="M515.336 622.392V627H579.272V622.392H545.288L563.432 566.808H621.32L640.04 622.392H610.376V627H694.76V622.392H669.704L606.632 430.872H603.176L540.104 622.392H515.336ZM592.232 479.832L619.88 562.2H565.16L592.232 479.832Z" fill="#F8169D"/>
<path d="M719.911 587.869V582.547C719.911 576.182 720.798 571.852 722.572 569.556C724.346 567.156 727.111 565.956 730.867 565.956C734.624 565.956 737.389 567.156 739.163 569.556C740.937 571.852 741.824 576.182 741.824 582.547V587.869C741.824 593.191 741.094 597.261 739.633 600.078C738.172 602.895 735.25 604.304 730.867 604.304C726.485 604.304 723.563 602.895 722.102 600.078C720.641 597.261 719.911 593.191 719.911 587.869ZM721.946 605.556C722.885 605.869 724.085 606.182 725.546 606.495C727.111 606.704 728.885 606.809 730.867 606.809C735.563 606.809 739.528 606.026 742.763 604.461C745.998 602.895 748.607 601.017 750.589 598.826C752.572 596.53 753.981 594.13 754.815 591.626C755.65 589.121 756.068 586.93 756.068 585.052C756.068 578.791 753.615 573.469 748.711 569.086C751.111 566.269 753.355 564.391 755.442 563.452C755.024 564.286 754.815 565.121 754.815 565.956C754.815 567.208 755.233 568.252 756.068 569.086C757.007 569.921 758.259 570.339 759.824 570.339C761.494 570.339 762.694 569.869 763.424 568.93C764.155 567.886 764.52 566.843 764.52 565.799C764.52 564.234 763.946 563.034 762.798 562.199C761.65 561.365 760.294 560.947 758.729 560.947C754.763 560.947 750.798 563.191 746.833 567.678C745.372 566.426 743.181 565.434 740.259 564.704C737.337 563.869 734.207 563.452 730.867 563.452C726.798 563.452 723.146 564.078 719.911 565.33C716.78 566.478 714.172 568.095 712.085 570.182C709.998 572.165 708.38 574.46 707.232 577.069C706.189 579.678 705.667 582.339 705.667 585.052C705.667 589.643 706.972 593.608 709.58 596.948C712.293 600.287 715.319 602.791 718.659 604.461C713.65 605.922 710.102 607.8 708.015 610.095C706.032 612.391 705.041 615.365 705.041 619.017C705.041 621.417 705.406 623.504 706.137 625.278C706.972 627.052 708.015 628.565 709.267 629.817C710.624 631.07 712.085 632.009 713.65 632.635C715.319 633.365 716.937 633.835 718.502 634.044C714.119 635.609 710.728 637.8 708.328 640.618C705.928 643.435 704.728 646.878 704.728 650.948C704.728 653.87 705.406 656.426 706.763 658.618C708.119 660.809 710.05 662.583 712.554 663.939C715.059 665.4 718.033 666.496 721.476 667.226C724.92 667.957 728.728 668.322 732.902 668.322C737.076 668.322 740.989 667.748 744.641 666.6C748.294 665.453 751.476 663.731 754.189 661.435C757.007 659.244 759.198 656.531 760.763 653.296C762.329 650.061 763.111 646.305 763.111 642.026C763.111 635.452 761.337 630.6 757.789 627.47C754.346 624.443 749.807 622.93 744.172 622.93H718.972C712.398 622.93 709.111 620.687 709.111 616.2C709.111 613.174 710.311 610.93 712.711 609.469C715.111 607.904 718.189 606.6 721.946 605.556ZM757.32 648.444C757.32 651.574 756.537 654.235 754.972 656.426C753.511 658.618 751.633 660.392 749.337 661.748C747.041 663.209 744.433 664.253 741.511 664.879C738.694 665.505 735.981 665.818 733.372 665.818C729.093 665.818 725.598 665.244 722.885 664.096C720.172 662.948 718.033 661.487 716.467 659.713C714.902 658.044 713.806 656.113 713.18 653.922C712.554 651.835 712.241 649.852 712.241 647.974C712.241 645.991 712.554 644.113 713.18 642.339C713.911 640.67 714.746 639.209 715.685 637.957C716.728 636.809 717.772 635.87 718.815 635.139C719.963 634.513 720.954 634.2 721.789 634.2H741.668C744.172 634.2 746.363 634.565 748.241 635.296C750.224 636.131 751.894 637.226 753.25 638.583C754.607 639.939 755.598 641.452 756.224 643.122C756.955 644.791 757.32 646.565 757.32 648.444ZM795.947 624.496V521.816H771.529V524.321H782.486V624.496H771.529V627H806.903V624.496H795.947ZM841.52 565.643H816.319V568.147H828.059V624.496H816.319V627H853.259V624.496H841.52V565.643ZM842.772 536.686C842.772 534.39 841.989 532.46 840.424 530.895C838.859 529.33 836.928 528.547 834.632 528.547C832.337 528.547 830.406 529.33 828.841 530.895C827.276 532.46 826.493 534.39 826.493 536.686C826.493 538.982 827.276 540.912 828.841 542.477C830.406 544.043 832.337 544.825 834.632 544.825C836.928 544.825 838.859 544.043 840.424 542.477C841.989 540.912 842.772 538.982 842.772 536.686ZM892.224 629.191C896.92 629.191 901.146 628.148 904.903 626.061C908.764 623.87 911.999 621.156 914.607 617.922C917.32 614.687 919.407 611.139 920.868 607.278C922.329 603.417 923.06 599.765 923.06 596.321C923.06 592.878 922.329 589.226 920.868 585.365C919.407 581.504 917.32 577.956 914.607 574.721C911.999 571.486 908.764 568.826 904.903 566.739C901.146 564.547 896.92 563.452 892.224 563.452C887.529 563.452 883.25 564.547 879.39 566.739C875.633 568.826 872.398 571.486 869.685 574.721C866.972 577.956 864.885 581.504 863.424 585.365C861.963 589.226 861.233 592.878 861.233 596.321C861.233 599.765 861.963 603.417 863.424 607.278C864.885 611.139 866.972 614.687 869.685 617.922C872.398 621.156 875.633 623.87 879.39 626.061C883.25 628.148 887.529 629.191 892.224 629.191ZM877.511 592.878C877.511 588.495 877.668 584.634 877.981 581.295C878.398 577.956 879.129 575.139 880.172 572.843C881.216 570.547 882.677 568.826 884.555 567.678C886.537 566.53 889.094 565.956 892.224 565.956C895.355 565.956 897.859 566.53 899.738 567.678C901.72 568.826 903.181 570.547 904.12 572.843C905.164 575.139 905.842 577.956 906.155 581.295C906.572 584.634 906.781 588.495 906.781 592.878V599.608C906.781 604.304 906.572 608.374 906.155 611.817C905.842 615.156 905.164 617.922 904.12 620.113C903.181 622.304 901.72 623.974 899.738 625.122C897.859 626.165 895.355 626.687 892.224 626.687C889.094 626.687 886.537 626.165 884.555 625.122C882.677 623.974 881.216 622.304 880.172 620.113C879.129 617.922 878.398 615.156 877.981 611.817C877.668 608.374 877.511 604.304 877.511 599.608V592.878Z" fill="black"/>
<path d="M961.875 578.607V562.873H963.989C964.743 562.873 965.399 563.258 965.956 564.028C966.53 564.798 966.907 565.847 967.087 567.175H967.603L967.234 562.897C967.218 562.619 967.054 562.479 966.743 562.479H954.623C954.311 562.479 954.147 562.619 954.131 562.897L953.762 567.175H954.278C954.459 565.847 954.827 564.798 955.385 564.028C955.958 563.258 956.622 562.873 957.376 562.873H959.49V578.607H957.376V579H963.989V578.607H961.875ZM972.794 571.084V562.479H968.959V562.873H970.68V578.607H968.959V579H974.515V578.607H972.794V572.461C972.794 572.198 972.859 571.912 972.991 571.6C973.138 571.272 973.343 570.969 973.605 570.69C973.867 570.395 974.171 570.15 974.515 569.953C974.859 569.756 975.244 569.658 975.67 569.658C976.014 569.658 976.285 569.715 976.482 569.83C976.678 569.945 976.826 570.092 976.924 570.273C977.022 570.453 977.08 570.658 977.096 570.887C977.129 571.1 977.145 571.321 977.145 571.551V578.607H975.449V579H980.98V578.607H979.26V571.281C979.26 570.543 979.006 569.986 978.497 569.609C978.006 569.215 977.317 569.019 976.432 569.019C975.465 569.019 974.687 569.224 974.097 569.633C973.523 570.043 973.089 570.527 972.794 571.084ZM990.391 573.026C990.375 572.764 990.285 572.403 990.121 571.944C989.973 571.485 989.736 571.043 989.408 570.617C989.08 570.191 988.646 569.822 988.105 569.51C987.564 569.183 986.9 569.019 986.113 569.019C985.458 569.019 984.843 569.174 984.27 569.486C983.712 569.797 983.229 570.199 982.819 570.69C982.409 571.182 982.09 571.739 981.86 572.362C981.631 572.985 981.516 573.616 981.516 574.255C981.516 574.894 981.631 575.517 981.86 576.124C982.09 576.73 982.409 577.271 982.819 577.746C983.229 578.221 983.721 578.607 984.294 578.902C984.884 579.197 985.523 579.344 986.212 579.344C986.769 579.344 987.277 579.262 987.736 579.098C988.195 578.951 988.596 578.746 988.941 578.484C989.301 578.205 989.604 577.886 989.85 577.525C990.096 577.164 990.293 576.787 990.44 576.394C990.489 576.279 990.514 576.165 990.514 576.05C990.514 575.935 990.465 575.878 990.367 575.878C990.285 575.878 990.211 575.96 990.145 576.124C989.998 576.468 989.809 576.812 989.58 577.156C989.367 577.5 989.096 577.804 988.769 578.066C988.457 578.328 988.097 578.541 987.687 578.705C987.277 578.869 986.802 578.951 986.261 578.951C985.605 578.951 985.073 578.705 984.663 578.213C984.27 577.722 984.073 576.935 984.073 575.853V573.346H989.998C990.26 573.346 990.391 573.239 990.391 573.026ZM984.073 572.952V571.969C984.073 571.428 984.13 570.994 984.245 570.666C984.376 570.322 984.54 570.059 984.737 569.879C984.933 569.699 985.155 569.576 985.4 569.51C985.646 569.445 985.892 569.412 986.138 569.412C986.531 569.412 986.851 569.486 987.097 569.633C987.359 569.764 987.564 569.945 987.711 570.174C987.859 570.404 987.957 570.658 988.006 570.936C988.056 571.215 988.08 571.502 988.08 571.797C988.08 572.567 987.957 572.952 987.711 572.952H984.073ZM998.655 569.363V569.756H1000.25L1003.69 579.27H1003.92L1006.05 572.756L1008.64 579.27H1008.83L1011.81 569.756H1013.5V569.363H1009.37V569.756H1011.41L1009.5 575.927L1006.92 569.363H1006.74L1004.63 575.902L1002.39 569.756H1004.01V569.363H998.655ZM1018.53 579.344C1019.27 579.344 1019.93 579.18 1020.52 578.852C1021.13 578.508 1021.63 578.082 1022.04 577.574C1022.47 577.066 1022.8 576.509 1023.03 575.902C1023.26 575.296 1023.37 574.722 1023.37 574.181C1023.37 573.641 1023.26 573.067 1023.03 572.461C1022.8 571.854 1022.47 571.297 1022.04 570.789C1021.63 570.281 1021.13 569.863 1020.52 569.535C1019.93 569.191 1019.27 569.019 1018.53 569.019C1017.79 569.019 1017.12 569.191 1016.51 569.535C1015.92 569.863 1015.42 570.281 1014.99 570.789C1014.56 571.297 1014.23 571.854 1014.01 572.461C1013.78 573.067 1013.66 573.641 1013.66 574.181C1013.66 574.722 1013.78 575.296 1014.01 575.902C1014.23 576.509 1014.56 577.066 1014.99 577.574C1015.42 578.082 1015.92 578.508 1016.51 578.852C1017.12 579.18 1017.79 579.344 1018.53 579.344ZM1016.22 573.641C1016.22 572.952 1016.24 572.346 1016.29 571.821C1016.36 571.297 1016.47 570.854 1016.64 570.494C1016.8 570.133 1017.03 569.863 1017.32 569.683C1017.64 569.502 1018.04 569.412 1018.53 569.412C1019.02 569.412 1019.41 569.502 1019.71 569.683C1020.02 569.863 1020.25 570.133 1020.4 570.494C1020.56 570.854 1020.67 571.297 1020.72 571.821C1020.78 572.346 1020.82 572.952 1020.82 573.641V574.698C1020.82 575.435 1020.78 576.074 1020.72 576.615C1020.67 577.14 1020.56 577.574 1020.4 577.918C1020.25 578.262 1020.02 578.525 1019.71 578.705C1019.41 578.869 1019.02 578.951 1018.53 578.951C1018.04 578.951 1017.64 578.869 1017.32 578.705C1017.03 578.525 1016.8 578.262 1016.64 577.918C1016.47 577.574 1016.36 577.14 1016.29 576.615C1016.24 576.074 1016.22 575.435 1016.22 574.698V573.641ZM1038.18 569.142C1037.2 569.142 1036.41 569.347 1035.82 569.756C1035.23 570.166 1034.79 570.658 1034.49 571.231C1034.46 570.789 1034.36 570.428 1034.2 570.15C1034.05 569.871 1033.86 569.658 1033.63 569.51C1033.42 569.363 1033.18 569.265 1032.92 569.215C1032.66 569.166 1032.4 569.142 1032.16 569.142C1031.86 569.142 1031.54 569.174 1031.2 569.24C1030.87 569.289 1030.54 569.396 1030.21 569.56C1029.89 569.707 1029.57 569.92 1029.25 570.199C1028.96 570.461 1028.7 570.805 1028.47 571.231V569.363H1024.76V569.756H1026.35V578.607H1024.76V579H1030.04V578.607H1028.47V572.411C1028.47 572.215 1028.53 571.969 1028.66 571.674C1028.81 571.362 1029.01 571.067 1029.25 570.789C1029.5 570.494 1029.78 570.248 1030.09 570.051C1030.42 569.855 1030.75 569.756 1031.1 569.756C1031.44 569.756 1031.7 569.83 1031.86 569.978C1032.04 570.109 1032.16 570.273 1032.23 570.469C1032.31 570.666 1032.35 570.871 1032.35 571.084C1032.37 571.281 1032.38 571.453 1032.38 571.6V578.607H1030.78V579H1036.09V578.607H1034.49V572.608C1034.49 572.362 1034.56 572.075 1034.69 571.748C1034.82 571.42 1035 571.108 1035.23 570.813C1035.47 570.518 1035.75 570.273 1036.06 570.076C1036.39 569.863 1036.75 569.756 1037.15 569.756C1037.42 569.756 1037.65 569.805 1037.81 569.904C1037.97 570.002 1038.1 570.141 1038.18 570.322C1038.28 570.486 1038.33 570.682 1038.35 570.912C1038.38 571.125 1038.4 571.354 1038.4 571.6V578.607H1036.85V579H1042.11V578.607H1040.51V571.33C1040.51 570.74 1040.33 570.232 1039.97 569.805C1039.63 569.363 1039.03 569.142 1038.18 569.142ZM1045.19 569.609C1044.66 569.953 1044.4 570.363 1044.4 570.838C1044.4 571.067 1044.47 571.281 1044.62 571.477C1044.78 571.657 1045.01 571.748 1045.28 571.748C1045.56 571.748 1045.78 571.666 1045.95 571.502C1046.13 571.338 1046.22 571.133 1046.22 570.887C1046.22 570.772 1046.19 570.658 1046.14 570.543C1046.11 570.412 1046.04 570.289 1045.92 570.174C1045.84 570.092 1045.78 570.035 1045.73 570.002C1045.68 569.969 1045.65 569.928 1045.65 569.879C1045.65 569.814 1045.7 569.748 1045.8 569.683C1045.9 569.617 1046.02 569.56 1046.17 569.51C1046.32 569.461 1046.48 569.42 1046.66 569.388C1046.86 569.355 1047.05 569.338 1047.23 569.338C1047.73 569.338 1048.14 569.437 1048.43 569.633C1048.73 569.83 1048.87 570.207 1048.87 570.764V573.665C1048.12 573.665 1047.41 573.747 1046.76 573.911C1046.1 574.059 1045.53 574.28 1045.04 574.575C1044.55 574.87 1044.16 575.239 1043.88 575.681C1043.6 576.107 1043.46 576.591 1043.46 577.132C1043.46 577.525 1043.53 577.869 1043.66 578.164C1043.81 578.443 1044.01 578.672 1044.25 578.852C1044.5 579.016 1044.78 579.139 1045.09 579.221C1045.42 579.303 1045.76 579.344 1046.12 579.344C1046.5 579.344 1046.83 579.295 1047.13 579.197C1047.44 579.115 1047.71 579.008 1047.94 578.877C1048.18 578.73 1048.39 578.582 1048.55 578.435C1048.72 578.271 1048.85 578.115 1048.95 577.967C1049 578.312 1049.15 578.631 1049.41 578.926C1049.68 579.205 1050.14 579.344 1050.79 579.344C1051.22 579.344 1051.57 579.279 1051.85 579.148C1052.14 579.016 1052.38 578.861 1052.56 578.68C1052.74 578.5 1052.86 578.32 1052.93 578.14C1053.01 577.943 1053.05 577.795 1053.05 577.697C1053.05 577.615 1053.03 577.574 1052.98 577.574C1052.93 577.574 1052.87 577.64 1052.81 577.771C1052.68 578.049 1052.51 578.279 1052.32 578.459C1052.12 578.623 1051.91 578.705 1051.68 578.705C1051.35 578.705 1051.15 578.574 1051.09 578.312C1051.02 578.033 1050.99 577.656 1050.99 577.181V571.231C1050.99 570.527 1050.73 569.986 1050.2 569.609C1049.68 569.215 1048.87 569.019 1047.79 569.019C1047.28 569.019 1046.79 569.076 1046.32 569.191C1045.86 569.289 1045.48 569.428 1045.19 569.609ZM1048.87 573.911V577.328C1048.87 577.476 1048.8 577.631 1048.65 577.795C1048.52 577.959 1048.35 578.115 1048.14 578.262C1047.94 578.394 1047.73 578.5 1047.5 578.582C1047.28 578.664 1047.1 578.705 1046.96 578.705C1046.45 578.705 1046.06 578.508 1045.8 578.115C1045.54 577.722 1045.41 577.189 1045.41 576.517C1045.41 575.976 1045.51 575.542 1045.7 575.214C1045.9 574.886 1046.15 574.632 1046.46 574.452C1046.79 574.272 1047.16 574.149 1047.57 574.083C1048 574.001 1048.43 573.944 1048.87 573.911ZM1057.98 571.231V569.363H1054.14V569.756H1055.86V578.607H1054.14V579H1059.7V578.607H1057.98V572.51C1057.98 572.231 1058.05 571.936 1058.2 571.625C1058.35 571.297 1058.54 570.994 1058.77 570.715C1059.01 570.436 1059.28 570.207 1059.58 570.027C1059.89 569.846 1060.21 569.756 1060.54 569.756C1061.01 569.756 1061.35 569.904 1061.57 570.199C1061.8 570.494 1061.91 570.961 1061.91 571.6V578.607H1060.19V579H1065.75V578.607H1064.03V571.428C1064.03 570.576 1063.78 569.986 1063.29 569.658C1062.81 569.33 1062.2 569.166 1061.44 569.166C1060.54 569.166 1059.81 569.371 1059.23 569.781C1058.67 570.191 1058.26 570.674 1057.98 571.231ZM1073.58 569.363V569.756H1075.18L1078.62 579.27H1078.85L1080.98 572.756L1083.57 579.27H1083.76L1086.74 569.756H1088.43V569.363H1084.3V569.756H1086.34L1084.43 575.927L1081.84 569.363H1081.67L1079.56 575.902L1077.32 569.756H1078.94V569.363H1073.58ZM1093.46 571.084V562.479H1089.62V562.873H1091.34V578.607H1089.62V579H1095.18V578.607H1093.46V572.461C1093.46 572.198 1093.52 571.912 1093.66 571.6C1093.8 571.272 1094.01 570.969 1094.27 570.69C1094.53 570.395 1094.84 570.15 1095.18 569.953C1095.52 569.756 1095.91 569.658 1096.34 569.658C1096.68 569.658 1096.95 569.715 1097.15 569.83C1097.34 569.945 1097.49 570.092 1097.59 570.273C1097.69 570.453 1097.74 570.658 1097.76 570.887C1097.79 571.1 1097.81 571.321 1097.81 571.551V578.607H1096.11V579H1101.65V578.607H1099.92V571.281C1099.92 570.543 1099.67 569.986 1099.16 569.609C1098.67 569.215 1097.98 569.019 1097.1 569.019C1096.13 569.019 1095.35 569.224 1094.76 569.633C1094.19 570.043 1093.75 570.527 1093.46 571.084ZM1107.24 579.344C1107.98 579.344 1108.64 579.18 1109.23 578.852C1109.84 578.508 1110.35 578.082 1110.75 577.574C1111.18 577.066 1111.51 576.509 1111.74 575.902C1111.97 575.296 1112.08 574.722 1112.08 574.181C1112.08 573.641 1111.97 573.067 1111.74 572.461C1111.51 571.854 1111.18 571.297 1110.75 570.789C1110.35 570.281 1109.84 569.863 1109.23 569.535C1108.64 569.191 1107.98 569.019 1107.24 569.019C1106.5 569.019 1105.83 569.191 1105.22 569.535C1104.63 569.863 1104.13 570.281 1103.7 570.789C1103.27 571.297 1102.95 571.854 1102.72 572.461C1102.49 573.067 1102.37 573.641 1102.37 574.181C1102.37 574.722 1102.49 575.296 1102.72 575.902C1102.95 576.509 1103.27 577.066 1103.7 577.574C1104.13 578.082 1104.63 578.508 1105.22 578.852C1105.83 579.18 1106.5 579.344 1107.24 579.344ZM1104.93 573.641C1104.93 572.952 1104.95 572.346 1105 571.821C1105.07 571.297 1105.18 570.854 1105.35 570.494C1105.51 570.133 1105.74 569.863 1106.03 569.683C1106.35 569.502 1106.75 569.412 1107.24 569.412C1107.73 569.412 1108.12 569.502 1108.42 569.683C1108.73 569.863 1108.96 570.133 1109.11 570.494C1109.27 570.854 1109.38 571.297 1109.43 571.821C1109.49 572.346 1109.53 572.952 1109.53 573.641V574.698C1109.53 575.435 1109.49 576.074 1109.43 576.615C1109.38 577.14 1109.27 577.574 1109.11 577.918C1108.96 578.262 1108.73 578.525 1108.42 578.705C1108.12 578.869 1107.73 578.951 1107.24 578.951C1106.75 578.951 1106.35 578.869 1106.03 578.705C1105.74 578.525 1105.51 578.262 1105.35 577.918C1105.18 577.574 1105.07 577.14 1105 576.615C1104.95 576.074 1104.93 575.435 1104.93 574.698V573.641ZM956.368 600.747V599.665C956.368 598.862 956.417 598.19 956.516 597.649C956.614 597.108 956.761 596.674 956.958 596.346C957.171 596.002 957.433 595.764 957.745 595.633C958.056 595.486 958.425 595.412 958.851 595.412C959.457 595.412 959.867 595.494 960.08 595.658C960.31 595.805 960.424 595.912 960.424 595.978C960.424 596.043 960.4 596.1 960.351 596.15C960.236 596.281 960.146 596.42 960.08 596.568C960.031 596.699 960.007 596.871 960.007 597.084C960.007 597.412 960.113 597.666 960.326 597.846C960.539 598.01 960.785 598.092 961.064 598.092C961.391 598.092 961.654 597.993 961.85 597.797C962.047 597.6 962.145 597.346 962.145 597.035C962.145 596.723 962.039 596.445 961.826 596.199C961.613 595.937 961.342 595.723 961.015 595.56C960.703 595.379 960.359 595.248 959.982 595.166C959.605 595.068 959.244 595.019 958.9 595.019C958.261 595.019 957.638 595.15 957.032 595.412C956.425 595.658 955.885 596.01 955.409 596.469C954.934 596.912 954.549 597.453 954.254 598.092C953.959 598.731 953.811 599.436 953.811 600.206C953.811 600.993 953.951 601.706 954.229 602.345C954.524 602.968 954.901 603.509 955.36 603.967C955.835 604.41 956.368 604.754 956.958 605C957.564 605.229 958.171 605.344 958.777 605.344C959.384 605.344 959.916 605.246 960.375 605.049C960.834 604.869 961.219 604.639 961.531 604.361C961.842 604.066 962.088 603.763 962.268 603.451C962.449 603.123 962.58 602.828 962.662 602.566C962.694 602.468 962.711 602.402 962.711 602.369C962.711 602.222 962.645 602.148 962.514 602.148C962.416 602.148 962.342 602.23 962.293 602.394C962.195 602.705 962.047 603.017 961.85 603.328C961.654 603.623 961.408 603.894 961.113 604.14C960.834 604.385 960.498 604.582 960.105 604.73C959.728 604.877 959.31 604.951 958.851 604.951C958.343 604.951 957.925 604.877 957.597 604.73C957.286 604.582 957.032 604.344 956.835 604.017C956.655 603.672 956.532 603.238 956.466 602.714C956.401 602.173 956.368 601.517 956.368 600.747ZM968.664 605.344C969.402 605.344 970.065 605.18 970.655 604.852C971.262 604.508 971.77 604.082 972.18 603.574C972.606 603.066 972.934 602.509 973.163 601.902C973.392 601.296 973.507 600.722 973.507 600.181C973.507 599.641 973.392 599.067 973.163 598.461C972.934 597.854 972.606 597.297 972.18 596.789C971.77 596.281 971.262 595.863 970.655 595.535C970.065 595.191 969.402 595.019 968.664 595.019C967.927 595.019 967.255 595.191 966.648 595.535C966.058 595.863 965.55 596.281 965.124 596.789C964.698 597.297 964.37 597.854 964.141 598.461C963.911 599.067 963.796 599.641 963.796 600.181C963.796 600.722 963.911 601.296 964.141 601.902C964.37 602.509 964.698 603.066 965.124 603.574C965.55 604.082 966.058 604.508 966.648 604.852C967.255 605.18 967.927 605.344 968.664 605.344ZM966.353 599.641C966.353 598.952 966.378 598.346 966.427 597.821C966.492 597.297 966.607 596.854 966.771 596.494C966.935 596.133 967.164 595.863 967.459 595.683C967.771 595.502 968.172 595.412 968.664 595.412C969.156 595.412 969.549 595.502 969.844 595.683C970.156 595.863 970.385 596.133 970.532 596.494C970.696 596.854 970.803 597.297 970.852 597.821C970.918 598.346 970.95 598.952 970.95 599.641V600.698C970.95 601.435 970.918 602.074 970.852 602.615C970.803 603.14 970.696 603.574 970.532 603.918C970.385 604.262 970.156 604.525 969.844 604.705C969.549 604.869 969.156 604.951 968.664 604.951C968.172 604.951 967.771 604.869 967.459 604.705C967.164 604.525 966.935 604.262 966.771 603.918C966.607 603.574 966.492 603.14 966.427 602.615C966.378 602.074 966.353 601.435 966.353 600.698V599.641ZM978.799 597.231V595.363H974.964V595.756H976.685V604.607H974.964V605H980.52V604.607H978.799V598.51C978.799 598.231 978.873 597.936 979.021 597.625C979.168 597.297 979.357 596.994 979.586 596.715C979.832 596.436 980.102 596.207 980.397 596.027C980.709 595.846 981.028 595.756 981.356 595.756C981.831 595.756 982.176 595.904 982.389 596.199C982.618 596.494 982.733 596.961 982.733 597.6V604.607H981.012V605H986.568V604.607H984.847V597.428C984.847 596.576 984.601 595.986 984.11 595.658C983.634 595.33 983.02 595.166 982.266 595.166C981.364 595.166 980.627 595.371 980.053 595.781C979.496 596.191 979.078 596.674 978.799 597.231ZM991.347 595.363V591.503L989.233 592.56V595.363H987.561V595.756H989.233V602.394C989.233 603.312 989.479 604.033 989.97 604.557C990.462 605.082 991.175 605.344 992.109 605.344C993.076 605.344 993.756 605.156 994.15 604.779C994.559 604.385 994.822 603.853 994.936 603.181C994.953 603.099 994.961 603.05 994.961 603.033C994.961 603.017 994.961 602.992 994.961 602.959C994.961 602.828 994.912 602.763 994.813 602.763C994.682 602.763 994.609 602.845 994.592 603.009C994.51 603.566 994.322 604.008 994.027 604.336C993.732 604.648 993.371 604.803 992.945 604.803C992.371 604.803 991.962 604.607 991.716 604.213C991.47 603.82 991.347 603.23 991.347 602.443V595.756H993.732V595.363H991.347ZM1000.15 595.363H996.187V595.756H998.031V604.607H996.187V605H1001.99V604.607H1000.15V595.363ZM1000.34 590.815C1000.34 590.454 1000.22 590.151 999.973 589.905C999.728 589.659 999.424 589.536 999.064 589.536C998.703 589.536 998.4 589.659 998.154 589.905C997.908 590.151 997.785 590.454 997.785 590.815C997.785 591.175 997.908 591.479 998.154 591.724C998.4 591.97 998.703 592.093 999.064 592.093C999.424 592.093 999.728 591.97 999.973 591.724C1000.22 591.479 1000.34 591.175 1000.34 590.815ZM1007.25 597.231V595.363H1003.41V595.756H1005.13V604.607H1003.41V605H1008.97V604.607H1007.25V598.51C1007.25 598.231 1007.32 597.936 1007.47 597.625C1007.62 597.297 1007.81 596.994 1008.04 596.715C1008.28 596.436 1008.55 596.207 1008.85 596.027C1009.16 595.846 1009.48 595.756 1009.81 595.756C1010.28 595.756 1010.63 595.904 1010.84 596.199C1011.07 596.494 1011.18 596.961 1011.18 597.6V604.607H1009.46V605H1015.02V604.607H1013.3V597.428C1013.3 596.576 1013.05 595.986 1012.56 595.658C1012.08 595.33 1011.47 595.166 1010.72 595.166C1009.81 595.166 1009.08 595.371 1008.5 595.781C1007.95 596.191 1007.53 596.674 1007.25 597.231ZM1024.27 603.156V605H1028.1V604.607H1026.38V595.363H1022.55V595.756H1024.27V601.878C1024.27 602.14 1024.19 602.427 1024.02 602.738C1023.87 603.05 1023.67 603.345 1023.41 603.623C1023.14 603.886 1022.84 604.107 1022.5 604.287C1022.15 604.467 1021.8 604.557 1021.44 604.557C1020.87 604.557 1020.5 604.418 1020.33 604.14C1020.17 603.861 1020.09 603.41 1020.09 602.787V595.363H1016.25V595.756H1017.97V602.615C1017.97 603.14 1018.04 603.574 1018.17 603.918C1018.3 604.262 1018.48 604.533 1018.71 604.73C1018.94 604.926 1019.2 605.066 1019.5 605.148C1019.81 605.229 1020.13 605.27 1020.46 605.27C1021.33 605.27 1022.08 605.09 1022.72 604.73C1023.37 604.353 1023.89 603.828 1024.27 603.156ZM1038.24 599.026C1038.22 598.764 1038.13 598.403 1037.97 597.944C1037.82 597.485 1037.58 597.043 1037.26 596.617C1036.93 596.191 1036.49 595.822 1035.95 595.51C1035.41 595.183 1034.75 595.019 1033.96 595.019C1033.31 595.019 1032.69 595.174 1032.12 595.486C1031.56 595.797 1031.08 596.199 1030.67 596.69C1030.26 597.182 1029.94 597.739 1029.71 598.362C1029.48 598.985 1029.36 599.616 1029.36 600.255C1029.36 600.894 1029.48 601.517 1029.71 602.124C1029.94 602.73 1030.26 603.271 1030.67 603.746C1031.08 604.221 1031.57 604.607 1032.14 604.902C1032.73 605.197 1033.37 605.344 1034.06 605.344C1034.62 605.344 1035.13 605.262 1035.58 605.098C1036.04 604.951 1036.44 604.746 1036.79 604.484C1037.15 604.205 1037.45 603.886 1037.7 603.525C1037.94 603.164 1038.14 602.787 1038.29 602.394C1038.34 602.279 1038.36 602.165 1038.36 602.05C1038.36 601.935 1038.31 601.878 1038.21 601.878C1038.13 601.878 1038.06 601.96 1037.99 602.124C1037.85 602.468 1037.66 602.812 1037.43 603.156C1037.22 603.5 1036.94 603.804 1036.62 604.066C1036.31 604.328 1035.94 604.541 1035.54 604.705C1035.13 604.869 1034.65 604.951 1034.11 604.951C1033.45 604.951 1032.92 604.705 1032.51 604.213C1032.12 603.722 1031.92 602.935 1031.92 601.853V599.346H1037.85C1038.11 599.346 1038.24 599.239 1038.24 599.026ZM1031.92 598.952V597.969C1031.92 597.428 1031.98 596.994 1032.09 596.666C1032.22 596.322 1032.39 596.059 1032.58 595.879C1032.78 595.699 1033 595.576 1033.25 595.51C1033.49 595.445 1033.74 595.412 1033.99 595.412C1034.38 595.412 1034.7 595.486 1034.95 595.633C1035.21 595.764 1035.41 595.945 1035.56 596.174C1035.71 596.404 1035.81 596.658 1035.85 596.936C1035.9 597.215 1035.93 597.502 1035.93 597.797C1035.93 598.567 1035.81 598.952 1035.56 598.952H1031.92ZM1045.99 588.873H1047.86V596.346C1047.25 595.461 1046.36 595.019 1045.18 595.019C1044.59 595.019 1044.01 595.166 1043.45 595.461C1042.9 595.756 1042.41 596.15 1041.98 596.641C1041.55 597.117 1041.21 597.666 1040.95 598.288C1040.69 598.895 1040.55 599.518 1040.55 600.157C1040.55 600.845 1040.69 601.509 1040.97 602.148C1041.27 602.771 1041.64 603.32 1042.08 603.795C1042.52 604.271 1043.01 604.648 1043.55 604.926C1044.09 605.205 1044.61 605.344 1045.1 605.344C1045.76 605.344 1046.31 605.18 1046.75 604.852C1047.19 604.525 1047.56 604.148 1047.86 603.722V605H1051.84V604.607H1049.97V588.479H1045.99V588.873ZM1043.11 599.542C1043.11 598.018 1043.27 596.953 1043.6 596.346C1043.93 595.723 1044.49 595.412 1045.27 595.412C1045.62 595.412 1045.92 595.469 1046.18 595.584C1046.46 595.699 1046.7 595.855 1046.9 596.051C1047.11 596.232 1047.29 596.428 1047.44 596.641C1047.6 596.854 1047.74 597.059 1047.86 597.256V603.009C1047.49 603.615 1047.09 604.09 1046.65 604.435C1046.22 604.779 1045.74 604.951 1045.2 604.951C1044.86 604.951 1044.55 604.885 1044.29 604.754C1044.03 604.607 1043.81 604.377 1043.63 604.066C1043.46 603.738 1043.33 603.304 1043.23 602.763C1043.15 602.222 1043.11 601.55 1043.11 600.747V599.542ZM1059.68 595.363V595.756H1061.28L1064.72 605.27H1064.94L1067.08 598.756L1069.67 605.27H1069.86L1072.84 595.756H1074.53V595.363H1070.4V595.756H1072.44L1070.53 601.927L1067.94 595.363H1067.77L1065.66 601.902L1063.42 595.756H1065.04V595.363H1059.68ZM1079.56 597.084V588.479H1075.72V588.873H1077.44V604.607H1075.72V605H1081.28V604.607H1079.56V598.461C1079.56 598.198 1079.62 597.912 1079.75 597.6C1079.9 597.272 1080.11 596.969 1080.37 596.69C1080.63 596.395 1080.93 596.15 1081.28 595.953C1081.62 595.756 1082.01 595.658 1082.43 595.658C1082.78 595.658 1083.05 595.715 1083.25 595.83C1083.44 595.945 1083.59 596.092 1083.69 596.273C1083.79 596.453 1083.84 596.658 1083.86 596.887C1083.89 597.1 1083.91 597.321 1083.91 597.551V604.607H1082.21V605H1087.74V604.607H1086.02V597.281C1086.02 596.543 1085.77 595.986 1085.26 595.609C1084.77 595.215 1084.08 595.019 1083.2 595.019C1082.23 595.019 1081.45 595.224 1080.86 595.633C1080.29 596.043 1079.85 596.527 1079.56 597.084ZM1097.16 599.026C1097.14 598.764 1097.05 598.403 1096.89 597.944C1096.74 597.485 1096.5 597.043 1096.17 596.617C1095.84 596.191 1095.41 595.822 1094.87 595.51C1094.33 595.183 1093.66 595.019 1092.88 595.019C1092.22 595.019 1091.61 595.174 1091.03 595.486C1090.48 595.797 1089.99 596.199 1089.58 596.69C1089.17 597.182 1088.85 597.739 1088.62 598.362C1088.4 598.985 1088.28 599.616 1088.28 600.255C1088.28 600.894 1088.4 601.517 1088.62 602.124C1088.85 602.73 1089.17 603.271 1089.58 603.746C1089.99 604.221 1090.48 604.607 1091.06 604.902C1091.65 605.197 1092.29 605.344 1092.98 605.344C1093.53 605.344 1094.04 605.262 1094.5 605.098C1094.96 604.951 1095.36 604.746 1095.7 604.484C1096.07 604.205 1096.37 603.886 1096.61 603.525C1096.86 603.164 1097.06 602.787 1097.2 602.394C1097.25 602.279 1097.28 602.165 1097.28 602.05C1097.28 601.935 1097.23 601.878 1097.13 601.878C1097.05 601.878 1096.98 601.96 1096.91 602.124C1096.76 602.468 1096.57 602.812 1096.34 603.156C1096.13 603.5 1095.86 603.804 1095.53 604.066C1095.22 604.328 1094.86 604.541 1094.45 604.705C1094.04 604.869 1093.57 604.951 1093.03 604.951C1092.37 604.951 1091.84 604.705 1091.43 604.213C1091.03 603.722 1090.84 602.935 1090.84 601.853V599.346H1096.76C1097.02 599.346 1097.16 599.239 1097.16 599.026ZM1090.84 598.952V597.969C1090.84 597.428 1090.89 596.994 1091.01 596.666C1091.14 596.322 1091.3 596.059 1091.5 595.879C1091.7 595.699 1091.92 595.576 1092.16 595.51C1092.41 595.445 1092.66 595.412 1092.9 595.412C1093.3 595.412 1093.62 595.486 1093.86 595.633C1094.12 595.764 1094.33 595.945 1094.48 596.174C1094.62 596.404 1094.72 596.658 1094.77 596.936C1094.82 597.215 1094.84 597.502 1094.84 597.797C1094.84 598.567 1094.72 598.952 1094.48 598.952H1090.84ZM1102.53 596.789V595.363H1098.69V595.756H1100.42V604.607H1098.69V605H1104.25V604.607H1102.53V597.871C1102.53 597.608 1102.6 597.338 1102.75 597.059C1102.91 596.781 1103.12 596.527 1103.37 596.297C1103.63 596.068 1103.91 595.887 1104.23 595.756C1104.54 595.609 1104.84 595.535 1105.14 595.535C1105.32 595.535 1105.47 595.551 1105.6 595.584C1105.75 595.601 1105.82 595.658 1105.82 595.756C1105.82 595.838 1105.78 595.896 1105.7 595.928C1105.6 595.994 1105.49 596.109 1105.36 596.273C1105.23 596.42 1105.16 596.658 1105.16 596.985C1105.16 597.33 1105.27 597.616 1105.5 597.846C1105.73 598.059 1106.04 598.166 1106.41 598.166C1106.74 598.166 1107.03 598.059 1107.27 597.846C1107.52 597.616 1107.64 597.305 1107.64 596.912C1107.64 596.584 1107.58 596.314 1107.45 596.1C1107.32 595.871 1107.14 595.691 1106.93 595.56C1106.73 595.412 1106.5 595.306 1106.22 595.24C1105.95 595.174 1105.68 595.142 1105.41 595.142C1105.01 595.142 1104.66 595.199 1104.35 595.314C1104.04 595.428 1103.76 595.568 1103.51 595.732C1103.27 595.896 1103.06 596.076 1102.9 596.273C1102.73 596.453 1102.61 596.625 1102.53 596.789ZM1116.91 599.026C1116.9 598.764 1116.81 598.403 1116.64 597.944C1116.5 597.485 1116.26 597.043 1115.93 596.617C1115.6 596.191 1115.17 595.822 1114.63 595.51C1114.09 595.183 1113.42 595.019 1112.64 595.019C1111.98 595.019 1111.37 595.174 1110.79 595.486C1110.24 595.797 1109.75 596.199 1109.34 596.69C1108.93 597.182 1108.61 597.739 1108.38 598.362C1108.15 598.985 1108.04 599.616 1108.04 600.255C1108.04 600.894 1108.15 601.517 1108.38 602.124C1108.61 602.73 1108.93 603.271 1109.34 603.746C1109.75 604.221 1110.24 604.607 1110.82 604.902C1111.41 605.197 1112.05 605.344 1112.73 605.344C1113.29 605.344 1113.8 605.262 1114.26 605.098C1114.72 604.951 1115.12 604.746 1115.46 604.484C1115.82 604.205 1116.13 603.886 1116.37 603.525C1116.62 603.164 1116.82 602.787 1116.96 602.394C1117.01 602.279 1117.04 602.165 1117.04 602.05C1117.04 601.935 1116.99 601.878 1116.89 601.878C1116.81 601.878 1116.73 601.96 1116.67 602.124C1116.52 602.468 1116.33 602.812 1116.1 603.156C1115.89 603.5 1115.62 603.804 1115.29 604.066C1114.98 604.328 1114.62 604.541 1114.21 604.705C1113.8 604.869 1113.32 604.951 1112.78 604.951C1112.13 604.951 1111.6 604.705 1111.19 604.213C1110.79 603.722 1110.6 602.935 1110.6 601.853V599.346H1116.52C1116.78 599.346 1116.91 599.239 1116.91 599.026ZM1110.6 598.952V597.969C1110.6 597.428 1110.65 596.994 1110.77 596.666C1110.9 596.322 1111.06 596.059 1111.26 595.879C1111.46 595.699 1111.68 595.576 1111.92 595.51C1112.17 595.445 1112.42 595.412 1112.66 595.412C1113.05 595.412 1113.37 595.486 1113.62 595.633C1113.88 595.764 1114.09 595.945 1114.23 596.174C1114.38 596.404 1114.48 596.658 1114.53 596.936C1114.58 597.215 1114.6 597.502 1114.6 597.797C1114.6 598.567 1114.48 598.952 1114.23 598.952H1110.6ZM965.907 618.314C965.907 617.708 965.767 617.167 965.489 616.692C965.21 616.2 964.833 615.799 964.358 615.487C963.899 615.159 963.366 614.914 962.76 614.75C962.154 614.569 961.523 614.479 960.867 614.479H953.713V614.873H955.827V630.607H953.713V631H961.064C962.768 631 964.088 630.607 965.022 629.82C965.972 629.033 966.448 627.943 966.448 626.55C966.448 625.829 966.3 625.198 966.005 624.657C965.727 624.116 965.374 623.657 964.948 623.281C964.522 622.904 964.047 622.617 963.522 622.42C963.014 622.207 962.539 622.076 962.096 622.027C962.637 621.928 963.137 621.789 963.596 621.609C964.071 621.412 964.473 621.166 964.8 620.871C965.145 620.56 965.415 620.199 965.612 619.79C965.808 619.363 965.907 618.872 965.907 618.314ZM958.212 621.879V614.873H960.867C961.277 614.873 961.646 614.93 961.973 615.045C962.301 615.143 962.58 615.323 962.809 615.586C963.039 615.831 963.219 616.167 963.35 616.594C963.481 617.003 963.547 617.511 963.547 618.118V618.511C963.547 619.167 963.481 619.716 963.35 620.158C963.219 620.584 963.039 620.929 962.809 621.191C962.58 621.437 962.293 621.617 961.949 621.732C961.621 621.83 961.26 621.879 960.867 621.879H958.212ZM958.212 630.607V622.273H960.867C961.998 622.273 962.801 622.617 963.276 623.305C963.768 623.993 964.014 624.977 964.014 626.255V626.845C964.014 628.042 963.784 628.968 963.325 629.623C962.867 630.279 962.047 630.607 960.867 630.607H958.212ZM973.274 631.344C974.011 631.344 974.675 631.18 975.265 630.852C975.871 630.508 976.379 630.082 976.789 629.574C977.215 629.066 977.543 628.509 977.773 627.902C978.002 627.296 978.117 626.722 978.117 626.181C978.117 625.641 978.002 625.067 977.773 624.461C977.543 623.854 977.215 623.297 976.789 622.789C976.379 622.281 975.871 621.863 975.265 621.535C974.675 621.191 974.011 621.019 973.274 621.019C972.536 621.019 971.864 621.191 971.258 621.535C970.668 621.863 970.16 622.281 969.734 622.789C969.307 623.297 968.98 623.854 968.75 624.461C968.521 625.067 968.406 625.641 968.406 626.181C968.406 626.722 968.521 627.296 968.75 627.902C968.98 628.509 969.307 629.066 969.734 629.574C970.16 630.082 970.668 630.508 971.258 630.852C971.864 631.18 972.536 631.344 973.274 631.344ZM970.963 625.641C970.963 624.952 970.987 624.346 971.036 623.821C971.102 623.297 971.217 622.854 971.381 622.494C971.545 622.133 971.774 621.863 972.069 621.683C972.38 621.502 972.782 621.412 973.274 621.412C973.765 621.412 974.159 621.502 974.454 621.683C974.765 621.863 974.995 622.133 975.142 622.494C975.306 622.854 975.412 623.297 975.462 623.821C975.527 624.346 975.56 624.952 975.56 625.641V626.698C975.56 627.435 975.527 628.074 975.462 628.615C975.412 629.14 975.306 629.574 975.142 629.918C974.995 630.262 974.765 630.525 974.454 630.705C974.159 630.869 973.765 630.951 973.274 630.951C972.782 630.951 972.38 630.869 972.069 630.705C971.774 630.525 971.545 630.262 971.381 629.918C971.217 629.574 971.102 629.14 971.036 628.615C970.987 628.074 970.963 627.435 970.963 626.698V625.641ZM985.439 614.873H987.307V622.346C986.701 621.461 985.807 621.019 984.627 621.019C984.037 621.019 983.464 621.166 982.906 621.461C982.349 621.756 981.857 622.15 981.431 622.641C981.005 623.117 980.661 623.666 980.399 624.288C980.136 624.895 980.005 625.518 980.005 626.157C980.005 626.845 980.145 627.509 980.423 628.148C980.718 628.771 981.087 629.32 981.53 629.795C981.972 630.271 982.464 630.648 983.005 630.926C983.546 631.205 984.062 631.344 984.553 631.344C985.209 631.344 985.758 631.18 986.201 630.852C986.643 630.525 987.012 630.148 987.307 629.722V631H991.29V630.607H989.421V614.479H985.439V614.873ZM982.562 625.542C982.562 624.018 982.726 622.953 983.054 622.346C983.382 621.723 983.939 621.412 984.726 621.412C985.07 621.412 985.373 621.469 985.635 621.584C985.914 621.699 986.151 621.855 986.348 622.051C986.561 622.232 986.741 622.428 986.889 622.641C987.053 622.854 987.192 623.059 987.307 623.256V629.009C986.946 629.615 986.545 630.09 986.102 630.435C985.676 630.779 985.193 630.951 984.652 630.951C984.308 630.951 984.004 630.885 983.742 630.754C983.48 630.607 983.259 630.377 983.078 630.066C982.915 629.738 982.783 629.304 982.685 628.763C982.603 628.222 982.562 627.55 982.562 626.747V625.542ZM996.706 631.344C997.443 631.344 998.107 631.18 998.697 630.852C999.303 630.508 999.811 630.082 1000.22 629.574C1000.65 629.066 1000.98 628.509 1001.2 627.902C1001.43 627.296 1001.55 626.722 1001.55 626.181C1001.55 625.641 1001.43 625.067 1001.2 624.461C1000.98 623.854 1000.65 623.297 1000.22 622.789C999.811 622.281 999.303 621.863 998.697 621.535C998.107 621.191 997.443 621.019 996.706 621.019C995.968 621.019 995.296 621.191 994.69 621.535C994.1 621.863 993.592 622.281 993.165 622.789C992.739 623.297 992.412 623.854 992.182 624.461C991.953 625.067 991.838 625.641 991.838 626.181C991.838 626.722 991.953 627.296 992.182 627.902C992.412 628.509 992.739 629.066 993.165 629.574C993.592 630.082 994.1 630.508 994.69 630.852C995.296 631.18 995.968 631.344 996.706 631.344ZM994.395 625.641C994.395 624.952 994.419 624.346 994.468 623.821C994.534 623.297 994.649 622.854 994.813 622.494C994.977 622.133 995.206 621.863 995.501 621.683C995.812 621.502 996.214 621.412 996.706 621.412C997.197 621.412 997.591 621.502 997.886 621.683C998.197 621.863 998.427 622.133 998.574 622.494C998.738 622.854 998.844 623.297 998.894 623.821C998.959 624.346 998.992 624.952 998.992 625.641V626.698C998.992 627.435 998.959 628.074 998.894 628.615C998.844 629.14 998.738 629.574 998.574 629.918C998.427 630.262 998.197 630.525 997.886 630.705C997.591 630.869 997.197 630.951 996.706 630.951C996.214 630.951 995.812 630.869 995.501 630.705C995.206 630.525 994.977 630.262 994.813 629.918C994.649 629.574 994.534 629.14 994.468 628.615C994.419 628.074 994.395 627.435 994.395 626.698V625.641ZM1006.84 623.231V621.363H1003.01V621.756H1004.73V630.607H1003.01V631H1008.56V630.607H1006.84V624.51C1006.84 624.231 1006.91 623.936 1007.06 623.625C1007.21 623.297 1007.4 622.994 1007.63 622.715C1007.87 622.436 1008.14 622.207 1008.44 622.027C1008.75 621.846 1009.07 621.756 1009.4 621.756C1009.87 621.756 1010.22 621.904 1010.43 622.199C1010.66 622.494 1010.77 622.961 1010.77 623.6V630.607H1009.05V631H1014.61V630.607H1012.89V623.428C1012.89 622.576 1012.64 621.986 1012.15 621.658C1011.68 621.33 1011.06 621.166 1010.31 621.166C1009.41 621.166 1008.67 621.371 1008.09 621.781C1007.54 622.191 1007.12 622.674 1006.84 623.231ZM1020.02 621.363H1016.07V621.756H1017.91V630.607H1016.07V631H1021.87V630.607H1020.02V621.363ZM1020.22 616.815C1020.22 616.454 1020.1 616.151 1019.85 615.905C1019.61 615.659 1019.3 615.536 1018.94 615.536C1018.58 615.536 1018.28 615.659 1018.03 615.905C1017.79 616.151 1017.66 616.454 1017.66 616.815C1017.66 617.175 1017.79 617.479 1018.03 617.724C1018.28 617.97 1018.58 618.093 1018.94 618.093C1019.3 618.093 1019.61 617.97 1019.85 617.724C1020.1 617.479 1020.22 617.175 1020.22 616.815ZM1032.38 626.747V625.665C1032.38 624.862 1032.43 624.19 1032.53 623.649C1032.62 623.108 1032.77 622.674 1032.97 622.346C1033.18 622.002 1033.44 621.764 1033.75 621.633C1034.07 621.486 1034.43 621.412 1034.86 621.412C1035.47 621.412 1035.88 621.494 1036.09 621.658C1036.32 621.805 1036.43 621.912 1036.43 621.978C1036.43 622.043 1036.41 622.1 1036.36 622.15C1036.25 622.281 1036.16 622.42 1036.09 622.568C1036.04 622.699 1036.02 622.871 1036.02 623.084C1036.02 623.412 1036.12 623.666 1036.34 623.846C1036.55 624.01 1036.79 624.092 1037.07 624.092C1037.4 624.092 1037.66 623.993 1037.86 623.797C1038.06 623.6 1038.16 623.346 1038.16 623.035C1038.16 622.723 1038.05 622.445 1037.84 622.199C1037.62 621.937 1037.35 621.723 1037.02 621.56C1036.71 621.379 1036.37 621.248 1035.99 621.166C1035.61 621.068 1035.25 621.019 1034.91 621.019C1034.27 621.019 1033.65 621.15 1033.04 621.412C1032.44 621.658 1031.89 622.01 1031.42 622.469C1030.94 622.912 1030.56 623.453 1030.26 624.092C1029.97 624.731 1029.82 625.436 1029.82 626.206C1029.82 626.993 1029.96 627.706 1030.24 628.345C1030.53 628.968 1030.91 629.509 1031.37 629.967C1031.85 630.41 1032.38 630.754 1032.97 631C1033.57 631.229 1034.18 631.344 1034.79 631.344C1035.39 631.344 1035.93 631.246 1036.39 631.049C1036.84 630.869 1037.23 630.639 1037.54 630.361C1037.85 630.066 1038.1 629.763 1038.28 629.451C1038.46 629.123 1038.59 628.828 1038.67 628.566C1038.7 628.468 1038.72 628.402 1038.72 628.369C1038.72 628.222 1038.66 628.148 1038.52 628.148C1038.43 628.148 1038.35 628.23 1038.3 628.394C1038.2 628.705 1038.06 629.017 1037.86 629.328C1037.66 629.623 1037.42 629.894 1037.12 630.14C1036.84 630.385 1036.51 630.582 1036.11 630.73C1035.74 630.877 1035.32 630.951 1034.86 630.951C1034.35 630.951 1033.93 630.877 1033.61 630.73C1033.3 630.582 1033.04 630.344 1032.85 630.017C1032.66 629.672 1032.54 629.238 1032.48 628.714C1032.41 628.173 1032.38 627.517 1032.38 626.747ZM1044.67 631.344C1045.41 631.344 1046.08 631.18 1046.67 630.852C1047.27 630.508 1047.78 630.082 1048.19 629.574C1048.62 629.066 1048.94 628.509 1049.17 627.902C1049.4 627.296 1049.52 626.722 1049.52 626.181C1049.52 625.641 1049.4 625.067 1049.17 624.461C1048.94 623.854 1048.62 623.297 1048.19 622.789C1047.78 622.281 1047.27 621.863 1046.67 621.535C1046.08 621.191 1045.41 621.019 1044.67 621.019C1043.94 621.019 1043.26 621.191 1042.66 621.535C1042.07 621.863 1041.56 622.281 1041.13 622.789C1040.71 623.297 1040.38 623.854 1040.15 624.461C1039.92 625.067 1039.81 625.641 1039.81 626.181C1039.81 626.722 1039.92 627.296 1040.15 627.902C1040.38 628.509 1040.71 629.066 1041.13 629.574C1041.56 630.082 1042.07 630.508 1042.66 630.852C1043.26 631.18 1043.94 631.344 1044.67 631.344ZM1042.36 625.641C1042.36 624.952 1042.39 624.346 1042.44 623.821C1042.5 623.297 1042.62 622.854 1042.78 622.494C1042.94 622.133 1043.17 621.863 1043.47 621.683C1043.78 621.502 1044.18 621.412 1044.67 621.412C1045.17 621.412 1045.56 621.502 1045.85 621.683C1046.17 621.863 1046.39 622.133 1046.54 622.494C1046.71 622.854 1046.81 623.297 1046.86 623.821C1046.93 624.346 1046.96 624.952 1046.96 625.641V626.698C1046.96 627.435 1046.93 628.074 1046.86 628.615C1046.81 629.14 1046.71 629.574 1046.54 629.918C1046.39 630.262 1046.17 630.525 1045.85 630.705C1045.56 630.869 1045.17 630.951 1044.67 630.951C1044.18 630.951 1043.78 630.869 1043.47 630.705C1043.17 630.525 1042.94 630.262 1042.78 629.918C1042.62 629.574 1042.5 629.14 1042.44 628.615C1042.39 628.074 1042.36 627.435 1042.36 626.698V625.641ZM1058.48 629.156V631H1062.31V630.607H1060.59V621.363H1056.76V621.756H1058.48V627.878C1058.48 628.14 1058.4 628.427 1058.23 628.738C1058.09 629.05 1057.88 629.345 1057.62 629.623C1057.36 629.886 1057.05 630.107 1056.71 630.287C1056.36 630.467 1056.01 630.557 1055.65 630.557C1055.08 630.557 1054.71 630.418 1054.55 630.14C1054.38 629.861 1054.3 629.41 1054.3 628.787V621.363H1050.46V621.756H1052.19V628.615C1052.19 629.14 1052.25 629.574 1052.38 629.918C1052.51 630.262 1052.69 630.533 1052.92 630.73C1053.15 630.926 1053.41 631.066 1053.71 631.148C1054.02 631.229 1054.34 631.27 1054.67 631.27C1055.54 631.27 1056.29 631.09 1056.93 630.73C1057.59 630.353 1058.1 629.828 1058.48 629.156ZM1067.77 630.607V614.479H1063.94V614.873H1065.66V630.607H1063.94V631H1069.49V630.607H1067.77ZM1076.38 614.873H1078.25V622.346C1077.64 621.461 1076.75 621.019 1075.57 621.019C1074.98 621.019 1074.41 621.166 1073.85 621.461C1073.29 621.756 1072.8 622.15 1072.37 622.641C1071.95 623.117 1071.6 623.666 1071.34 624.288C1071.08 624.895 1070.95 625.518 1070.95 626.157C1070.95 626.845 1071.09 627.509 1071.37 628.148C1071.66 628.771 1072.03 629.32 1072.47 629.795C1072.92 630.271 1073.41 630.648 1073.95 630.926C1074.49 631.205 1075 631.344 1075.5 631.344C1076.15 631.344 1076.7 631.18 1077.14 630.852C1077.59 630.525 1077.95 630.148 1078.25 629.722V631H1082.23V630.607H1080.36V614.479H1076.38V614.873ZM1073.51 625.542C1073.51 624.018 1073.67 622.953 1074 622.346C1074.32 621.723 1074.88 621.412 1075.67 621.412C1076.01 621.412 1076.32 621.469 1076.58 621.584C1076.86 621.699 1077.09 621.855 1077.29 622.051C1077.5 622.232 1077.68 622.428 1077.83 622.641C1078 622.854 1078.14 623.059 1078.25 623.256V629.009C1077.89 629.615 1077.49 630.09 1077.05 630.435C1076.62 630.779 1076.14 630.951 1075.59 630.951C1075.25 630.951 1074.95 630.885 1074.69 630.754C1074.42 630.607 1074.2 630.377 1074.02 630.066C1073.86 629.738 1073.73 629.304 1073.63 628.763C1073.55 628.222 1073.51 627.55 1073.51 626.747V625.542ZM1087.53 623.231V621.363H1083.7V621.756H1085.42V630.607H1083.7V631H1089.25V630.607H1087.53V624.51C1087.53 624.231 1087.61 623.936 1087.75 623.625C1087.9 623.297 1088.09 622.994 1088.32 622.715C1088.56 622.436 1088.84 622.207 1089.13 622.027C1089.44 621.846 1089.76 621.756 1090.09 621.756C1090.56 621.756 1090.91 621.904 1091.12 622.199C1091.35 622.494 1091.47 622.961 1091.47 623.6V630.607H1089.75V631H1095.3V630.607H1093.58V623.428C1093.58 622.576 1093.33 621.986 1092.84 621.658C1092.37 621.33 1091.75 621.166 1091 621.166C1090.1 621.166 1089.36 621.371 1088.79 621.781C1088.23 622.191 1087.81 622.674 1087.53 623.231ZM1099.85 615.512C1099.85 615.004 1099.68 614.594 1099.34 614.283C1099.01 613.955 1098.61 613.791 1098.13 613.791C1097.66 613.791 1097.27 613.922 1096.98 614.184C1096.68 614.43 1096.54 614.766 1096.54 615.192C1096.54 615.602 1096.67 615.922 1096.93 616.151C1097.19 616.364 1097.52 616.471 1097.91 616.471C1098.17 616.471 1098.41 616.397 1098.63 616.249C1098.84 616.102 1098.96 615.889 1098.99 615.61C1098.99 615.463 1099.02 615.389 1099.07 615.389C1099.22 615.389 1099.29 615.586 1099.29 615.979C1099.29 616.192 1099.24 616.438 1099.14 616.716C1099.06 616.979 1098.92 617.249 1098.72 617.528C1098.54 617.806 1098.31 618.077 1098.01 618.339C1097.72 618.585 1097.36 618.79 1096.95 618.954C1096.87 619.003 1096.83 619.044 1096.83 619.077C1096.83 619.126 1096.87 619.15 1096.95 619.15C1096.99 619.15 1097.04 619.134 1097.1 619.101C1097.59 618.904 1098.01 618.667 1098.35 618.388C1098.7 618.11 1098.98 617.806 1099.19 617.479C1099.42 617.151 1099.58 616.815 1099.68 616.471C1099.8 616.126 1099.85 615.807 1099.85 615.512ZM1105.07 621.363V617.503L1102.96 618.56V621.363H1101.29V621.756H1102.96V628.394C1102.96 629.312 1103.21 630.033 1103.7 630.557C1104.19 631.082 1104.9 631.344 1105.84 631.344C1106.8 631.344 1107.48 631.156 1107.88 630.779C1108.29 630.385 1108.55 629.853 1108.66 629.181C1108.68 629.099 1108.69 629.05 1108.69 629.033C1108.69 629.017 1108.69 628.992 1108.69 628.959C1108.69 628.828 1108.64 628.763 1108.54 628.763C1108.41 628.763 1108.34 628.845 1108.32 629.009C1108.24 629.566 1108.05 630.008 1107.75 630.336C1107.46 630.648 1107.1 630.803 1106.67 630.803C1106.1 630.803 1105.69 630.607 1105.44 630.213C1105.2 629.82 1105.07 629.23 1105.07 628.443V621.756H1107.46V621.363H1105.07Z" fill="black"/>
<path d="M1178 0V676" stroke="black"/>
<path d="M1198 0V625" stroke="black"/>
<path d="M713 411H1322" stroke="black"/>
<path d="M-52 411L631 411" stroke="black"/>
<path d="M752 291H925" stroke="black"/>
<path d="M957 291H1497" stroke="black"/>
<path d="M850 -10L850 451" stroke="black"/>
<path d="M790 291L790 491" stroke="black"/>
<rect x="1178" y="291" width="20" height="120" fill="black"/>
<path d="M1462.5 433H1241" stroke="black"/>
<path d="M1241 411V433" stroke="black"/>
<path d="M1322 411V433" stroke="black"/>
</svg>
