<svg width="360" height="283" viewBox="0 0 360 283" fill="none" xmlns="http://www.w3.org/2000/svg">
<path d="M187.023 127.688H371.732" stroke="black" stroke-width="0.303299"/>
<path d="M-45 127.688L162.153 127.688" stroke="black" stroke-width="0.303299"/>
<path d="M198.852 91.293H251.322" stroke="black" stroke-width="0.303299"/>
<path d="M261.027 91.293H424.809" stroke="black" stroke-width="0.303299"/>
<path d="M228.768 0L228.768 144.184" stroke="black" stroke-width="0.303299"/>
<path d="M210.516 91.2559L210.516 152.397" stroke="black" stroke-width="0.303299"/>
<path d="M38.7419 120.239V122H58.112V120.239H49.3074V51.6735L73.8502 122H75.2809L99.8237 51.2333V120.239H91.0191V122H119.304V120.239H110.499V49.8025H119.304V48.0416H98.9432L79.353 104.611L59.1025 48.0416H38.7419V49.8025H47.5465V120.239H38.7419ZM128.205 103.721C127.184 104.391 126.673 105.188 126.673 106.113C126.673 106.56 126.817 106.975 127.104 107.357C127.423 107.708 127.854 107.884 128.396 107.884C128.938 107.884 129.369 107.724 129.688 107.405C130.039 107.086 130.214 106.688 130.214 106.209C130.214 105.986 130.167 105.762 130.071 105.539C130.007 105.284 129.864 105.045 129.64 104.821C129.481 104.662 129.353 104.55 129.257 104.486C129.162 104.423 129.114 104.343 129.114 104.247C129.114 104.12 129.21 103.992 129.401 103.864C129.592 103.737 129.832 103.625 130.119 103.529C130.406 103.434 130.725 103.354 131.076 103.29C131.459 103.226 131.825 103.194 132.176 103.194C133.165 103.194 133.947 103.386 134.521 103.769C135.095 104.151 135.382 104.885 135.382 105.97V111.616C133.915 111.616 132.543 111.776 131.267 112.095C129.991 112.382 128.875 112.813 127.918 113.387C126.961 113.961 126.211 114.679 125.669 115.54C125.126 116.369 124.855 117.311 124.855 118.363C124.855 119.129 124.983 119.799 125.238 120.373C125.525 120.915 125.908 121.362 126.386 121.713C126.865 122.032 127.407 122.271 128.013 122.431C128.651 122.59 129.321 122.67 130.023 122.67C130.757 122.67 131.411 122.574 131.985 122.383C132.591 122.223 133.117 122.016 133.564 121.761C134.043 121.474 134.441 121.187 134.76 120.899C135.079 120.58 135.335 120.277 135.526 119.99C135.622 120.66 135.925 121.282 136.435 121.856C136.946 122.399 137.839 122.67 139.115 122.67C139.944 122.67 140.63 122.542 141.172 122.287C141.747 122.032 142.209 121.729 142.56 121.378C142.911 121.027 143.15 120.676 143.278 120.325C143.437 119.942 143.517 119.655 143.517 119.464C143.517 119.304 143.469 119.225 143.374 119.225C143.278 119.225 143.166 119.352 143.039 119.607C142.783 120.15 142.464 120.596 142.082 120.947C141.699 121.266 141.284 121.426 140.837 121.426C140.199 121.426 139.817 121.171 139.689 120.66C139.561 120.118 139.498 119.384 139.498 118.459V106.879C139.498 105.507 138.987 104.454 137.966 103.721C136.946 102.955 135.382 102.572 133.277 102.572C132.288 102.572 131.331 102.684 130.406 102.907C129.513 103.099 128.779 103.37 128.205 103.721ZM135.382 112.095V118.746C135.382 119.033 135.239 119.336 134.952 119.655C134.697 119.974 134.362 120.277 133.947 120.564C133.564 120.82 133.149 121.027 132.703 121.187C132.288 121.346 131.937 121.426 131.65 121.426C130.661 121.426 129.911 121.043 129.401 120.277C128.891 119.512 128.635 118.475 128.635 117.167C128.635 116.114 128.827 115.269 129.21 114.631C129.592 113.993 130.087 113.498 130.693 113.147C131.331 112.797 132.049 112.557 132.846 112.43C133.676 112.27 134.521 112.159 135.382 112.095ZM151.967 106.018V103.242H144.503V104.008H147.852V121.234H144.503V122H155.317V121.234H151.967V108.123C151.967 107.613 152.111 107.086 152.398 106.544C152.717 106.002 153.116 105.507 153.594 105.061C154.105 104.614 154.663 104.263 155.269 104.008C155.875 103.721 156.465 103.577 157.04 103.577C157.391 103.577 157.694 103.609 157.949 103.673C158.236 103.705 158.379 103.816 158.379 104.008C158.379 104.167 158.3 104.279 158.14 104.343C157.949 104.47 157.726 104.694 157.47 105.013C157.215 105.3 157.087 105.762 157.087 106.4C157.087 107.07 157.311 107.629 157.757 108.075C158.204 108.49 158.794 108.697 159.528 108.697C160.166 108.697 160.724 108.49 161.203 108.075C161.681 107.629 161.92 107.023 161.92 106.257C161.92 105.619 161.793 105.093 161.538 104.678C161.282 104.231 160.947 103.88 160.533 103.625C160.15 103.338 159.687 103.131 159.145 103.003C158.635 102.875 158.108 102.812 157.566 102.812C156.8 102.812 156.115 102.923 155.508 103.147C154.902 103.37 154.36 103.641 153.881 103.96C153.403 104.279 153.004 104.63 152.685 105.013C152.366 105.364 152.127 105.699 151.967 106.018ZM168.878 110.037V108.41C168.878 106.464 169.149 105.14 169.691 104.439C170.233 103.705 171.079 103.338 172.227 103.338C173.376 103.338 174.221 103.705 174.763 104.439C175.306 105.14 175.577 106.464 175.577 108.41V110.037C175.577 111.664 175.354 112.908 174.907 113.77C174.46 114.631 173.567 115.062 172.227 115.062C170.887 115.062 169.994 114.631 169.548 113.77C169.101 112.908 168.878 111.664 168.878 110.037ZM169.5 115.444C169.787 115.54 170.154 115.636 170.6 115.731C171.079 115.795 171.621 115.827 172.227 115.827C173.663 115.827 174.875 115.588 175.864 115.109C176.853 114.631 177.65 114.057 178.256 113.387C178.863 112.685 179.293 111.951 179.548 111.186C179.804 110.42 179.931 109.75 179.931 109.176C179.931 107.262 179.182 105.635 177.682 104.295C178.416 103.434 179.102 102.859 179.74 102.572C179.612 102.828 179.548 103.083 179.548 103.338C179.548 103.721 179.676 104.04 179.931 104.295C180.218 104.55 180.601 104.678 181.08 104.678C181.59 104.678 181.957 104.534 182.18 104.247C182.404 103.928 182.515 103.609 182.515 103.29C182.515 102.812 182.34 102.445 181.989 102.19C181.638 101.934 181.223 101.807 180.745 101.807C179.533 101.807 178.32 102.493 177.108 103.864C176.661 103.482 175.992 103.178 175.098 102.955C174.205 102.7 173.248 102.572 172.227 102.572C170.983 102.572 169.867 102.764 168.878 103.147C167.921 103.497 167.123 103.992 166.485 104.63C165.847 105.236 165.353 105.938 165.002 106.735C164.683 107.533 164.523 108.346 164.523 109.176C164.523 110.579 164.922 111.792 165.719 112.813C166.549 113.833 167.474 114.599 168.495 115.109C166.964 115.556 165.879 116.13 165.241 116.832C164.635 117.534 164.332 118.443 164.332 119.56C164.332 120.293 164.443 120.931 164.667 121.474C164.922 122.016 165.241 122.479 165.624 122.861C166.038 123.244 166.485 123.531 166.964 123.723C167.474 123.946 167.968 124.09 168.447 124.153C167.107 124.632 166.07 125.302 165.337 126.163C164.603 127.024 164.236 128.077 164.236 129.321C164.236 130.214 164.443 130.996 164.858 131.666C165.273 132.336 165.863 132.878 166.629 133.293C167.394 133.74 168.303 134.074 169.356 134.298C170.409 134.521 171.573 134.633 172.849 134.633C174.125 134.633 175.322 134.457 176.438 134.106C177.555 133.755 178.528 133.229 179.357 132.527C180.218 131.857 180.888 131.028 181.367 130.039C181.845 129.05 182.085 127.902 182.085 126.594C182.085 124.584 181.542 123.101 180.458 122.144C179.405 121.218 178.017 120.756 176.295 120.756H168.591C166.581 120.756 165.576 120.07 165.576 118.698C165.576 117.773 165.943 117.087 166.676 116.641C167.41 116.162 168.351 115.763 169.5 115.444ZM180.314 128.556C180.314 129.513 180.075 130.326 179.596 130.996C179.15 131.666 178.575 132.208 177.874 132.623C177.172 133.07 176.374 133.389 175.481 133.58C174.62 133.771 173.79 133.867 172.993 133.867C171.685 133.867 170.616 133.692 169.787 133.341C168.957 132.99 168.303 132.543 167.825 132.001C167.346 131.491 167.011 130.9 166.82 130.23C166.629 129.592 166.533 128.986 166.533 128.412C166.533 127.806 166.629 127.232 166.82 126.689C167.043 126.179 167.299 125.732 167.586 125.35C167.905 124.999 168.224 124.712 168.543 124.488C168.894 124.297 169.197 124.201 169.452 124.201H175.529C176.295 124.201 176.964 124.313 177.539 124.536C178.145 124.791 178.655 125.126 179.07 125.541C179.485 125.956 179.788 126.418 179.979 126.929C180.202 127.439 180.314 127.981 180.314 128.556ZM191.884 106.592V89.8439H184.419V90.6095H187.768V121.234H184.419V122H195.233V121.234H191.884V109.272C191.884 108.761 192.011 108.203 192.266 107.597C192.554 106.959 192.952 106.369 193.463 105.826C193.973 105.252 194.563 104.774 195.233 104.391C195.903 104.008 196.653 103.816 197.482 103.816C198.152 103.816 198.679 103.928 199.061 104.151C199.444 104.375 199.731 104.662 199.923 105.013C200.114 105.364 200.226 105.762 200.258 106.209C200.321 106.624 200.353 107.054 200.353 107.501V121.234H197.052V122H207.818V121.234H204.469V106.975C204.469 105.539 203.974 104.454 202.985 103.721C202.028 102.955 200.688 102.572 198.966 102.572C197.084 102.572 195.568 102.971 194.42 103.769C193.303 104.566 192.458 105.507 191.884 106.592ZM238.044 106.018V103.242H230.579V104.008H233.929V121.234H230.579V122H241.393V121.234H238.044V108.123C238.044 107.613 238.187 107.086 238.474 106.544C238.793 106.002 239.192 105.507 239.671 105.061C240.181 104.614 240.739 104.263 241.346 104.008C241.952 103.721 242.542 103.577 243.116 103.577C243.467 103.577 243.77 103.609 244.025 103.673C244.312 103.705 244.456 103.816 244.456 104.008C244.456 104.167 244.376 104.279 244.217 104.343C244.025 104.47 243.802 104.694 243.547 105.013C243.291 105.3 243.164 105.762 243.164 106.4C243.164 107.07 243.387 107.629 243.834 108.075C244.28 108.49 244.871 108.697 245.604 108.697C246.242 108.697 246.801 108.49 247.279 108.075C247.758 107.629 247.997 107.023 247.997 106.257C247.997 105.619 247.869 105.093 247.614 104.678C247.359 104.231 247.024 103.88 246.609 103.625C246.226 103.338 245.764 103.131 245.221 103.003C244.711 102.875 244.185 102.812 243.642 102.812C242.877 102.812 242.191 102.923 241.585 103.147C240.979 103.37 240.436 103.641 239.958 103.96C239.479 104.279 239.081 104.63 238.762 105.013C238.443 105.364 238.203 105.699 238.044 106.018ZM258.112 103.242H250.408V104.008H253.997V121.234H250.408V122H261.701V121.234H258.112V103.242ZM258.495 94.3898C258.495 93.6879 258.256 93.0978 257.777 92.6193C257.299 92.1407 256.709 91.9015 256.007 91.9015C255.305 91.9015 254.715 92.1407 254.236 92.6193C253.758 93.0978 253.518 93.6879 253.518 94.3898C253.518 95.0916 253.758 95.6817 254.236 96.1603C254.715 96.6388 255.305 96.878 256.007 96.878C256.709 96.878 257.299 96.6388 257.777 96.1603C258.256 95.6817 258.495 95.0916 258.495 94.3898ZM271.221 103.242V95.7296L267.106 97.7872V103.242H263.852V104.008H267.106V116.928C267.106 118.714 267.584 120.118 268.541 121.139C269.498 122.16 270.886 122.67 272.704 122.67C274.586 122.67 275.91 122.303 276.676 121.569C277.473 120.804 277.984 119.767 278.207 118.459C278.239 118.299 278.255 118.204 278.255 118.172C278.255 118.14 278.255 118.092 278.255 118.028C278.255 117.773 278.159 117.646 277.968 117.646C277.713 117.646 277.569 117.805 277.537 118.124C277.378 119.209 277.011 120.07 276.437 120.708C275.862 121.314 275.161 121.617 274.331 121.617C273.215 121.617 272.417 121.234 271.939 120.469C271.46 119.703 271.221 118.555 271.221 117.023V104.008H275.862V103.242H271.221ZM284.423 103.721C283.402 104.391 282.891 105.188 282.891 106.113C282.891 106.56 283.035 106.975 283.322 107.357C283.641 107.708 284.072 107.884 284.614 107.884C285.156 107.884 285.587 107.724 285.906 107.405C286.257 107.086 286.432 106.688 286.432 106.209C286.432 105.986 286.385 105.762 286.289 105.539C286.225 105.284 286.081 105.045 285.858 104.821C285.699 104.662 285.571 104.55 285.475 104.486C285.38 104.423 285.332 104.343 285.332 104.247C285.332 104.12 285.427 103.992 285.619 103.864C285.81 103.737 286.05 103.625 286.337 103.529C286.624 103.434 286.943 103.354 287.294 103.29C287.677 103.226 288.043 103.194 288.394 103.194C289.383 103.194 290.165 103.386 290.739 103.769C291.313 104.151 291.6 104.885 291.6 105.97V111.616C290.133 111.616 288.761 111.776 287.485 112.095C286.209 112.382 285.093 112.813 284.136 113.387C283.178 113.961 282.429 114.679 281.886 115.54C281.344 116.369 281.073 117.311 281.073 118.363C281.073 119.129 281.201 119.799 281.456 120.373C281.743 120.915 282.126 121.362 282.604 121.713C283.083 122.032 283.625 122.271 284.231 122.431C284.869 122.59 285.539 122.67 286.241 122.67C286.975 122.67 287.629 122.574 288.203 122.383C288.809 122.223 289.335 122.016 289.782 121.761C290.26 121.474 290.659 121.187 290.978 120.899C291.297 120.58 291.552 120.277 291.744 119.99C291.84 120.66 292.143 121.282 292.653 121.856C293.163 122.399 294.057 122.67 295.333 122.67C296.162 122.67 296.848 122.542 297.39 122.287C297.965 122.032 298.427 121.729 298.778 121.378C299.129 121.027 299.368 120.676 299.496 120.325C299.655 119.942 299.735 119.655 299.735 119.464C299.735 119.304 299.687 119.225 299.592 119.225C299.496 119.225 299.384 119.352 299.257 119.607C299.001 120.15 298.682 120.596 298.3 120.947C297.917 121.266 297.502 121.426 297.055 121.426C296.417 121.426 296.035 121.171 295.907 120.66C295.779 120.118 295.716 119.384 295.716 118.459V106.879C295.716 105.507 295.205 104.454 294.184 103.721C293.163 102.955 291.6 102.572 289.495 102.572C288.506 102.572 287.549 102.684 286.624 102.907C285.731 103.099 284.997 103.37 284.423 103.721ZM291.6 112.095V118.746C291.6 119.033 291.457 119.336 291.17 119.655C290.914 119.974 290.579 120.277 290.165 120.564C289.782 120.82 289.367 121.027 288.921 121.187C288.506 121.346 288.155 121.426 287.868 121.426C286.879 121.426 286.129 121.043 285.619 120.277C285.108 119.512 284.853 118.475 284.853 117.167C284.853 116.114 285.045 115.269 285.427 114.631C285.81 113.993 286.305 113.498 286.911 113.147C287.549 112.797 288.267 112.557 289.064 112.43C289.894 112.27 290.739 112.159 291.6 112.095Z" fill="black"/>
<path d="M227.584 110.372C227.552 109.862 227.376 109.16 227.057 108.267C226.77 107.373 226.308 106.512 225.67 105.683C225.032 104.853 224.186 104.135 223.134 103.529C222.081 102.891 220.789 102.572 219.258 102.572C217.982 102.572 216.785 102.875 215.669 103.482C214.584 104.088 213.643 104.869 212.846 105.826C212.048 106.783 211.426 107.868 210.979 109.08C210.533 110.292 210.309 111.521 210.309 112.765C210.309 114.009 210.533 115.221 210.979 116.401C211.426 117.582 212.048 118.634 212.846 119.56C213.643 120.485 214.6 121.234 215.717 121.809C216.865 122.383 218.109 122.67 219.449 122.67C220.534 122.67 221.523 122.51 222.416 122.191C223.309 121.904 224.091 121.506 224.761 120.995C225.462 120.453 226.053 119.831 226.531 119.129C227.01 118.427 227.392 117.693 227.679 116.928C227.775 116.704 227.823 116.481 227.823 116.258C227.823 116.035 227.727 115.923 227.536 115.923C227.376 115.923 227.233 116.082 227.105 116.401C226.818 117.071 226.451 117.741 226.005 118.411C225.59 119.081 225.064 119.671 224.426 120.182C223.819 120.692 223.118 121.107 222.32 121.426C221.523 121.745 220.597 121.904 219.545 121.904C218.269 121.904 217.232 121.426 216.434 120.469C215.669 119.512 215.286 117.98 215.286 115.875V110.994H226.818C227.329 110.994 227.584 110.787 227.584 110.372ZM215.286 110.229V108.315C215.286 107.262 215.398 106.416 215.621 105.778C215.876 105.108 216.195 104.598 216.578 104.247C216.961 103.896 217.391 103.657 217.87 103.529C218.348 103.402 218.827 103.338 219.305 103.338C220.071 103.338 220.693 103.482 221.172 103.769C221.682 104.024 222.081 104.375 222.368 104.821C222.655 105.268 222.846 105.762 222.942 106.305C223.038 106.847 223.086 107.405 223.086 107.98C223.086 109.479 222.846 110.229 222.368 110.229H215.286Z" fill="#F8169D"/>
<path d="M60.0113 150.041H44.6647V150.873H49.2427V184.168H44.6647V185H60.0113C62.439 185 64.6586 184.584 66.6701 183.751C68.6816 182.884 70.3984 181.671 71.8203 180.11C73.2423 178.549 74.3347 176.676 75.0977 174.492C75.8954 172.272 76.2942 169.81 76.2942 167.104C76.2942 164.573 75.8954 162.266 75.0977 160.185C74.3 158.07 73.1729 156.266 71.7163 154.775C70.2943 153.249 68.5776 152.087 66.5661 151.29C64.5892 150.457 62.4043 150.041 60.0113 150.041ZM70.5718 165.804V168.405C70.5718 171.492 70.277 174.058 69.6874 176.104C69.1325 178.116 68.3695 179.728 67.3984 180.942C66.4273 182.121 65.3002 182.954 64.017 183.439C62.7338 183.925 61.3638 184.168 59.9072 184.168H54.2888V150.873H59.9072C61.3292 150.873 62.6817 151.134 63.965 151.654C65.2482 152.139 66.3753 152.972 67.3464 154.151C68.3522 155.295 69.1325 156.821 69.6874 158.729C70.277 160.636 70.5718 162.995 70.5718 165.804ZM83.427 165.128C82.3171 165.856 81.7622 166.723 81.7622 167.729C81.7622 168.214 81.9183 168.665 82.2304 169.081C82.5773 169.463 83.0455 169.653 83.635 169.653C84.2246 169.653 84.6928 169.48 85.0396 169.133C85.4211 168.786 85.6119 168.353 85.6119 167.833C85.6119 167.59 85.5599 167.347 85.4558 167.104C85.3865 166.827 85.2304 166.567 84.9876 166.324C84.8142 166.151 84.6755 166.029 84.5714 165.96C84.4674 165.891 84.4154 165.804 84.4154 165.7C84.4154 165.561 84.5194 165.422 84.7275 165.284C84.9356 165.145 85.1957 165.023 85.5078 164.919C85.82 164.815 86.1668 164.729 86.5483 164.659C86.9645 164.59 87.3633 164.555 87.7448 164.555C88.8199 164.555 89.6696 164.763 90.2939 165.18C90.9182 165.596 91.2303 166.393 91.2303 167.573V173.711C89.6349 173.711 88.1436 173.885 86.7564 174.231C85.3691 174.544 84.1553 175.012 83.1148 175.636C82.0744 176.26 81.2594 177.041 80.6698 177.977C80.0802 178.879 79.7854 179.902 79.7854 181.046C79.7854 181.879 79.9241 182.607 80.2016 183.231C80.5137 183.821 80.9299 184.306 81.4501 184.688C81.9703 185.035 82.5599 185.295 83.2189 185.468C83.9125 185.642 84.6408 185.728 85.4038 185.728C86.2015 185.728 86.9124 185.624 87.5367 185.416C88.1957 185.243 88.7679 185.017 89.2534 184.74C89.7737 184.428 90.2072 184.116 90.554 183.803C90.9008 183.457 91.1783 183.127 91.3864 182.815C91.4904 183.543 91.8199 184.22 92.3748 184.844C92.9297 185.434 93.9008 185.728 95.288 185.728C96.1897 185.728 96.9354 185.59 97.525 185.312C98.1492 185.035 98.6521 184.705 99.0336 184.324C99.4151 183.942 99.6752 183.561 99.814 183.179C99.9874 182.763 100.074 182.451 100.074 182.243C100.074 182.069 100.022 181.983 99.918 181.983C99.814 181.983 99.6926 182.121 99.5538 182.399C99.2764 182.988 98.9296 183.474 98.5134 183.856C98.0972 184.202 97.6464 184.376 97.1608 184.376C96.4672 184.376 96.051 184.098 95.9123 183.543C95.7736 182.954 95.7042 182.156 95.7042 181.15V168.561C95.7042 167.07 95.1493 165.925 94.0395 165.128C92.9297 164.295 91.2303 163.879 88.9413 163.879C87.8662 163.879 86.8257 164 85.82 164.243C84.8489 164.451 84.0512 164.746 83.427 165.128ZM91.2303 174.231V181.462C91.2303 181.775 91.0742 182.104 90.7621 182.451C90.4846 182.798 90.1205 183.127 89.6696 183.439C89.2534 183.717 88.8026 183.942 88.317 184.116C87.8662 184.289 87.4847 184.376 87.1726 184.376C86.0974 184.376 85.2824 183.96 84.7275 183.127C84.1726 182.295 83.8952 181.168 83.8952 179.746C83.8952 178.601 84.1032 177.682 84.5194 176.989C84.9356 176.295 85.4732 175.757 86.1321 175.376C86.8257 174.994 87.6061 174.734 88.4731 174.596C89.3748 174.422 90.2939 174.301 91.2303 174.231ZM110.445 184.168V150.041H102.33V150.873H105.971V184.168H102.33V185H114.087V184.168H110.445ZM125.28 184.168V150.041H117.164V150.873H120.806V184.168H117.164V185H128.921V184.168H125.28ZM140.686 152.226C140.686 151.151 140.322 150.284 139.594 149.625C138.9 148.931 138.051 148.584 137.045 148.584C136.039 148.584 135.224 148.862 134.6 149.417C133.975 149.937 133.663 150.648 133.663 151.55C133.663 152.417 133.941 153.093 134.496 153.579C135.051 154.029 135.744 154.255 136.577 154.255C137.131 154.255 137.634 154.099 138.085 153.787C138.536 153.475 138.796 153.024 138.866 152.434C138.866 152.122 138.918 151.966 139.022 151.966C139.334 151.966 139.49 152.382 139.49 153.214C139.49 153.665 139.386 154.186 139.178 154.775C139.004 155.33 138.71 155.902 138.293 156.492C137.912 157.081 137.409 157.654 136.785 158.209C136.16 158.729 135.415 159.162 134.548 159.509C134.374 159.613 134.288 159.7 134.288 159.769C134.288 159.873 134.374 159.925 134.548 159.925C134.617 159.925 134.721 159.891 134.86 159.821C135.9 159.405 136.785 158.902 137.513 158.313C138.241 157.723 138.831 157.081 139.282 156.388C139.767 155.694 140.114 154.983 140.322 154.255C140.565 153.527 140.686 152.85 140.686 152.226Z" fill="black"/>
<path d="M114.106 261.468V263H135.356V261.468H124.061L130.091 242.995H149.331L155.553 261.468H145.693V263H173.739V261.468H165.412L144.449 197.815H143.3L122.338 261.468H114.106ZM139.663 214.087L148.852 241.463H130.665L139.663 214.087Z" fill="#F8169D"/>
<path d="M182.099 249.994V248.226C182.099 246.11 182.393 244.671 182.983 243.908C183.572 243.11 184.492 242.711 185.74 242.711C186.989 242.711 187.908 243.11 188.497 243.908C189.087 244.671 189.382 246.11 189.382 248.226V249.994C189.382 251.763 189.139 253.116 188.653 254.052C188.168 254.989 187.197 255.457 185.74 255.457C184.283 255.457 183.312 254.989 182.827 254.052C182.341 253.116 182.099 251.763 182.099 249.994ZM182.775 255.873C183.087 255.977 183.486 256.081 183.971 256.185C184.492 256.254 185.081 256.289 185.74 256.289C187.301 256.289 188.619 256.029 189.694 255.509C190.769 254.989 191.636 254.364 192.295 253.636C192.954 252.873 193.422 252.075 193.699 251.243C193.977 250.411 194.116 249.682 194.116 249.058C194.116 246.977 193.301 245.208 191.671 243.752C192.468 242.815 193.214 242.191 193.908 241.879C193.769 242.156 193.699 242.434 193.699 242.711C193.699 243.128 193.838 243.474 194.116 243.752C194.428 244.029 194.844 244.168 195.364 244.168C195.919 244.168 196.318 244.012 196.561 243.7C196.803 243.353 196.925 243.006 196.925 242.659C196.925 242.139 196.734 241.74 196.353 241.463C195.971 241.185 195.52 241.047 195 241.047C193.682 241.047 192.364 241.792 191.046 243.284C190.561 242.867 189.833 242.538 188.861 242.295C187.89 242.018 186.85 241.879 185.74 241.879C184.388 241.879 183.174 242.087 182.099 242.503C181.058 242.885 180.191 243.422 179.497 244.116C178.804 244.775 178.266 245.538 177.885 246.405C177.538 247.272 177.365 248.156 177.365 249.058C177.365 250.584 177.798 251.902 178.665 253.012C179.567 254.122 180.573 254.954 181.682 255.509C180.018 255.994 178.838 256.619 178.145 257.382C177.486 258.145 177.156 259.133 177.156 260.347C177.156 261.145 177.278 261.838 177.521 262.428C177.798 263.017 178.145 263.52 178.561 263.936C179.012 264.353 179.497 264.665 180.018 264.873C180.573 265.116 181.11 265.272 181.63 265.341C180.174 265.861 179.047 266.59 178.249 267.526C177.451 268.462 177.052 269.607 177.052 270.959C177.052 271.93 177.278 272.78 177.729 273.508C178.18 274.237 178.821 274.826 179.653 275.277C180.486 275.763 181.474 276.127 182.619 276.37C183.763 276.612 185.029 276.734 186.416 276.734C187.804 276.734 189.104 276.543 190.318 276.162C191.532 275.78 192.59 275.208 193.491 274.445C194.428 273.717 195.156 272.815 195.676 271.74C196.197 270.665 196.457 269.416 196.457 267.994C196.457 265.809 195.867 264.197 194.688 263.156C193.543 262.15 192.035 261.647 190.162 261.647H181.786C179.601 261.647 178.509 260.902 178.509 259.41C178.509 258.405 178.908 257.659 179.706 257.174C180.503 256.653 181.526 256.22 182.775 255.873ZM194.532 270.127C194.532 271.167 194.272 272.052 193.752 272.78C193.266 273.508 192.642 274.098 191.879 274.549C191.116 275.034 190.249 275.381 189.278 275.589C188.341 275.797 187.439 275.902 186.572 275.902C185.151 275.902 183.989 275.711 183.087 275.329C182.185 274.948 181.474 274.462 180.954 273.873C180.434 273.318 180.07 272.676 179.862 271.948C179.653 271.254 179.549 270.595 179.549 269.971C179.549 269.312 179.653 268.688 179.862 268.098C180.104 267.543 180.382 267.058 180.694 266.642C181.041 266.26 181.388 265.948 181.734 265.705C182.116 265.497 182.445 265.393 182.723 265.393H189.33C190.162 265.393 190.89 265.514 191.515 265.757C192.174 266.035 192.728 266.399 193.179 266.85C193.63 267.301 193.96 267.803 194.168 268.358C194.41 268.913 194.532 269.503 194.532 270.127ZM207.37 262.168V228.041H199.254V228.873H202.896V262.168H199.254V263H211.012V262.168H207.37ZM222.517 242.607H214.141V243.44H218.043V262.168H214.141V263H226.418V262.168H222.517V242.607ZM222.933 232.983C222.933 232.22 222.673 231.579 222.152 231.058C221.632 230.538 220.991 230.278 220.228 230.278C219.465 230.278 218.823 230.538 218.303 231.058C217.783 231.579 217.522 232.22 217.522 232.983C217.522 233.746 217.783 234.388 218.303 234.908C218.823 235.428 219.465 235.688 220.228 235.688C220.991 235.688 221.632 235.428 222.152 234.908C222.673 234.388 222.933 233.746 222.933 232.983ZM239.369 263.728C240.93 263.728 242.334 263.381 243.583 262.688C244.866 261.96 245.941 261.058 246.808 259.983C247.71 258.908 248.403 257.728 248.889 256.445C249.375 255.162 249.617 253.948 249.617 252.804C249.617 251.659 249.375 250.445 248.889 249.162C248.403 247.879 247.71 246.7 246.808 245.625C245.941 244.549 244.866 243.665 243.583 242.971C242.334 242.243 240.93 241.879 239.369 241.879C237.808 241.879 236.386 242.243 235.103 242.971C233.855 243.665 232.779 244.549 231.878 245.625C230.976 246.7 230.282 247.879 229.797 249.162C229.311 250.445 229.068 251.659 229.068 252.804C229.068 253.948 229.311 255.162 229.797 256.445C230.282 257.728 230.976 258.908 231.878 259.983C232.779 261.058 233.855 261.96 235.103 262.688C236.386 263.381 237.808 263.728 239.369 263.728ZM234.479 251.659C234.479 250.203 234.531 248.919 234.635 247.81C234.774 246.7 235.016 245.763 235.363 245C235.71 244.237 236.196 243.665 236.82 243.284C237.479 242.902 238.328 242.711 239.369 242.711C240.409 242.711 241.242 242.902 241.866 243.284C242.525 243.665 243.01 244.237 243.323 245C243.669 245.763 243.895 246.7 243.999 247.81C244.138 248.919 244.207 250.203 244.207 251.659V253.896C244.207 255.457 244.138 256.809 243.999 257.954C243.895 259.064 243.669 259.983 243.323 260.711C243.01 261.439 242.525 261.994 241.866 262.376C241.242 262.723 240.409 262.896 239.369 262.896C238.328 262.896 237.479 262.723 236.82 262.376C236.196 261.994 235.71 261.439 235.363 260.711C235.016 259.983 234.774 259.064 234.635 257.954C234.531 256.809 234.479 255.457 234.479 253.896V251.659Z" fill="black"/>
<path d="M161.137 169.728V158.848H162.599C163.12 158.848 163.574 159.114 163.959 159.647C164.356 160.18 164.616 160.905 164.741 161.823H165.098L164.843 158.865C164.832 158.672 164.718 158.576 164.503 158.576H156.122C155.907 158.576 155.793 158.672 155.782 158.865L155.527 161.823H155.884C156.009 160.905 156.264 160.18 156.649 159.647C157.046 159.114 157.505 158.848 158.026 158.848H159.488V169.728H158.026V170H162.599V169.728H161.137ZM168.687 164.526V158.576H166.035V158.848H167.225V169.728H166.035V170H169.877V169.728H168.687V165.478C168.687 165.297 168.733 165.098 168.823 164.883C168.925 164.656 169.067 164.447 169.248 164.254C169.43 164.05 169.639 163.88 169.877 163.744C170.115 163.608 170.382 163.54 170.676 163.54C170.914 163.54 171.101 163.58 171.237 163.659C171.373 163.738 171.475 163.84 171.543 163.965C171.611 164.09 171.651 164.231 171.662 164.39C171.685 164.537 171.696 164.69 171.696 164.849V169.728H170.523V170H174.348V169.728H173.158V164.662C173.158 164.152 172.983 163.767 172.631 163.506C172.291 163.234 171.815 163.098 171.203 163.098C170.535 163.098 169.996 163.24 169.588 163.523C169.192 163.806 168.891 164.141 168.687 164.526ZM180.856 165.869C180.844 165.688 180.782 165.438 180.669 165.121C180.567 164.804 180.402 164.498 180.176 164.203C179.949 163.908 179.649 163.653 179.275 163.438C178.901 163.211 178.442 163.098 177.898 163.098C177.444 163.098 177.019 163.206 176.623 163.421C176.237 163.636 175.903 163.914 175.62 164.254C175.336 164.594 175.115 164.979 174.957 165.41C174.798 165.841 174.719 166.277 174.719 166.719C174.719 167.161 174.798 167.592 174.957 168.011C175.115 168.43 175.336 168.804 175.62 169.133C175.903 169.462 176.243 169.728 176.64 169.932C177.048 170.136 177.49 170.238 177.966 170.238C178.351 170.238 178.702 170.181 179.02 170.068C179.337 169.966 179.615 169.824 179.853 169.643C180.102 169.45 180.312 169.229 180.482 168.98C180.652 168.731 180.788 168.47 180.89 168.198C180.924 168.119 180.941 168.039 180.941 167.96C180.941 167.881 180.907 167.841 180.839 167.841C180.782 167.841 180.731 167.898 180.686 168.011C180.584 168.249 180.453 168.487 180.295 168.725C180.147 168.963 179.96 169.173 179.734 169.354C179.518 169.535 179.269 169.683 178.986 169.796C178.702 169.909 178.374 169.966 178 169.966C177.546 169.966 177.178 169.796 176.895 169.456C176.623 169.116 176.487 168.572 176.487 167.824V166.09H180.584C180.765 166.09 180.856 166.016 180.856 165.869ZM176.487 165.818V165.138C176.487 164.764 176.526 164.464 176.606 164.237C176.696 163.999 176.81 163.818 176.946 163.693C177.082 163.568 177.235 163.483 177.405 163.438C177.575 163.393 177.745 163.37 177.915 163.37C178.187 163.37 178.408 163.421 178.578 163.523C178.759 163.614 178.901 163.738 179.003 163.897C179.105 164.056 179.173 164.231 179.207 164.424C179.241 164.617 179.258 164.815 179.258 165.019C179.258 165.552 179.173 165.818 179.003 165.818H176.487ZM186.57 163.336V163.608H187.675L190.055 170.187H190.208L191.687 165.682L193.472 170.187H193.608L195.665 163.608H196.838V163.336H193.982V163.608H195.393L194.067 167.875L192.282 163.336H192.163L190.701 167.858L189.154 163.608H190.276V163.336H186.57ZM200.313 170.238C200.823 170.238 201.282 170.125 201.69 169.898C202.109 169.66 202.461 169.365 202.744 169.014C203.039 168.663 203.265 168.277 203.424 167.858C203.583 167.439 203.662 167.042 203.662 166.668C203.662 166.294 203.583 165.897 203.424 165.478C203.265 165.059 203.039 164.673 202.744 164.322C202.461 163.971 202.109 163.682 201.69 163.455C201.282 163.217 200.823 163.098 200.313 163.098C199.803 163.098 199.338 163.217 198.919 163.455C198.511 163.682 198.16 163.971 197.865 164.322C197.57 164.673 197.344 165.059 197.185 165.478C197.026 165.897 196.947 166.294 196.947 166.668C196.947 167.042 197.026 167.439 197.185 167.858C197.344 168.277 197.57 168.663 197.865 169.014C198.16 169.365 198.511 169.66 198.919 169.898C199.338 170.125 199.803 170.238 200.313 170.238ZM198.715 166.294C198.715 165.818 198.732 165.399 198.766 165.036C198.811 164.673 198.891 164.367 199.004 164.118C199.117 163.869 199.276 163.682 199.48 163.557C199.695 163.432 199.973 163.37 200.313 163.37C200.653 163.37 200.925 163.432 201.129 163.557C201.344 163.682 201.503 163.869 201.605 164.118C201.718 164.367 201.792 164.673 201.826 165.036C201.871 165.399 201.894 165.818 201.894 166.294V167.025C201.894 167.535 201.871 167.977 201.826 168.351C201.792 168.714 201.718 169.014 201.605 169.252C201.503 169.49 201.344 169.671 201.129 169.796C200.925 169.909 200.653 169.966 200.313 169.966C199.973 169.966 199.695 169.909 199.48 169.796C199.276 169.671 199.117 169.49 199.004 169.252C198.891 169.014 198.811 168.714 198.766 168.351C198.732 167.977 198.715 167.535 198.715 167.025V166.294ZM213.901 163.183C213.221 163.183 212.677 163.325 212.269 163.608C211.861 163.891 211.555 164.231 211.351 164.628C211.328 164.322 211.26 164.073 211.147 163.88C211.045 163.687 210.914 163.54 210.756 163.438C210.608 163.336 210.444 163.268 210.263 163.234C210.081 163.2 209.906 163.183 209.736 163.183C209.532 163.183 209.311 163.206 209.073 163.251C208.846 163.285 208.619 163.359 208.393 163.472C208.166 163.574 207.945 163.721 207.73 163.914C207.526 164.095 207.344 164.333 207.186 164.628V163.336H204.619V163.608H205.724V169.728H204.619V170H208.274V169.728H207.186V165.444C207.186 165.308 207.231 165.138 207.322 164.934C207.424 164.719 207.56 164.515 207.73 164.322C207.9 164.118 208.092 163.948 208.308 163.812C208.534 163.676 208.767 163.608 209.005 163.608C209.243 163.608 209.418 163.659 209.532 163.761C209.656 163.852 209.741 163.965 209.787 164.101C209.843 164.237 209.872 164.379 209.872 164.526C209.883 164.662 209.889 164.781 209.889 164.883V169.728H208.784V170H212.456V169.728H211.351V165.58C211.351 165.41 211.396 165.212 211.487 164.985C211.577 164.758 211.702 164.543 211.861 164.339C212.031 164.135 212.223 163.965 212.439 163.829C212.665 163.682 212.915 163.608 213.187 163.608C213.379 163.608 213.532 163.642 213.646 163.71C213.759 163.778 213.844 163.874 213.901 163.999C213.969 164.112 214.008 164.248 214.02 164.407C214.042 164.554 214.054 164.713 214.054 164.883V169.728H212.983V170H216.621V169.728H215.516V164.696C215.516 164.288 215.391 163.937 215.142 163.642C214.904 163.336 214.49 163.183 213.901 163.183ZM218.746 163.506C218.383 163.744 218.202 164.027 218.202 164.356C218.202 164.515 218.253 164.662 218.355 164.798C218.468 164.923 218.621 164.985 218.814 164.985C219.007 164.985 219.16 164.928 219.273 164.815C219.398 164.702 219.46 164.56 219.46 164.39C219.46 164.311 219.443 164.231 219.409 164.152C219.386 164.061 219.335 163.976 219.256 163.897C219.199 163.84 219.154 163.801 219.12 163.778C219.086 163.755 219.069 163.727 219.069 163.693C219.069 163.648 219.103 163.602 219.171 163.557C219.239 163.512 219.324 163.472 219.426 163.438C219.528 163.404 219.641 163.376 219.766 163.353C219.902 163.33 220.032 163.319 220.157 163.319C220.508 163.319 220.786 163.387 220.99 163.523C221.194 163.659 221.296 163.92 221.296 164.305V166.311C220.775 166.311 220.287 166.368 219.834 166.481C219.381 166.583 218.984 166.736 218.644 166.94C218.304 167.144 218.038 167.399 217.845 167.705C217.652 168 217.556 168.334 217.556 168.708C217.556 168.98 217.601 169.218 217.692 169.422C217.794 169.615 217.93 169.773 218.1 169.898C218.27 170.011 218.463 170.096 218.678 170.153C218.905 170.21 219.143 170.238 219.392 170.238C219.653 170.238 219.885 170.204 220.089 170.136C220.304 170.079 220.491 170.006 220.65 169.915C220.82 169.813 220.962 169.711 221.075 169.609C221.188 169.496 221.279 169.388 221.347 169.286C221.381 169.524 221.489 169.745 221.67 169.949C221.851 170.142 222.169 170.238 222.622 170.238C222.917 170.238 223.16 170.193 223.353 170.102C223.557 170.011 223.721 169.904 223.846 169.779C223.971 169.654 224.056 169.53 224.101 169.405C224.158 169.269 224.186 169.167 224.186 169.099C224.186 169.042 224.169 169.014 224.135 169.014C224.101 169.014 224.061 169.059 224.016 169.15C223.925 169.343 223.812 169.501 223.676 169.626C223.54 169.739 223.393 169.796 223.234 169.796C223.007 169.796 222.871 169.705 222.826 169.524C222.781 169.331 222.758 169.071 222.758 168.742V164.628C222.758 164.141 222.577 163.767 222.214 163.506C221.851 163.234 221.296 163.098 220.548 163.098C220.197 163.098 219.857 163.138 219.528 163.217C219.211 163.285 218.95 163.381 218.746 163.506ZM221.296 166.481V168.844C221.296 168.946 221.245 169.054 221.143 169.167C221.052 169.28 220.933 169.388 220.786 169.49C220.65 169.581 220.503 169.654 220.344 169.711C220.197 169.768 220.072 169.796 219.97 169.796C219.619 169.796 219.352 169.66 219.171 169.388C218.99 169.116 218.899 168.748 218.899 168.283C218.899 167.909 218.967 167.609 219.103 167.382C219.239 167.155 219.415 166.98 219.63 166.855C219.857 166.73 220.112 166.645 220.395 166.6C220.69 166.543 220.99 166.504 221.296 166.481ZM227.592 164.628V163.336H224.94V163.608H226.13V169.728H224.94V170H228.782V169.728H227.592V165.512C227.592 165.319 227.643 165.115 227.745 164.9C227.847 164.673 227.977 164.464 228.136 164.271C228.306 164.078 228.493 163.92 228.697 163.795C228.912 163.67 229.133 163.608 229.36 163.608C229.689 163.608 229.927 163.71 230.074 163.914C230.233 164.118 230.312 164.441 230.312 164.883V169.728H229.122V170H232.964V169.728H231.774V164.764C231.774 164.175 231.604 163.767 231.264 163.54C230.935 163.313 230.51 163.2 229.989 163.2C229.366 163.2 228.856 163.342 228.459 163.625C228.074 163.908 227.785 164.243 227.592 164.628ZM238.384 163.336V163.608H239.489L241.869 170.187H242.022L243.501 165.682L245.286 170.187H245.422L247.479 163.608H248.652V163.336H245.796V163.608H247.207L245.881 167.875L244.096 163.336H243.977L242.515 167.858L240.968 163.608H242.09V163.336H238.384ZM252.127 164.526V158.576H249.475V158.848H250.665V169.728H249.475V170H253.317V169.728H252.127V165.478C252.127 165.297 252.172 165.098 252.263 164.883C252.365 164.656 252.507 164.447 252.688 164.254C252.869 164.05 253.079 163.88 253.317 163.744C253.555 163.608 253.821 163.54 254.116 163.54C254.354 163.54 254.541 163.58 254.677 163.659C254.813 163.738 254.915 163.84 254.983 163.965C255.051 164.09 255.091 164.231 255.102 164.39C255.125 164.537 255.136 164.69 255.136 164.849V169.728H253.963V170H257.788V169.728H256.598V164.662C256.598 164.152 256.422 163.767 256.071 163.506C255.731 163.234 255.255 163.098 254.643 163.098C253.974 163.098 253.436 163.24 253.028 163.523C252.631 163.806 252.331 164.141 252.127 164.526ZM261.656 170.238C262.166 170.238 262.625 170.125 263.033 169.898C263.452 169.66 263.804 169.365 264.087 169.014C264.382 168.663 264.608 168.277 264.767 167.858C264.926 167.439 265.005 167.042 265.005 166.668C265.005 166.294 264.926 165.897 264.767 165.478C264.608 165.059 264.382 164.673 264.087 164.322C263.804 163.971 263.452 163.682 263.033 163.455C262.625 163.217 262.166 163.098 261.656 163.098C261.146 163.098 260.681 163.217 260.262 163.455C259.854 163.682 259.503 163.971 259.208 164.322C258.913 164.673 258.687 165.059 258.528 165.478C258.369 165.897 258.29 166.294 258.29 166.668C258.29 167.042 258.369 167.439 258.528 167.858C258.687 168.277 258.913 168.663 259.208 169.014C259.503 169.365 259.854 169.66 260.262 169.898C260.681 170.125 261.146 170.238 261.656 170.238ZM260.058 166.294C260.058 165.818 260.075 165.399 260.109 165.036C260.154 164.673 260.234 164.367 260.347 164.118C260.46 163.869 260.619 163.682 260.823 163.557C261.038 163.432 261.316 163.37 261.656 163.37C261.996 163.37 262.268 163.432 262.472 163.557C262.687 163.682 262.846 163.869 262.948 164.118C263.061 164.367 263.135 164.673 263.169 165.036C263.214 165.399 263.237 165.818 263.237 166.294V167.025C263.237 167.535 263.214 167.977 263.169 168.351C263.135 168.714 263.061 169.014 262.948 169.252C262.846 169.49 262.687 169.671 262.472 169.796C262.268 169.909 261.996 169.966 261.656 169.966C261.316 169.966 261.038 169.909 260.823 169.796C260.619 169.671 260.46 169.49 260.347 169.252C260.234 169.014 260.154 168.714 260.109 168.351C260.075 167.977 260.058 167.535 260.058 167.025V166.294ZM272.295 167.059V166.311C272.295 165.756 272.329 165.291 272.397 164.917C272.465 164.543 272.567 164.243 272.703 164.016C272.85 163.778 273.031 163.614 273.247 163.523C273.462 163.421 273.717 163.37 274.012 163.37C274.431 163.37 274.714 163.427 274.862 163.54C275.02 163.642 275.1 163.716 275.1 163.761C275.1 163.806 275.083 163.846 275.049 163.88C274.969 163.971 274.907 164.067 274.862 164.169C274.828 164.26 274.811 164.379 274.811 164.526C274.811 164.753 274.884 164.928 275.032 165.053C275.179 165.166 275.349 165.223 275.542 165.223C275.768 165.223 275.95 165.155 276.086 165.019C276.222 164.883 276.29 164.707 276.29 164.492C276.29 164.277 276.216 164.084 276.069 163.914C275.921 163.733 275.734 163.585 275.508 163.472C275.292 163.347 275.054 163.257 274.794 163.2C274.533 163.132 274.284 163.098 274.046 163.098C273.604 163.098 273.173 163.189 272.754 163.37C272.334 163.54 271.96 163.784 271.632 164.101C271.303 164.407 271.037 164.781 270.833 165.223C270.629 165.665 270.527 166.152 270.527 166.685C270.527 167.229 270.623 167.722 270.816 168.164C271.02 168.595 271.28 168.969 271.598 169.286C271.926 169.592 272.295 169.83 272.703 170C273.122 170.159 273.541 170.238 273.961 170.238C274.38 170.238 274.748 170.17 275.066 170.034C275.383 169.909 275.649 169.751 275.865 169.558C276.08 169.354 276.25 169.144 276.375 168.929C276.499 168.702 276.59 168.498 276.647 168.317C276.669 168.249 276.681 168.204 276.681 168.181C276.681 168.079 276.635 168.028 276.545 168.028C276.477 168.028 276.426 168.085 276.392 168.198C276.324 168.413 276.222 168.629 276.086 168.844C275.95 169.048 275.78 169.235 275.576 169.405C275.383 169.575 275.151 169.711 274.879 169.813C274.618 169.915 274.329 169.966 274.012 169.966C273.66 169.966 273.371 169.915 273.145 169.813C272.929 169.711 272.754 169.547 272.618 169.32C272.493 169.082 272.408 168.782 272.363 168.419C272.317 168.045 272.295 167.592 272.295 167.059ZM280.797 170.238C281.307 170.238 281.766 170.125 282.174 169.898C282.594 169.66 282.945 169.365 283.228 169.014C283.523 168.663 283.75 168.277 283.908 167.858C284.067 167.439 284.146 167.042 284.146 166.668C284.146 166.294 284.067 165.897 283.908 165.478C283.75 165.059 283.523 164.673 283.228 164.322C282.945 163.971 282.594 163.682 282.174 163.455C281.766 163.217 281.307 163.098 280.797 163.098C280.287 163.098 279.823 163.217 279.403 163.455C278.995 163.682 278.644 163.971 278.349 164.322C278.055 164.673 277.828 165.059 277.669 165.478C277.511 165.897 277.431 166.294 277.431 166.668C277.431 167.042 277.511 167.439 277.669 167.858C277.828 168.277 278.055 168.663 278.349 169.014C278.644 169.365 278.995 169.66 279.403 169.898C279.823 170.125 280.287 170.238 280.797 170.238ZM279.199 166.294C279.199 165.818 279.216 165.399 279.25 165.036C279.296 164.673 279.375 164.367 279.488 164.118C279.602 163.869 279.76 163.682 279.964 163.557C280.18 163.432 280.457 163.37 280.797 163.37C281.137 163.37 281.409 163.432 281.613 163.557C281.829 163.682 281.987 163.869 282.089 164.118C282.203 164.367 282.276 164.673 282.31 165.036C282.356 165.399 282.378 165.818 282.378 166.294V167.025C282.378 167.535 282.356 167.977 282.31 168.351C282.276 168.714 282.203 169.014 282.089 169.252C281.987 169.49 281.829 169.671 281.613 169.796C281.409 169.909 281.137 169.966 280.797 169.966C280.457 169.966 280.18 169.909 279.964 169.796C279.76 169.671 279.602 169.49 279.488 169.252C279.375 169.014 279.296 168.714 279.25 168.351C279.216 167.977 279.199 167.535 279.199 167.025V166.294ZM287.806 164.628V163.336H285.154V163.608H286.344V169.728H285.154V170H288.996V169.728H287.806V165.512C287.806 165.319 287.857 165.115 287.959 164.9C288.061 164.673 288.191 164.464 288.35 164.271C288.52 164.078 288.707 163.92 288.911 163.795C289.126 163.67 289.347 163.608 289.574 163.608C289.903 163.608 290.141 163.71 290.288 163.914C290.447 164.118 290.526 164.441 290.526 164.883V169.728H289.336V170H293.178V169.728H291.988V164.764C291.988 164.175 291.818 163.767 291.478 163.54C291.149 163.313 290.724 163.2 290.203 163.2C289.58 163.2 289.07 163.342 288.673 163.625C288.288 163.908 287.999 164.243 287.806 164.628ZM296.483 163.336V160.667L295.021 161.398V163.336H293.865V163.608H295.021V168.198C295.021 168.833 295.191 169.331 295.531 169.694C295.871 170.057 296.364 170.238 297.01 170.238C297.678 170.238 298.149 170.108 298.421 169.847C298.704 169.575 298.885 169.207 298.965 168.742C298.976 168.685 298.982 168.651 298.982 168.64C298.982 168.629 298.982 168.612 298.982 168.589C298.982 168.498 298.948 168.453 298.88 168.453C298.789 168.453 298.738 168.51 298.727 168.623C298.67 169.008 298.54 169.314 298.336 169.541C298.132 169.756 297.882 169.864 297.588 169.864C297.191 169.864 296.908 169.728 296.738 169.456C296.568 169.184 296.483 168.776 296.483 168.232V163.608H298.132V163.336H296.483ZM302.567 163.336H299.83V163.608H301.105V169.728H299.83V170H303.842V169.728H302.567V163.336ZM302.703 160.191C302.703 159.942 302.618 159.732 302.448 159.562C302.278 159.392 302.068 159.307 301.819 159.307C301.569 159.307 301.36 159.392 301.19 159.562C301.02 159.732 300.935 159.942 300.935 160.191C300.935 160.44 301.02 160.65 301.19 160.82C301.36 160.99 301.569 161.075 301.819 161.075C302.068 161.075 302.278 160.99 302.448 160.82C302.618 160.65 302.703 160.44 302.703 160.191ZM307.479 164.628V163.336H304.827V163.608H306.017V169.728H304.827V170H308.669V169.728H307.479V165.512C307.479 165.319 307.53 165.115 307.632 164.9C307.734 164.673 307.864 164.464 308.023 164.271C308.193 164.078 308.38 163.92 308.584 163.795C308.799 163.67 309.02 163.608 309.247 163.608C309.576 163.608 309.814 163.71 309.961 163.914C310.12 164.118 310.199 164.441 310.199 164.883V169.728H309.009V170H312.851V169.728H311.661V164.764C311.661 164.175 311.491 163.767 311.151 163.54C310.822 163.313 310.397 163.2 309.876 163.2C309.253 163.2 308.743 163.342 308.346 163.625C307.961 163.908 307.672 164.243 307.479 164.628ZM319.247 168.725V170H321.899V169.728H320.709V163.336H318.057V163.608H319.247V167.841C319.247 168.022 319.19 168.221 319.077 168.436C318.975 168.651 318.833 168.855 318.652 169.048C318.471 169.229 318.261 169.382 318.023 169.507C317.785 169.632 317.541 169.694 317.292 169.694C316.895 169.694 316.64 169.598 316.527 169.405C316.414 169.212 316.357 168.901 316.357 168.47V163.336H313.705V163.608H314.895V168.351C314.895 168.714 314.94 169.014 315.031 169.252C315.122 169.49 315.246 169.677 315.405 169.813C315.564 169.949 315.745 170.045 315.949 170.102C316.164 170.159 316.385 170.187 316.612 170.187C317.213 170.187 317.734 170.062 318.176 169.813C318.629 169.552 318.986 169.19 319.247 168.725ZM328.909 165.869C328.897 165.688 328.835 165.438 328.722 165.121C328.62 164.804 328.455 164.498 328.229 164.203C328.002 163.908 327.702 163.653 327.328 163.438C326.954 163.211 326.495 163.098 325.951 163.098C325.497 163.098 325.072 163.206 324.676 163.421C324.29 163.636 323.956 163.914 323.673 164.254C323.389 164.594 323.168 164.979 323.01 165.41C322.851 165.841 322.772 166.277 322.772 166.719C322.772 167.161 322.851 167.592 323.01 168.011C323.168 168.43 323.389 168.804 323.673 169.133C323.956 169.462 324.296 169.728 324.693 169.932C325.101 170.136 325.543 170.238 326.019 170.238C326.404 170.238 326.755 170.181 327.073 170.068C327.39 169.966 327.668 169.824 327.906 169.643C328.155 169.45 328.365 169.229 328.535 168.98C328.705 168.731 328.841 168.47 328.943 168.198C328.977 168.119 328.994 168.039 328.994 167.96C328.994 167.881 328.96 167.841 328.892 167.841C328.835 167.841 328.784 167.898 328.739 168.011C328.637 168.249 328.506 168.487 328.348 168.725C328.2 168.963 328.013 169.173 327.787 169.354C327.571 169.535 327.322 169.683 327.039 169.796C326.755 169.909 326.427 169.966 326.053 169.966C325.599 169.966 325.231 169.796 324.948 169.456C324.676 169.116 324.54 168.572 324.54 167.824V166.09H328.637C328.818 166.09 328.909 166.016 328.909 165.869ZM324.54 165.818V165.138C324.54 164.764 324.579 164.464 324.659 164.237C324.749 163.999 324.863 163.818 324.999 163.693C325.135 163.568 325.288 163.483 325.458 163.438C325.628 163.393 325.798 163.37 325.968 163.37C326.24 163.37 326.461 163.421 326.631 163.523C326.812 163.614 326.954 163.738 327.056 163.897C327.158 164.056 327.226 164.231 327.26 164.424C327.294 164.617 327.311 164.815 327.311 165.019C327.311 165.552 327.226 165.818 327.056 165.818H324.54ZM334.266 158.848H335.558V164.016C335.139 163.404 334.521 163.098 333.705 163.098C333.297 163.098 332.9 163.2 332.515 163.404C332.13 163.608 331.79 163.88 331.495 164.22C331.2 164.549 330.962 164.928 330.781 165.359C330.6 165.778 330.509 166.209 330.509 166.651C330.509 167.127 330.605 167.586 330.798 168.028C331.002 168.459 331.257 168.838 331.563 169.167C331.869 169.496 332.209 169.756 332.583 169.949C332.957 170.142 333.314 170.238 333.654 170.238C334.107 170.238 334.487 170.125 334.793 169.898C335.099 169.671 335.354 169.411 335.558 169.116V170H338.312V169.728H337.02V158.576H334.266V158.848ZM332.277 166.226C332.277 165.172 332.39 164.435 332.617 164.016C332.844 163.585 333.229 163.37 333.773 163.37C334.011 163.37 334.221 163.41 334.402 163.489C334.595 163.568 334.759 163.676 334.895 163.812C335.042 163.937 335.167 164.073 335.269 164.22C335.382 164.367 335.479 164.509 335.558 164.645V168.623C335.309 169.042 335.031 169.371 334.725 169.609C334.43 169.847 334.096 169.966 333.722 169.966C333.484 169.966 333.274 169.921 333.093 169.83C332.912 169.728 332.759 169.569 332.634 169.354C332.521 169.127 332.43 168.827 332.362 168.453C332.305 168.079 332.277 167.614 332.277 167.059V166.226ZM155.459 181.336V181.608H156.564L158.944 188.187H159.097L160.576 183.682L162.361 188.187H162.497L164.554 181.608H165.727V181.336H162.871V181.608H164.282L162.956 185.875L161.171 181.336H161.052L159.59 185.858L158.043 181.608H159.165V181.336H155.459ZM169.202 182.526V176.576H166.55V176.848H167.74V187.728H166.55V188H170.392V187.728H169.202V183.478C169.202 183.297 169.247 183.098 169.338 182.883C169.44 182.656 169.582 182.447 169.763 182.254C169.944 182.05 170.154 181.88 170.392 181.744C170.63 181.608 170.896 181.54 171.191 181.54C171.429 181.54 171.616 181.58 171.752 181.659C171.888 181.738 171.99 181.84 172.058 181.965C172.126 182.09 172.166 182.231 172.177 182.39C172.2 182.537 172.211 182.69 172.211 182.849V187.728H171.038V188H174.863V187.728H173.673V182.662C173.673 182.152 173.497 181.767 173.146 181.506C172.806 181.234 172.33 181.098 171.718 181.098C171.049 181.098 170.511 181.24 170.103 181.523C169.706 181.806 169.406 182.141 169.202 182.526ZM181.37 183.869C181.359 183.688 181.297 183.438 181.183 183.121C181.081 182.804 180.917 182.498 180.69 182.203C180.464 181.908 180.163 181.653 179.789 181.438C179.415 181.211 178.956 181.098 178.412 181.098C177.959 181.098 177.534 181.206 177.137 181.421C176.752 181.636 176.418 181.914 176.134 182.254C175.851 182.594 175.63 182.979 175.471 183.41C175.313 183.841 175.233 184.277 175.233 184.719C175.233 185.161 175.313 185.592 175.471 186.011C175.63 186.43 175.851 186.804 176.134 187.133C176.418 187.462 176.758 187.728 177.154 187.932C177.562 188.136 178.004 188.238 178.48 188.238C178.866 188.238 179.217 188.181 179.534 188.068C179.852 187.966 180.129 187.824 180.367 187.643C180.617 187.45 180.826 187.229 180.996 186.98C181.166 186.731 181.302 186.47 181.404 186.198C181.438 186.119 181.455 186.039 181.455 185.96C181.455 185.881 181.421 185.841 181.353 185.841C181.297 185.841 181.246 185.898 181.2 186.011C181.098 186.249 180.968 186.487 180.809 186.725C180.662 186.963 180.475 187.173 180.248 187.354C180.033 187.535 179.784 187.683 179.5 187.796C179.217 187.909 178.888 187.966 178.514 187.966C178.061 187.966 177.693 187.796 177.409 187.456C177.137 187.116 177.001 186.572 177.001 185.824V184.09H181.098C181.28 184.09 181.37 184.016 181.37 183.869ZM177.001 183.818V183.138C177.001 182.764 177.041 182.464 177.12 182.237C177.211 181.999 177.324 181.818 177.46 181.693C177.596 181.568 177.749 181.483 177.919 181.438C178.089 181.393 178.259 181.37 178.429 181.37C178.701 181.37 178.922 181.421 179.092 181.523C179.274 181.614 179.415 181.738 179.517 181.897C179.619 182.056 179.687 182.231 179.721 182.424C179.755 182.617 179.772 182.815 179.772 183.019C179.772 183.552 179.687 183.818 179.517 183.818H177.001ZM185.087 182.322V181.336H182.435V181.608H183.625V187.728H182.435V188H186.277V187.728H185.087V183.07C185.087 182.889 185.138 182.702 185.24 182.509C185.353 182.316 185.495 182.141 185.665 181.982C185.846 181.823 186.044 181.699 186.26 181.608C186.475 181.506 186.685 181.455 186.889 181.455C187.013 181.455 187.121 181.466 187.212 181.489C187.314 181.5 187.365 181.54 187.365 181.608C187.365 181.665 187.336 181.704 187.28 181.727C187.212 181.772 187.132 181.852 187.042 181.965C186.951 182.067 186.906 182.231 186.906 182.458C186.906 182.696 186.985 182.894 187.144 183.053C187.302 183.2 187.512 183.274 187.773 183.274C187.999 183.274 188.198 183.2 188.368 183.053C188.538 182.894 188.623 182.679 188.623 182.407C188.623 182.18 188.577 181.993 188.487 181.846C188.396 181.687 188.277 181.563 188.13 181.472C187.994 181.37 187.829 181.296 187.637 181.251C187.455 181.206 187.268 181.183 187.076 181.183C186.804 181.183 186.56 181.223 186.345 181.302C186.129 181.381 185.937 181.478 185.767 181.591C185.597 181.704 185.455 181.829 185.342 181.965C185.228 182.09 185.143 182.209 185.087 182.322ZM195.034 183.869C195.022 183.688 194.96 183.438 194.847 183.121C194.745 182.804 194.58 182.498 194.354 182.203C194.127 181.908 193.827 181.653 193.453 181.438C193.079 181.211 192.62 181.098 192.076 181.098C191.622 181.098 191.197 181.206 190.801 181.421C190.415 181.636 190.081 181.914 189.798 182.254C189.514 182.594 189.293 182.979 189.135 183.41C188.976 183.841 188.897 184.277 188.897 184.719C188.897 185.161 188.976 185.592 189.135 186.011C189.293 186.43 189.514 186.804 189.798 187.133C190.081 187.462 190.421 187.728 190.818 187.932C191.226 188.136 191.668 188.238 192.144 188.238C192.529 188.238 192.88 188.181 193.198 188.068C193.515 187.966 193.793 187.824 194.031 187.643C194.28 187.45 194.49 187.229 194.66 186.98C194.83 186.731 194.966 186.47 195.068 186.198C195.102 186.119 195.119 186.039 195.119 185.96C195.119 185.881 195.085 185.841 195.017 185.841C194.96 185.841 194.909 185.898 194.864 186.011C194.762 186.249 194.631 186.487 194.473 186.725C194.325 186.963 194.138 187.173 193.912 187.354C193.696 187.535 193.447 187.683 193.164 187.796C192.88 187.909 192.552 187.966 192.178 187.966C191.724 187.966 191.356 187.796 191.073 187.456C190.801 187.116 190.665 186.572 190.665 185.824V184.09H194.762C194.943 184.09 195.034 184.016 195.034 183.869ZM190.665 183.818V183.138C190.665 182.764 190.704 182.464 190.784 182.237C190.874 181.999 190.988 181.818 191.124 181.693C191.26 181.568 191.413 181.483 191.583 181.438C191.753 181.393 191.923 181.37 192.093 181.37C192.365 181.37 192.586 181.421 192.756 181.523C192.937 181.614 193.079 181.738 193.181 181.897C193.283 182.056 193.351 182.231 193.385 182.424C193.419 182.617 193.436 182.815 193.436 183.019C193.436 183.552 193.351 183.818 193.181 183.818H190.665ZM209.214 179.228C209.214 178.809 209.118 178.435 208.925 178.106C208.732 177.766 208.472 177.488 208.143 177.273C207.826 177.046 207.457 176.876 207.038 176.763C206.619 176.638 206.182 176.576 205.729 176.576H200.782V176.848H202.244V187.728H200.782V188H205.865C207.044 188 207.956 187.728 208.602 187.184C209.259 186.64 209.588 185.886 209.588 184.923C209.588 184.424 209.486 183.988 209.282 183.614C209.089 183.24 208.846 182.923 208.551 182.662C208.256 182.401 207.928 182.203 207.565 182.067C207.214 181.92 206.885 181.829 206.579 181.795C206.953 181.727 207.299 181.631 207.616 181.506C207.945 181.37 208.222 181.2 208.449 180.996C208.687 180.781 208.874 180.531 209.01 180.248C209.146 179.953 209.214 179.613 209.214 179.228ZM203.893 181.693V176.848H205.729C206.012 176.848 206.267 176.888 206.494 176.967C206.721 177.035 206.913 177.16 207.072 177.341C207.231 177.511 207.355 177.743 207.446 178.038C207.537 178.321 207.582 178.673 207.582 179.092V179.364C207.582 179.817 207.537 180.197 207.446 180.503C207.355 180.798 207.231 181.036 207.072 181.217C206.913 181.387 206.715 181.512 206.477 181.591C206.25 181.659 206.001 181.693 205.729 181.693H203.893ZM203.893 187.728V181.965H205.729C206.511 181.965 207.066 182.203 207.395 182.679C207.735 183.155 207.905 183.835 207.905 184.719V185.127C207.905 185.954 207.746 186.595 207.429 187.048C207.112 187.501 206.545 187.728 205.729 187.728H203.893ZM214.308 188.238C214.818 188.238 215.277 188.125 215.685 187.898C216.105 187.66 216.456 187.365 216.739 187.014C217.034 186.663 217.261 186.277 217.419 185.858C217.578 185.439 217.657 185.042 217.657 184.668C217.657 184.294 217.578 183.897 217.419 183.478C217.261 183.059 217.034 182.673 216.739 182.322C216.456 181.971 216.105 181.682 215.685 181.455C215.277 181.217 214.818 181.098 214.308 181.098C213.798 181.098 213.334 181.217 212.914 181.455C212.506 181.682 212.155 181.971 211.86 182.322C211.566 182.673 211.339 183.059 211.18 183.478C211.022 183.897 210.942 184.294 210.942 184.668C210.942 185.042 211.022 185.439 211.18 185.858C211.339 186.277 211.566 186.663 211.86 187.014C212.155 187.365 212.506 187.66 212.914 187.898C213.334 188.125 213.798 188.238 214.308 188.238ZM212.71 184.294C212.71 183.818 212.727 183.399 212.761 183.036C212.807 182.673 212.886 182.367 212.999 182.118C213.113 181.869 213.271 181.682 213.475 181.557C213.691 181.432 213.968 181.37 214.308 181.37C214.648 181.37 214.92 181.432 215.124 181.557C215.34 181.682 215.498 181.869 215.6 182.118C215.714 182.367 215.787 182.673 215.821 183.036C215.867 183.399 215.889 183.818 215.889 184.294V185.025C215.889 185.535 215.867 185.977 215.821 186.351C215.787 186.714 215.714 187.014 215.6 187.252C215.498 187.49 215.34 187.671 215.124 187.796C214.92 187.909 214.648 187.966 214.308 187.966C213.968 187.966 213.691 187.909 213.475 187.796C213.271 187.671 213.113 187.49 212.999 187.252C212.886 187.014 212.807 186.714 212.761 186.351C212.727 185.977 212.71 185.535 212.71 185.025V184.294ZM222.72 176.848H224.012V182.016C223.593 181.404 222.975 181.098 222.159 181.098C221.751 181.098 221.354 181.2 220.969 181.404C220.584 181.608 220.244 181.88 219.949 182.22C219.654 182.549 219.416 182.928 219.235 183.359C219.054 183.778 218.963 184.209 218.963 184.651C218.963 185.127 219.059 185.586 219.252 186.028C219.456 186.459 219.711 186.838 220.017 187.167C220.323 187.496 220.663 187.756 221.037 187.949C221.411 188.142 221.768 188.238 222.108 188.238C222.561 188.238 222.941 188.125 223.247 187.898C223.553 187.671 223.808 187.411 224.012 187.116V188H226.766V187.728H225.474V176.576H222.72V176.848ZM220.731 184.226C220.731 183.172 220.844 182.435 221.071 182.016C221.298 181.585 221.683 181.37 222.227 181.37C222.465 181.37 222.675 181.41 222.856 181.489C223.049 181.568 223.213 181.676 223.349 181.812C223.496 181.937 223.621 182.073 223.723 182.22C223.836 182.367 223.933 182.509 224.012 182.645V186.623C223.763 187.042 223.485 187.371 223.179 187.609C222.884 187.847 222.55 187.966 222.176 187.966C221.938 187.966 221.728 187.921 221.547 187.83C221.366 187.728 221.213 187.569 221.088 187.354C220.975 187.127 220.884 186.827 220.816 186.453C220.759 186.079 220.731 185.614 220.731 185.059V184.226ZM230.511 188.238C231.021 188.238 231.48 188.125 231.888 187.898C232.308 187.66 232.659 187.365 232.942 187.014C233.237 186.663 233.464 186.277 233.622 185.858C233.781 185.439 233.86 185.042 233.86 184.668C233.86 184.294 233.781 183.897 233.622 183.478C233.464 183.059 233.237 182.673 232.942 182.322C232.659 181.971 232.308 181.682 231.888 181.455C231.48 181.217 231.021 181.098 230.511 181.098C230.001 181.098 229.537 181.217 229.117 181.455C228.709 181.682 228.358 181.971 228.063 182.322C227.769 182.673 227.542 183.059 227.383 183.478C227.225 183.897 227.145 184.294 227.145 184.668C227.145 185.042 227.225 185.439 227.383 185.858C227.542 186.277 227.769 186.663 228.063 187.014C228.358 187.365 228.709 187.66 229.117 187.898C229.537 188.125 230.001 188.238 230.511 188.238ZM228.913 184.294C228.913 183.818 228.93 183.399 228.964 183.036C229.01 182.673 229.089 182.367 229.202 182.118C229.316 181.869 229.474 181.682 229.678 181.557C229.894 181.432 230.171 181.37 230.511 181.37C230.851 181.37 231.123 181.432 231.327 181.557C231.543 181.682 231.701 181.869 231.803 182.118C231.917 182.367 231.99 182.673 232.024 183.036C232.07 183.399 232.092 183.818 232.092 184.294V185.025C232.092 185.535 232.07 185.977 232.024 186.351C231.99 186.714 231.917 187.014 231.803 187.252C231.701 187.49 231.543 187.671 231.327 187.796C231.123 187.909 230.851 187.966 230.511 187.966C230.171 187.966 229.894 187.909 229.678 187.796C229.474 187.671 229.316 187.49 229.202 187.252C229.089 187.014 229.01 186.714 228.964 186.351C228.93 185.977 228.913 185.535 228.913 185.025V184.294ZM237.52 182.628V181.336H234.868V181.608H236.058V187.728H234.868V188H238.71V187.728H237.52V183.512C237.52 183.319 237.571 183.115 237.673 182.9C237.775 182.673 237.905 182.464 238.064 182.271C238.234 182.078 238.421 181.92 238.625 181.795C238.84 181.67 239.061 181.608 239.288 181.608C239.617 181.608 239.855 181.71 240.002 181.914C240.161 182.118 240.24 182.441 240.24 182.883V187.728H239.05V188H242.892V187.728H241.702V182.764C241.702 182.175 241.532 181.767 241.192 181.54C240.863 181.313 240.438 181.2 239.917 181.2C239.294 181.2 238.784 181.342 238.387 181.625C238.002 181.908 237.713 182.243 237.52 182.628ZM246.636 181.336H243.899V181.608H245.174V187.728H243.899V188H247.911V187.728H246.636V181.336ZM246.772 178.191C246.772 177.942 246.687 177.732 246.517 177.562C246.347 177.392 246.137 177.307 245.888 177.307C245.639 177.307 245.429 177.392 245.259 177.562C245.089 177.732 245.004 177.942 245.004 178.191C245.004 178.44 245.089 178.65 245.259 178.82C245.429 178.99 245.639 179.075 245.888 179.075C246.137 179.075 246.347 178.99 246.517 178.82C246.687 178.65 246.772 178.44 246.772 178.191ZM255.179 185.059V184.311C255.179 183.756 255.213 183.291 255.281 182.917C255.349 182.543 255.451 182.243 255.587 182.016C255.734 181.778 255.915 181.614 256.131 181.523C256.346 181.421 256.601 181.37 256.896 181.37C257.315 181.37 257.598 181.427 257.746 181.54C257.904 181.642 257.984 181.716 257.984 181.761C257.984 181.806 257.967 181.846 257.933 181.88C257.853 181.971 257.791 182.067 257.746 182.169C257.712 182.26 257.695 182.379 257.695 182.526C257.695 182.753 257.768 182.928 257.916 183.053C258.063 183.166 258.233 183.223 258.426 183.223C258.652 183.223 258.834 183.155 258.97 183.019C259.106 182.883 259.174 182.707 259.174 182.492C259.174 182.277 259.1 182.084 258.953 181.914C258.805 181.733 258.618 181.585 258.392 181.472C258.176 181.347 257.938 181.257 257.678 181.2C257.417 181.132 257.168 181.098 256.93 181.098C256.488 181.098 256.057 181.189 255.638 181.37C255.218 181.54 254.844 181.784 254.516 182.101C254.187 182.407 253.921 182.781 253.717 183.223C253.513 183.665 253.411 184.152 253.411 184.685C253.411 185.229 253.507 185.722 253.7 186.164C253.904 186.595 254.164 186.969 254.482 187.286C254.81 187.592 255.179 187.83 255.587 188C256.006 188.159 256.425 188.238 256.845 188.238C257.264 188.238 257.632 188.17 257.95 188.034C258.267 187.909 258.533 187.751 258.749 187.558C258.964 187.354 259.134 187.144 259.259 186.929C259.383 186.702 259.474 186.498 259.531 186.317C259.553 186.249 259.565 186.204 259.565 186.181C259.565 186.079 259.519 186.028 259.429 186.028C259.361 186.028 259.31 186.085 259.276 186.198C259.208 186.413 259.106 186.629 258.97 186.844C258.834 187.048 258.664 187.235 258.46 187.405C258.267 187.575 258.035 187.711 257.763 187.813C257.502 187.915 257.213 187.966 256.896 187.966C256.544 187.966 256.255 187.915 256.029 187.813C255.813 187.711 255.638 187.547 255.502 187.32C255.377 187.082 255.292 186.782 255.247 186.419C255.201 186.045 255.179 185.592 255.179 185.059ZM263.681 188.238C264.191 188.238 264.65 188.125 265.058 187.898C265.478 187.66 265.829 187.365 266.112 187.014C266.407 186.663 266.634 186.277 266.792 185.858C266.951 185.439 267.03 185.042 267.03 184.668C267.03 184.294 266.951 183.897 266.792 183.478C266.634 183.059 266.407 182.673 266.112 182.322C265.829 181.971 265.478 181.682 265.058 181.455C264.65 181.217 264.191 181.098 263.681 181.098C263.171 181.098 262.707 181.217 262.287 181.455C261.879 181.682 261.528 181.971 261.233 182.322C260.939 182.673 260.712 183.059 260.553 183.478C260.395 183.897 260.315 184.294 260.315 184.668C260.315 185.042 260.395 185.439 260.553 185.858C260.712 186.277 260.939 186.663 261.233 187.014C261.528 187.365 261.879 187.66 262.287 187.898C262.707 188.125 263.171 188.238 263.681 188.238ZM262.083 184.294C262.083 183.818 262.1 183.399 262.134 183.036C262.18 182.673 262.259 182.367 262.372 182.118C262.486 181.869 262.644 181.682 262.848 181.557C263.064 181.432 263.341 181.37 263.681 181.37C264.021 181.37 264.293 181.432 264.497 181.557C264.713 181.682 264.871 181.869 264.973 182.118C265.087 182.367 265.16 182.673 265.194 183.036C265.24 183.399 265.262 183.818 265.262 184.294V185.025C265.262 185.535 265.24 185.977 265.194 186.351C265.16 186.714 265.087 187.014 264.973 187.252C264.871 187.49 264.713 187.671 264.497 187.796C264.293 187.909 264.021 187.966 263.681 187.966C263.341 187.966 263.064 187.909 262.848 187.796C262.644 187.671 262.486 187.49 262.372 187.252C262.259 187.014 262.18 186.714 262.134 186.351C262.1 185.977 262.083 185.535 262.083 185.025V184.294ZM273.228 186.725V188H275.88V187.728H274.69V181.336H272.038V181.608H273.228V185.841C273.228 186.022 273.171 186.221 273.058 186.436C272.956 186.651 272.814 186.855 272.633 187.048C272.451 187.229 272.242 187.382 272.004 187.507C271.766 187.632 271.522 187.694 271.273 187.694C270.876 187.694 270.621 187.598 270.508 187.405C270.394 187.212 270.338 186.901 270.338 186.47V181.336H267.686V181.608H268.876V186.351C268.876 186.714 268.921 187.014 269.012 187.252C269.102 187.49 269.227 187.677 269.386 187.813C269.544 187.949 269.726 188.045 269.93 188.102C270.145 188.159 270.366 188.187 270.593 188.187C271.193 188.187 271.715 188.062 272.157 187.813C272.61 187.552 272.967 187.19 273.228 186.725ZM279.654 187.728V176.576H277.002V176.848H278.192V187.728H277.002V188H280.844V187.728H279.654ZM285.607 176.848H286.899V182.016C286.48 181.404 285.862 181.098 285.046 181.098C284.638 181.098 284.241 181.2 283.856 181.404C283.471 181.608 283.131 181.88 282.836 182.22C282.541 182.549 282.303 182.928 282.122 183.359C281.941 183.778 281.85 184.209 281.85 184.651C281.85 185.127 281.946 185.586 282.139 186.028C282.343 186.459 282.598 186.838 282.904 187.167C283.21 187.496 283.55 187.756 283.924 187.949C284.298 188.142 284.655 188.238 284.995 188.238C285.448 188.238 285.828 188.125 286.134 187.898C286.44 187.671 286.695 187.411 286.899 187.116V188H289.653V187.728H288.361V176.576H285.607V176.848ZM283.618 184.226C283.618 183.172 283.731 182.435 283.958 182.016C284.185 181.585 284.57 181.37 285.114 181.37C285.352 181.37 285.562 181.41 285.743 181.489C285.936 181.568 286.1 181.676 286.236 181.812C286.383 181.937 286.508 182.073 286.61 182.22C286.723 182.367 286.82 182.509 286.899 182.645V186.623C286.65 187.042 286.372 187.371 286.066 187.609C285.771 187.847 285.437 187.966 285.063 187.966C284.825 187.966 284.615 187.921 284.434 187.83C284.253 187.728 284.1 187.569 283.975 187.354C283.862 187.127 283.771 186.827 283.703 186.453C283.646 186.079 283.618 185.614 283.618 185.059V184.226ZM293.318 182.628V181.336H290.666V181.608H291.856V187.728H290.666V188H294.508V187.728H293.318V183.512C293.318 183.319 293.369 183.115 293.471 182.9C293.573 182.673 293.703 182.464 293.862 182.271C294.032 182.078 294.219 181.92 294.423 181.795C294.638 181.67 294.859 181.608 295.086 181.608C295.414 181.608 295.652 181.71 295.8 181.914C295.958 182.118 296.038 182.441 296.038 182.883V187.728H294.848V188H298.69V187.728H297.5V182.764C297.5 182.175 297.33 181.767 296.99 181.54C296.661 181.313 296.236 181.2 295.715 181.2C295.091 181.2 294.581 181.342 294.185 181.625C293.799 181.908 293.51 182.243 293.318 182.628ZM301.838 177.29C301.838 176.939 301.719 176.655 301.481 176.44C301.255 176.213 300.977 176.1 300.648 176.1C300.32 176.1 300.053 176.191 299.849 176.372C299.645 176.542 299.543 176.774 299.543 177.069C299.543 177.352 299.634 177.573 299.815 177.732C299.997 177.879 300.223 177.953 300.495 177.953C300.677 177.953 300.841 177.902 300.988 177.8C301.136 177.698 301.221 177.551 301.243 177.358C301.243 177.256 301.26 177.205 301.294 177.205C301.396 177.205 301.447 177.341 301.447 177.613C301.447 177.76 301.413 177.93 301.345 178.123C301.289 178.304 301.192 178.491 301.056 178.684C300.932 178.877 300.767 179.064 300.563 179.245C300.359 179.415 300.116 179.557 299.832 179.67C299.776 179.704 299.747 179.732 299.747 179.755C299.747 179.789 299.776 179.806 299.832 179.806C299.855 179.806 299.889 179.795 299.934 179.772C300.274 179.636 300.563 179.472 300.801 179.279C301.039 179.086 301.232 178.877 301.379 178.65C301.538 178.423 301.651 178.191 301.719 177.953C301.799 177.715 301.838 177.494 301.838 177.29ZM305.447 181.336V178.667L303.985 179.398V181.336H302.829V181.608H303.985V186.198C303.985 186.833 304.155 187.331 304.495 187.694C304.835 188.057 305.328 188.238 305.974 188.238C306.643 188.238 307.113 188.108 307.385 187.847C307.669 187.575 307.85 187.207 307.929 186.742C307.941 186.685 307.946 186.651 307.946 186.64C307.946 186.629 307.946 186.612 307.946 186.589C307.946 186.498 307.912 186.453 307.844 186.453C307.754 186.453 307.703 186.51 307.691 186.623C307.635 187.008 307.504 187.314 307.3 187.541C307.096 187.756 306.847 187.864 306.552 187.864C306.156 187.864 305.872 187.728 305.702 187.456C305.532 187.184 305.447 186.776 305.447 186.232V181.608H307.096V181.336H305.447Z" fill="black"/>
</svg>
