<svg width="52" height="52" viewBox="0 0 52 52" fill="none" xmlns="http://www.w3.org/2000/svg">
<path d="M25.5041 12.4428C18.2606 12.4428 12.4147 18.2888 12.4147 25.5324C12.4147 32.776 18.2606 38.622 25.5041 38.622C32.7475 38.622 38.5934 32.776 38.5934 25.5324C38.5934 18.2888 32.7475 12.4428 25.5041 12.4428ZM25.5041 34.0397C20.8197 34.0397 16.997 30.2168 16.997 25.5324C16.997 20.848 20.8197 17.0251 25.5041 17.0251C30.1884 17.0251 34.0112 20.848 34.0112 25.5324C34.0112 30.2168 30.1884 34.0397 25.5041 34.0397ZM39.1295 8.85613C37.4383 8.85613 36.0725 10.2219 36.0725 11.9131C36.0725 13.6044 37.4383 14.9701 39.1295 14.9701C40.8207 14.9701 42.1864 13.6107 42.1864 11.9131C42.1869 11.5115 42.1082 11.1138 41.9547 10.7427C41.8013 10.3715 41.5761 10.0343 41.2922 9.75038C41.0082 9.46641 40.671 9.24125 40.2999 9.0878C39.9288 8.93435 39.5311 8.85562 39.1295 8.85613V8.85613ZM51.019 25.5324C51.019 22.0095 51.0509 18.5185 50.8531 15.002C50.6552 10.9175 49.7235 7.29253 46.7367 4.30573C43.7436 1.31255 40.125 0.387159 36.0406 0.189316C32.5178 -0.00852762 29.0269 0.0233827 25.5104 0.0233827C21.9876 0.0233827 18.4967 -0.00852762 14.9803 0.189316C10.8958 0.387159 7.27091 1.31894 4.28417 4.30573C1.29105 7.29891 0.365668 10.9175 0.167828 15.002C-0.0300114 18.5249 0.00189827 22.0159 0.00189827 25.5324C0.00189827 29.0489 -0.0300114 32.5463 0.167828 36.0628C0.365668 40.1473 1.29743 43.7723 4.28417 46.7591C7.27729 49.7522 10.8958 50.6776 14.9803 50.8755C18.5031 51.0733 21.994 51.0414 25.5104 51.0414C29.0333 51.0414 32.5242 51.0733 36.0406 50.8755C40.125 50.6776 43.75 49.7459 46.7367 46.7591C49.7298 43.7659 50.6552 40.1473 50.8531 36.0628C51.0573 32.5463 51.019 29.0553 51.019 25.5324V25.5324ZM45.4029 40.5813C44.937 41.7428 44.3754 42.6107 43.4756 43.5042C42.5757 44.4041 41.7141 44.9657 40.5526 45.4316C37.1957 46.7655 29.2247 46.4655 25.5041 46.4655C21.7834 46.4655 13.806 46.7655 10.4491 45.438C9.2876 44.9721 8.41965 44.4105 7.52619 43.5106C6.62633 42.6107 6.06473 41.7492 5.59885 40.5876C4.27141 37.2243 4.57136 29.2531 4.57136 25.5324C4.57136 21.8117 4.27141 13.8341 5.59885 10.4772C6.06473 9.31563 6.62633 8.44768 7.52619 7.55419C8.42604 6.66071 9.2876 6.0927 10.4491 5.62682C13.806 4.29935 21.7834 4.59931 25.5041 4.59931C29.2247 4.59931 37.2021 4.29935 40.559 5.62682C41.7205 6.0927 42.5885 6.65432 43.4819 7.55419C44.3818 8.45406 44.9434 9.31563 45.4093 10.4772C46.7367 13.8341 46.4368 21.8117 46.4368 25.5324C46.4368 29.2531 46.7367 37.2243 45.4029 40.5813Z" fill="white"/>
</svg>
