<svg width="537" height="788" viewBox="0 0 537 788" fill="none" xmlns="http://www.w3.org/2000/svg">
<path d="M268.454 16.3372C294.379 16.3372 317.423 20.3699 337.586 28.4353C357.75 36.5008 374.457 50.0392 387.707 69.0506C401.534 88.062 411.904 113.122 418.817 144.232C426.306 175.342 430.051 213.941 430.051 260.029V346.444C430.051 429.979 416.225 491.91 388.572 532.237C360.919 571.989 320.88 591.864 268.454 591.864C216.029 591.864 175.99 571.989 148.337 532.237C120.684 491.91 106.857 429.979 106.857 346.444V260.029C106.857 215.093 110.314 177.358 117.227 146.825C124.716 115.715 135.086 90.6545 148.337 71.6431C162.163 52.0555 179.158 37.941 199.322 29.2995C219.485 20.6579 242.529 16.3372 268.454 16.3372ZM322.032 600.506C352.565 593.016 380.794 579.766 406.719 560.755C433.22 541.743 455.976 518.987 474.987 492.486C493.998 465.41 508.977 435.74 519.923 403.478C530.869 371.217 536.342 337.803 536.342 303.237C536.342 264.061 529.141 226.327 514.738 190.032C500.912 153.162 481.9 120.9 457.704 93.2469C433.508 65.0179 404.991 42.5499 372.153 25.8429C339.891 9.13587 305.325 0.782382 268.454 0.782382C231.584 0.782382 196.729 9.13587 163.891 25.8429C131.63 42.5499 103.401 65.0179 79.2043 93.2469C55.0079 120.9 35.7085 153.162 21.3059 190.032C7.47942 226.327 0.566187 264.061 0.566187 303.237C0.566187 337.803 6.03917 371.217 16.9851 403.478C27.9311 435.74 42.9098 465.41 61.9212 492.486C80.9326 518.987 103.401 541.743 129.325 560.755C155.826 579.766 184.343 593.016 214.877 600.506L216.605 622.974C219.485 659.844 227.263 689.226 239.937 711.118C253.187 733.009 270.182 749.428 290.922 760.374C312.238 771.896 337.01 779.098 365.239 781.978C394.045 785.435 425.73 787.163 460.296 787.163C465.481 787.163 468.074 785.435 468.074 781.978C468.074 777.945 465.481 775.929 460.296 775.929C442.437 775.929 425.154 773.913 408.447 769.88C392.316 765.847 377.626 758.07 364.375 746.548C351.701 735.602 341.331 719.759 333.266 699.019C325.776 678.856 322.032 652.355 322.032 619.517V600.506Z" fill="black"/>
</svg>
