<svg width="105" height="222" viewBox="0 0 105 222" fill="none" xmlns="http://www.w3.org/2000/svg">
<path d="M104.078 46.8414C104.078 31.5823 99.4342 20.0826 90.146 12.3424C81.079 4.60225 68.5841 0.732167 52.6615 0.732167C44.2579 0.732167 36.7389 1.72733 30.1044 3.71766C23.6912 5.48683 18.273 7.91945 13.8501 11.0155C9.42714 13.8904 5.99935 17.3182 3.56673 21.2989C1.35525 25.0584 0.249512 28.9285 0.249512 32.9091C0.249512 37.9955 1.90812 42.1973 5.22533 45.5145C8.76369 48.8318 13.0761 50.4904 18.1625 50.4904C23.9123 50.4904 28.4458 48.8318 31.763 45.5145C35.0803 42.1973 36.7389 38.1061 36.7389 33.2409C36.7389 29.7025 35.6331 26.4959 33.4217 23.6209C31.2102 20.5249 27.5612 18.424 22.4748 17.3182C21.5903 17.0971 21.148 16.7654 21.148 16.3231C21.148 15.6596 21.7008 14.775 22.8066 13.6693C23.9123 12.5636 25.6815 11.4578 28.1141 10.3521C30.7679 9.24634 34.0851 8.25118 38.0658 7.36659C42.2676 6.482 47.3539 6.0397 53.3249 6.0397C64.8246 6.0397 73.2282 8.5829 78.5358 13.6693C83.8433 18.7557 86.4971 24.2844 86.4971 30.2554C86.4971 34.6783 85.3913 39.1013 83.1799 43.5242C80.9684 47.9472 77.9829 52.4807 74.2234 57.1248C71.1273 60.8843 68.0312 64.3121 64.9352 67.4082C61.8391 70.5042 58.7431 73.7109 55.647 77.0281C52.7721 80.1241 49.8971 83.5519 47.0222 87.3114C44.3685 90.8498 41.9358 95.1622 39.7244 100.249C38.6186 103.123 37.8446 106.33 37.4023 109.868C36.96 113.186 36.7389 116.724 36.7389 120.484C36.7389 127.118 37.1812 133.642 38.0658 140.055C39.1715 146.468 40.0561 151.444 40.7195 154.983C40.9407 156.531 41.8253 157.305 43.3733 157.305C45.1425 157.305 46.0271 156.531 46.0271 154.983C46.0271 153.877 45.9165 152.882 45.6953 151.997C45.6953 150.891 45.5848 149.564 45.3636 148.016C45.1425 146.69 45.0319 145.031 45.0319 143.041C45.0319 140.829 45.0319 138.507 45.0319 136.074C45.0319 132.536 46.5799 128.666 49.676 124.464C52.9932 120.262 56.9739 115.839 61.618 111.195C66.4832 106.551 71.5696 101.797 76.8772 96.9314C82.1847 92.0661 86.8288 87.2009 90.8095 82.3356C95.4536 76.5858 98.7708 70.7254 100.761 64.7544C102.973 58.7834 104.078 52.8124 104.078 46.8414ZM60.9545 203.414C60.9545 198.328 59.1853 194.126 55.647 190.809C52.3298 187.27 48.128 185.501 43.0416 185.501C37.9552 185.501 33.6428 187.27 30.1044 190.809C26.7872 194.126 25.1286 198.328 25.1286 203.414C25.1286 208.5 26.7872 212.813 30.1044 216.351C33.6428 219.668 37.9552 221.327 43.0416 221.327C48.128 221.327 52.3298 219.668 55.647 216.351C59.1853 212.813 60.9545 208.5 60.9545 203.414Z" fill="black"/>
</svg>
