<svg width="284" height="891" viewBox="0 0 284 891" fill="none" xmlns="http://www.w3.org/2000/svg">
<path d="M247.434 174.481C247.434 148.087 239.401 128.195 223.334 114.807C207.651 101.418 186.038 94.7243 158.496 94.7243C143.96 94.7243 130.954 96.4456 119.478 99.8884C108.385 102.949 99.0131 107.156 91.3625 112.512C83.712 117.485 77.7828 123.414 73.575 130.299C69.7498 136.802 67.8371 143.496 67.8371 150.382C67.8371 159.18 70.7061 166.448 76.444 172.186C82.5644 177.924 90.0237 180.793 98.8218 180.793C108.768 180.793 116.609 177.924 122.347 172.186C128.085 166.448 130.954 159.371 130.954 150.956C130.954 144.835 129.041 139.289 125.216 134.316C121.391 128.96 115.079 125.326 106.281 123.414C104.751 123.031 103.986 122.457 103.986 121.692C103.986 120.545 104.942 119.015 106.855 117.102C108.768 115.189 111.828 113.277 116.036 111.364C120.626 109.452 126.364 107.73 133.249 106.2C140.517 104.67 149.315 103.905 159.644 103.905C179.535 103.905 194.071 108.304 203.252 117.102C212.432 125.9 217.023 135.463 217.023 145.792C217.023 153.442 215.11 161.093 211.285 168.743C207.46 176.394 202.295 184.236 195.792 192.269C190.437 198.772 185.082 204.701 179.726 210.056C174.371 215.412 169.016 220.958 163.66 226.696C158.687 232.052 153.714 237.981 148.742 244.484C144.151 250.604 139.944 258.063 136.118 266.861C134.206 271.834 132.867 277.381 132.102 283.501C131.337 289.239 130.954 295.36 130.954 301.863C130.954 313.339 131.719 324.623 133.249 335.716C135.162 346.81 136.692 355.417 137.84 361.537C138.222 364.215 139.752 365.554 142.43 365.554C145.49 365.554 147.02 364.215 147.02 361.537C147.02 359.624 146.829 357.903 146.446 356.373C146.446 354.46 146.255 352.165 145.873 349.487C145.49 347.192 145.299 344.323 145.299 340.881C145.299 337.055 145.299 333.039 145.299 328.831C145.299 322.71 147.977 316.016 153.332 308.748C159.07 301.48 165.955 293.83 173.988 285.797C182.404 277.764 191.202 269.539 200.383 261.124C209.563 252.708 217.597 244.292 224.482 235.877C232.515 225.931 238.253 215.794 241.696 205.466C245.521 195.138 247.434 184.809 247.434 174.481ZM172.841 445.31C172.841 436.512 169.781 429.244 163.66 423.506C157.922 417.386 150.654 414.326 141.856 414.326C133.058 414.326 125.599 417.386 119.478 423.506C113.74 429.244 110.871 436.512 110.871 445.31C110.871 454.109 113.74 461.568 119.478 467.688C125.599 473.426 133.058 476.295 141.856 476.295C150.654 476.295 157.922 473.426 163.66 467.688C169.781 461.568 172.841 454.109 172.841 445.31Z" fill="black"/>
<path d="M36.5664 715.9C36.5664 742.294 44.5994 762.185 60.6656 775.574C76.3492 788.962 97.962 795.657 125.504 795.657C140.04 795.657 153.046 793.935 164.522 790.492C175.615 787.432 184.987 783.224 192.637 777.869C200.288 772.896 206.217 766.967 210.425 760.082C214.25 753.579 216.163 746.884 216.163 739.999C216.163 731.201 213.294 723.933 207.556 718.195C201.436 712.457 193.976 709.588 185.178 709.588C175.232 709.588 167.391 712.457 161.653 718.195C155.915 723.933 153.046 731.009 153.046 739.425C153.046 745.546 154.959 751.092 158.784 756.065C162.609 761.42 168.921 765.054 177.719 766.967C179.249 767.35 180.014 767.923 180.014 768.688C180.014 769.836 179.058 771.366 177.145 773.279C175.232 775.191 172.172 777.104 167.964 779.017C163.374 780.929 157.636 782.651 150.751 784.181C143.483 785.711 134.685 786.476 124.356 786.476C104.465 786.476 89.9289 782.077 80.7482 773.279C71.5676 764.481 66.9773 754.917 66.9773 744.589C66.9773 736.939 68.8899 729.288 72.7152 721.638C76.5404 713.987 81.7046 706.145 88.2075 698.112C93.5629 691.609 98.9183 685.68 104.274 680.325C109.629 674.969 114.984 669.423 120.34 663.685C125.313 658.329 130.286 652.4 135.258 645.897C139.849 639.777 144.057 632.317 147.882 623.519C149.794 618.547 151.133 613 151.898 606.879C152.663 601.142 153.046 595.021 153.046 588.518C153.046 577.042 152.281 565.758 150.751 554.664C148.838 543.571 147.308 534.964 146.16 528.844C145.778 526.166 144.248 524.827 141.57 524.827C138.51 524.827 136.98 526.166 136.98 528.844C136.98 530.756 137.171 532.478 137.554 534.008C137.554 535.921 137.745 538.216 138.127 540.893C138.51 543.189 138.701 546.058 138.701 549.5C138.701 553.326 138.701 557.342 138.701 561.55C138.701 567.67 136.023 574.365 130.668 581.633C124.93 588.901 118.045 596.551 110.012 604.584C101.596 612.617 92.7979 620.842 83.6172 629.257C74.4366 637.673 66.4035 646.088 59.518 654.504C51.4849 664.45 45.747 674.587 42.3043 684.915C38.479 695.243 36.5664 705.571 36.5664 715.9ZM111.159 445.07C111.159 453.869 114.219 461.137 120.34 466.874C126.078 472.995 133.346 476.055 142.144 476.055C150.942 476.055 158.401 472.995 164.522 466.874C170.26 461.137 173.129 453.869 173.129 445.07C173.129 436.272 170.26 428.813 164.522 422.693C158.401 416.955 150.942 414.086 142.144 414.086C133.346 414.086 126.078 416.955 120.34 422.693C114.219 428.813 111.159 436.272 111.159 445.07Z" fill="black"/>
<path d="M112.875 396.385V371.787H116.18C117.359 371.787 118.384 372.389 119.255 373.593C120.152 374.798 120.741 376.437 121.023 378.513H121.83L121.254 371.825C121.228 371.39 120.972 371.172 120.485 371.172H101.537C101.05 371.172 100.794 371.39 100.768 371.825L100.191 378.513H100.999C101.28 376.437 101.857 374.798 102.728 373.593C103.625 372.389 104.663 371.787 105.841 371.787H109.147V396.385H105.841V397H116.18V396.385H112.875ZM123.613 382.318C122.793 382.856 122.383 383.497 122.383 384.24C122.383 384.598 122.499 384.931 122.729 385.239C122.986 385.521 123.331 385.662 123.767 385.662C124.203 385.662 124.549 385.534 124.805 385.277C125.087 385.021 125.228 384.701 125.228 384.317C125.228 384.137 125.189 383.958 125.112 383.778C125.061 383.573 124.946 383.381 124.766 383.202C124.638 383.074 124.536 382.984 124.459 382.933C124.382 382.882 124.344 382.818 124.344 382.741C124.344 382.638 124.42 382.536 124.574 382.433C124.728 382.331 124.92 382.241 125.151 382.164C125.381 382.087 125.638 382.023 125.919 381.972C126.227 381.921 126.522 381.895 126.803 381.895C127.598 381.895 128.225 382.049 128.687 382.356C129.148 382.664 129.378 383.253 129.378 384.124V388.66C128.2 388.66 127.098 388.788 126.073 389.044C125.048 389.275 124.151 389.621 123.383 390.082C122.614 390.543 122.012 391.119 121.576 391.811C121.141 392.478 120.923 393.233 120.923 394.079C120.923 394.694 121.025 395.232 121.23 395.693C121.461 396.129 121.768 396.488 122.153 396.769C122.537 397.026 122.973 397.218 123.46 397.346C123.972 397.474 124.51 397.538 125.074 397.538C125.663 397.538 126.188 397.461 126.65 397.307C127.136 397.179 127.559 397.013 127.918 396.808C128.302 396.577 128.623 396.347 128.879 396.116C129.135 395.86 129.34 395.616 129.494 395.386C129.571 395.924 129.814 396.423 130.224 396.885C130.634 397.32 131.351 397.538 132.376 397.538C133.043 397.538 133.594 397.436 134.029 397.231C134.49 397.026 134.862 396.782 135.144 396.5C135.426 396.218 135.618 395.937 135.72 395.655C135.848 395.347 135.912 395.117 135.912 394.963C135.912 394.835 135.874 394.771 135.797 394.771C135.72 394.771 135.631 394.873 135.528 395.078C135.323 395.514 135.067 395.873 134.759 396.154C134.452 396.411 134.119 396.539 133.76 396.539C133.248 396.539 132.94 396.334 132.838 395.924C132.735 395.488 132.684 394.899 132.684 394.156V384.855C132.684 383.753 132.274 382.907 131.454 382.318C130.634 381.703 129.378 381.395 127.687 381.395C126.893 381.395 126.124 381.485 125.381 381.665C124.664 381.818 124.074 382.036 123.613 382.318ZM129.378 389.044V394.386C129.378 394.617 129.263 394.86 129.033 395.117C128.828 395.373 128.559 395.616 128.225 395.847C127.918 396.052 127.585 396.218 127.226 396.347C126.893 396.475 126.611 396.539 126.381 396.539C125.586 396.539 124.984 396.231 124.574 395.616C124.164 395.001 123.959 394.169 123.959 393.118C123.959 392.273 124.113 391.594 124.42 391.081C124.728 390.569 125.125 390.171 125.612 389.89C126.124 389.608 126.701 389.416 127.341 389.313C128.008 389.185 128.687 389.095 129.378 389.044ZM150.493 390.274C150.493 391.709 150.416 392.862 150.262 393.733C150.109 394.579 149.878 395.232 149.571 395.693C149.289 396.154 148.943 396.462 148.533 396.616C148.123 396.769 147.662 396.846 147.149 396.846C146.611 396.846 146.099 396.744 145.612 396.539C145.125 396.308 144.689 396.026 144.305 395.693C143.921 395.334 143.613 394.95 143.383 394.54C143.152 394.13 143.037 393.733 143.037 393.349V385.892C143.037 385.431 143.165 384.97 143.421 384.509C143.677 384.047 144.01 383.638 144.42 383.279C144.83 382.894 145.279 382.587 145.766 382.356C146.278 382.126 146.778 382.01 147.264 382.01C147.674 382.01 148.072 382.087 148.456 382.241C148.84 382.369 149.186 382.664 149.494 383.125C149.801 383.561 150.045 384.214 150.224 385.085C150.403 385.931 150.493 387.071 150.493 388.506V390.274ZM143.037 383.894V381.934H137.233V382.549H139.731V406.686H137.233V407.301H145.535V406.686H143.037V395.347C143.472 395.988 144.036 396.513 144.728 396.923C145.42 397.333 146.252 397.538 147.226 397.538C148.148 397.538 149.045 397.32 149.916 396.885C150.788 396.449 151.556 395.873 152.223 395.155C152.914 394.412 153.465 393.554 153.875 392.58C154.285 391.581 154.49 390.53 154.49 389.428C154.49 388.327 154.272 387.289 153.837 386.315C153.427 385.341 152.876 384.496 152.184 383.778C151.492 383.035 150.711 382.459 149.84 382.049C148.994 381.613 148.148 381.395 147.303 381.395C146.227 381.395 145.343 381.665 144.651 382.203C143.985 382.741 143.447 383.304 143.037 383.894ZM172.576 381.934V375.899L169.27 377.552V381.934H166.657V382.549H169.27V392.926C169.27 394.361 169.655 395.488 170.424 396.308C171.192 397.128 172.307 397.538 173.767 397.538C175.279 397.538 176.342 397.243 176.957 396.654C177.598 396.039 178.008 395.206 178.187 394.156C178.213 394.028 178.226 393.951 178.226 393.925C178.226 393.9 178.226 393.861 178.226 393.81C178.226 393.605 178.149 393.502 177.995 393.502C177.79 393.502 177.675 393.631 177.649 393.887C177.521 394.758 177.226 395.45 176.765 395.962C176.304 396.449 175.74 396.693 175.074 396.693C174.177 396.693 173.537 396.385 173.152 395.77C172.768 395.155 172.576 394.233 172.576 393.003V382.549H176.304V381.934H172.576ZM186.771 397.538C187.924 397.538 188.962 397.282 189.884 396.769C190.833 396.231 191.627 395.565 192.267 394.771C192.934 393.976 193.446 393.105 193.805 392.157C194.164 391.209 194.343 390.312 194.343 389.467C194.343 388.621 194.164 387.724 193.805 386.776C193.446 385.828 192.934 384.957 192.267 384.163C191.627 383.368 190.833 382.715 189.884 382.203C188.962 381.665 187.924 381.395 186.771 381.395C185.618 381.395 184.568 381.665 183.62 382.203C182.697 382.715 181.903 383.368 181.237 384.163C180.57 384.957 180.058 385.828 179.699 386.776C179.341 387.724 179.161 388.621 179.161 389.467C179.161 390.312 179.341 391.209 179.699 392.157C180.058 393.105 180.57 393.976 181.237 394.771C181.903 395.565 182.697 396.231 183.62 396.769C184.568 397.282 185.618 397.538 186.771 397.538ZM183.158 388.621C183.158 387.545 183.197 386.597 183.274 385.777C183.376 384.957 183.556 384.265 183.812 383.702C184.068 383.138 184.427 382.715 184.888 382.433C185.375 382.151 186.003 382.01 186.771 382.01C187.54 382.01 188.155 382.151 188.616 382.433C189.103 382.715 189.462 383.138 189.692 383.702C189.949 384.265 190.115 384.957 190.192 385.777C190.294 386.597 190.346 387.545 190.346 388.621V390.274C190.346 391.427 190.294 392.426 190.192 393.272C190.115 394.092 189.949 394.771 189.692 395.309C189.462 395.847 189.103 396.257 188.616 396.539C188.155 396.795 187.54 396.923 186.771 396.923C186.003 396.923 185.375 396.795 184.888 396.539C184.427 396.257 184.068 395.847 183.812 395.309C183.556 394.771 183.376 394.092 183.274 393.272C183.197 392.426 183.158 391.427 183.158 390.274V388.621ZM105.841 494.163V491.934H99.8456V492.549H102.536V506.385H99.8456V507H108.532V506.385H105.841V495.854C105.841 495.444 105.957 495.021 106.187 494.586C106.444 494.15 106.764 493.753 107.148 493.394C107.558 493.035 108.007 492.754 108.493 492.549C108.98 492.318 109.454 492.203 109.915 492.203C110.197 492.203 110.441 492.228 110.646 492.279C110.876 492.305 110.992 492.395 110.992 492.549C110.992 492.677 110.928 492.766 110.799 492.818C110.646 492.92 110.466 493.099 110.261 493.356C110.056 493.586 109.954 493.958 109.954 494.47C109.954 495.008 110.133 495.457 110.492 495.815C110.851 496.149 111.325 496.315 111.914 496.315C112.427 496.315 112.875 496.149 113.259 495.815C113.644 495.457 113.836 494.97 113.836 494.355C113.836 493.842 113.733 493.42 113.528 493.087C113.323 492.728 113.054 492.446 112.721 492.241C112.414 492.01 112.042 491.844 111.607 491.741C111.197 491.639 110.774 491.588 110.338 491.588C109.723 491.588 109.172 491.677 108.686 491.857C108.199 492.036 107.763 492.254 107.379 492.51C106.994 492.766 106.674 493.048 106.418 493.356C106.162 493.638 105.97 493.907 105.841 494.163ZM128.33 497.66C128.305 497.25 128.164 496.687 127.907 495.969C127.677 495.252 127.305 494.56 126.793 493.894C126.28 493.228 125.601 492.651 124.756 492.164C123.91 491.652 122.873 491.395 121.643 491.395C120.618 491.395 119.657 491.639 118.76 492.126C117.889 492.613 117.133 493.24 116.492 494.009C115.852 494.778 115.352 495.649 114.993 496.623C114.635 497.596 114.455 498.583 114.455 499.582C114.455 500.581 114.635 501.555 114.993 502.503C115.352 503.451 115.852 504.297 116.492 505.04C117.133 505.783 117.902 506.385 118.798 506.846C119.721 507.307 120.72 507.538 121.796 507.538C122.668 507.538 123.462 507.41 124.179 507.154C124.897 506.923 125.525 506.603 126.063 506.193C126.626 505.757 127.1 505.258 127.485 504.694C127.869 504.13 128.177 503.541 128.407 502.926C128.484 502.747 128.522 502.567 128.522 502.388C128.522 502.208 128.446 502.119 128.292 502.119C128.164 502.119 128.048 502.247 127.946 502.503C127.715 503.041 127.421 503.579 127.062 504.117C126.729 504.655 126.306 505.13 125.794 505.539C125.307 505.949 124.743 506.283 124.102 506.539C123.462 506.795 122.719 506.923 121.873 506.923C120.848 506.923 120.016 506.539 119.375 505.77C118.76 505.001 118.453 503.771 118.453 502.08V498.16H127.715C128.125 498.16 128.33 497.993 128.33 497.66ZM118.453 497.545V496.008C118.453 495.162 118.542 494.483 118.722 493.971C118.927 493.433 119.183 493.023 119.49 492.741C119.798 492.459 120.144 492.267 120.528 492.164C120.912 492.062 121.297 492.01 121.681 492.01C122.296 492.01 122.796 492.126 123.18 492.356C123.59 492.561 123.91 492.843 124.141 493.202C124.371 493.561 124.525 493.958 124.602 494.393C124.679 494.829 124.717 495.277 124.717 495.739C124.717 496.943 124.525 497.545 124.141 497.545H118.453ZM129.2 491.934V492.549H131.698L137.848 507.154H138.155L143.997 492.549H146.265V491.934H140.577V492.549H143.305L139.308 502.58L135.234 492.549H137.925V491.934H129.2ZM160.234 497.66C160.208 497.25 160.068 496.687 159.811 495.969C159.581 495.252 159.209 494.56 158.697 493.894C158.184 493.228 157.505 492.651 156.66 492.164C155.814 491.652 154.776 491.395 153.546 491.395C152.522 491.395 151.561 491.639 150.664 492.126C149.793 492.613 149.037 493.24 148.396 494.009C147.756 494.778 147.256 495.649 146.897 496.623C146.539 497.596 146.359 498.583 146.359 499.582C146.359 500.581 146.539 501.555 146.897 502.503C147.256 503.451 147.756 504.297 148.396 505.04C149.037 505.783 149.805 506.385 150.702 506.846C151.625 507.307 152.624 507.538 153.7 507.538C154.571 507.538 155.366 507.41 156.083 507.154C156.801 506.923 157.428 506.603 157.966 506.193C158.53 505.757 159.004 505.258 159.389 504.694C159.773 504.13 160.08 503.541 160.311 502.926C160.388 502.747 160.426 502.567 160.426 502.388C160.426 502.208 160.349 502.119 160.196 502.119C160.068 502.119 159.952 502.247 159.85 502.503C159.619 503.041 159.324 503.579 158.966 504.117C158.633 504.655 158.21 505.13 157.697 505.539C157.211 505.949 156.647 506.283 156.006 506.539C155.366 506.795 154.623 506.923 153.777 506.923C152.752 506.923 151.919 506.539 151.279 505.77C150.664 505.001 150.356 503.771 150.356 502.08V498.16H159.619C160.029 498.16 160.234 497.993 160.234 497.66ZM150.356 497.545V496.008C150.356 495.162 150.446 494.483 150.625 493.971C150.83 493.433 151.087 493.023 151.394 492.741C151.702 492.459 152.048 492.267 152.432 492.164C152.816 492.062 153.201 492.01 153.585 492.01C154.2 492.01 154.7 492.126 155.084 492.356C155.494 492.561 155.814 492.843 156.045 493.202C156.275 493.561 156.429 493.958 156.506 494.393C156.583 494.829 156.621 495.277 156.621 495.739C156.621 496.943 156.429 497.545 156.045 497.545H150.356ZM166.214 492.318C165.394 492.856 164.984 493.497 164.984 494.24C164.984 494.598 165.1 494.931 165.33 495.239C165.587 495.521 165.932 495.662 166.368 495.662C166.804 495.662 167.15 495.534 167.406 495.277C167.688 495.021 167.829 494.701 167.829 494.317C167.829 494.137 167.79 493.958 167.713 493.778C167.662 493.573 167.547 493.381 167.367 493.202C167.239 493.074 167.137 492.984 167.06 492.933C166.983 492.882 166.945 492.818 166.945 492.741C166.945 492.638 167.021 492.536 167.175 492.433C167.329 492.331 167.521 492.241 167.752 492.164C167.982 492.087 168.239 492.023 168.52 491.972C168.828 491.921 169.123 491.895 169.404 491.895C170.199 491.895 170.826 492.049 171.288 492.356C171.749 492.664 171.98 493.253 171.98 494.124V498.66C170.801 498.66 169.699 498.788 168.674 499.044C167.649 499.275 166.752 499.621 165.984 500.082C165.215 500.543 164.613 501.119 164.177 501.811C163.742 502.478 163.524 503.233 163.524 504.079C163.524 504.694 163.626 505.232 163.831 505.693C164.062 506.129 164.369 506.488 164.754 506.769C165.138 507.026 165.574 507.218 166.061 507.346C166.573 507.474 167.111 507.538 167.675 507.538C168.264 507.538 168.789 507.461 169.251 507.307C169.738 507.179 170.16 507.013 170.519 506.808C170.903 506.577 171.224 506.347 171.48 506.116C171.736 505.86 171.941 505.616 172.095 505.386C172.172 505.924 172.415 506.423 172.825 506.885C173.235 507.32 173.953 507.538 174.977 507.538C175.644 507.538 176.195 507.436 176.63 507.231C177.091 507.026 177.463 506.782 177.745 506.5C178.027 506.218 178.219 505.937 178.321 505.655C178.449 505.347 178.513 505.117 178.513 504.963C178.513 504.835 178.475 504.771 178.398 504.771C178.321 504.771 178.232 504.873 178.129 505.078C177.924 505.514 177.668 505.873 177.36 506.154C177.053 506.411 176.72 506.539 176.361 506.539C175.849 506.539 175.541 506.334 175.439 505.924C175.336 505.488 175.285 504.899 175.285 504.156V494.855C175.285 493.753 174.875 492.907 174.055 492.318C173.235 491.703 171.98 491.395 170.288 491.395C169.494 491.395 168.725 491.485 167.982 491.665C167.265 491.818 166.676 492.036 166.214 492.318ZM171.98 499.044V504.386C171.98 504.617 171.864 504.86 171.634 505.117C171.429 505.373 171.16 505.616 170.826 505.847C170.519 506.052 170.186 506.218 169.827 506.347C169.494 506.475 169.212 506.539 168.982 506.539C168.187 506.539 167.585 506.231 167.175 505.616C166.765 505.001 166.56 504.169 166.56 503.118C166.56 502.273 166.714 501.594 167.021 501.081C167.329 500.569 167.726 500.171 168.213 499.89C168.725 499.608 169.302 499.416 169.942 499.313C170.609 499.185 171.288 499.095 171.98 499.044ZM186.176 506.385V481.172H180.18V481.787H182.87V506.385H180.18V507H188.866V506.385H186.176Z" fill="black"/>
<circle cx="142" cy="445" r="32" fill="#F8169D"/>
</svg>
