<svg width="104" height="222" viewBox="0 0 104 222" fill="none" xmlns="http://www.w3.org/2000/svg">
<path d="M0.139966 175.159C0.139964 190.418 4.78406 201.917 14.0723 209.658C23.1393 217.398 35.6341 221.268 51.5568 221.268C59.9604 221.268 67.4794 220.273 74.1138 218.282C80.5271 216.513 85.9452 214.081 90.3682 210.984C94.7911 208.11 98.2189 204.682 100.652 200.701C102.863 196.942 103.969 193.072 103.969 189.091C103.969 184.004 102.31 179.803 98.9929 176.485C95.4546 173.168 91.1422 171.51 86.0558 171.51C80.306 171.51 75.7724 173.168 72.4552 176.485C69.138 179.803 67.4794 183.894 67.4794 188.759C67.4794 192.298 68.5851 195.504 70.7966 198.379C73.0081 201.475 76.657 203.576 81.7434 204.682C82.628 204.903 83.0703 205.235 83.0703 205.677C83.0703 206.34 82.5174 207.225 81.4117 208.331C80.306 209.436 78.5368 210.542 76.1042 211.648C73.4504 212.754 70.1332 213.749 66.1525 214.633C61.9507 215.518 56.8643 215.96 50.8933 215.96C39.3937 215.96 30.9901 213.417 25.6825 208.331C20.375 203.244 17.7212 197.716 17.7212 191.745C17.7212 187.322 18.8269 182.899 21.0384 178.476C23.2499 174.053 26.2354 169.519 29.9949 164.875C33.091 161.116 36.187 157.688 39.2831 154.592C42.3792 151.496 45.4752 148.289 48.5713 144.972C51.4462 141.876 54.3211 138.448 57.196 134.689C59.8498 131.15 62.2824 126.838 64.4939 121.751C65.5997 118.877 66.3737 115.67 66.816 112.131C67.2583 108.814 67.4794 105.276 67.4794 101.516C67.4794 94.882 67.0371 88.3581 66.1525 81.9449C65.0468 75.5316 64.1622 70.5557 63.4988 67.0174C63.2776 65.4694 62.393 64.6953 60.845 64.6953C59.0758 64.6953 58.1912 65.4694 58.1912 67.0174C58.1912 68.1231 58.3018 69.1183 58.5229 70.0029C58.5229 71.1086 58.6335 72.4355 58.8547 73.9835C59.0758 75.3104 59.1864 76.969 59.1864 78.9594C59.1864 81.1708 59.1864 83.4929 59.1864 85.9255C59.1864 89.4639 57.6383 93.334 54.5423 97.5358C51.2251 101.738 47.2444 106.161 42.6003 110.805C37.7351 115.449 32.6487 120.203 27.3411 125.069C22.0336 129.934 17.3895 134.799 13.4088 139.664C8.76472 145.414 5.44751 151.275 3.45718 157.246C1.2457 163.217 0.139966 169.188 0.139966 175.159ZM43.2638 18.5861C43.2638 23.6725 45.0329 27.8743 48.5713 31.1915C51.8885 34.7298 56.0903 36.499 61.1767 36.499C66.2631 36.499 70.5755 34.7298 74.1138 31.1915C77.4311 27.8743 79.0897 23.6725 79.0897 18.5861C79.0897 13.4997 77.4311 9.18729 74.1138 5.64893C70.5755 2.33172 66.2631 0.67311 61.1767 0.673109C56.0903 0.673109 51.8885 2.33172 48.5713 5.64893C45.0329 9.18729 43.2638 13.4997 43.2638 18.5861Z" fill="#F8169D"/>
</svg>
