<svg width="360" height="149" viewBox="0 0 360 149" fill="none" xmlns="http://www.w3.org/2000/svg">
<rect x="43.0605" y="67.9463" width="277.377" height="73.537" fill="black"/>
<path d="M189.928 132.468C190.737 132.468 191.465 132.288 192.112 131.929C192.778 131.551 193.335 131.084 193.784 130.526C194.252 129.969 194.611 129.358 194.863 128.693C195.115 128.028 195.24 127.398 195.24 126.805C195.24 126.212 195.115 125.583 194.863 124.918C194.611 124.253 194.252 123.641 193.784 123.084C193.335 122.527 192.778 122.068 192.112 121.709C191.465 121.331 190.737 121.143 189.928 121.143C189.119 121.143 188.382 121.331 187.717 121.709C187.07 122.068 186.513 122.527 186.045 123.084C185.578 123.641 185.218 124.253 184.967 124.918C184.715 125.583 184.589 126.212 184.589 126.805C184.589 127.398 184.715 128.028 184.967 128.693C185.218 129.358 185.578 129.969 186.045 130.526C186.513 131.084 187.07 131.551 187.717 131.929C188.382 132.288 189.119 132.468 189.928 132.468ZM187.394 126.212C187.394 125.457 187.421 124.792 187.474 124.217C187.546 123.641 187.672 123.156 187.852 122.761C188.032 122.365 188.283 122.068 188.607 121.871C188.949 121.673 189.389 121.574 189.928 121.574C190.468 121.574 190.899 121.673 191.223 121.871C191.564 122.068 191.816 122.365 191.978 122.761C192.157 123.156 192.274 123.641 192.328 124.217C192.4 124.792 192.436 125.457 192.436 126.212V127.371C192.436 128.18 192.4 128.882 192.328 129.475C192.274 130.05 192.157 130.526 191.978 130.904C191.816 131.281 191.564 131.569 191.223 131.767C190.899 131.947 190.468 132.036 189.928 132.036C189.389 132.036 188.949 131.947 188.607 131.767C188.283 131.569 188.032 131.281 187.852 130.904C187.672 130.526 187.546 130.05 187.474 129.475C187.421 128.882 187.394 128.18 187.394 127.371V126.212ZM196.515 131.659V132.09H202.879V131.659H200.856V121.952H203.04V121.52H200.856V116.235C200.856 114.887 201.324 114.213 202.258 114.213C202.618 114.213 202.906 114.267 203.121 114.374C203.355 114.482 203.472 114.572 203.472 114.644C203.472 114.698 203.454 114.734 203.418 114.752C203.238 114.842 203.103 114.968 203.013 115.129C202.923 115.273 202.879 115.435 202.879 115.615C202.879 115.902 202.968 116.127 203.148 116.289C203.328 116.433 203.544 116.505 203.795 116.505C204.101 116.505 204.317 116.415 204.443 116.235C204.586 116.037 204.658 115.813 204.658 115.561C204.658 115.129 204.434 114.725 203.984 114.347C203.553 113.97 202.959 113.781 202.204 113.781C201.629 113.781 201.054 113.952 200.479 114.294C199.903 114.635 199.436 115.228 199.077 116.073C198.825 116.684 198.672 117.386 198.618 118.176C198.564 118.967 198.537 119.696 198.537 120.361V121.52H196.542V121.952H198.537V131.659H196.515ZM217.341 123.408V113.97H213.135V114.401H215.022V131.659H213.135V132.09H219.229V131.659H217.341V124.918C217.341 124.63 217.413 124.315 217.557 123.974C217.719 123.614 217.943 123.282 218.231 122.976C218.519 122.653 218.851 122.383 219.229 122.167C219.606 121.952 220.029 121.844 220.496 121.844C220.874 121.844 221.17 121.907 221.386 122.032C221.602 122.158 221.763 122.32 221.871 122.518C221.979 122.716 222.042 122.94 222.06 123.192C222.096 123.426 222.114 123.668 222.114 123.92V131.659H220.253V132.09H226.32V131.659H224.433V123.623C224.433 122.814 224.154 122.203 223.597 121.79C223.058 121.358 222.303 121.143 221.332 121.143C220.271 121.143 219.417 121.367 218.77 121.817C218.141 122.266 217.665 122.796 217.341 123.408ZM236.642 125.538C236.624 125.25 236.525 124.855 236.346 124.351C236.184 123.848 235.923 123.363 235.564 122.895C235.204 122.428 234.728 122.023 234.135 121.682C233.541 121.322 232.813 121.143 231.95 121.143C231.231 121.143 230.557 121.313 229.928 121.655C229.317 121.997 228.787 122.437 228.337 122.976C227.888 123.516 227.537 124.127 227.286 124.81C227.034 125.493 226.908 126.185 226.908 126.886C226.908 127.587 227.034 128.27 227.286 128.935C227.537 129.601 227.888 130.194 228.337 130.715C228.787 131.236 229.326 131.659 229.955 131.982C230.602 132.306 231.303 132.468 232.058 132.468C232.669 132.468 233.227 132.378 233.73 132.198C234.233 132.036 234.674 131.812 235.051 131.524C235.447 131.218 235.779 130.868 236.049 130.472C236.319 130.077 236.534 129.663 236.696 129.232C236.75 129.106 236.777 128.98 236.777 128.855C236.777 128.729 236.723 128.666 236.615 128.666C236.525 128.666 236.445 128.756 236.373 128.935C236.211 129.313 236.004 129.69 235.752 130.068C235.519 130.445 235.222 130.778 234.863 131.066C234.521 131.353 234.126 131.587 233.676 131.767C233.227 131.947 232.705 132.036 232.112 132.036C231.393 132.036 230.809 131.767 230.359 131.227C229.928 130.688 229.712 129.825 229.712 128.639V125.888H236.211C236.498 125.888 236.642 125.772 236.642 125.538ZM229.712 125.457V124.378C229.712 123.785 229.775 123.309 229.901 122.949C230.045 122.572 230.225 122.284 230.44 122.086C230.656 121.889 230.899 121.754 231.168 121.682C231.438 121.61 231.708 121.574 231.977 121.574C232.409 121.574 232.759 121.655 233.029 121.817C233.317 121.961 233.541 122.158 233.703 122.41C233.865 122.662 233.973 122.94 234.027 123.246C234.081 123.551 234.108 123.866 234.108 124.19C234.108 125.035 233.973 125.457 233.703 125.457H229.712ZM242.537 123.084V121.52H238.33V121.952H240.218V131.659H238.33V132.09H244.424V131.659H242.537V124.271C242.537 123.983 242.618 123.686 242.779 123.381C242.959 123.075 243.184 122.796 243.453 122.545C243.741 122.293 244.056 122.095 244.397 121.952C244.739 121.79 245.071 121.709 245.395 121.709C245.593 121.709 245.763 121.727 245.907 121.763C246.069 121.781 246.15 121.844 246.15 121.952C246.15 122.041 246.105 122.104 246.015 122.14C245.907 122.212 245.781 122.338 245.638 122.518C245.494 122.68 245.422 122.94 245.422 123.3C245.422 123.677 245.548 123.992 245.799 124.244C246.051 124.477 246.384 124.594 246.797 124.594C247.157 124.594 247.471 124.477 247.741 124.244C248.01 123.992 248.145 123.65 248.145 123.219C248.145 122.859 248.073 122.563 247.93 122.329C247.786 122.077 247.597 121.88 247.363 121.736C247.148 121.574 246.887 121.457 246.581 121.385C246.294 121.313 245.997 121.277 245.692 121.277C245.26 121.277 244.874 121.34 244.532 121.466C244.19 121.592 243.885 121.745 243.615 121.925C243.346 122.104 243.121 122.302 242.941 122.518C242.761 122.716 242.627 122.904 242.537 123.084ZM271.387 121.277C270.309 121.277 269.446 121.502 268.799 121.952C268.152 122.401 267.666 122.94 267.343 123.569C267.307 123.084 267.199 122.689 267.019 122.383C266.857 122.077 266.651 121.844 266.399 121.682C266.165 121.52 265.905 121.412 265.617 121.358C265.329 121.304 265.051 121.277 264.781 121.277C264.458 121.277 264.107 121.313 263.729 121.385C263.37 121.439 263.01 121.556 262.651 121.736C262.291 121.898 261.941 122.131 261.599 122.437C261.276 122.725 260.988 123.102 260.736 123.569V121.52H256.665V121.952H258.417V131.659H256.665V132.09H262.462V131.659H260.736V124.864C260.736 124.648 260.808 124.378 260.952 124.055C261.114 123.713 261.33 123.39 261.599 123.084C261.869 122.761 262.175 122.491 262.516 122.275C262.876 122.059 263.244 121.952 263.622 121.952C263.999 121.952 264.278 122.032 264.458 122.194C264.655 122.338 264.79 122.518 264.862 122.734C264.952 122.949 264.997 123.174 264.997 123.408C265.015 123.623 265.024 123.812 265.024 123.974V131.659H263.271V132.09H269.095V131.659H267.343V125.079C267.343 124.81 267.415 124.495 267.558 124.136C267.702 123.776 267.9 123.435 268.152 123.111C268.421 122.787 268.727 122.518 269.069 122.302C269.428 122.068 269.824 121.952 270.255 121.952C270.561 121.952 270.803 122.005 270.983 122.113C271.163 122.221 271.298 122.374 271.387 122.572C271.495 122.752 271.558 122.967 271.576 123.219C271.612 123.453 271.63 123.704 271.63 123.974V131.659H269.931V132.09H275.702V131.659H273.949V123.677C273.949 123.03 273.751 122.473 273.356 122.005C272.978 121.52 272.322 121.277 271.387 121.277ZM279.073 121.79C278.498 122.167 278.21 122.617 278.21 123.138C278.21 123.39 278.291 123.623 278.453 123.839C278.633 124.037 278.875 124.136 279.181 124.136C279.487 124.136 279.729 124.046 279.909 123.866C280.107 123.686 280.206 123.462 280.206 123.192C280.206 123.066 280.179 122.94 280.125 122.814C280.089 122.671 280.008 122.536 279.882 122.41C279.792 122.32 279.72 122.257 279.666 122.221C279.612 122.185 279.585 122.14 279.585 122.086C279.585 122.014 279.639 121.943 279.747 121.871C279.855 121.799 279.99 121.736 280.152 121.682C280.313 121.628 280.493 121.583 280.691 121.547C280.907 121.511 281.113 121.493 281.311 121.493C281.868 121.493 282.309 121.601 282.632 121.817C282.956 122.032 283.118 122.446 283.118 123.057V126.239C282.291 126.239 281.518 126.329 280.799 126.509C280.08 126.67 279.451 126.913 278.911 127.237C278.372 127.56 277.95 127.965 277.644 128.45C277.338 128.917 277.186 129.448 277.186 130.041C277.186 130.472 277.257 130.85 277.401 131.174C277.563 131.479 277.779 131.731 278.048 131.929C278.318 132.108 278.624 132.243 278.965 132.333C279.325 132.423 279.702 132.468 280.098 132.468C280.511 132.468 280.88 132.414 281.203 132.306C281.545 132.216 281.841 132.099 282.093 131.956C282.363 131.794 282.588 131.632 282.767 131.47C282.947 131.29 283.091 131.12 283.199 130.958C283.253 131.335 283.423 131.686 283.711 132.009C283.999 132.315 284.502 132.468 285.221 132.468C285.688 132.468 286.075 132.396 286.381 132.252C286.704 132.108 286.965 131.938 287.163 131.74C287.36 131.542 287.495 131.344 287.567 131.147C287.657 130.931 287.702 130.769 287.702 130.661C287.702 130.571 287.675 130.526 287.621 130.526C287.567 130.526 287.504 130.598 287.432 130.742C287.288 131.048 287.109 131.299 286.893 131.497C286.677 131.677 286.443 131.767 286.192 131.767C285.832 131.767 285.617 131.623 285.545 131.335C285.473 131.03 285.437 130.616 285.437 130.095V123.569C285.437 122.796 285.149 122.203 284.574 121.79C283.999 121.358 283.118 121.143 281.931 121.143C281.374 121.143 280.835 121.206 280.313 121.331C279.81 121.439 279.397 121.592 279.073 121.79ZM283.118 126.509V130.257C283.118 130.419 283.037 130.589 282.875 130.769C282.731 130.949 282.543 131.12 282.309 131.281C282.093 131.425 281.859 131.542 281.608 131.632C281.374 131.722 281.176 131.767 281.015 131.767C280.457 131.767 280.035 131.551 279.747 131.12C279.46 130.688 279.316 130.104 279.316 129.367C279.316 128.774 279.424 128.297 279.639 127.938C279.855 127.578 280.134 127.3 280.475 127.102C280.835 126.904 281.239 126.769 281.689 126.697C282.156 126.607 282.632 126.545 283.118 126.509ZM293.104 123.569V121.52H288.898V121.952H290.786V131.659H288.898V132.09H294.992V131.659H293.104V124.972C293.104 124.666 293.185 124.342 293.347 124.001C293.509 123.641 293.716 123.309 293.967 123.003C294.237 122.698 294.534 122.446 294.857 122.248C295.199 122.05 295.549 121.952 295.909 121.952C296.43 121.952 296.808 122.113 297.041 122.437C297.293 122.761 297.419 123.273 297.419 123.974V131.659H295.531V132.09H301.625V131.659H299.738V123.785C299.738 122.85 299.468 122.203 298.929 121.844C298.408 121.484 297.733 121.304 296.907 121.304C295.918 121.304 295.109 121.529 294.48 121.979C293.868 122.428 293.41 122.958 293.104 123.569Z" fill="white"/>
<rect x="26.5021" y="33.3283" width="276.947" height="73.537" fill="white" stroke="black" stroke-width="0.430041"/>
<path d="M34.5472 4.31108V3.87965H27.2936V4.31108H29.6126V21.5686H27.2936V22H34.5472V21.5686H32.2282V4.31108H34.5472ZM40.8965 13.4791V11.4298H36.69V11.8612H38.5776V21.5686H36.69V22H42.7841V21.5686H40.8965V14.8813C40.8965 14.5757 40.9774 14.2521 41.1392 13.9106C41.301 13.551 41.5077 13.2185 41.7594 12.9129C42.0291 12.6073 42.3257 12.3556 42.6493 12.1578C42.9908 11.9601 43.3414 11.8612 43.7009 11.8612C44.2222 11.8612 44.5997 12.023 44.8334 12.3466C45.0851 12.6702 45.2109 13.1825 45.2109 13.8836V21.5686H43.3234V22H49.4174V21.5686H47.5299V13.6948C47.5299 12.7601 47.2602 12.1129 46.7209 11.7534C46.1996 11.3938 45.5255 11.2141 44.6986 11.2141C43.7099 11.2141 42.9009 11.4388 42.2717 11.8882C41.6605 12.3376 41.2021 12.8679 40.8965 13.4791ZM62.0587 11.4298V7.19632L59.7397 8.3558V11.4298H57.9061V11.8612H59.7397V19.1417C59.7397 20.1484 60.0093 20.9394 60.5486 21.5146C61.0879 22.0899 61.8699 22.3775 62.8946 22.3775C63.9552 22.3775 64.7012 22.1708 65.1326 21.7573C65.5821 21.3259 65.8697 20.7416 65.9955 20.0046C66.0135 19.9147 66.0225 19.8608 66.0225 19.8428C66.0225 19.8248 66.0225 19.7979 66.0225 19.7619C66.0225 19.6181 65.9686 19.5462 65.8607 19.5462C65.7169 19.5462 65.636 19.6361 65.618 19.8159C65.5281 20.4271 65.3214 20.9124 64.9978 21.272C64.6742 21.6135 64.2788 21.7843 63.8114 21.7843C63.1822 21.7843 62.7328 21.5686 62.4631 21.1371C62.1935 20.7057 62.0587 20.0585 62.0587 19.1957V11.8612H64.6742V11.4298H62.0587ZM71.4125 13.3173V3.87965H67.206V4.31108H69.0935V21.5686H67.206V22H73.3V21.5686H71.4125V14.8274C71.4125 14.5397 71.4844 14.2251 71.6282 13.8836C71.79 13.5241 72.0147 13.1915 72.3023 12.8859C72.59 12.5623 72.9225 12.2927 73.3 12.0769C73.6775 11.8612 74.1 11.7534 74.5674 11.7534C74.9449 11.7534 75.2415 11.8163 75.4572 11.9421C75.6729 12.068 75.8347 12.2297 75.9426 12.4275C76.0504 12.6252 76.1134 12.8499 76.1313 13.1016C76.1673 13.3353 76.1853 13.578 76.1853 13.8297V21.5686H74.3247V22H80.3918V21.5686H78.5042V13.533C78.5042 12.7241 78.2256 12.1129 77.6683 11.6994C77.129 11.268 76.374 11.0523 75.4033 11.0523C74.3427 11.0523 73.4888 11.277 72.8416 11.7264C72.2125 12.1758 71.7361 12.7061 71.4125 13.3173ZM90.7136 15.4476C90.6956 15.1599 90.5968 14.7644 90.417 14.2611C90.2552 13.7578 89.9945 13.2724 89.635 12.805C89.2755 12.3376 88.7991 11.9331 88.2059 11.5916C87.6127 11.2321 86.8846 11.0523 86.0217 11.0523C85.3027 11.0523 84.6286 11.2231 83.9994 11.5646C83.3882 11.9062 82.8579 12.3466 82.4084 12.8859C81.959 13.4252 81.6085 14.0364 81.3568 14.7195C81.1051 15.4026 80.9793 16.0947 80.9793 16.7958C80.9793 17.4969 81.1051 18.18 81.3568 18.8451C81.6085 19.5102 81.959 20.1035 82.4084 20.6248C82.8579 21.1461 83.3972 21.5686 84.0263 21.8921C84.6735 22.2157 85.3746 22.3775 86.1296 22.3775C86.7408 22.3775 87.2981 22.2876 87.8014 22.1079C88.3048 21.9461 88.7452 21.7214 89.1227 21.4337C89.5182 21.1281 89.8507 20.7776 90.1204 20.3821C90.39 19.9866 90.6058 19.5732 90.7675 19.1417C90.8215 19.0159 90.8484 18.8901 90.8484 18.7642C90.8484 18.6384 90.7945 18.5755 90.6866 18.5755C90.5968 18.5755 90.5159 18.6654 90.444 18.8451C90.2822 19.2226 90.0754 19.6001 89.8238 19.9776C89.5901 20.3551 89.2935 20.6877 88.9339 20.9753C88.5924 21.263 88.1969 21.4967 87.7475 21.6764C87.2981 21.8562 86.7767 21.9461 86.1835 21.9461C85.4645 21.9461 84.8802 21.6764 84.4308 21.1371C83.9994 20.5978 83.7837 19.735 83.7837 18.5485V15.7981H90.2822C90.5698 15.7981 90.7136 15.6812 90.7136 15.4476ZM83.7837 15.3667V14.2881C83.7837 13.6948 83.8466 13.2185 83.9724 12.8589C84.1162 12.4814 84.296 12.1938 84.5117 11.9961C84.7274 11.7983 84.9701 11.6635 85.2398 11.5916C85.5094 11.5197 85.7791 11.4837 86.0487 11.4837C86.4801 11.4837 86.8307 11.5646 87.1003 11.7264C87.388 11.8702 87.6127 12.068 87.7744 12.3196C87.9362 12.5713 88.0441 12.8499 88.098 13.1555C88.152 13.4611 88.1789 13.7757 88.1789 14.0993C88.1789 14.9442 88.0441 15.3667 87.7744 15.3667H83.7837Z" fill="black"/>
<path d="M54.1162 62.849L51.9072 65.058C49.9223 63.2652 47.4892 62.3688 44.6079 62.3688C42.559 62.3688 40.7342 62.7209 39.1335 63.4252C37.5327 64.0655 36.1881 64.9619 35.0997 66.1144C34.0752 67.267 33.2748 68.5796 32.6986 70.0522C32.1863 71.5249 31.9302 73.0296 31.9302 74.5662C31.9302 76.9353 32.6025 79.0162 33.9471 80.8091C35.3558 82.6019 37.4367 83.8184 40.1899 84.4587C41.0223 84.6508 41.9507 84.8749 42.9752 85.131C43.9997 85.3231 45.0241 85.5792 46.0486 85.8993C47.1371 86.1555 48.1615 86.4756 49.122 86.8598C50.1464 87.1799 51.0428 87.5641 51.8112 88.0123C53.0917 88.7166 53.9561 89.549 54.4043 90.5094C54.9166 91.4699 55.1727 92.4623 55.1727 93.4868C55.1727 94.8314 54.8205 96.0159 54.1162 97.0404C53.4759 98.0008 52.6435 98.8012 51.6191 99.4414C50.5946 100.018 49.5061 100.466 48.3536 100.786C47.2011 101.042 46.1126 101.17 45.0881 101.17C42.1428 101.17 39.5497 100.37 37.3086 98.7691C35.0676 97.1044 33.4989 94.5753 32.6025 91.1817C32.4104 90.6055 32.1543 90.3173 31.8342 90.3173C31.45 90.3173 31.2579 90.5735 31.2579 91.0857V101.362C31.2579 101.875 31.45 102.131 31.8342 102.131C32.0903 102.131 32.3144 101.971 32.5065 101.65L34.5234 98.6731C35.6759 99.8896 37.1166 100.85 38.8453 101.554C40.6381 102.323 42.8151 102.707 45.3763 102.707C47.4892 102.707 49.3461 102.355 50.9468 101.65C52.5475 101.01 53.8921 100.114 54.9806 98.9612C56.1331 97.7447 56.9975 96.3681 57.5738 94.8314C58.15 93.2306 58.4382 91.5019 58.4382 89.645C58.4382 87.2119 57.8299 84.9069 56.6133 82.7299C55.3968 80.5529 53.0917 78.8882 49.6982 77.7357C49.122 77.5436 48.3856 77.3515 47.4892 77.1594C46.5928 76.9033 45.6324 76.6472 44.6079 76.3911C43.6475 76.135 42.6551 75.8788 41.6306 75.6227C40.6702 75.3666 39.8698 75.1425 39.2295 74.9504C37.9489 74.5022 37.0205 73.958 36.4443 73.3177C35.932 72.6134 35.6759 71.6529 35.6759 70.4364C35.6759 68.7716 36.4763 67.267 38.077 65.9224C39.6777 64.5778 41.6946 63.9055 44.1277 63.9055C45.6644 63.9055 47.009 64.1936 48.1615 64.7698C49.3781 65.3461 50.3705 66.0824 51.1389 66.9788C51.9712 67.8752 52.6115 68.8997 53.0597 70.0522C53.572 71.1407 53.9241 72.2292 54.1162 73.3177C54.1802 73.7019 54.3723 73.8939 54.6925 73.8939C54.9486 73.8939 55.0766 73.7019 55.0766 73.3177V63.0411C55.0766 62.5929 54.9806 62.3688 54.7885 62.3688C54.6605 62.3688 54.4364 62.5288 54.1162 62.849ZM78.9381 70.4364V36.8213H63.9554V38.358H70.6784V99.8256H63.9554V101.362H85.6612V99.8256H78.9381V75.8148C78.9381 74.7903 79.1942 73.6698 79.7065 72.4533C80.2827 71.1727 81.0831 69.9882 82.1076 68.8997C83.132 67.7472 84.3165 66.7867 85.6612 66.0184C87.0058 65.2501 88.5104 64.8659 90.1752 64.8659C91.5198 64.8659 92.5763 65.09 93.3446 65.5382C94.113 65.9864 94.6892 66.5626 95.0734 67.267C95.4576 67.9713 95.6817 68.7716 95.7457 69.668C95.8737 70.5004 95.9378 71.3648 95.9378 72.2612V99.8256H89.3108V101.362H110.921V99.8256H104.197V71.2047C104.197 68.3234 103.205 66.1465 101.22 64.6738C99.2993 63.1371 96.6101 62.3688 93.1525 62.3688C89.3748 62.3688 86.3335 63.1691 84.0284 64.7698C81.7874 66.3706 80.0906 68.2594 78.9381 70.4364ZM121.079 64.6738C119.03 66.0184 118.005 67.6191 118.005 69.476C118.005 70.3724 118.293 71.2047 118.87 71.9731C119.51 72.6774 120.374 73.0296 121.463 73.0296C122.551 73.0296 123.416 72.7094 124.056 72.0691C124.76 71.4288 125.112 70.6285 125.112 69.668C125.112 69.2198 125.016 68.7716 124.824 68.3234C124.696 67.8112 124.408 67.331 123.96 66.8828C123.64 66.5626 123.384 66.3385 123.192 66.2105C122.999 66.0824 122.903 65.9224 122.903 65.7303C122.903 65.4742 123.095 65.218 123.48 64.9619C123.864 64.7058 124.344 64.4817 124.92 64.2896C125.497 64.0975 126.137 63.9375 126.841 63.8094C127.61 63.6813 128.346 63.6173 129.05 63.6173C131.035 63.6173 132.604 64.0015 133.756 64.7698C134.909 65.5382 135.485 67.0108 135.485 69.1878V80.5209C132.54 80.5209 129.787 80.8411 127.225 81.4814C124.664 82.0576 122.423 82.922 120.502 84.0745C118.581 85.227 117.077 86.6677 115.988 88.3965C114.9 90.0612 114.356 91.9501 114.356 94.063C114.356 95.5997 114.612 96.9443 115.124 98.0968C115.7 99.1853 116.469 100.082 117.429 100.786C118.389 101.426 119.478 101.907 120.694 102.227C121.975 102.547 123.32 102.707 124.728 102.707C126.201 102.707 127.513 102.515 128.666 102.131C129.883 101.811 130.939 101.394 131.835 100.882C132.796 100.306 133.596 99.7296 134.237 99.1533C134.877 98.513 135.389 97.9047 135.773 97.3285C135.965 98.6731 136.574 99.9217 137.598 101.074C138.622 102.163 140.415 102.707 142.976 102.707C144.641 102.707 146.018 102.451 147.106 101.939C148.259 101.426 149.187 100.818 149.892 100.114C150.596 99.4094 151.076 98.7051 151.332 98.0008C151.652 97.2324 151.812 96.6562 151.812 96.272C151.812 95.9519 151.716 95.7918 151.524 95.7918C151.332 95.7918 151.108 96.0479 150.852 96.5601C150.34 97.6486 149.699 98.545 148.931 99.2494C148.163 99.8896 147.33 100.21 146.434 100.21C145.153 100.21 144.385 99.6976 144.129 98.6731C143.873 97.5846 143.745 96.1119 143.745 94.2551V71.0126C143.745 68.2594 142.72 66.1465 140.671 64.6738C138.622 63.1371 135.485 62.3688 131.259 62.3688C129.274 62.3688 127.353 62.5929 125.497 63.0411C123.704 63.4252 122.231 63.9695 121.079 64.6738ZM135.485 81.4814V94.8314C135.485 95.4076 135.197 96.0159 134.621 96.6562C134.108 97.2965 133.436 97.9047 132.604 98.481C131.835 98.9932 131.003 99.4094 130.107 99.7296C129.274 100.05 128.57 100.21 127.994 100.21C126.009 100.21 124.504 99.4414 123.48 97.9047C122.455 96.3681 121.943 94.2871 121.943 91.6619C121.943 89.549 122.327 87.8522 123.096 86.5716C123.864 85.2911 124.856 84.2986 126.073 83.5943C127.353 82.89 128.794 82.4098 130.395 82.1537C132.06 81.8335 133.756 81.6094 135.485 81.4814ZM177.202 38.358H184.502V67.5551C182.133 64.0975 178.643 62.3688 174.033 62.3688C171.728 62.3688 169.487 62.945 167.31 64.0975C165.133 65.2501 163.212 66.7867 161.547 68.7076C159.883 70.5644 158.538 72.7094 157.513 75.1425C156.489 77.5116 155.977 79.9447 155.977 82.4418C155.977 85.131 156.521 87.7242 157.61 90.2213C158.762 92.6544 160.203 94.7994 161.931 96.6562C163.66 98.513 165.581 99.9857 167.694 101.074C169.807 102.163 171.824 102.707 173.745 102.707C176.306 102.707 178.451 102.067 180.18 100.786C181.908 99.5055 183.349 98.0328 184.502 96.3681V101.362H200.061V99.8256H192.761V36.8213H177.202V38.358ZM165.965 80.0407C165.965 74.086 166.606 69.9242 167.886 67.5551C169.167 65.122 171.344 63.9055 174.417 63.9055C175.762 63.9055 176.946 64.1296 177.971 64.5778C179.059 65.026 179.988 65.6342 180.756 66.4026C181.588 67.1069 182.293 67.8752 182.869 68.7076C183.509 69.54 184.053 70.3403 184.502 71.1087V93.5828C183.093 95.9519 181.524 97.8087 179.796 99.1533C178.131 100.498 176.242 101.17 174.129 101.17C172.784 101.17 171.6 100.914 170.575 100.402C169.551 99.8256 168.687 98.9292 167.982 97.7127C167.342 96.4321 166.83 94.7353 166.446 92.6224C166.125 90.5094 165.965 87.8842 165.965 84.7468V80.0407ZM221.219 102.707C224.101 102.707 226.694 102.067 228.999 100.786C231.368 99.4414 233.353 97.7767 234.954 95.7918C236.618 93.8069 237.899 91.6299 238.795 89.2609C239.692 86.8918 240.14 84.6508 240.14 82.5378C240.14 80.4249 239.692 78.1839 238.795 75.8148C237.899 73.4457 236.618 71.2688 234.954 69.2839C233.353 67.299 231.368 65.6662 228.999 64.3857C226.694 63.0411 224.101 62.3688 221.219 62.3688C218.338 62.3688 215.713 63.0411 213.344 64.3857C211.039 65.6662 209.054 67.299 207.389 69.2839C205.724 71.2688 204.444 73.4457 203.547 75.8148C202.651 78.1839 202.203 80.4249 202.203 82.5378C202.203 84.6508 202.651 86.8918 203.547 89.2609C204.444 91.6299 205.724 93.8069 207.389 95.7918C209.054 97.7767 211.039 99.4414 213.344 100.786C215.713 102.067 218.338 102.707 221.219 102.707ZM212.191 80.4249C212.191 77.7357 212.287 75.3666 212.479 73.3177C212.736 71.2688 213.184 69.54 213.824 68.1314C214.464 66.7227 215.361 65.6662 216.513 64.9619C217.73 64.2576 219.299 63.9055 221.219 63.9055C223.14 63.9055 224.677 64.2576 225.829 64.9619C227.046 65.6662 227.942 66.7227 228.519 68.1314C229.159 69.54 229.575 71.2688 229.767 73.3177C230.023 75.3666 230.151 77.7357 230.151 80.4249V84.5547C230.151 87.436 230.023 89.9332 229.767 92.0461C229.575 94.095 229.159 95.7918 228.519 97.1364C227.942 98.481 227.046 99.5055 225.829 100.21C224.677 100.85 223.14 101.17 221.219 101.17C219.299 101.17 217.73 100.85 216.513 100.21C215.361 99.5055 214.464 98.481 213.824 97.1364C213.184 95.7918 212.736 94.095 212.479 92.0461C212.287 89.9332 212.191 87.436 212.191 84.5547V80.4249ZM242.904 63.7134V65.2501H249.147L262.593 102.419H263.457L271.813 76.9673L281.898 102.419H282.666L294.287 65.2501H300.914V63.7134H284.779V65.2501H292.751L285.259 89.3569L275.175 63.7134H274.502L266.243 89.2609L257.503 65.2501H263.842V63.7134H242.904Z" fill="black"/>
</svg>
