<svg width="1440" height="937" viewBox="0 0 1440 937" fill="none" xmlns="http://www.w3.org/2000/svg">
<path d="M118.786 2.24121V936.84" stroke="black" stroke-width="1.12679"/>
<path d="M307.05 2.24121V936.84" stroke="black" stroke-width="1.12679"/>
<path d="M494.194 2.24121V936.84" stroke="black" stroke-width="1.12679"/>
<path d="M681.338 2.24121V936.84" stroke="black" stroke-width="1.12679"/>
<path d="M871.845 2.24121V936.84" stroke="black" stroke-width="1.12679"/>
<path d="M1060.11 2.24121V936.84" stroke="black" stroke-width="1.12679"/>
<path d="M1247.25 2.24121V936.84" stroke="black" stroke-width="1.12679"/>
<path d="M188.265 2.24121V936.84" stroke="black" stroke-width="1.12679"/>
<path d="M376.529 2.24121V936.84" stroke="black" stroke-width="1.12679"/>
<path d="M563.673 2.24121V936.84" stroke="black" stroke-width="1.12679"/>
<path d="M750.817 2.24121V936.84" stroke="black" stroke-width="1.12679"/>
<path d="M941.323 2.24121V936.84" stroke="black" stroke-width="1.12679"/>
<path d="M1129.59 2.24121V936.84" stroke="black" stroke-width="1.12679"/>
<path d="M1316.73 2.24121V936.84" stroke="black" stroke-width="1.12679"/>
<rect x="0.563397" y="0.563397" width="1437.75" height="935.714" stroke="black" stroke-width="1.12679"/>
<path d="M0 248.778H1438.88" stroke="black" stroke-width="1.12679"/>
<path d="M0 592.809H1440" stroke="black" stroke-width="1.12679"/>
<path d="M0 341.79H1438.88" stroke="black" stroke-width="1.12679"/>
<path d="M0 685.821H1438.88" stroke="black" stroke-width="1.12679"/>
</svg>
