<svg width="63" height="52" viewBox="0 0 63 52" fill="none" xmlns="http://www.w3.org/2000/svg">
<path d="M62.9371 6.06076C60.6226 7.05704 58.1039 7.77406 55.5096 8.05333C58.2031 6.45652 60.2202 3.93384 61.1823 0.958577C58.6548 2.45896 55.8859 3.51105 52.9985 4.06819C51.7917 2.78077 50.3321 1.75515 48.7107 1.05524C47.0893 0.355335 45.3408 -0.00386274 43.5742 3.13256e-05C36.4265 3.13256e-05 30.6782 5.7815 30.6782 12.8762C30.6782 13.8725 30.7992 14.8688 30.9958 15.8274C20.2933 15.2688 10.7479 10.1667 4.40204 2.35488C3.24575 4.32568 2.63982 6.56966 2.64728 8.85337C2.64728 13.3216 4.92393 17.2614 8.39565 19.5785C6.34972 19.4981 4.35169 18.937 2.56408 17.9407V18.0992C2.56408 24.3561 6.99638 29.5414 12.9036 30.7339C11.7944 31.0214 10.6535 31.1684 9.50751 31.1716C8.66794 31.1716 7.87376 31.0886 7.07201 30.9754C8.70576 36.0776 13.4633 39.7835 19.1285 39.9042C14.6962 43.3686 9.14445 45.4064 3.11622 45.4064C2.03462 45.4064 1.03622 45.3687 0 45.2479C5.71812 48.9085 12.5027 51.0218 19.8092 51.0218C43.5288 51.0218 56.508 31.4132 56.508 14.3933C56.508 13.8348 56.508 13.2763 56.4702 12.7177C58.9813 10.8837 61.1823 8.61185 62.9371 6.06076Z" fill="white"/>
</svg>
