<svg width="72" height="50" viewBox="0 0 72 50" fill="none" xmlns="http://www.w3.org/2000/svg">
<path d="M69.6987 7.81281C69.2936 6.30409 68.4993 4.92823 67.3954 3.82292C66.2915 2.71761 64.9166 1.92162 63.4084 1.51462C57.8568 0.0214847 35.6027 0.0214844 35.6027 0.0214844C35.6027 0.0214844 13.3485 0.0214841 7.79693 1.50668C6.28806 1.91236 4.9125 2.70791 3.80839 3.81342C2.70427 4.91893 1.91046 6.2955 1.50668 7.80487C0.0214841 13.3644 0.0214844 24.9601 0.0214844 24.9601C0.0214844 24.9601 0.0214841 36.5557 1.50668 42.1074C2.32473 45.1731 4.73917 47.5875 7.79693 48.4055C13.3485 49.8987 35.6027 49.8987 35.6027 49.8987C35.6027 49.8987 57.8568 49.8987 63.4084 48.4055C66.4741 47.5875 68.8806 45.1731 69.6987 42.1074C71.1839 36.5557 71.1839 24.9601 71.1839 24.9601C71.1839 24.9601 71.1839 13.3644 69.6987 7.81281ZM28.5341 35.6027V14.3175L46.9601 24.8807L28.5341 35.6027Z" fill="white"/>
</svg>
